<svg width="76" height="52" viewBox="0 0 76 52" fill="none" xmlns="http://www.w3.org/2000/svg">
<path d="M74.4 48.4552H0.400024V48.4922H74.4V48.4552Z" fill="#EBEBEB"/>
<path d="M66.9851 50.8365H62.0834V50.8735H66.9851V50.8365Z" fill="#EBEBEB"/>
<path d="M49.4205 51.2391H48.1344V51.2761H49.4205V51.2391Z" fill="#EBEBEB"/>
<path d="M61.9355 49.4631H59.0953V49.5001H61.9355V49.4631Z" fill="#EBEBEB"/>
<path d="M14.5562 49.7117H8.16406V49.7487H14.5562V49.7117Z" fill="#EBEBEB"/>
<path d="M16.8117 49.7117H15.8749V49.7487H16.8117V49.7117Z" fill="#EBEBEB"/>
<path d="M33.7223 50.3362H19.8577V50.3732H33.7223V50.3362Z" fill="#EBEBEB"/>
<path d="M42.5494 15.2988C45.9456 15.2988 48.6988 12.5456 48.6988 9.1494C48.6988 5.75318 45.9456 3 42.5494 3C39.1532 3 36.4 5.75318 36.4 9.1494C36.4 12.5456 39.1532 15.2988 42.5494 15.2988Z" fill="#F9F7FF"/>
<path d="M17.4 18.1562L22.4775 46L23.4 45.4771L18.0675 18L17.4 18.1562Z" fill="#E2D2FF"/>
<path d="M60.0897 46.4869C60.0897 46.4869 57.437 28.4067 63.4 9.71332L62.4657 9C62.4657 9 55.4847 23.1413 56.5012 47L60.0897 46.4869Z" fill="#E2D2FF"/>
<path d="M66.0035 4.39992C69.5057 3.0802 74.6879 5.17922 75.4 8.45958C74.8852 8.28898 74.3471 8.14283 73.7909 8.02259C73.5197 7.19668 73.2587 6.4669 73.2587 6.4669L73.4462 7.9483C73.1371 7.88421 72.8 7.82158 72.4326 7.76477L72.1792 6.96798L72.0651 7.71233C71.5692 7.64575 71.0664 7.5971 70.5599 7.56666L69.9061 5.23603L69.5766 7.52005C69.0579 7.51178 68.5387 7.52492 68.0232 7.55938L67.6228 5.97747V7.59143C67.1792 7.63264 66.7406 7.69054 66.3102 7.76477L65.8312 5.40501C65.8312 5.40501 65.8439 6.73201 65.8185 7.85799C64.5793 8.11613 63.4333 8.50326 62.438 9L62.4 8.70867C62.4 8.70867 62.8029 5.60311 66.0035 4.39992Z" fill="#E2D2FF"/>
<path d="M61.0376 3.00293C58.8316 0.834147 54.1227 2.33737 52.4 6.02517C52.8542 5.91842 53.3177 5.84499 53.7858 5.80566C54.2892 4.89425 54.7524 4.09171 54.7524 4.09171L54.0766 5.78107C54.3353 5.76351 54.6141 5.75298 54.9129 5.75298L55.3842 4.87493L55.2037 5.76176C55.6066 5.77136 56.0085 5.80303 56.407 5.85659L57.7446 3.2681L57.1791 5.99005C57.5789 6.07322 57.971 6.1824 58.3523 6.31668L59.2287 4.54829L58.6531 6.42029C58.9782 6.54751 59.2925 6.6948 59.5937 6.86107L60.811 4.20059C60.811 4.20059 60.3217 5.74244 59.9366 7.056C60.7902 7.58176 61.5258 8.24077 62.1065 9L62.2409 8.6681C62.2409 8.6681 63.0451 4.9838 61.0376 3.00293Z" fill="#E2D2FF"/>
<path d="M59.1151 9.07296C61.5624 6.84092 63.4 8.78382 63.4 8.78382C62.4812 9.0064 61.6603 9.55765 60.9528 10.2587L60.6213 9.85511L60.6747 10.5437C60.5056 10.7267 60.341 10.9181 60.183 11.1157L59.6224 9.92376L59.8626 11.538C59.6402 11.8459 59.4177 12.162 59.233 12.4782L58.9861 11.2967L59.0061 12.8631C58.8014 13.2167 58.619 13.5641 58.4566 13.8907L58.1896 11.721L58.154 14.5272C57.7625 15.3926 57.5578 16 57.5578 16C57.5578 16 56.6679 11.3071 59.1151 9.07296Z" fill="#E2D2FF"/>
<path d="M66.1434 14.7268L65.4039 15.0613C65.2964 14.6145 65.1693 14.1472 65.0292 13.6723L65.5309 12.9498L64.8989 13.2562C64.85 13.0979 64.7946 12.9421 64.7425 12.7838L65.3941 11.3694L64.4167 11.9336C63.8954 10.657 63.2308 9.53617 62.4 9C62.4 9 70.6166 11.0579 65.9838 18C65.9838 18 65.8339 16.9021 65.5049 15.4596L66.1434 14.7268Z" fill="#E2D2FF"/>
<path d="M60.7443 9.01258L59.9586 7.84658L60.2847 9.06168C60.2061 9.07088 60.1256 9.08316 60.045 9.09543L59.0177 8.09666L59.2711 9.24578C58.92 9.32881 58.5757 9.4282 58.2398 9.54342C57.8738 9.67158 57.5165 9.81445 57.1693 9.97147L56.6684 8.95121L56.9022 10.0927C56.5623 10.2461 56.2304 10.4195 55.92 10.5944L55.6725 9.69531L55.6961 10.7186C55.3032 10.9396 54.9379 11.1635 54.6 11.3829L54.6315 9.75361L54.327 11.5624C53.9813 11.7926 53.669 12.0135 53.4038 12.2099L53.3665 11.0792L52.9991 12.5152C52.6181 12.8113 52.4 13 52.4 13C52.5965 9.04327 54.5607 7.47684 57.8097 7.04726C61.0586 6.61768 63.4 9.25806 63.4 9.25806C63.4 9.25806 62.3904 8.88371 60.7443 9.01258Z" fill="#E2D2FF"/>
<path d="M70.9036 15.4452L70.5333 17.116C70.3543 16.7031 70.1116 16.1736 69.7977 15.5835L70.1312 13.1519L69.5231 15.0691C69.0477 14.1973 68.4968 13.3591 67.8753 12.5618L68.454 10.8759L67.5173 12.1274C67.3285 11.9113 67.1348 11.6951 66.9338 11.4963L67.2623 10.435L66.7548 11.3233C66.6175 11.1893 66.4752 11.0618 66.3306 10.9386L66.7303 9.52288L66.0952 10.7484C65.7 10.4298 65.2648 10.152 64.7981 9.92058L65.443 8.19144L64.4327 9.76064C63.7975 9.49799 63.1014 9.36994 62.4 9.38671C62.4 9.38671 63.626 7.65757 65.8794 7.06317C68.1328 6.46878 72.9902 10.0654 70.8815 18C70.8815 18 70.8177 17.8206 70.6902 17.5115L70.9036 15.4452Z" fill="#E2D2FF"/>
<path d="M70.7614 1.88982L71.4127 2.69507C71.1723 2.70073 70.9335 2.71519 70.6992 2.73827L69.9151 1.68938L70.4378 2.76419C69.9404 2.82611 69.4659 2.91624 69.0274 3.03203L67.9488 1.6168L68.5711 3.1599C68.3969 3.21346 68.2226 3.27222 68.0442 3.3327L66.8246 2.00387L67.7414 3.45538C66.84 3.83126 66.0705 4.25825 65.4557 4.72373L65.1362 2.76419L64.597 5.42356C63.7027 6.25516 62.981 7.11712 62.4398 8C62.4398 8 61.7761 0.915236 65.8705 0.12036C69.9649 -0.674516 72.4 2.7279 72.4 2.7279C72.2179 2.70555 72.0297 2.69278 71.84 2.68988L70.7614 1.88982Z" fill="#E2D2FF"/>
<path d="M63.3747 11.626L63.1888 14L62.555 11.7115L61.7099 13.502L61.3761 11.8338L60.4 13.0192C60.4 13.0192 60.5204 9.99137 61.1437 8.6073C61.7669 7.22322 63.6388 8.19483 63.3747 11.626Z" fill="#E2D2FF"/>
<path d="M42.2441 29.6725V21.6538C42.2441 21.6538 40.6161 23.3839 39.5401 23.1471C38.4642 22.9103 37.0641 23.7288 37.0641 23.7288C37.0641 23.7288 38.4745 23.523 38.9984 24.0958C39.5224 24.6686 41.8608 24.7292 41.8608 24.7292V29.9655L42.2441 29.6725Z" fill="#E2D2FF"/>
<path d="M49.4222 27.2144H49.0522V27.719H47.8327V27.2144H46.6339V27.719H45.4144V27.2144H44.217V27.719H42.996V27.2144H41.7987V27.719H40.5792V27.2144H39.3804V27.719H38.1609V27.2144H36.9621V27.719H35.7426V27.2144H35.3326L34.1442 36.716L50.6506 36.6479L49.4222 27.2144Z" fill="#E2D2FF"/>
<path d="M52.0476 34.1111H51.54V34.8037H49.8646V34.1111H48.2188V34.8037H46.542V34.1111H44.8962V34.8037H43.2209V34.1111H41.5751V34.8037H39.8983V34.1111H38.2525V34.8037H36.5757V34.1111H34.9299V34.8037H33.2546V34.1111H32.6907L31.0568 47.1662L53.7378 47.0714L52.0476 34.1111Z" fill="#EADEFD"/>
<path d="M63.4257 45.6285C63.0749 45.2333 62.7449 44.8293 62.3779 44.4445C62.3589 44.4253 62.3415 44.4045 62.3261 44.3823C62.2052 44.3041 62.0791 44.2344 61.9487 44.1736C61.925 44.1662 61.848 44.1351 61.7696 44.1055C61.6216 44.0523 61.4736 43.9945 61.3256 43.9353C60.4065 43.5653 59.5807 43.1361 58.8865 42.4065C58.5062 42.0069 58.2028 41.5407 57.8091 41.1529C57.7987 41.1663 57.7218 41.1248 57.6848 41.0952L57.3888 41.0567C57.2304 41.0567 57.0706 41.0567 56.9122 41.0671C56.6858 41.0775 56.4593 41.0952 56.2329 41.1159C55.3449 42.4065 54.2349 44.1692 53.7435 44.4015C52.9813 44.7627 45.9573 46.6215 45.4393 46.5076C44.9213 46.3936 42.2099 46.6171 41.5291 46.5919C40.8483 46.5668 39.6155 46.2649 37.8291 45.4435C36.0427 44.6221 35.0689 44.6176 32.9185 43.9324C30.768 43.2471 29.3265 42.9867 28.0685 44.0404C26.8105 45.0942 23.3547 42.8697 22.2773 42.553C21.1998 42.2363 19.1397 40.4115 17.7337 41.2625C16.3277 42.1135 15.1585 42.519 13.4017 44.0404C11.6449 45.5619 8.15955 48.5026 8.15955 48.5026H67.5075L66.8253 47.3112C66.175 47.2716 65.5393 47.1023 64.9554 46.8134C64.3716 46.5244 63.8515 46.1215 63.4257 45.6285Z" fill="#F9F7FF"/>
<path d="M73.4 48H2.40002V49H73.4V48Z" fill="#F9F7FF"/>
<path d="M6.40002 22.8303C6.40002 22.8303 9.07121 18.6424 16.3088 15.0288C16.3088 15.0288 22.2006 14.5921 28.8522 17.1188C28.8522 17.1188 30.2004 19.0691 28.6668 19.8389C27.1332 20.6087 25.8629 19.0612 25.8629 19.0612C25.8629 19.0612 25.579 21.4184 23.5739 21.4862C21.5688 21.554 20.9874 19.8389 20.9874 19.8389C20.9874 19.8389 20.7906 22.0027 18.4032 22.5491C16.3386 23.0297 15.0568 21.4862 15.0568 21.4862C15.0568 21.4862 14.6448 23.265 12.7884 23.7775C11.2961 24.1883 10.2706 23.0696 10.2706 23.0696C10.2706 23.0696 9.84259 25 8.25864 25C6.89672 25 6.40002 22.8303 6.40002 22.8303Z" fill="#E2D2FF"/>
</svg>
