<svg width="648" height="304" viewBox="0 0 648 304" fill="none" xmlns="http://www.w3.org/2000/svg">
<circle opacity="0.03" cx="485" cy="150" r="484.5" fill="#00355F" stroke="#00B1B0"/>
<circle opacity="0.03" cx="485" cy="150" r="342.5" fill="#00355F" stroke="#00B1B0"/>
<circle opacity="0.05" cx="485" cy="150" r="220.5" fill="#00355F" stroke="#00B1B0"/>
<circle opacity="0.1" cx="485" cy="150" r="130.5" fill="#00355F" stroke="#00B1B0"/>
<rect x="433" y="98" width="104" height="104" rx="52" fill="#00355F"/>
<path d="M495.168 157.624C497.049 155.637 498.306 153.142 498.784 150.448C499.263 147.754 498.941 144.979 497.859 142.465C496.778 139.952 494.983 137.811 492.698 136.307C490.412 134.802 487.736 134 485 134C482.264 134 479.588 134.802 477.302 136.307C475.017 137.811 473.222 139.952 472.141 142.465C471.059 144.979 470.737 147.754 471.216 150.448C471.694 153.142 472.951 155.637 474.832 157.624C475.911 155.902 477.411 154.482 479.189 153.498C480.968 152.514 482.967 151.999 485 152C487.033 151.999 489.032 152.514 490.811 153.498C492.589 154.482 494.089 155.902 495.168 157.624ZM477.77 160.57L485 167.798L492.23 160.57C491.582 159.201 490.558 158.044 489.278 157.234C487.998 156.424 486.515 155.994 485 155.994C483.485 155.994 482.002 156.424 480.722 157.234C479.442 158.044 478.418 159.201 477.77 160.57ZM485 173.456L472.272 160.728C469.755 158.21 468.04 155.003 467.346 151.512C466.651 148.02 467.008 144.401 468.37 141.112C469.733 137.823 472.04 135.011 475 133.034C477.96 131.056 481.44 130 485 130C488.56 130 492.04 131.056 495 133.034C497.96 135.011 500.267 137.823 501.63 141.112C502.992 144.401 503.349 148.02 502.654 151.512C501.96 155.003 500.245 158.21 497.728 160.728L485 173.456ZM485 146C485.53 146 486.039 145.789 486.414 145.414C486.789 145.039 487 144.53 487 144C487 143.469 486.789 142.961 486.414 142.586C486.039 142.211 485.53 142 485 142C484.47 142 483.961 142.211 483.586 142.586C483.211 142.961 483 143.469 483 144C483 144.53 483.211 145.039 483.586 145.414C483.961 145.789 484.47 146 485 146ZM485 150C483.409 150 481.883 149.368 480.757 148.242C479.632 147.117 479 145.591 479 144C479 142.409 479.632 140.882 480.757 139.757C481.883 138.632 483.409 138 485 138C486.591 138 488.117 138.632 489.243 139.757C490.368 140.882 491 142.409 491 144C491 145.591 490.368 147.117 489.243 148.242C488.117 149.368 486.591 150 485 150Z" fill="white"/>
</svg>
