<svg width="85" height="32" viewBox="0 0 85 32" fill="none" xmlns="http://www.w3.org/2000/svg">
<path fill-rule="evenodd" clip-rule="evenodd" d="M38.2598 23.2541H40.48V9.14614H38.2598V7.75255H50.2556V11.2615H48.7106V9.19422H42.1699V15.4195H48.5906V16.8612H42.1699V23.2073H49.1699V21.0191H50.6901V24.6489H38.2598V23.2541ZM63.5564 17.4861L61.0223 10.5637C60.8292 10.0108 60.7568 9.482 60.7568 9.482H60.6844C60.6844 9.482 60.6361 10.0108 60.443 10.5637L57.8606 17.4861H63.5564ZM52.3331 23.2534H54.0706L59.7912 7.75187H61.65L67.3706 23.2534H69.1081V24.6482H63.6771V23.2534H65.6325L64.0157 18.9031H57.4019L55.8087 23.2534H57.764V24.6482H52.3331V23.2534ZM80.4061 22.9422C79.875 23.1585 79.1756 23.2066 78.6445 23.2066H74.5896V16.5246H78.9101C80.8889 16.5246 82.2649 17.822 82.2649 19.8659C82.2649 21.3076 81.5655 22.4614 80.4061 22.9422ZM81.5897 12.1262C81.5897 13.9044 80.4309 15.0823 78.7169 15.0823H74.5896V9.19417H78.3307C79.1515 9.19417 79.8268 9.31436 80.3579 9.62622C81.1303 10.107 81.5897 11.0204 81.5897 12.1262ZM72.8998 23.2534H70.6795V24.6482H78.5962C79.5136 24.6482 80.3579 24.5755 81.1303 24.2877C82.796 23.6627 84.0031 21.98 84.0031 19.8893C84.0031 17.8701 82.8926 16.2361 81.1545 15.7313V15.6832C82.4581 15.0342 83.3271 13.7602 83.3271 12.0301C83.3271 10.2753 82.4581 8.90571 81.2517 8.32816C80.4551 7.91951 79.5136 7.75187 78.3307 7.75187H70.6795V9.14546H72.8998V23.2534Z" fill="white"/>
<path d="M16.0692 31.5C24.6678 31.5 31.6346 24.5586 31.6346 15.9987C31.6346 7.44149 24.6679 0.5 16.0692 0.5C7.47041 0.5 0.5 7.44164 0.5 15.9987C0.5 24.5584 7.47046 31.5 16.0692 31.5Z" stroke="white"/>
<path fill-rule="evenodd" clip-rule="evenodd" d="M8.3731 24.749H23.7594V23.4902H8.3731V24.749ZM16.054 11.2915L8.37674 14.6569V13.2671L16.054 9.90044L23.7561 13.2671V14.6569L16.054 11.2915ZM16.056 6.2441C19.4484 6.2441 22.694 8.55557 23.7594 11.673L21.8789 10.8462C20.8581 9.22928 18.8334 7.57696 16.056 7.57696C13.7373 7.57696 11.5412 8.80798 10.2617 10.8019L8.37305 11.6135C9.46 8.5309 12.7012 6.2441 16.056 6.2441ZM19.1403 21.8609H17.5896V16.0367H19.1403V21.8609ZM12.9823 21.8609H14.533V16.0367H12.9823V21.8609ZM9.92184 21.8609H8.37305V16.0367H9.92184V21.8609ZM22.2025 21.8609H23.7532V16.0367H22.2025V21.8609Z" fill="white"/>
</svg>
