<svg width="146" height="146" viewBox="0 0 146 146" fill="none" xmlns="http://www.w3.org/2000/svg">
<g clip-path="url(#clip0)">
<path d="M107.158 39.7936H92.2295V61.4312H107.158V39.7936Z" fill="#E0E0E0"/>
<path d="M106.411 39.7935H91.4829V61.4312H106.411V39.7935Z" fill="#F5F5F5"/>
<path d="M104.556 42.1362H93.3369V59.0856H104.556V42.1362Z" fill="white"/>
<path d="M104.556 59.0855C104.556 59.0855 104.553 59.0557 104.553 59.0021C104.553 58.9456 104.553 58.8652 104.55 58.761C104.55 58.5467 104.547 58.2371 104.544 57.8323C104.541 57.0197 104.538 55.8349 104.535 54.3406C104.53 51.352 104.524 47.1191 104.518 42.1332L104.556 42.1719C101.13 42.1719 97.3318 42.1749 93.3401 42.1749L93.3817 42.1332C93.3788 48.5271 93.3758 54.424 93.3728 59.0825L93.3401 59.0498C96.7573 59.0557 99.5584 59.0617 101.505 59.0676C102.479 59.0706 103.241 59.0736 103.762 59.0766C104.02 59.0795 104.217 59.0795 104.354 59.0795C104.485 59.0855 104.556 59.0855 104.556 59.0855C104.556 59.0855 104.491 59.0885 104.357 59.0885C104.223 59.0885 104.026 59.0914 103.77 59.0914C103.252 59.0944 102.493 59.0974 101.523 59.1004C99.5703 59.1033 96.7633 59.1093 93.3371 59.1182H93.3043V59.0855C93.3014 54.424 93.2984 48.5301 93.2954 42.1362V42.0945H93.3371C97.3289 42.0945 101.127 42.0975 104.553 42.0975H104.592V42.1362C104.583 47.1311 104.577 51.3729 104.574 54.3674C104.571 55.8587 104.565 57.0405 104.565 57.8502C104.562 58.252 104.562 58.5616 104.559 58.7729C104.559 58.8771 104.556 58.9545 104.556 59.0081C104.559 59.0617 104.556 59.0855 104.556 59.0855Z" fill="#E0E0E0"/>
<path d="M106.453 39.7935C106.461 39.7995 106.36 39.9483 106.188 40.1805C106.015 40.4127 105.768 40.7282 105.488 41.0676C105.208 41.4099 104.943 41.7105 104.75 41.9249C104.556 42.1392 104.428 42.2672 104.422 42.2612C104.413 42.2523 104.524 42.1124 104.708 41.8891C104.908 41.6451 105.155 41.3474 105.426 41.017C105.696 40.6866 105.943 40.3889 106.143 40.1448C106.327 39.9215 106.444 39.7846 106.453 39.7935Z" fill="#E0E0E0"/>
<path d="M104.613 59.0322C105.169 59.9192 105.827 60.7408 106.568 61.479L104.613 59.0322Z" fill="white"/>
<path d="M106.572 61.4789C106.566 61.4878 106.432 61.3717 106.229 61.1693C106.03 60.9669 105.762 60.6751 105.491 60.3358C105.22 59.9965 104.994 59.672 104.842 59.4339C104.69 59.1928 104.607 59.038 104.616 59.032C104.625 59.0261 104.726 59.1689 104.89 59.4011C105.053 59.6333 105.286 59.9488 105.557 60.2852C105.827 60.6216 106.083 60.9163 106.274 61.1276C106.461 61.3419 106.581 61.4699 106.572 61.4789Z" fill="#E0E0E0"/>
<path d="M91.48 61.4136C92.1319 60.6099 92.7838 59.8062 93.4357 59.0025L91.48 61.4136Z" fill="white"/>
<path d="M93.4353 59.0022C93.4531 59.0171 93.0304 59.5678 92.4887 60.2346C91.9499 60.9014 91.4974 61.4283 91.4795 61.4164C91.4617 61.4015 91.8844 60.8508 92.4262 60.184C92.9679 59.5142 93.4204 58.9874 93.4353 59.0022Z" fill="#E0E0E0"/>
<path d="M91.483 39.7936C91.5009 39.7787 91.9265 40.2877 92.4326 40.9277C92.9386 41.5677 93.3345 42.0975 93.3166 42.1124C93.2988 42.1273 92.8731 41.6183 92.3671 40.9783C91.861 40.3383 91.4651 39.8055 91.483 39.7936Z" fill="#E0E0E0"/>
<path d="M101.062 45.5773H97.3052V56.2428H101.062V45.5773Z" fill="#E0E0E0"/>
<path d="M77.4653 100.34C76.096 100.739 74.9886 101.816 74.3427 103.084C73.6938 104.355 73.4676 105.802 73.4467 107.228C73.408 109.987 74.6046 112.928 75.9918 115.312C78.5369 113.604 79.5043 110.187 79.8883 108.421C80.4926 105.632 79.8942 100.224 77.4653 100.34Z" fill="#F5F5F5"/>
<path d="M72.7592 119.465C73.3218 117.974 72.8961 116.208 71.8513 115.006C70.8065 113.803 69.214 113.151 67.6244 113.071C66.8892 113.035 66.0736 113.145 65.5824 113.693C65.121 114.205 65.0645 114.991 65.3056 115.637C65.5437 116.283 66.0349 116.804 66.5677 117.241C68.3864 118.739 70.4285 119.852 72.7592 119.465Z" fill="#F5F5F5"/>
<path d="M74.667 126.097C74.7028 126.091 74.6968 125.401 74.5837 124.275C74.5271 123.713 74.3783 123.04 74.1282 122.335C73.8752 121.635 73.6133 120.858 73.2144 120.081C72.4375 118.524 71.3242 117.343 70.3806 116.706C69.9103 116.381 69.4905 116.185 69.2018 116.063C68.9041 115.952 68.7345 115.905 68.7285 115.926C68.7077 115.976 69.3685 116.214 70.2526 116.884C71.1367 117.548 72.1815 118.709 72.9405 120.224C73.3245 120.971 73.5954 121.745 73.8603 122.433C74.1223 123.123 74.283 123.757 74.3664 124.308C74.5331 125.409 74.6194 126.103 74.667 126.097Z" fill="#E0E0E0"/>
<path d="M77.5579 104.501C77.5371 104.498 77.4656 104.817 77.3525 105.4C77.2394 105.983 77.0876 106.826 76.906 107.871C76.5488 109.96 76.0844 112.854 75.6528 116.063C75.2212 119.271 74.9116 122.189 74.73 124.302C74.6407 125.359 74.5782 126.216 74.5455 126.808C74.5127 127.401 74.5038 127.728 74.5276 127.731C74.5485 127.734 74.5961 127.407 74.6675 126.82C74.739 126.177 74.8342 125.338 74.9503 124.326C75.1855 122.218 75.5278 119.313 75.9594 116.107C76.4089 112.931 76.8167 110.062 77.1233 107.909C77.2632 106.9 77.3823 106.064 77.4716 105.424C77.546 104.831 77.5787 104.504 77.5579 104.501Z" fill="#E0E0E0"/>
<path d="M76.0811 120.947C77.4534 117.884 80.3943 115.574 83.6985 114.964C84.5379 114.809 85.5738 114.839 86.0382 115.559C86.5025 116.28 86.0947 117.238 85.5857 117.929C83.4693 120.795 79.5043 122.153 76.0781 121.182" fill="#F5F5F5"/>
<path d="M82.5315 117.182C82.5256 117.161 82.3559 117.2 82.0553 117.283C81.7546 117.363 81.3289 117.509 80.8051 117.703C79.7781 118.114 78.3284 118.745 77.0485 119.917C76.4144 120.501 75.9114 121.168 75.5542 121.825C75.191 122.483 75.0005 123.135 74.8725 123.68C74.7624 124.231 74.7058 124.68 74.7058 124.996C74.6969 125.308 74.6998 125.481 74.7237 125.481C74.7862 125.487 74.81 124.793 75.0868 123.734C75.2386 123.21 75.444 122.588 75.8072 121.965C76.1644 121.343 76.6496 120.712 77.2628 120.15C78.4922 119.021 79.8972 118.367 80.8914 117.911C81.9035 117.465 82.5494 117.229 82.5315 117.182Z" fill="#E0E0E0"/>
<path d="M134.198 48.17C134.198 48.17 131.079 47.2502 129.817 54.424C128.554 61.6008 128.453 65.545 128.453 65.545C128.453 65.545 128.016 67.1018 126.861 66.5243C125.706 65.9468 123.744 63.9108 122.36 64.8097C120.922 65.7414 120.943 67.6584 122.035 70.1499C123.128 72.6414 125.319 78.184 125.515 78.6871C125.709 79.1812 125.646 80.0117 124.798 79.7438C123.949 79.4759 118.538 76.2194 117.145 78.8806C115.752 81.5417 119.934 87.9803 120.377 88.6918C120.821 89.4032 120.77 89.7812 120.461 90.0878C120.151 90.3915 118.437 89.1264 116.859 88.2631C115.281 87.3999 113.302 86.6765 112.629 88.278C111.953 89.8795 113.236 95.2792 120.91 102.337L124.679 105.373L129.242 103.694C138.788 99.5061 141.75 94.8119 141.631 93.0764C141.512 91.341 139.405 91.3857 137.633 91.6923C135.862 91.9989 133.829 92.6389 133.636 92.2519C133.442 91.862 133.517 91.4899 134.166 90.96C134.817 90.4302 140.857 85.6942 140.402 82.7265C139.946 79.7587 133.773 81.0863 132.883 81.0655C131.993 81.0417 132.204 80.235 132.546 79.8331C132.894 79.4223 136.764 74.8858 138.604 72.8855C140.443 70.8822 141.083 69.0753 140.027 67.7299C139.009 66.429 136.49 67.7209 135.213 67.8936C133.936 68.0662 134.026 66.4499 134.026 66.4499C134.026 66.4499 135.207 62.6844 136.339 55.4867C137.47 48.289 134.136 48.161 134.136 48.161" fill="#F5F5F5"/>
<path d="M133.058 54.5966C133.058 54.5966 133.055 54.6472 133.043 54.7484C133.029 54.8556 133.008 55.0014 132.981 55.192C132.921 55.5879 132.838 56.1624 132.728 56.8976C132.508 58.377 132.168 60.5173 131.743 63.1576C130.891 68.4412 129.656 75.7282 128.263 83.7712C126.87 91.8173 125.614 99.1012 124.735 104.379C124.298 107.013 123.947 109.148 123.7 110.63C123.578 111.362 123.482 111.934 123.417 112.33C123.384 112.517 123.357 112.666 123.339 112.77C123.322 112.868 123.307 112.919 123.307 112.919C123.307 112.919 123.31 112.868 123.322 112.767C123.336 112.66 123.357 112.514 123.384 112.324C123.444 111.928 123.527 111.353 123.637 110.621C123.857 109.142 124.197 107.001 124.622 104.361C125.474 99.0774 126.709 91.7905 128.102 83.7445C129.495 75.7014 130.751 68.4174 131.629 63.1397C132.067 60.5054 132.418 58.3711 132.665 56.8887C132.787 56.1564 132.883 55.5849 132.948 55.189C132.981 55.0014 133.008 54.8526 133.026 54.7484C133.043 54.6442 133.058 54.5966 133.058 54.5966Z" fill="#E0E0E0"/>
<path d="M124.991 67.7746C125 67.7686 125.078 67.8669 125.206 68.0514C125.337 68.236 125.515 68.5068 125.735 68.8432C126.173 69.5189 126.753 70.4655 127.373 71.5252C127.977 72.57 128.525 73.5136 128.947 74.2429C129.135 74.5644 129.296 74.8383 129.43 75.0645C129.543 75.258 129.602 75.3681 129.593 75.3741C129.584 75.38 129.507 75.2818 129.376 75.1002C129.245 74.9157 129.066 74.6448 128.849 74.3054C128.417 73.6268 127.852 72.6712 127.233 71.6115C126.62 70.5727 126.066 69.632 125.64 68.9087C125.45 68.5872 125.289 68.3134 125.155 68.0901C125.039 67.8907 124.979 67.7805 124.991 67.7746Z" fill="#E0E0E0"/>
<path d="M130.043 75.3235C130.019 75.2848 131.921 74.0048 134.29 72.4599C136.663 70.915 138.604 69.6945 138.627 69.7332C138.651 69.7719 136.752 71.0519 134.38 72.5968C132.007 74.1417 130.067 75.3622 130.043 75.3235Z" fill="#E0E0E0"/>
<path d="M127.346 87.5815C127.343 87.5696 127.462 87.5279 127.682 87.4594C127.935 87.382 128.245 87.2868 128.611 87.1766C129.394 86.9355 130.477 86.6022 131.656 86.1884C132.838 85.7776 133.894 85.3698 134.657 85.0721C135.014 84.9322 135.314 84.8132 135.561 84.7179C135.776 84.6346 135.898 84.5959 135.901 84.6048C135.907 84.6137 135.794 84.6762 135.585 84.7774C135.38 84.8786 135.076 85.0156 134.701 85.1793C133.948 85.5067 132.894 85.9324 131.71 86.3432C130.525 86.7569 129.435 87.0754 128.641 87.2868C128.245 87.391 127.92 87.4713 127.697 87.519C127.474 87.5696 127.349 87.5934 127.346 87.5815Z" fill="#E0E0E0"/>
<path d="M121.274 81.759C121.283 81.7501 121.375 81.8215 121.536 81.9614C121.696 82.0984 121.928 82.3008 122.208 82.5568C122.774 83.0628 123.545 83.7713 124.39 84.5631C125.236 85.3519 125.995 86.0752 126.539 86.6051C126.81 86.87 127.031 87.0843 127.176 87.2362C127.325 87.388 127.403 87.4773 127.394 87.4832C127.385 87.4921 127.293 87.4207 127.132 87.2808C126.971 87.1439 126.739 86.9415 126.459 86.6855C125.893 86.1794 125.123 85.471 124.277 84.6792C123.432 83.8903 122.673 83.167 122.128 82.6401C121.857 82.3752 121.637 82.1609 121.491 82.0091C121.345 81.8543 121.265 81.768 121.274 81.759Z" fill="#E0E0E0"/>
<path d="M117.517 92.2787C117.526 92.2697 117.642 92.365 117.85 92.5406C118.079 92.74 118.368 92.996 118.716 93.2997C119.443 93.9456 120.44 94.8446 121.532 95.8477C122.625 96.8509 123.61 97.7647 124.316 98.4315C124.649 98.75 124.926 99.0179 125.146 99.2293C125.34 99.4198 125.444 99.5299 125.435 99.5388C125.426 99.5478 125.31 99.4525 125.101 99.2769C124.872 99.0774 124.584 98.8214 124.235 98.5178C123.509 97.8719 122.512 96.9699 121.419 95.9698C120.327 94.9666 119.342 94.0528 118.636 93.386C118.303 93.0675 118.026 92.7996 117.806 92.5882C117.612 92.3977 117.511 92.2876 117.517 92.2787Z" fill="#E0E0E0"/>
<path d="M125.295 99.3097C125.292 99.2978 125.441 99.2412 125.718 99.143C126.021 99.0388 126.414 98.9019 126.885 98.7411C127.867 98.4018 129.224 97.9285 130.71 97.3659C132.195 96.8033 133.526 96.2616 134.487 95.8627C134.945 95.6722 135.329 95.5144 135.627 95.3924C135.898 95.2822 136.047 95.2257 136.053 95.2376C136.059 95.2465 135.916 95.3239 135.654 95.4519C135.392 95.5799 135.011 95.7585 134.535 95.9698C133.585 96.3955 132.257 96.9581 130.769 97.5207C129.284 98.0863 127.917 98.5417 126.923 98.8543C126.426 99.0091 126.021 99.1281 125.741 99.2055C125.456 99.2829 125.298 99.3216 125.295 99.3097Z" fill="#E0E0E0"/>
<path d="M29.4927 111.749C36.3659 107.829 38.5984 99.5866 39.033 92.0347C39.1045 90.7756 39.3664 89.4629 38.8693 88.3049C38.3722 87.147 37.0476 86.2659 35.8718 86.6916C34.8984 87.0458 34.3924 88.0936 33.7881 88.9449C32.9844 90.0761 31.8592 90.9691 30.5822 91.49C29.7427 91.8323 28.7307 91.996 27.9805 91.487C26.9506 90.7905 26.9595 89.2813 27.0816 88.0311C27.3108 85.7033 27.537 83.3755 27.7662 81.0477C27.8883 79.7975 28.0103 78.5235 27.7305 77.3001C27.4507 76.0796 26.6916 74.8979 25.5337 74.4543C24.3758 74.0138 22.8428 74.5645 22.4796 75.7641C22.3278 76.2642 22.3843 76.803 22.301 77.3179C22.2176 77.8329 21.923 78.3866 21.4169 78.4848C20.9049 78.586 20.4376 78.1841 20.0982 77.7853C18.9224 76.4041 18.1961 74.6984 17.5264 73.0077C16.8566 71.3169 16.2136 69.5874 15.1688 68.105C14.124 66.6226 12.6059 65.3814 10.8258 65.1164C9.04575 64.8515 7.03648 65.7802 6.42328 67.4978C5.8071 69.2183 6.67332 71.0996 7.66159 72.6296C9.12612 74.8979 10.9181 76.9488 12.9631 78.6991C13.3322 79.0146 13.7311 79.357 13.8382 79.8332C14.0347 80.6905 13.1685 81.4466 12.3201 81.646C11.3586 81.8723 10.3585 81.6818 9.37319 81.7086C8.3879 81.7353 7.29248 82.0658 6.84002 82.9558C6.21193 84.1852 7.15555 85.6229 8.12893 86.5963C10.0727 88.546 12.3499 90.1534 14.8295 91.3263C15.7195 91.746 16.6602 92.13 17.3418 92.8444C18.0235 93.5588 18.3688 94.7227 17.8389 95.5621C17.3091 96.4015 16.1333 96.5801 15.1867 96.3122C14.2401 96.0443 13.4275 95.443 12.5404 95.0144C10.8824 94.2077 8.65283 94.1244 7.4175 95.5085C6.60486 96.4194 6.41733 97.7708 6.6763 98.9675C6.93527 100.164 7.58419 101.233 8.28669 102.23C10.7425 105.713 14.0287 108.636 17.8865 110.383C21.7444 112.121 25.3997 112.833 29.4927 111.749Z" fill="#F5F5F5"/>
<path d="M29.0819 117.34C29.0819 114.333 28.7515 110.749 27.9835 106.853C27.2244 102.95 26.0367 98.7441 24.6436 94.3863C24.2924 93.2998 23.9441 92.2222 23.5988 91.1625C23.2535 90.1058 22.9112 89.058 22.5153 88.0518C21.7294 86.0396 20.8186 84.1643 19.8988 82.411C18.979 80.6577 18.0443 79.0265 17.1572 77.5084C16.2672 75.9903 15.4099 74.5912 14.5764 73.3499C12.9154 70.8584 11.3378 69.0129 10.2036 67.7895C9.63807 67.1763 9.18263 66.7149 8.87306 66.4053C8.72125 66.2594 8.60515 66.1433 8.51585 66.057C8.43548 65.9796 8.39083 65.9409 8.38786 65.9439C8.38488 65.9469 8.42358 65.9915 8.49799 66.0749C8.58134 66.1642 8.69446 66.2862 8.83734 66.441C9.13798 66.7595 9.58151 67.2328 10.1352 67.8549C11.2455 69.0962 12.7963 70.9507 14.4365 73.4452C15.2611 74.6894 16.1064 76.0885 16.9875 77.6096C17.8657 79.1307 18.7944 80.7619 19.7082 82.5152C20.6191 84.2655 21.524 86.1378 22.3039 88.1382C22.6968 89.1383 23.0362 90.1772 23.3815 91.2369C23.7238 92.2966 24.0721 93.3712 24.4233 94.4577C25.8164 98.8126 27.0071 103.007 27.7751 106.894C28.552 110.779 28.8973 114.345 28.9182 117.343" fill="#E0E0E0"/>
<path d="M22.4469 88.037C22.4618 88.0399 22.5213 87.8554 22.6166 87.516C22.7148 87.1767 22.8398 86.6826 22.9827 86.0664C23.2744 84.837 23.6168 83.1284 23.9888 81.2411C24.3609 79.3539 24.7271 77.6542 25.0366 76.4338C25.1885 75.8235 25.3165 75.3294 25.4117 74.9901C25.504 74.6507 25.5457 74.4602 25.5308 74.4543C25.5159 74.4483 25.4445 74.6299 25.3254 74.9633C25.2063 75.2967 25.0515 75.7819 24.8789 76.3891C24.5276 77.6036 24.1347 79.3063 23.7626 81.1935C23.3995 83.0569 23.072 84.7417 22.822 86.0277C22.7059 86.6081 22.6077 87.0993 22.5273 87.4922C22.4648 87.8405 22.432 88.034 22.4469 88.037Z" fill="#E0E0E0"/>
<path d="M6.65286 83.563C6.64988 83.5779 6.87611 83.6255 7.2869 83.6999C7.69471 83.7743 8.28707 83.8785 9.01636 84.0304C10.4749 84.325 12.4723 84.8013 14.6542 85.4234C16.8362 86.0486 18.7859 86.7005 20.182 87.2125C20.8815 87.4625 21.4441 87.6828 21.834 87.8286C22.224 87.9775 22.4413 88.0549 22.4472 88.04C22.4532 88.0251 22.2478 87.9209 21.8698 87.7453C21.4917 87.5696 20.938 87.3285 20.2415 87.0577C18.8544 86.504 16.9076 85.8283 14.7167 85.2002C12.5289 84.5781 10.5166 84.1226 9.04613 83.8726C8.31088 83.7416 7.71257 83.6612 7.2988 83.6136C6.88504 83.563 6.65584 83.5451 6.65286 83.563Z" fill="#E0E0E0"/>
<path d="M27.8108 106.537C27.8168 106.54 27.8614 106.478 27.9388 106.353C28.0281 106.201 28.1353 106.019 28.2662 105.796C28.549 105.311 28.939 104.599 29.4123 103.715C30.3559 101.944 31.5823 99.4587 32.901 96.6993C34.2196 93.9369 35.4222 91.4424 36.3271 89.6564C36.7707 88.7872 37.1338 88.0728 37.4047 87.5429C37.5208 87.3137 37.616 87.1232 37.6964 86.9655C37.7619 86.8315 37.7917 86.7601 37.7827 86.7571C37.7768 86.7541 37.7321 86.8166 37.6547 86.9446C37.5654 87.0964 37.4583 87.278 37.3273 87.5013C37.0445 87.9865 36.6546 88.6979 36.1813 89.582C35.2377 91.3531 34.0113 93.8387 32.6926 96.601C31.3739 99.3634 30.1743 101.855 29.2664 103.644C28.8229 104.513 28.4597 105.228 28.1888 105.757C28.0728 105.987 27.9775 106.177 27.8971 106.335C27.8346 106.46 27.8049 106.531 27.8108 106.537Z" fill="#E0E0E0"/>
<path d="M7.087 97.6964C7.08403 97.7053 7.15547 97.7411 7.28942 97.8036C7.45016 97.875 7.6496 97.9613 7.89071 98.0685C8.44736 98.3066 9.19748 98.6281 10.1084 99.0181C11.9807 99.8218 14.5555 100.959 17.3983 102.221C20.241 103.483 22.8308 104.599 24.721 105.364C25.6676 105.748 26.4326 106.049 26.9684 106.245C27.2154 106.335 27.4208 106.409 27.5846 106.469C27.7274 106.516 27.8019 106.54 27.8048 106.531C27.8078 106.522 27.7364 106.487 27.5994 106.424C27.4387 106.353 27.2393 106.266 26.9981 106.159C26.4415 105.921 25.6914 105.6 24.7805 105.21C22.9082 104.406 20.3333 103.269 17.4876 102.004C14.6448 100.742 12.0581 99.6253 10.1679 98.8603C9.2213 98.4763 8.45629 98.1757 7.92048 97.9792C7.67341 97.8899 7.46802 97.8155 7.3043 97.7559C7.16737 97.7113 7.08998 97.6905 7.087 97.6964Z" fill="#E0E0E0"/>
<path d="M50.6272 21.9572V46.5269H15.3414L14.0674 22.1299L50.6272 21.9572Z" fill="#E0E0E0"/>
<path d="M14.0684 22.1325L14.0684 46.476H49.3542V22.1325L14.0684 22.1325Z" fill="white"/>
<path d="M49.523 46.6431H13.9009V21.9633H49.523V46.6431ZM14.2372 46.3067H49.1896V22.2967H14.2372V46.3067Z" fill="#E0E0E0"/>
<path d="M45.5313 25.1541H17.8896V43.4489H45.5313V25.1541Z" fill="white"/>
<path d="M45.5341 25.1542C45.5341 25.1542 45.4864 25.1571 45.3971 25.1601C45.3049 25.1601 45.1739 25.1631 45.0042 25.1661C44.653 25.169 44.1469 25.172 43.4861 25.175C42.1585 25.181 40.2266 25.1869 37.7887 25.1958C32.9129 25.2048 26.0129 25.2196 17.8895 25.2345L17.9698 25.1542C17.9728 30.7444 17.9758 36.9389 17.9758 43.446V43.4489L17.8895 43.3626C28.3168 43.3686 37.9316 43.3745 45.5311 43.3805L45.4626 43.4489C45.4775 37.8825 45.4894 33.3163 45.4983 30.1372C45.5073 28.5476 45.5132 27.3063 45.5162 26.455C45.5192 26.0353 45.5221 25.7108 45.5251 25.4876C45.5281 25.2703 45.5341 25.1542 45.5341 25.1542C45.5341 25.1542 45.54 25.2613 45.543 25.4756C45.546 25.6959 45.546 26.0144 45.5519 26.4312C45.5549 27.2795 45.5608 28.5149 45.5698 30.0955C45.5787 33.2835 45.5906 37.8647 45.6055 43.4489V43.5174H45.537C37.9345 43.5234 28.3228 43.5293 17.8954 43.5353H17.8091V43.4489V43.446C17.8121 36.9359 17.815 30.7414 17.815 25.1542V25.0738H17.8954C26.0397 25.0887 32.9605 25.1036 37.8482 25.1125C40.2772 25.1214 42.2031 25.1304 43.5278 25.1333C44.1797 25.1363 44.6827 25.1423 45.031 25.1423C45.1977 25.1452 45.3227 25.1452 45.415 25.1482C45.4924 25.1512 45.5341 25.1542 45.5341 25.1542Z" fill="#E0E0E0"/>
<path d="M14.0677 22.0613C14.0825 22.0435 14.3117 22.1923 14.6749 22.4543C15.0351 22.7162 15.5262 23.0853 16.0591 23.508C16.5889 23.9337 17.0563 24.3355 17.3867 24.6362C17.7141 24.9368 17.9076 25.1363 17.8927 25.1541C17.86 25.1898 17.0116 24.4903 15.9519 23.6449C14.8892 22.7996 14.0379 22.103 14.0677 22.0613Z" fill="#E0E0E0"/>
<path d="M49.3566 22.1299C49.3863 22.1686 48.5558 22.8741 47.4991 23.7106C46.4424 24.547 45.5642 25.193 45.5345 25.1543C45.5047 25.1156 46.3352 24.4101 47.3919 23.5736C48.4457 22.7402 49.3268 22.0912 49.3566 22.1299Z" fill="#E0E0E0"/>
<path d="M49.3268 46.4797C48.0141 45.417 46.7043 44.3543 45.3916 43.2916L49.3268 46.4797Z" fill="white"/>
<path d="M45.395 43.2882C45.4247 43.2495 46.3296 43.9341 47.4161 44.8152C48.5026 45.6963 49.3599 46.4405 49.3272 46.4762C49.2974 46.5149 48.3925 45.8303 47.306 44.9492C46.2195 44.0711 45.3622 43.3269 45.395 43.2882Z" fill="#E0E0E0"/>
<path d="M14.0677 46.4763C14.0379 46.4376 14.8595 45.7381 15.9043 44.9135C16.9491 44.086 17.8213 43.449 17.8511 43.4847C17.8808 43.5234 17.0593 44.2229 16.0144 45.0505C14.9696 45.872 14.1004 46.512 14.0677 46.4763Z" fill="#E0E0E0"/>
<path d="M23.5049 30.8565V36.9825H40.8977V30.8565H23.5049Z" fill="#E0E0E0"/>
<path d="M132.106 16.248H113.239V43.5949H132.106V16.248Z" fill="#E0E0E0"/>
<path d="M131.162 16.248H112.296V43.5949H131.162V16.248Z" fill="#F5F5F5"/>
<path d="M128.817 19.2097H114.639V40.6331H128.817V19.2097Z" fill="white"/>
<path d="M128.819 40.6331C128.819 40.6331 128.817 40.5974 128.817 40.5289C128.817 40.4574 128.814 40.3562 128.814 40.2253C128.814 39.9574 128.811 39.5615 128.808 39.0495C128.805 38.0225 128.802 36.5252 128.796 34.635C128.79 30.8576 128.781 25.5085 128.772 19.2098L128.819 19.2574C124.488 19.2574 119.687 19.2604 114.642 19.2604H114.639L114.689 19.2098C114.686 27.2915 114.68 34.7422 114.677 40.6331L114.636 40.5914C118.955 40.6003 122.494 40.6093 124.956 40.6122C126.188 40.6182 127.15 40.6212 127.807 40.6241C128.135 40.6271 128.385 40.6271 128.555 40.6301C128.73 40.6301 128.819 40.6331 128.819 40.6331C128.819 40.6331 128.736 40.636 128.569 40.636C128.4 40.636 128.153 40.639 127.828 40.642C127.173 40.645 126.215 40.648 124.986 40.6539C122.518 40.6599 118.97 40.6658 114.639 40.6747H114.597V40.6331C114.594 34.7422 114.591 27.2915 114.585 19.2098V19.1592H114.636H114.639C119.684 19.1621 124.482 19.1621 128.817 19.1621H128.864V19.2098C128.855 25.5204 128.846 30.8814 128.84 34.6678C128.834 36.552 128.831 38.0463 128.828 39.0703C128.825 39.5793 128.825 39.9693 128.822 40.2372C128.822 40.3681 128.819 40.4664 128.819 40.5348C128.819 40.6003 128.819 40.6331 128.819 40.6331Z" fill="#E0E0E0"/>
<path d="M131.216 16.248C131.227 16.2569 131.099 16.4445 130.879 16.7362C130.659 17.0279 130.349 17.4268 129.995 17.8584C129.641 18.29 129.307 18.671 129.063 18.9419C128.819 19.2128 128.659 19.3735 128.65 19.3646C128.638 19.3557 128.778 19.1771 129.01 18.8943C129.263 18.5877 129.575 18.2096 129.918 17.7929C130.26 17.3762 130.573 16.9981 130.826 16.6915C131.055 16.4117 131.204 16.2391 131.216 16.248Z" fill="#E0E0E0"/>
<path d="M128.891 40.5648C129.596 41.684 130.427 42.7229 131.364 43.6576L128.891 40.5648Z" fill="white"/>
<path d="M131.364 43.6574C131.355 43.6663 131.186 43.5204 130.933 43.2644C130.68 43.0084 130.343 42.6423 130.001 42.2137C129.659 41.785 129.373 41.3742 129.179 41.0706C128.986 40.767 128.882 40.5705 128.891 40.5646C128.903 40.5556 129.031 40.7402 129.239 41.0319C129.447 41.3236 129.739 41.7225 130.081 42.1511C130.424 42.5768 130.748 42.9519 130.986 43.2168C131.224 43.4817 131.373 43.6455 131.364 43.6574Z" fill="#E0E0E0"/>
<path d="M112.293 43.5741C113.118 42.5591 113.939 41.541 114.764 40.526L112.293 43.5741Z" fill="white"/>
<path d="M114.763 40.5259C114.784 40.5437 114.251 41.2403 113.567 42.0827C112.885 42.9251 112.313 43.5919 112.29 43.574C112.269 43.5562 112.802 42.8596 113.486 42.0172C114.171 41.1748 114.742 40.508 114.763 40.5259Z" fill="#E0E0E0"/>
<path d="M112.296 16.2479C112.317 16.2301 112.856 16.873 113.496 17.6827C114.136 18.4924 114.636 19.1621 114.615 19.18C114.594 19.1978 114.055 18.5549 113.415 17.7452C112.775 16.9355 112.275 16.2658 112.296 16.2479Z" fill="#E0E0E0"/>
<path d="M124.402 23.5587H119.654V37.0371H124.402V23.5587Z" fill="#E0E0E0"/>
<path d="M99.701 76.2224C100.165 78.0084 99.5462 80.0296 98.165 81.253C97.2571 82.0567 96.0754 82.5211 95.2478 83.4052C94.1822 84.5452 93.8756 86.2866 94.3429 87.7749C94.8073 89.2633 95.9801 90.4778 97.3881 91.1505C99.3051 92.0673 101.669 91.987 103.52 90.9422C105.821 89.6413 107.164 87.0337 107.503 84.4113C107.842 81.7888 107.309 79.1336 106.616 76.5826" fill="#1C2C46"/>
<path d="M128.721 122.465C131.103 122.075 133.335 122.802 135.693 123.326C136.327 123.466 136.993 123.588 137.624 123.43C138.645 123.171 139.372 122.174 139.53 121.132C139.666 120.23 139.431 119.283 138.928 118.521C138.714 118.2 138.449 117.902 138.113 117.712C137.767 117.515 137.368 117.441 136.973 117.402C135.538 117.262 134.079 117.584 132.772 118.194C131.466 118.804 130.308 119.7 129.29 120.718C128.793 121.218 128.941 121.793 128.721 122.465Z" fill="#2C4F7A"/>
<path d="M80.4298 84.0303C80.0488 81.771 80.0964 79.4402 80.5668 77.1958C80.796 76.1033 81.1323 75.0168 81.7425 74.0851C81.9658 73.7458 82.2396 73.4154 82.6147 73.2665C83.1356 73.0582 83.7548 73.2516 84.1656 73.6327C84.7014 74.1298 84.9246 74.9007 84.9008 75.63C84.877 76.3623 84.6389 77.0678 84.371 77.7494C83.4541 80.101 82.0015 82.0538 80.4298 84.0303Z" fill="#2C4F7A"/>
<path d="M126.575 92.6359C127.116 93.0199 139.092 118.798 139.092 118.798C138.13 118.384 137.064 118.28 136.04 118.497L135.392 118.67C134.231 118.98 133.126 119.483 132.129 120.158L128.718 122.468C128.444 122.314 128.262 122.031 128.233 121.715L128.224 121.617L118.945 105.692L126.575 92.6359Z" fill="#3A71B6"/>
<path d="M81.6593 52.504L84.8682 72.055C85.8951 74.4959 97.8525 86.9772 97.8525 86.9772L94.1793 98.7768L78.4623 79.086C77.0008 77.5232 76.206 75.4544 76.2477 73.3171L77.7747 54.2395L81.6593 52.504Z" fill="#FFBE9D"/>
<path d="M98.6412 84.1344L106.854 84.7566L114.016 85.8669C114.016 85.8669 126.578 89.168 126.578 90.5432C126.578 91.0017 123.145 101.923 121.234 108.466C120.41 111.291 120.079 113.297 120.079 113.297L126.578 127.728H95.6735V114.494C95.6735 114.494 93.5987 97.1307 93.9559 94.7612C94.3131 92.3918 98.6412 84.1344 98.6412 84.1344Z" fill="#3A71B6"/>
<path d="M77.7715 45.1754C77.8191 43.3268 78.0066 41.4843 78.3341 39.6655C78.3817 39.4065 78.4859 39.094 78.7449 39.0612C79.0663 39.0195 79.2301 39.4333 79.2717 39.7518C79.5575 41.9397 79.4652 44.1752 79.0009 46.3333" fill="#EB996E"/>
<path d="M81.4239 82.6878C84.9483 79.5385 85.0078 75.3651 84.7072 71.0251C84.6893 70.7781 93.2027 77.7673 97.0248 81.5239C98.2482 82.7235 99.6353 83.7446 101.147 84.5512L93.8933 100.387L80.4297 84.0065C80.4297 84.0035 80.8524 83.1998 81.4239 82.6878Z" fill="#3A71B6"/>
<path d="M128.721 122.465L128.331 127.734H135.96L137.749 118.432C135.425 118.301 133.132 119.021 131.299 120.453L128.721 122.465Z" fill="#FFBE9D"/>
<path d="M118.109 104.379C117.576 105.656 117.978 107.406 118.538 108.671C119.1 109.937 119.693 111.35 119.24 112.663C119.157 112.907 119.035 113.154 119.064 113.413C119.097 113.669 119.499 113.934 119.728 113.815C119.862 113.747 119.922 113.589 119.966 113.446C120.389 112.172 120.69 110.553 121.112 109.279" fill="#2C4F7A"/>
<path d="M89.9494 87.5636C89.9077 87.5576 90.0446 86.495 90.253 85.1941C90.4643 83.8933 90.6697 82.8426 90.7114 82.8485C90.7531 82.8545 90.6161 83.9171 90.4078 85.218C90.1964 86.5188 89.994 87.5695 89.9494 87.5636Z" fill="#FAFAFA"/>
<path d="M86.8149 86.9058C86.7762 86.9326 86.2642 86.2152 85.5587 85.3936C84.8532 84.5691 84.2252 83.9559 84.2549 83.9231C84.2817 83.8934 84.9634 84.4619 85.6748 85.2954C86.3862 86.1229 86.8476 86.882 86.8149 86.9058Z" fill="#FAFAFA"/>
<path d="M89.506 79.2378C89.5239 79.2497 89.3959 79.4551 89.1697 79.7736C88.9434 80.0921 88.616 80.5178 88.229 80.9702C87.845 81.4227 87.4759 81.8156 87.1991 82.0925C86.9223 82.3663 86.7407 82.5241 86.7258 82.5092C86.693 82.4765 87.345 81.7739 88.11 80.869C88.8779 79.9701 89.4703 79.211 89.506 79.2378Z" fill="#FAFAFA"/>
<path d="M86.9311 77.8C86.9371 77.8417 86.5918 77.931 86.1572 78.0024C85.7226 78.0709 85.3654 78.0917 85.3595 78.05C85.3535 78.0084 85.6988 77.9191 86.1334 77.8476C86.568 77.7792 86.9252 77.7583 86.9311 77.8Z" fill="#FAFAFA"/>
<path d="M92.5897 81.1071C92.5421 81.1011 92.6582 80.4731 92.4915 79.7229C92.3337 78.9698 91.9676 78.4459 92.0063 78.4221C92.0301 78.3924 92.4736 78.9014 92.6403 79.6902C92.8159 80.479 92.6224 81.122 92.5897 81.1071Z" fill="#FAFAFA"/>
<path d="M96.2482 85.0424C96.2065 85.0662 95.8939 84.4351 95.2897 83.8339C94.6914 83.2266 94.0633 82.9081 94.0871 82.8664C94.099 82.8307 94.7777 83.0927 95.3998 83.7237C96.0249 84.3488 96.2839 85.0305 96.2482 85.0424Z" fill="#FAFAFA"/>
<path d="M90.375 91.8709C90.3899 91.9067 89.7827 92.1269 88.9998 92.0972C88.2169 92.0734 87.6276 91.8114 87.6454 91.7787C87.6603 91.734 88.2527 91.9215 89.0058 91.9424C89.7589 91.9721 90.3631 91.8263 90.375 91.8709Z" fill="#FAFAFA"/>
<path d="M93.1314 93.2848C93.0897 93.2699 93.3219 92.5823 93.5154 91.7131C93.7118 90.8439 93.7952 90.1265 93.8398 90.1295C93.8785 90.1325 93.8636 90.8677 93.6642 91.7488C93.4707 92.6269 93.1701 93.2997 93.1314 93.2848Z" fill="#FAFAFA"/>
<path d="M99.1535 93.5141C99.1207 93.5438 98.5403 92.9545 97.8527 92.2014C97.165 91.4483 96.6352 90.8142 96.6679 90.7845C96.7007 90.7547 97.2811 91.3441 97.9688 92.0972C98.6534 92.8532 99.1832 93.4873 99.1535 93.5141Z" fill="#FAFAFA"/>
<path d="M101.96 100.471C101.93 100.5 101.496 100.102 100.99 99.5776C100.484 99.0537 100.1 98.6072 100.13 98.5775C100.159 98.5477 100.594 98.9466 101.1 99.4705C101.606 99.9914 101.99 100.441 101.96 100.471Z" fill="#FAFAFA"/>
<path d="M99.1443 107.752C99.0996 107.74 99.2782 106.96 99.3675 105.977C99.4598 104.998 99.43 104.197 99.4777 104.194C99.5163 104.189 99.6176 104.998 99.5223 105.992C99.43 106.99 99.183 107.763 99.1443 107.752Z" fill="#FAFAFA"/>
<path d="M108.167 102.373C108.143 102.406 107.506 101.959 106.878 101.239C106.247 100.521 105.893 99.8307 105.925 99.8128C105.964 99.789 106.375 100.435 106.994 101.137C107.61 101.843 108.197 102.334 108.167 102.373Z" fill="#FAFAFA"/>
<path d="M111.462 105.18C111.426 105.153 111.879 104.534 112.382 103.739C112.891 102.944 113.26 102.277 113.302 102.295C113.337 102.313 113.028 103.019 112.513 103.822C112.004 104.626 111.495 105.206 111.462 105.18Z" fill="#FAFAFA"/>
<path d="M110.98 98.3096C110.968 98.3512 110.292 98.2054 109.468 97.9851C108.643 97.7648 107.982 97.5505 107.994 97.5088C108.006 97.4671 108.682 97.613 109.506 97.8333C110.331 98.0536 110.992 98.2679 110.98 98.3096Z" fill="#FAFAFA"/>
<path d="M108.577 110.401C108.536 110.398 108.536 109.767 108.583 108.99C108.628 108.213 108.699 107.585 108.744 107.588C108.786 107.591 108.786 108.222 108.738 108.999C108.691 109.776 108.619 110.404 108.577 110.401Z" fill="#FAFAFA"/>
<path d="M110.655 114.541C110.611 114.521 110.923 113.904 111.03 113.074C111.146 112.246 111.006 111.568 111.054 111.559C111.09 111.544 111.301 112.231 111.182 113.095C111.072 113.958 110.685 114.565 110.655 114.541Z" fill="#FAFAFA"/>
<path d="M105.271 113.628C105.232 113.633 105.14 112.934 105.303 112.089C105.464 111.243 105.809 110.627 105.842 110.648C105.884 110.666 105.61 111.297 105.455 112.118C105.294 112.94 105.315 113.625 105.271 113.628Z" fill="#FAFAFA"/>
<path d="M100.359 115.726C100.329 115.759 99.7249 115.244 98.9599 114.64C98.1949 114.032 97.5579 113.565 97.5817 113.529C97.6055 113.494 98.2872 113.907 99.0552 114.518C99.8261 115.128 100.386 115.696 100.359 115.726Z" fill="#FAFAFA"/>
<path d="M103.684 109.886C103.705 109.925 102.922 110.377 101.94 110.901C100.954 111.425 100.142 111.815 100.121 111.779C100.1 111.74 100.883 111.288 101.865 110.764C102.851 110.24 103.666 109.847 103.684 109.886Z" fill="#FAFAFA"/>
<path d="M105.122 121.45C105.086 121.462 104.973 120.798 105.262 120.042C105.541 119.286 106.062 118.858 106.08 118.89C106.116 118.923 105.669 119.379 105.405 120.096C105.134 120.813 105.172 121.45 105.122 121.45Z" fill="#FAFAFA"/>
<path d="M102.671 120.426C102.692 120.468 102.246 120.685 101.898 121.162C101.54 121.632 101.457 122.123 101.409 122.114C101.371 122.12 101.386 121.578 101.773 121.069C102.154 120.557 102.666 120.388 102.671 120.426Z" fill="#FAFAFA"/>
<path d="M112.093 126.034C112.093 126.073 111.414 126.02 110.724 125.582C110.027 125.15 109.679 124.567 109.714 124.549C109.753 124.519 110.14 125.04 110.807 125.448C111.465 125.868 112.102 125.987 112.093 126.034Z" fill="#FAFAFA"/>
<path d="M113.557 117.789C113.596 117.789 113.51 118.408 113.025 118.977C112.545 119.548 111.944 119.733 111.941 119.694C111.92 119.653 112.456 119.414 112.908 118.876C113.364 118.343 113.513 117.774 113.557 117.789Z" fill="#FAFAFA"/>
<path d="M117.722 123.936C117.686 123.906 118.079 123.409 118.442 122.724C118.808 122.04 118.999 121.436 119.044 121.45C119.082 121.459 118.954 122.096 118.579 122.799C118.207 123.501 117.749 123.966 117.722 123.936Z" fill="#FAFAFA"/>
<path d="M123.226 124.748C123.244 124.793 122.702 125.007 122.157 125.457C121.606 125.9 121.288 126.389 121.249 126.362C121.213 126.347 121.487 125.802 122.059 125.338C122.627 124.868 123.217 124.71 123.226 124.748Z" fill="#FAFAFA"/>
<path d="M119.029 117.697C118.984 117.712 118.722 116.839 118.174 115.875C117.633 114.908 117.022 114.235 117.058 114.202C117.073 114.19 117.243 114.339 117.484 114.619C117.725 114.896 118.029 115.309 118.308 115.801C118.585 116.292 118.779 116.765 118.892 117.116C119.005 117.468 119.047 117.694 119.029 117.697Z" fill="#FAFAFA"/>
<path d="M119.85 108.835C119.859 108.877 119.228 109.058 118.439 109.24C117.651 109.422 117.002 109.535 116.993 109.493C116.984 109.451 117.615 109.27 118.404 109.088C119.196 108.907 119.841 108.793 119.85 108.835Z" fill="#FAFAFA"/>
<path d="M117.317 106.186C117.284 106.213 116.876 105.742 116.406 105.141C115.936 104.537 115.585 104.025 115.617 104.001C115.65 103.974 116.058 104.441 116.528 105.046C116.999 105.647 117.353 106.159 117.317 106.186Z" fill="#FAFAFA"/>
<path d="M123.592 104.596C123.589 104.638 122.94 104.596 122.166 104.412C121.389 104.23 120.794 103.974 120.809 103.935C120.824 103.894 121.437 104.078 122.202 104.26C122.967 104.441 123.598 104.552 123.592 104.596Z" fill="#FAFAFA"/>
<path d="M128.054 104.516C128.016 104.495 128.26 103.956 128.51 103.275C128.76 102.593 128.921 102.024 128.965 102.033C129.004 102.042 128.912 102.635 128.656 103.328C128.403 104.025 128.09 104.537 128.054 104.516Z" fill="#FAFAFA"/>
<path d="M127.051 110.565C127.042 110.603 126.423 110.449 125.753 110.047C125.081 109.651 124.649 109.18 124.679 109.154C124.708 109.121 125.179 109.529 125.834 109.913C126.483 110.303 127.066 110.52 127.051 110.565Z" fill="#FAFAFA"/>
<path d="M129.95 110.38C129.909 110.371 130.055 109.579 130.278 108.612C130.501 107.644 130.715 106.868 130.757 106.879C130.799 106.888 130.653 107.68 130.43 108.648C130.206 109.615 129.992 110.389 129.95 110.38Z" fill="#FAFAFA"/>
<path d="M127.53 117.143C127.494 117.167 127.024 116.581 126.476 115.833C125.929 115.083 125.515 114.458 125.548 114.431C125.583 114.408 126.054 114.991 126.601 115.741C127.149 116.488 127.563 117.116 127.53 117.143Z" fill="#FAFAFA"/>
<path d="M131.662 114.556C131.62 114.574 131.349 114.038 130.921 113.437C130.495 112.833 130.078 112.398 130.111 112.365C130.138 112.336 130.611 112.729 131.049 113.348C131.486 113.964 131.701 114.541 131.662 114.556Z" fill="#FAFAFA"/>
<path d="M135.538 113.976C135.499 114 135.109 113.416 134.585 112.732C134.061 112.044 133.6 111.517 133.633 111.484C133.662 111.455 134.177 111.943 134.707 112.636C135.24 113.33 135.573 113.955 135.538 113.976Z" fill="#FAFAFA"/>
<path d="M134.627 116.545C134.579 116.548 134.612 116.03 134.272 115.53C133.945 115.021 133.46 114.845 133.478 114.803C133.483 114.785 133.614 114.8 133.802 114.896C133.99 114.988 134.225 115.172 134.403 115.443C134.582 115.714 134.659 116.003 134.671 116.211C134.683 116.42 134.644 116.545 134.627 116.545Z" fill="#FAFAFA"/>
<path d="M131.605 120.066C131.581 120.06 131.59 119.986 131.567 119.882C131.546 119.777 131.483 119.637 131.361 119.539C131.239 119.444 131.087 119.42 130.98 119.423C130.873 119.426 130.801 119.45 130.793 119.429C130.781 119.414 130.837 119.349 130.965 119.313C131.087 119.277 131.29 119.286 131.459 119.414C131.626 119.545 131.683 119.739 131.677 119.867C131.671 120.004 131.623 120.072 131.605 120.066Z" fill="#FAFAFA"/>
<path d="M100.636 125.695C100.627 125.731 99.853 125.439 99.1505 124.728C98.4391 124.022 98.1474 123.248 98.1831 123.242C98.2248 123.219 98.573 123.939 99.2606 124.621C99.9393 125.305 100.66 125.651 100.636 125.695Z" fill="#FAFAFA"/>
<path d="M81.689 52.7065C81.2128 48.1789 80.3465 43.9222 80.1114 39.481C80.0995 39.2577 80.0756 39.0077 79.9 38.8678C79.6619 38.6773 79.2838 38.8291 79.1291 39.091C78.9743 39.353 78.9772 39.6745 78.9772 39.9781C78.9862 42.3327 78.5843 44.6872 77.7985 46.9078C77.2865 48.3486 77.1079 52.8642 77.7747 54.2424" fill="#FFBE9D"/>
<path d="M77.7719 54.2394C76.5842 53.3553 76.1824 49.6434 77.0605 48.1134C77.51 47.3275 77.2212 46.3571 77.0069 45.479C76.9236 45.1426 76.7718 44.8182 76.7718 44.4699C76.7688 44.1246 76.992 43.7376 77.3373 43.7198C77.5993 43.7079 77.8196 43.9073 77.9833 44.1097C78.5608 44.8271 79.0281 46.9257 78.7364 48.4884" fill="#FFBE9D"/>
<path d="M117.653 71.7722C117.811 72.6295 118.624 73.2903 119.493 73.3617C120.359 73.4332 121.228 72.9688 121.734 72.2603C122.24 71.5519 122.407 70.6351 122.291 69.7718C122.121 68.5186 121.288 67.3131 120.079 66.941C118.871 66.5659 117.368 67.2327 117.034 68.4531L115.641 70.3999L117.653 71.7722Z" fill="#1C2C46"/>
<path d="M116.004 67.9531C116.57 63.4374 113.304 59.3117 108.72 58.8742C104.398 58.4634 99.9629 61.6306 99.9123 65.9706C99.8677 69.7302 98.8377 73.5314 98.8735 74.9096C98.9479 77.7732 101.359 80.6874 102.347 81.1756C102.573 81.2857 103.193 81.4137 103.443 81.4494C103.458 81.4524 103.469 81.4673 103.467 81.4822L102.544 86.2568C102.124 89.3853 103.871 92.1745 106.994 92.6299C110.128 93.0854 112.578 90.6832 113.054 87.5517L116.004 67.9531Z" fill="#FFBE9D"/>
<path d="M103.47 81.4554C103.47 81.4554 106.155 82.0745 109.855 80.5266C109.855 80.5266 108.259 83.9647 103.223 82.7413L103.47 81.4554Z" fill="#EB996E"/>
<path d="M99.0965 66.5302C99.9568 67.8429 102.689 67.0333 104.338 66.1313C106.077 67.2833 108.491 66.7832 109.694 65.021C110.637 66.2236 112.554 65.8247 113.254 64.4703C113.953 63.1159 113.56 59.7612 112.599 58.5765C111.637 57.3917 110.232 56.7934 108.845 56.5374C105.556 55.9302 101.975 57.2042 100.007 60.1779C99.1025 61.5502 98.5578 64.8871 99.0965 66.5302Z" fill="#1C2C46"/>
<path d="M111.632 61.696C111.355 62.8688 111.078 64.0536 111.078 65.2562C111.078 66.4617 111.379 67.703 112.147 68.6317C113.296 70.0189 115.213 70.4386 116.981 70.775C117.928 68.4293 118.216 65.8187 117.805 63.3213C117.606 62.1008 117.213 60.8625 116.353 59.9725C115.112 58.6925 112.95 58.4336 111.444 59.3861" fill="#1C2C46"/>
<path d="M112.614 67.4589C112.146 68.465 112.182 69.6289 112.343 70.7273C112.504 71.8257 112.783 72.9122 112.772 74.0225C112.76 75.1298 112.408 76.3056 111.539 76.9933C111.292 77.1897 111.006 77.3415 110.801 77.5797C110.596 77.8178 110.482 78.181 110.646 78.4489C110.813 78.7168 113.215 77.9934 113.608 77.535C114.177 76.8772 114.141 76.904 114.29 76.0467C114.748 73.4183 114.659 70.6946 115.385 68.1257" fill="#1C2C46"/>
<path d="M102.52 84.7209C102.928 86.5039 104.139 88.0905 105.758 88.9478C107.375 89.8081 109.366 89.9241 111.075 89.2663C112.617 88.671 113.858 87.51 115.061 86.3759C115.489 88.9478 114.775 91.6893 113.15 93.7284C111.524 95.7674 109.009 97.0712 106.404 97.229C104.434 97.348 102.311 96.7438 101.073 95.2078C100.207 94.1362 99.8557 92.7133 99.8706 91.3351C99.8855 89.9569 100.237 88.6055 100.647 87.2898C101.002 86.1646 101.555 84.9025 102.695 84.5959" fill="#3A71B6"/>
<path d="M116.641 70.8702C117.82 71.5102 118.469 72.8497 118.695 74.1713C118.924 75.493 118.808 76.8474 118.865 78.1869C118.921 79.5264 119.177 80.9284 120.026 81.9673C120.925 83.0717 122.333 83.5956 123.586 84.2713C126.36 85.7686 128.643 88.3017 129.48 91.3409C130.316 94.3802 129.557 97.8956 127.28 100.078C125.208 102.063 122.19 102.76 119.323 102.751C117.275 102.745 115.031 102.31 113.754 100.712C112.492 99.131 112.551 96.8716 113.01 94.9041C113.471 92.9365 114.275 91.0195 114.304 88.9983C114.001 90.2455 113.465 91.4362 112.733 92.4929C112.524 92.7936 112.164 93.121 111.84 92.9484C111.48 92.7578 111.617 92.2191 111.783 91.847C114.251 86.3609 113.391 75.3025 114.852 69.2449" fill="#1C2C46"/>
<path d="M114.611 70.242C114.685 70.2182 117.564 69.6735 117.192 72.5192C116.823 75.3649 114.042 74.4064 114.048 74.3261C114.054 74.2427 114.611 70.242 114.611 70.242Z" fill="#1C2C46"/>
<path d="M101.028 87.5696C100.987 87.5785 100.903 87.3285 100.65 87.1558C100.4 86.9772 100.135 86.9862 100.132 86.9445C100.129 86.9266 100.195 86.8909 100.314 86.8909C100.43 86.8879 100.594 86.9266 100.743 87.0308C100.891 87.135 100.984 87.2749 101.022 87.385C101.058 87.4922 101.049 87.5666 101.028 87.5696Z" fill="#FAFAFA"/>
<path d="M102.868 87.5636C102.826 87.5874 102.603 87.1766 102.136 86.876C101.674 86.5664 101.21 86.5217 101.216 86.4741C101.207 86.4354 101.719 86.4116 102.222 86.745C102.725 87.0784 102.907 87.5576 102.868 87.5636Z" fill="#FAFAFA"/>
<path d="M104.023 93.6033C103.981 93.5944 104.059 93.0496 104.196 92.3888C104.333 91.725 104.478 91.1951 104.52 91.2041C104.562 91.213 104.484 91.7577 104.347 92.4186C104.211 93.0824 104.065 93.6122 104.023 93.6033Z" fill="#FAFAFA"/>
<path d="M108.667 94.5141C108.625 94.5141 108.608 93.9366 108.628 93.2282C108.649 92.5197 108.703 91.9452 108.744 91.9482C108.786 91.9482 108.804 92.5257 108.783 93.2341C108.762 93.9426 108.712 94.5171 108.667 94.5141Z" fill="#FAFAFA"/>
<path d="M93.0092 99.3127L94.9351 94.2851L91.7173 97.7381L93.0092 99.3127Z" fill="#2C4F7A"/>
<path d="M95.3966 93.645C94.3548 95.0351 93.4856 96.5771 93.0331 98.2559C92.5806 99.9348 92.5687 101.757 93.1849 103.382C94.0571 105.671 96.2182 107.415 98.6382 107.787" fill="#3A71B6"/>
<path d="M96.7455 101.134C96.7722 101.164 96.2751 101.625 95.5577 102.039C94.8404 102.459 94.1944 102.661 94.1825 102.623C94.1647 102.581 94.7749 102.316 95.4804 101.905C96.1858 101.497 96.7157 101.099 96.7455 101.134Z" fill="#FAFAFA"/>
<path d="M13.8562 107.743L9.26611 127.731L18.9731 127.761L23.456 110.184L13.8562 107.743Z" fill="#B78876"/>
<path d="M61.5249 83.1849C60.6021 81.9466 59.5424 80.7589 59.0572 79.2943C58.822 78.5859 58.7297 77.8357 58.4797 77.1332C58.2296 76.4307 57.7742 75.7461 57.0777 75.4812C56.3811 75.2162 55.8513 75.4841 55.3988 75.9813L52.0679 85.724L53.9878 93.2074C55.9048 92.7758 58.3041 92.2638 60.096 91.4571C61.885 90.6504 63.0847 89.3585 63.1978 87.3969C63.2841 85.8609 62.4476 84.4232 61.5249 83.1849Z" fill="#358483"/>
<path d="M31.2128 81.4643C31.2128 81.4643 19.6335 86.5069 18.1868 88.7781C16.7401 91.0523 11.9863 107.266 11.9863 107.266L24.1759 110.853L23.9765 127.731H53.8923L53.6452 97.9731L49.8916 81.5239C49.8916 81.5239 43.2863 81.0982 42.6761 80.7976C42.0629 80.4939 31.2128 81.4643 31.2128 81.4643Z" fill="#48B0AF"/>
<path d="M72.363 40.2012C72.4583 39.5196 71.982 38.7694 72.3244 38.1711C72.5149 37.8407 72.8959 37.68 73.2531 37.543C73.4376 37.4716 73.6252 37.4002 73.8216 37.4061C74.0181 37.4121 74.2265 37.5192 74.289 37.7038C74.3634 37.9211 74.2235 38.1562 74.0598 38.317C73.8961 38.4807 73.6966 38.6206 73.6103 38.8349C73.4942 39.1207 73.6014 40.0167 73.7204 40.2995C73.9228 40.7876 74.6432 42.9606 74.7057 43.4845" fill="#B78876"/>
<path d="M69.9189 40.4364C69.9606 39.4035 70.8 35.3314 70.8417 34.2985C71.5412 34.5128 71.9461 35.257 72.077 35.9773C72.208 36.6977 72.1396 37.4389 72.2646 38.1592C72.4313 39.1267 72.9343 39.9988 73.4404 40.8383C73.9464 41.6777 74.4763 42.529 74.7025 43.4846C74.9317 44.4401 75.7949 46.9137 75.1222 47.6281" fill="#B78876"/>
<path d="M69.7258 47.402L65.5882 67.072C65.4424 67.959 49.8921 81.5209 49.8921 81.5209L52.964 93.7879L71.7321 73.9839C73.1937 72.4211 73.9885 70.3523 73.9468 68.215L75.0928 49.7595L69.7258 47.402Z" fill="#B78876"/>
<path d="M69.017 40.5615L69.7225 47.4019L75.0895 49.7595C75.0895 49.7595 75.155 49.2743 75.3872 46.9019C75.6431 44.2853 72.8302 43.1631 71.577 41.2342C71.0412 40.4067 71.1811 38.8886 70.7673 37.0073C70.7197 36.79 70.419 35.4773 70.2583 34.7688C70.169 34.3789 69.9487 34.0247 69.6153 33.8014C69.3742 33.6377 69.0974 33.5573 68.898 33.8014C68.6955 34.0514 69.017 40.5615 69.017 40.5615Z" fill="#B78876"/>
<path d="M46.498 81.2708C49.8885 79.7617 53.2105 77.7583 55.3954 75.9812C54.681 79.5444 54.2137 84.5363 55.8032 87.8017C55.8032 87.8017 57.8184 91.5494 61.0273 90.9749L58.1667 93.7879L53.6421 97.9701" fill="#48B0AF"/>
<path d="M27.4355 58.386C26.1793 59.3713 26.096 61.2138 26.1585 62.8094C26.221 64.4049 26.2388 66.2207 25.0839 67.322C24.1313 68.2299 22.4644 68.5663 22.1905 69.8552C22.0625 70.4565 22.3483 71.1233 22.8722 71.4448C23.3961 71.7662 24.1194 71.7186 24.5957 71.3316C24.1909 72.3378 24.3754 73.6326 25.2327 74.2964C26.093 74.9602 27.5992 74.6507 27.9237 73.6148C27.7212 74.2994 28.1945 75.1061 28.8911 75.2698C29.5876 75.4305 30.3645 74.9156 30.4866 74.2101" fill="#39414A"/>
<path d="M45.665 69.9385C45.9269 70.7452 46.9152 71.2275 47.7129 70.9387C48.5107 70.65 48.9602 69.6468 48.6446 68.858C48.3976 68.2418 47.7635 67.7745 47.7338 67.1077C47.6981 66.304 48.5405 65.7712 49.2817 65.4586C50.0229 65.1431 50.8921 64.7323 51.0111 63.9345C51.1242 63.1666 50.4634 62.5295 49.9068 61.9848C49.3531 61.4401 48.8203 60.6125 49.2102 59.9398C49.4097 59.5945 49.7996 59.41 50.0616 59.1093C50.639 58.4455 50.4069 57.3293 49.7401 56.7548C49.0733 56.1802 48.1178 56.0582 47.2456 56.1713C46.3734 56.2844 45.54 56.6059 44.6856 56.8143C41.8667 57.5079 38.762 56.9482 36.3628 55.314" fill="#39414A"/>
<path d="M28.2901 64.5238L31.3561 82.2768C31.8949 85.3994 34.8716 87.4861 37.9912 86.9294C40.9054 86.4085 42.9385 83.7444 42.6765 80.7974C42.5366 79.2228 42.4146 77.919 42.4146 77.919C42.4146 77.919 46.8617 76.7759 46.4777 72.2573C46.2932 70.0724 45.5431 65.6044 44.8197 61.5709C44.0428 57.2369 40.063 54.2334 35.6813 54.659L35.2467 54.7007C30.5732 55.433 27.4269 59.8742 28.2901 64.5238Z" fill="#B78876"/>
<path d="M32.7074 59.0944C32.6984 59.1003 32.6925 59.1093 32.6836 59.1152C32.0198 59.7522 31.6239 60.6214 31.5881 61.5412C31.5881 61.574 31.5852 61.6037 31.5852 61.6335C31.5346 62.9373 31.6923 64.2441 31.6298 65.5508C31.5673 66.8546 31.2488 68.2061 30.3826 69.1854C30.0283 69.5873 29.3586 69.9058 28.9954 69.5099C28.8555 69.358 28.8138 69.1407 28.7781 68.9354C28.2334 65.8485 27.1171 63.1725 26.8046 59.9219C26.7212 59.0378 27.0546 58.1657 27.7244 57.5792C28.3584 57.0256 29.1383 56.4392 29.9301 56.722C30.7249 57.0077 31.8412 58.3264 32.4841 58.8711" fill="#39414A"/>
<path d="M30.0106 66.4171C29.9302 66.3903 26.8195 65.8009 27.2184 68.8788C27.6173 71.9568 30.6238 70.9209 30.6178 70.8316C30.6118 70.7423 30.0106 66.4171 30.0106 66.4171Z" fill="#B78876"/>
<path d="M29.8737 57.2131C28.9926 56.0522 30.9037 54.0757 32.3801 53.4476C33.8566 52.8195 35.9343 53.3672 37.5 53.7215C38.4883 53.9447 39.4825 54.296 40.4857 54.156C41.1584 54.0638 41.7775 53.7542 42.3937 53.4655C43.0099 53.1767 43.6529 52.9029 44.3316 52.882C45.0102 52.8612 45.7395 53.1529 46.0551 53.7542C46.3706 54.3555 46.0878 55.2485 45.43 55.4063C46.2396 54.8526 47.5345 55.3497 47.7667 56.3022C47.9988 57.2548 47.079 58.2907 46.1086 58.1776C46.5165 57.8025 47.2428 58.2847 47.2398 58.8384C47.2398 59.3921 46.7814 59.8386 46.2992 60.1094C45.0668 60.8 43.5487 60.7673 42.1735 60.4488C40.7982 60.1303 39.4944 59.5528 38.1251 59.1986C36.7588 58.8473 34.4608 58.1984 33.1808 58.7937C32.2372 59.2343 31.6746 60.4756 31.0972 60.2702C30.5405 60.0707 30.1476 59.5469 29.9839 58.9783C29.8231 58.4068 29.8469 57.8025 29.8737 57.2131Z" fill="#39414A"/>
<path d="M30.0493 66.944C30.1386 68.5752 30.2279 70.2154 30.6089 71.805C30.99 73.3945 31.6805 74.9424 32.8266 76.1063C34.3268 77.6333 36.2676 79.0949 38.3811 79.4432C40.688 79.8242 43.5099 79.342 45.3882 77.9489C46.2783 77.288 46.9272 75.8622 46.6504 74.7876C47.4094 74.4393 47.9452 73.6535 47.9899 72.82C48.0345 71.9865 47.5285 70.9447 46.8677 70.8346C47.3648 70.7542 47.5047 69.9683 47.3171 69.5218C47.1237 69.0575 46.4777 68.9444 45.9836 69.0396C45.4895 69.1349 45.0578 69.4266 44.653 69.7243C44.2482 70.0219 43.8404 70.3375 43.3641 70.4922C41.7686 71.0102 40.1522 69.6052 38.4764 69.6677C36.9612 69.7272 35.6128 70.9834 34.1095 70.772C33.2701 70.653 32.5468 70.0725 32.0854 69.3641C31.621 68.6526 31.8234 66.0242 31.6418 65.1967" fill="#39414A"/>
<path d="M72.6604 47.6579C73.2706 47.1429 73.2052 46.3571 72.9819 45.5921C72.7557 44.827 72.2407 44.1841 71.7168 43.5798C71.1929 42.9755 70.6065 42.3921 70.3207 41.6449C69.4337 39.344 68.9961 40.0524 68.9961 40.0524C68.9961 40.0524 69.7611 39.1921 68.9961 40.0524C69.4456 42.8833 69.1062 43.4012 70.0231 46.5089" fill="#9B695A"/>
<path d="M72.3629 48.5509C72.9731 48.0359 73.1041 47.1131 72.8778 46.3481C72.6516 45.5831 72.1366 44.9402 71.6127 44.3359C71.0888 43.7316 70.5381 43.1333 70.2166 42.401C69.9904 41.8861 69.8862 41.3235 69.6362 40.8204C69.3861 40.3173 68.9307 39.856 68.3711 39.8321C68.8206 42.663 68.8087 44.2912 69.7285 47.4019" fill="#B78876"/>
<path d="M66.4865 33.8817C66.4597 33.9145 64.7838 32.5511 62.7478 30.8395C60.7087 29.125 59.0805 27.711 59.1073 27.6783C59.134 27.6455 60.8099 29.0059 62.846 30.7205C64.885 32.435 66.5163 33.849 66.4865 33.8817Z" fill="#39414A"/>
<path d="M74.9765 31.8427C74.9348 31.8457 74.7652 29.1994 74.6015 25.934C74.4377 22.6686 74.3365 20.0193 74.3812 20.0163C74.4229 20.0133 74.5925 22.6596 74.7562 25.9251C74.92 29.1935 75.0182 31.8427 74.9765 31.8427Z" fill="#39414A"/>
<path d="M69.5708 29.9526C69.5292 29.9645 69.0082 28.4553 68.404 26.58C67.7997 24.7046 67.3443 23.1746 67.3859 23.1597C67.4276 23.1478 67.9485 24.657 68.5528 26.5323C69.1541 28.4076 69.6095 29.9406 69.5708 29.9526Z" fill="#39414A"/>
<path d="M64.7515 36.6739C64.7336 36.7126 63.7067 36.278 62.4535 35.7065C61.2032 35.132 60.2031 34.6378 60.2209 34.5991C60.2388 34.5604 61.2658 34.9921 62.5189 35.5666C63.7692 36.1381 64.7693 36.6352 64.7515 36.6739Z" fill="#39414A"/>
<path d="M56.9196 33.2537C56.9137 33.2954 56.6666 33.3013 56.3659 33.2626C56.0653 33.2239 55.8272 33.1614 55.8331 33.1168C55.8391 33.0751 56.0861 33.0691 56.3868 33.1078C56.6845 33.1465 56.9256 33.212 56.9196 33.2537Z" fill="#39414A"/>
<path d="M67.5793 21.2398C67.5377 21.2398 67.502 20.9957 67.502 20.6951C67.502 20.3944 67.5377 20.1503 67.5793 20.1503C67.621 20.1503 67.6567 20.3944 67.6567 20.6951C67.6567 20.9987 67.621 21.2398 67.5793 21.2398Z" fill="#39414A"/>
<path d="M85.505 25.4429C85.5378 25.4726 84.1625 27.0473 82.439 28.9613C80.7125 30.8754 79.2897 32.4054 79.2569 32.3756C79.2242 32.3458 80.5964 30.7712 82.3229 28.8572C84.0494 26.9431 85.4723 25.4161 85.505 25.4429Z" fill="#39414A"/>
<path d="M87.6898 23.2787C87.7196 23.3085 87.5618 23.5169 87.3356 23.7401C87.1094 23.9663 86.904 24.1241 86.8742 24.0943C86.8444 24.0646 87.0022 23.8562 87.2284 23.633C87.4517 23.4067 87.6601 23.249 87.6898 23.2787Z" fill="#39414A"/>
<path d="M92.994 30.8991C93 30.908 92.8541 30.9943 92.5892 31.1402C92.3243 31.2861 91.9373 31.4915 91.4521 31.7326C90.4847 32.2207 89.1333 32.8578 87.6062 33.4888C86.0792 34.1199 84.6742 34.6289 83.6442 34.9682C83.1293 35.1379 82.7125 35.2689 82.4208 35.3522C82.1291 35.4356 81.9684 35.4773 81.9654 35.4683C81.9624 35.4594 82.1172 35.3969 82.4029 35.2957C82.7125 35.1855 83.1203 35.0397 83.6085 34.8641C84.6265 34.4979 86.0226 33.974 87.5467 33.343C89.0678 32.7119 90.4251 32.0927 91.4045 31.6314C91.8748 31.4081 92.2618 31.2236 92.5594 31.0836C92.8363 30.9586 92.9911 30.8902 92.994 30.8991Z" fill="#39414A"/>
<path d="M88.6422 38.2278C88.6481 38.2486 88.3475 38.3528 87.8533 38.4897C87.3592 38.6266 86.6657 38.7874 85.8947 38.9183C85.1207 39.0493 84.4153 39.1267 83.9033 39.1624C83.3913 39.1982 83.0728 39.1982 83.0728 39.1773C83.0698 39.1535 83.3853 39.1178 83.8943 39.0523C84.4004 38.9898 85.1029 38.8945 85.8709 38.7636C86.6389 38.6326 87.3295 38.4897 87.8295 38.3796C88.3237 38.2724 88.6332 38.2039 88.6422 38.2278Z" fill="#39414A"/>
<path d="M92.5984 37.4955C92.5984 37.5372 92.2144 37.5729 91.7411 37.5729C91.2678 37.5729 90.8838 37.5372 90.8838 37.4955C90.8838 37.4538 91.2678 37.4181 91.7411 37.4181C92.2144 37.4181 92.5984 37.4508 92.5984 37.4955Z" fill="#39414A"/>
<path d="M136.085 127.731C136.085 127.773 107.089 127.809 71.327 127.809C35.5531 127.809 6.56299 127.773 6.56299 127.731C6.56299 127.69 35.5531 127.654 71.327 127.654C107.086 127.654 136.085 127.69 136.085 127.731Z" fill="#39414A"/>
<path d="M70.2257 111.356C71.0681 111.466 71.8182 112.002 72.3124 112.69C72.8095 113.378 73.0744 114.211 73.2143 115.047C73.4852 116.667 73.0476 118.509 72.4463 120.036C70.7942 119.262 69.9131 117.337 69.5292 116.33C68.9219 114.747 68.785 111.505 70.2257 111.356Z" fill="#9ACDCE"/>
<path d="M74.8843 122.32C74.3604 121.528 74.3723 120.447 74.8218 119.611C75.2713 118.774 76.1077 118.182 77.0216 117.926C77.4443 117.807 77.9325 117.765 78.2897 118.015C78.626 118.25 78.763 118.7 78.7094 119.108C78.6558 119.515 78.4415 119.882 78.1885 120.206C77.3252 121.319 76.2893 122.236 74.8843 122.32Z" fill="#9ACDCE"/>
<path d="M74.4677 127.451C74.4558 127.451 74.4349 127.329 74.4111 127.109C74.3873 126.889 74.3605 126.57 74.3397 126.174C74.301 125.386 74.2682 124.275 74.5272 123.079C74.7892 121.879 75.3696 120.891 75.9352 120.319C76.215 120.03 76.474 119.834 76.6675 119.718C76.858 119.602 76.9711 119.554 76.977 119.563C76.9979 119.593 76.5514 119.822 76.0304 120.408C75.5065 120.983 74.9618 121.95 74.7058 123.117C74.4498 124.284 74.4617 125.383 74.4677 126.168C74.4825 126.96 74.4945 127.451 74.4677 127.451Z" fill="#39414A"/>
<path d="M70.6126 113.815C70.6245 113.812 70.6989 114 70.8209 114.345C70.943 114.69 71.1126 115.19 71.318 115.815C71.7258 117.06 72.2587 118.789 72.8004 120.712C73.3422 122.635 73.7887 124.388 74.0923 125.662C74.2441 126.299 74.3602 126.814 74.4346 127.175C74.5091 127.532 74.5448 127.731 74.5329 127.734C74.521 127.737 74.4614 127.544 74.3632 127.189C74.259 126.805 74.1251 126.299 73.9643 125.692C73.6309 124.427 73.1636 122.683 72.6218 120.76C72.0801 118.84 71.5681 117.107 71.193 115.854C71.0144 115.25 70.8656 114.75 70.7525 114.369C70.6512 114.015 70.6006 113.818 70.6126 113.815Z" fill="#39414A"/>
<path d="M72.6845 123.861C71.8778 122.031 70.1364 120.644 68.1718 120.266C67.6717 120.17 67.0555 120.182 66.7757 120.611C66.4959 121.039 66.737 121.611 67.0347 122.025C68.2819 123.742 70.6395 124.567 72.6845 124.001" fill="#9ACDCE"/>
<path d="M68.7198 121.703C68.7228 121.691 68.8389 121.703 69.0502 121.736C69.1574 121.751 69.2854 121.775 69.4282 121.816C69.5741 121.858 69.7438 121.894 69.9224 121.965C70.2855 122.084 70.6993 122.278 71.1369 122.531C71.5685 122.793 72.018 123.126 72.4407 123.528C72.8574 123.939 73.2027 124.376 73.4825 124.799C73.7504 125.228 73.9558 125.636 74.0868 125.996C74.1642 126.171 74.2058 126.338 74.2505 126.484C74.2981 126.627 74.3249 126.755 74.3428 126.862C74.3844 127.07 74.3993 127.186 74.3874 127.189C74.3517 127.198 74.2624 126.734 73.9677 126.046C73.8218 125.701 73.6105 125.308 73.3396 124.894C73.0598 124.487 72.7205 124.061 72.3127 123.662C71.8989 123.269 71.4643 122.942 71.0476 122.677C70.6249 122.421 70.226 122.221 69.8747 122.087C69.1782 121.816 68.7138 121.739 68.7198 121.703Z" fill="#39414A"/>
</g>
<defs>
<clipPath id="clip0">
<rect width="146" height="146" fill="white"/>
</clipPath>
</defs>
</svg>
