<svg width="117" height="32" viewBox="0 0 117 32" fill="none" xmlns="http://www.w3.org/2000/svg">
<path d="M30.0113 0.169498H30.9432V1.22772C30.9432 1.5377 30.9161 1.79271 30.9161 1.79271H30.9432C31.2774 0.833747 32.3915 0 33.477 0C34.7718 0 35.4402 0.60775 35.648 1.77897H35.6766C36.053 0.818477 37.0677 0 38.2511 0C39.9493 0 40.5756 1.00172 40.5756 2.7532V7.27009H39.6287V2.99294C39.6287 1.83546 39.3923 0.874976 38.1111 0.874976C37.0391 0.874976 36.1629 1.83546 35.8979 2.87994C35.8001 3.18992 35.773 3.52892 35.773 3.91067V7.27009H34.826V2.99294C34.826 1.91945 34.6724 0.874976 33.3506 0.874976C32.2094 0.874976 31.3467 1.87669 31.0546 2.96392C30.9854 3.26016 30.9567 3.58542 30.9567 3.90914V7.26856H30.0098V0.169498H30.0113Z" fill="white"/>
<path d="M41.5743 9.04899C41.5743 9.04899 41.9642 9.37424 42.4099 9.37424C43.0226 9.37424 43.4532 8.86575 43.7317 8.21677L44.1638 7.21505L41.2401 0.169434H42.2834L44.343 5.35058C44.4815 5.70331 44.5929 6.09881 44.5929 6.09881H44.6215C44.6215 6.09881 44.7194 5.70331 44.8579 5.35058L46.8768 0.169434H47.9066L44.4544 8.75275C44.0931 9.65674 43.3689 10.2355 42.4355 10.2355C41.7113 10.2355 41.21 9.8125 41.21 9.8125L41.5743 9.04899Z" fill="white"/>
<path d="M0 7.27466H6.12905V8.86275H3.8602L7.26122 23.0196C7.39672 23.6228 7.44941 24.2794 7.44941 24.2794H7.55781C7.55781 24.2794 7.63911 23.6228 7.8002 23.0196L12.1482 7.27466H13.9037L18.2773 23.0196C18.4398 23.6228 18.5196 24.2794 18.5196 24.2794H18.628C18.628 24.2794 18.6822 23.6228 18.8162 23.0196L22.2172 8.86275H19.9499V7.27466H26.079V8.86275H24.1353L19.7346 26.5241H17.4944L13.3105 11.3808C13.1479 10.8051 13.0952 10.121 13.0952 10.121H12.9868C12.9868 10.121 12.9326 10.8051 12.7715 11.3808L8.55899 26.5241H6.34585L1.91655 8.86275H0V7.27466Z" fill="#7FCECF"/>
<path d="M32.8565 12.4221C36.8251 12.4221 40.0379 15.4884 40.0379 19.5685C40.0379 23.7311 36.8251 26.8524 32.8565 26.8524C28.915 26.8524 25.7021 23.7311 25.7021 19.5685C25.7021 15.4884 28.915 12.4221 32.8565 12.4221ZM32.8565 25.1818C35.7727 25.1818 38.1484 22.7722 38.1484 19.5685C38.1484 16.4473 35.7727 14.0927 32.8565 14.0927C29.9673 14.0927 27.5916 16.4473 27.5916 19.5685C27.5916 22.7722 29.9673 25.1818 32.8565 25.1818Z" fill="#7FCECF"/>
<path d="M41.4491 24.991H43.5554V14.8868C43.5554 14.476 43.3401 14.2851 42.9622 14.2851H41.127V12.7505H43.6924C44.8261 12.7505 45.3394 13.2162 45.3394 14.3111V15.2425C45.3394 15.8182 45.2853 16.2824 45.2853 16.2824H45.3394C46.0124 14.2011 47.524 12.613 49.6302 12.613C50.0081 12.613 50.386 12.6955 50.386 12.6955V14.5294C50.386 14.5294 50.0352 14.4745 49.6844 14.4745C46.6342 14.4745 45.3921 17.9515 45.3921 20.6909V24.9894H47.4984V26.5226H41.4506V24.991H41.4491Z" fill="#7FCECF"/>
<path d="M50.4958 24.991H52.7903V8.80778H50.3604V7.27466H54.6255V18.1179H56.7589L59.9717 14.2852H58.0281V12.7505H63.859V14.2836H61.9696L58.2434 18.6646V18.7196C58.2705 18.7196 58.6483 18.8845 59.1888 19.8145L61.8883 24.4153C62.1578 24.8811 62.3746 24.991 63.1303 24.991H64.0487V26.5241H62.5372C61.1867 26.5241 60.8359 26.2783 60.1885 25.1544L57.2994 20.1977C56.9757 19.7045 56.6249 19.6221 55.976 19.6221H54.6255V24.9895H56.786V26.5226H50.4958V24.991Z" fill="#7FCECF"/>
<path d="M65.6338 22.2515H67.3079V23.238C67.3079 24.6352 69.2787 25.2368 70.8445 25.2368C72.5728 25.2368 74.0302 24.4703 74.0302 23.0731C74.0302 21.485 72.3018 20.9368 70.3582 20.1977C68.3061 19.4312 66.1472 18.4997 66.1472 16.0901C66.1472 13.5705 68.5771 12.4207 70.8445 12.4207C72.6797 12.4207 75.3536 13.2147 75.3536 15.1036V16.6917H73.6794V15.6778C73.6794 14.6654 72.3289 14.0347 70.8987 14.0347C69.3871 14.0347 68.0366 14.6913 68.0366 16.0336C68.0366 17.5392 69.6837 18.1698 71.4647 18.8265C73.571 19.593 75.8925 20.497 75.8925 22.9616C75.8925 25.3437 73.7863 26.8494 70.7632 26.8494C68.2519 26.8494 65.6338 25.6995 65.6338 23.5907V22.2515Z" fill="#7FCECF"/>
<path d="M79.6458 30.4668V14.8867C79.6458 14.4759 79.4305 14.2851 79.0511 14.2851H77.2158V12.7504H79.7813C80.942 12.7504 81.4012 13.2437 81.4012 14.2011V14.311C81.4012 14.8592 81.3199 15.27 81.3199 15.27H81.3741C81.3741 15.27 82.4807 12.4221 86.1256 12.4221C89.7705 12.4221 92.0378 15.3799 92.0378 19.651C92.0378 24.0045 89.4724 26.8524 85.9359 26.8524C82.6689 26.8524 81.4539 24.1144 81.4539 24.1144H81.3997C81.3997 24.1144 81.481 24.6077 81.481 25.3192V30.4668H83.7754V31.9999H77.3498V30.4668H79.6458ZM85.7462 25.1818C88.149 25.1818 90.1469 23.1555 90.1469 19.651C90.1469 16.2824 88.3658 14.1202 85.8275 14.1202C83.5602 14.1202 81.4539 15.7632 81.4539 19.6785C81.4539 22.4439 82.9655 25.1818 85.7462 25.1818Z" fill="#7FCECF"/>
<path d="M101.222 12.4221C105.19 12.4221 108.403 15.4884 108.403 19.5685C108.403 23.7311 105.19 26.8524 101.222 26.8524C97.2802 26.8524 94.0674 23.7311 94.0674 19.5685C94.0674 15.4884 97.2802 12.4221 101.222 12.4221ZM101.222 25.1818C104.138 25.1818 106.514 22.7722 106.514 19.5685C106.514 16.4473 104.138 14.0927 101.222 14.0927C98.3326 14.0927 95.9568 16.4473 95.9568 19.5685C95.9568 22.7722 98.3326 25.1818 101.222 25.1818Z" fill="#7FCECF"/>
<path d="M111.466 14.2837H109.036V12.7506H111.493V8.94531H113.301V12.7506H116.729V14.2837H113.301V21.3477C113.301 24.5788 115.326 25.0171 116.379 25.0171C116.757 25.0171 116.999 24.9621 116.999 24.9621V26.5777C116.999 26.5777 116.675 26.6327 116.216 26.6327C114.65 26.6327 111.465 26.1119 111.465 21.5126V14.2837H111.466Z" fill="#7FCECF"/>
</svg>
