<svg width="840" height="381" viewBox="0 0 840 381" fill="none" xmlns="http://www.w3.org/2000/svg">
<path d="M18.5 156.5H74.5C75.6046 156.5 76.5 157.395 76.5 158.5V214.712C76.5 215.817 75.6046 216.712 74.5 216.712H17.9163C16.8117 216.712 15.9163 217.608 15.9163 218.712V262.818C15.9163 263.304 15.7392 263.774 15.4181 264.139L15.0278 264.583C14.648 265.015 14.1009 265.262 13.5259 265.262H3C1.89543 265.262 1 266.158 1 267.262V292.5V329C1 330.105 1.89543 331 3 331H14.5C15.6046 331 16.5 331.895 16.5 333V344.5C16.5 345.605 17.3954 346.5 18.5 346.5H69C70.1046 346.5 71 345.605 71 344.5V294.5C71 293.395 71.8954 292.5 73 292.5H96C97.1046 292.5 98 291.605 98 290.5V244C98 242.895 98.8954 242 100 242H202.5C203.605 242 204.5 241.105 204.5 240V182C204.5 180.895 203.605 180 202.5 180H182C180.895 180 180 179.105 180 178V125.5C180 124.395 180.895 123.5 182 123.5H205.071C205.354 123.5 205.631 123.44 205.891 123.329C209.537 121.784 218.825 119 230 119C241.31 119 252.271 121.852 256.674 123.385C256.892 123.461 257.118 123.5 257.349 123.5H286.25C287.216 123.5 288 122.716 288 121.75C288 120.784 288.784 120 289.75 120H301.5C302.605 120 303.5 120.895 303.5 122V123C303.5 124.105 304.395 125 305.5 125H370C371.105 125 372 124.105 372 123V106.531C372 106.183 371.907 105.844 371.755 105.531C370.365 102.671 368 94.439 368 80.5C368 67.193 370.156 60.4342 371.56 58.1157C371.814 57.6967 372 57.2294 372 56.7396V43C372 41.8954 371.105 41 370 41C368.895 41 368 40.1046 368 39V22.5754C368 21.4418 367.059 20.5344 365.927 20.586C344.384 21.5688 304.583 25.9606 285.255 28.2876C284.251 28.4085 283.5 29.2602 283.5 30.2713V40.5C283.5 41.6046 282.605 42.5 281.5 42.5H218.5C217.395 42.5 216.5 41.6046 216.5 40.5V37C216.5 35.8954 215.605 35 214.5 35H181.5C180.395 35 179.5 35.8954 179.5 37V40.5C179.5 41.6046 178.605 42.5 177.5 42.5H114C112.895 42.5 112 41.6046 112 40.5V37.5C112 36.3954 111.105 35.5 110 35.5H91C90.7239 35.5 90.5 35.2761 90.5 35C90.5 34.7239 90.2761 34.5 90 34.5H82.5C82.2239 34.5 82 34.7239 82 35C82 35.2761 81.7761 35.5 81.5 35.5H77.5C76.3954 35.5 75.5 36.3954 75.5 37.5V40.5C75.5 41.6046 74.6046 42.5 73.5 42.5H18C16.8954 42.5 16 43.3954 16 44.5V55.5C16 56.6046 15.1046 57.5 14 57.5H3C1.89543 57.5 1 58.3954 1 59.5V121C1 122.105 1.89543 123 3 123H14.5C15.6046 123 16.5 123.895 16.5 125V154.5C16.5 155.605 17.3954 156.5 18.5 156.5Z" fill="#FEEF99"/>
<path d="M811.5 264V261.5V236.5C811.5 235.395 810.605 234.5 809.5 234.5H549.5C548.395 234.5 547.5 233.605 547.5 232.5V178.5C547.5 177.395 546.605 176.5 545.5 176.5H521.5C520.395 176.5 519.5 177.395 519.5 178.5V193.5C519.5 194.605 518.605 195.5 517.5 195.5H480.5C479.395 195.5 478.5 196.395 478.5 197.5V251.5C478.5 252.605 477.605 253.5 476.5 253.5H375C373.895 253.5 373 254.395 373 255.5V315.5C373 316.605 373.895 317.5 375 317.5H541.5C542.605 317.5 543.5 318.395 543.5 319.5V345C543.5 346.105 544.395 347 545.5 347H608C609.105 347 610 347.895 610 349V352.5C610 353.605 610.895 354.5 612 354.5H645.5C646.605 354.5 647.5 353.605 647.5 352.5V349C647.5 347.895 648.395 347 649.5 347H712.5C713.605 347 714.5 347.895 714.5 349V352.5C714.5 353.605 715.395 354.5 716.5 354.5H750C751.105 354.5 752 353.605 752 352.5V349C752 347.895 752.895 347 754 347H809.5C810.605 347 811.5 346.105 811.5 345V334C811.5 332.895 812.395 332 813.5 332H824.5C825.605 332 826.5 331.105 826.5 330V268C826.5 266.895 825.605 266 824.5 266H813.5C812.395 266 811.5 265.105 811.5 264Z" fill="#F7C687"/>
<path d="M458 39V21C458 19.8954 458.887 18.9993 459.992 19.0087C484.963 19.2223 526.551 23.3217 542.027 27.1177C542.901 27.3321 543.5 28.1232 543.5 29.023V39.5C543.5 40.6046 544.395 41.5 545.5 41.5H608C609.105 41.5 610 40.6046 610 39.5V36.5C610 35.3954 610.895 34.5 612 34.5H646C647.105 34.5 648 35.3954 648 36.5V39.5C648 40.6046 648.895 41.5 650 41.5H712.5C713.605 41.5 714.5 40.6046 714.5 39.5V37C714.5 35.8954 715.395 35 716.5 35H749.5C750.605 35 751.5 35.8954 751.5 37V39.5C751.5 40.6046 752.395 41.5 753.5 41.5H809.5C810.605 41.5 811.5 42.3954 811.5 43.5V54.5C811.5 55.6046 812.395 56.5 813.5 56.5H824C825.105 56.5 826 57.3954 826 58.5V121C826 122.105 825.105 123 824 123H783.5C782.395 123 781.5 123.895 781.5 125V185.5C781.5 186.605 782.395 187.5 783.5 187.5H809.5C810.605 187.5 811.5 188.395 811.5 189.5V231.5C811.5 232.605 810.605 233.5 809.5 233.5H615C613.895 233.5 613 232.605 613 231.5V165C613 163.895 612.105 163 611 163H575.5C574.395 163 573.5 162.105 573.5 161V127C573.5 125.895 572.605 125 571.5 125H482C480.895 125 480 124.105 480 123V87C480 85.8954 479.108 85 478.003 85H461.053C459.927 85 459.028 84.0663 459.035 82.94C459.117 70.4588 456.71 62.4378 455.242 59.4602C455.09 59.1522 455 58.8196 455 58.4761V42C455 41.1716 455.672 40.5 456.5 40.5C457.328 40.5 458 39.8284 458 39Z" fill="#C8E9FF"/>
<path d="M72 295.5V344.75C72 345.716 72.7835 346.5 73.75 346.5C74.7165 346.5 75.5 347.284 75.5 348.25V351C75.5 352.105 76.3954 353 77.5 353H81.75C82.1642 353 82.5 353.336 82.5 353.75C82.5 354.164 82.8358 354.5 83.25 354.5H90.25C90.6642 354.5 91 354.164 91 353.75C91 353.336 91.3358 353 91.75 353H110C111.105 353 112 352.105 112 351V348.5C112 347.395 112.895 346.5 114 346.5H177.5C178.605 346.5 179.5 347.395 179.5 348.5V351C179.5 352.105 180.395 353 181.5 353H186.75C187.164 353 187.5 353.336 187.5 353.75C187.5 354.164 187.836 354.5 188.25 354.5H207.75C208.164 354.5 208.5 354.164 208.5 353.75C208.5 353.336 208.836 353 209.25 353H214.5C215.605 353 216.5 352.105 216.5 351V348.5C216.5 347.395 217.395 346.5 218.5 346.5H282C283.105 346.5 284 345.605 284 344.5V319.5C284 318.395 284.895 317.5 286 317.5H370C371.105 317.5 372 316.605 372 315.5V146.5C372 145.395 371.105 144.5 370 144.5H344.5C343.395 144.5 342.5 145.395 342.5 146.5V151C342.5 152.105 341.605 153 340.5 153H308C306.895 153 306 152.105 306 151V146.5C306 145.395 305.105 144.5 304 144.5H286.5C285.395 144.5 284.5 145.395 284.5 146.5V193.5C284.5 194.605 283.605 195.5 282.5 195.5H207.5C206.395 195.5 205.5 196.395 205.5 197.5V241C205.5 242.105 204.605 243 203.5 243H180.5C179.395 243 178.5 243.895 178.5 245V272.5C178.5 273.605 177.605 274.5 176.5 274.5H139C137.895 274.5 137 275.395 137 276.5V305.5C137 306.605 136.105 307.5 135 307.5H116C114.895 307.5 114 306.605 114 305.5V295.5C114 294.395 113.105 293.5 112 293.5H74C72.8954 293.5 72 294.395 72 295.5Z" fill="#E0F1F1"/>
<path d="M811.5 219V264C811.5 265.105 812.395 266 813.5 266H824.5C825.605 266 826.5 266.895 826.5 268V330C826.5 331.105 825.605 332 824.5 332H813.5C812.395 332 811.5 332.895 811.5 334V345C811.5 346.105 810.605 347 809.5 347H754C752.895 347 752 347.895 752 349V352.5C752 353.605 751.105 354.5 750 354.5H744.5M735 354.5H716.5C715.395 354.5 714.5 353.605 714.5 352.5V349C714.5 347.895 713.605 347 712.5 347H650C648.895 347 648 347.895 648 349V352.5C648 353.605 647.105 354.5 646 354.5H640M617 354.5H612C610.895 354.5 610 353.605 610 352.5V349C610 347.895 609.105 347 608 347H545.5C544.395 347 543.5 346.105 543.5 345V319.5C543.5 318.395 542.605 317.5 541.5 317.5H422.5M404 317.5H286C284.895 317.5 284 318.395 284 319.5V344.5C284 345.605 283.105 346.5 282 346.5H218.5C217.395 346.5 216.5 347.395 216.5 348.5V351C216.5 352.105 215.605 353 214.5 353H209.25C208.836 353 208.5 353.336 208.5 353.75V353.75C208.5 354.164 208.164 354.5 207.75 354.5H188.25C187.836 354.5 187.5 354.164 187.5 353.75V353.75C187.5 353.336 187.164 353 186.75 353H181.5C180.395 353 179.5 352.105 179.5 351V348.5C179.5 347.395 178.605 346.5 177.5 346.5H114C112.895 346.5 112 347.395 112 348.5V351C112 352.105 111.105 353 110 353H92.2906C91.8184 353 91.3993 353.302 91.25 353.75V353.75C91.1007 354.198 90.6816 354.5 90.2094 354.5H83.25C82.8358 354.5 82.5 354.164 82.5 353.75V353.75C82.5 353.336 82.1642 353 81.75 353H77.5C76.3954 353 75.5 352.105 75.5 351V348.5C75.5 347.395 74.6046 346.5 73.5 346.5H18.5C17.3954 346.5 16.5 345.605 16.5 344.5V333C16.5 331.895 15.6046 331 14.5 331H3C1.89543 331 1 330.105 1 329V267C1 265.895 1.89543 265 3 265H14C15.1046 265 16 264.105 16 263V187.25C16 186.836 15.6642 186.5 15.25 186.5V186.5C14.8358 186.5 14.5 186.164 14.5 185.75V169.5C14.5 168.948 14.9477 168.5 15.5 168.5V168.5C16.0523 168.5 16.5 168.052 16.5 167.5V125C16.5 123.895 15.6046 123 14.5 123H3C1.89543 123 1 122.105 1 121L1 59.5C1 58.3954 1.89543 57.5 3 57.5H14C15.1046 57.5 16 56.6046 16 55.5V44.5C16 43.3954 16.8954 42.5 18 42.5H73.5C74.6046 42.5 75.5 41.6046 75.5 40.5V37.5C75.5 36.3954 76.3954 35.5 77.5 35.5H81.5C81.7761 35.5 82 35.2761 82 35V35C82 34.7239 82.2239 34.5 82.5 34.5H90C90.2761 34.5 90.5 34.7239 90.5 35V35C90.5 35.2761 90.7239 35.5 91 35.5H110C111.105 35.5 112 36.3954 112 37.5V40.5C112 41.6046 112.895 42.5 114 42.5H177.5C178.605 42.5 179.5 41.6046 179.5 40.5V37C179.5 35.8954 180.395 35 181.5 35H185.5M209 35H214.5C215.605 35 216.5 35.8954 216.5 37V40.5C216.5 41.6046 217.395 42.5 218.5 42.5H281.5C282.605 42.5 283.5 41.6046 283.5 40.5V30.2798C283.5 29.2651 284.237 28.4139 285.244 28.2962C311.997 25.1746 375.011 18 429 18C482.349 18 526.451 23.6043 541.987 27.1398C542.882 27.3434 543.5 28.1438 543.5 29.0616V39.5C543.5 40.6046 544.395 41.5 545.5 41.5H608C609.105 41.5 610 40.6046 610 39.5V36.5C610 35.3954 610.895 34.5 612 34.5H618M640.5 34.5H646C647.105 34.5 648 35.3954 648 36.5V39.5C648 40.6046 648.895 41.5 650 41.5H712.5C713.605 41.5 714.5 40.6046 714.5 39.5V37C714.5 35.8954 715.395 35 716.5 35H735.5M745 35H749.5C750.605 35 751.5 35.8954 751.5 37V39.5C751.5 40.6046 752.395 41.5 753.5 41.5H809.5C810.605 41.5 811.5 42.3954 811.5 43.5V54.5C811.5 55.6046 812.395 56.5 813.5 56.5H824C825.105 56.5 826 57.3954 826 58.5V121C826 122.105 825.105 123 824 123H813.5C812.395 123 811.5 123.895 811.5 125V128.5M811.5 136.5V202" stroke="#95A7B8"/>
<path d="M785 42V73M785 82.5H824C825.105 82.5 826 83.3954 826 84.5V121C826 122.105 825.105 123 824 123H785M812 187.5H783.5C782.395 187.5 781.5 186.605 781.5 185.5V125C781.5 123.895 782.395 123 783.5 123H785M785 123V92.5M812 261.5H791.5C790.395 261.5 789.5 262.395 789.5 263.5V292M789.5 301V303.5C789.5 304.605 790.395 305.5 791.5 305.5H827M695.5 347V317.5C695.5 316.395 694.605 315.5 693.5 315.5H692M684 315.5H650C648.895 315.5 648 316.395 648 317.5V349.5M318 278.5H313.5C312.395 278.5 311.5 279.395 311.5 280.5V315.5C311.5 316.605 312.395 317.5 313.5 317.5H370C371.105 317.5 372 316.605 372 315.5V280.5C372 279.395 371.105 278.5 370 278.5H326.5M372 206.5V269M372 198.5V195.5M335 144.5H342.5M318 144.5H306M272 144.5H284.5M262 144.5H256.5M256.5 144.5V156C256.5 157.105 257.395 158 258.5 158H273.5M256.5 144.5C253.167 146 243.2 149 230 149C217.451 149 209.029 146.289 205.938 144.732C205.645 144.585 205.328 144.5 205 144.5V144.5M282 158H284.5M284.5 158V144.5M284.5 158V180M284.5 144.5H306M284.5 195.5H275.5M284.5 195.5H305M284.5 195.5V180M306 144.5V151C306 152.105 306.895 153 308 153H342.5M342.5 153V144.5M342.5 153V195.5M342.5 144.5H370C371.105 144.5 372 145.395 372 146.5V195.5M342.5 195.5H346.5M342.5 195.5H322M354 195.5H372M267 195.5L256.5 195.501M204.5 195.5V242M204.5 195.5H228M204.5 195.5V182C204.5 180.895 203.605 180 202.5 180H180M204.5 242H217.5M204.5 242H178.5M226 242H228.5M231 242H228.5M239.5 242H258.978C260.091 242 260.99 241.091 260.978 239.978L260.828 226M228 195.5L228.5 195.508M228 195.5L232 195.5M228 195.5V149M228.5 242V195.508M228.5 195.508L256.5 195.501M256.5 195.501L258.521 195.5C259.617 195.5 260.509 196.383 260.521 197.479L260.828 226M256.5 195.501V182C256.5 180.895 257.395 180 258.5 180H284.5M256.5 195.501L232 195.5M284.5 204.5V224C284.5 225.105 283.605 226 282.5 226H260.828M232 195.5V149M201 144.5H205M205 144.5V156.5C205 157.605 204.105 158.5 203 158.5H190.5M183 158.5H180M180 158.5V144.5M180 158.5V180M180 144.5H190.5M180 144.5H153M180 195.508V180M98 242V225M98 242H110M98 242V244.5M133.5 144.5H125.5M125.5 144.5H110.828C110.298 144.5 109.789 144.711 109.414 145.086L98.5858 155.914C98.2107 156.289 98 156.798 98 157.328V173.5M125.5 144.5V173.5M125.5 183V173.5M125.5 173.5H122.5M114 173.5H98M98 173.5V225M98 225H111C112.105 225 113 225.895 113 227V231M113 238.5V242M113 242H110M113 242H137M110 242V245.5C110 246.605 110.895 247.5 112 247.5H137M137 247.5V242M137 247.5V252.5M137 242H178.5M178.5 242V252.5M98 291.5V289.5M98 289.5H101.5C102.605 289.5 103.5 288.605 103.5 287.5V246.5C103.5 245.395 102.605 244.5 101.5 244.5H98M98 289.5V274.5M98 244.5V274.5M71 347V344.5M178.5 307.5V335M178.5 307.5V304.5M178.5 307.5H137M178.5 296V274.5M178.5 264V274.5M178.5 274.5H137M137 274.5V307.5M137 274.5V267.5M137 260.5V267.5M137 307.5H116C114.895 307.5 114 306.605 114 305.5V302.5M137 267.5H133.5C132.395 267.5 131.5 268.395 131.5 269.5V300.5C131.5 301.605 130.605 302.5 129.5 302.5H114M114 302.5V294.5C114 293.395 113.105 292.5 112 292.5H91.5M91.5 292.5H73C71.8954 292.5 71 293.395 71 294.5V344.5M91.5 292.5V342.5C91.5 343.605 90.6046 344.5 89.5 344.5H88.5M80.5 344.5H71M1 292.5H28.5M57 264H76.5M57 264H28.5M57 264V267.5M25 264H28.5M76.5 264V219C76.5 217.895 75.6046 217 74.5 217H18C16.8954 217 16 217.895 16 219V262C16 263.105 16.8954 264 18 264H19M76.5 264V267.5M28.5 264V282M28.5 289.5V292.5M28.5 292.5H55C56.1046 292.5 57 291.605 57 290.5V267.5M57 267.5H76.5M76.5 267.5V272.5C76.5 273.605 77.3954 274.5 78.5 274.5H79M95.5 274.5H98M16 156.5H62M71 156.5H74.5C75.6046 156.5 76.5 155.605 76.5 154.5V123M76.5 123H13.8387M76.5 123H104.5C105.605 123 106.5 122.105 106.5 121V119.5M106.5 110V84.5M106.5 51V63.5M106.5 43V35.5M106.5 63.5H109M106.5 63.5V84.5M117 63.5H131M131 63.5V43M131 63.5V84.5M131 84.5H130H106.5M131 84.5H149.5M157 84.5H160.5M160.5 84.5V42M160.5 84.5V121.5C160.5 122.605 161.395 123.5 162.5 123.5H205.175C205.39 123.5 205.603 123.465 205.807 123.399C209.46 122.204 217.335 120 222 120M239.5 120C241.64 120 247.942 120.683 256.19 123.397C256.394 123.465 256.601 123.5 256.816 123.5C261.404 123.5 277.284 123.5 286.25 123.5C287.217 123.5 288 122.716 288 121.75V121.75C288 120.784 288.784 120 289.75 120H301.5C302.605 120 303.5 120.895 303.5 122V123C303.5 124.105 304.395 125 305.5 125H370C371.105 125 372 124.105 372 123V106.447C372 106.153 371.935 105.867 371.82 105.596C370.441 102.354 368 93.2763 368 79.5C368 66.958 370.023 60.8388 371.426 58.6976C371.742 58.2152 372 57.6692 372 57.0925V55.5M368 20.5V38.5C368 39.6046 368.895 40.5 370 40.5V40.5C371.105 40.5 372 41.3954 372 42.5V55.5M399 19V32M382 55.5C382.479 55.6597 383.785 55.8807 385.301 55.5467C385.434 55.5176 385.571 55.4974 385.707 55.4904C395.013 55.0095 398.406 48.5002 398.977 45.1446C398.993 45.0467 399 44.9501 399 44.8508V32M374 55.5H372M399 32H404.5M421.5 32H427C428.105 32 429 31.1046 429 30V19M458 19V39C458 39.8284 457.328 40.5 456.5 40.5V40.5C455.672 40.5 455 41.1716 455 42V58.8496C455 59.2723 455.14 59.6805 455.342 60.0513C455.922 61.1112 456.649 63.0479 457.302 66M459 85C459 98.053 457.225 104.007 455.847 106.119C455.434 106.754 455 107.479 455 108.236V123C455 124.105 455.895 125 457 125H480M459 85H463.5M459 85C459 76.3763 458.225 70.1735 457.302 66M547.5 76V93.5M547.5 93.5H544M547.5 93.5V109.25M536 93.5H510M510 93.5V87C510 85.8954 509.105 85 508 85H491M510 93.5V125M510 125H545.5C546.605 125 547.5 124.105 547.5 123V109.25M510 125H480M480 125V85M480 85H483M480 85H470.5M547.5 109.25H580M621 56.5H619.5C618.395 56.5 617.5 57.3954 617.5 58.5V76M627.5 56.5H648M648 56.5V39.5M648 56.5V93.5M648 97.5V93.5M648 93.5H617.5M617.5 93.5V107.25C617.5 108.355 616.605 109.25 615.5 109.25H580M617.5 93.5V76M580 109.25V78C580 76.8954 580.895 76 582 76H607M614.5 76H617.5M657.5 93.5H680C681.105 93.5 682 92.6046 682 91.5V41.5M613 124V163M599.5 216H611C612.105 216 613 215.105 613 214V163M583.5 216H581.5M574 216H566.5C565.395 216 564.5 215.105 564.5 214V211.429C564.5 211.146 564.557 210.874 564.671 210.615C567.722 203.685 573.5 186.701 573.5 171C573.5 155.275 567.704 137.618 564.657 130.371C564.552 130.121 564.5 129.86 564.5 129.589V127C564.5 125.895 565.395 125 566.5 125H571.511C572.611 125 573.505 125.889 573.511 126.989L573.709 163M574 216H581.5M574 216L573.874 193M581.5 216V195C581.5 193.895 580.605 193 579.5 193H573.874M573.874 193L573.709 163M573.709 163H613M437 125H439.5C440.605 125 441.5 124.105 441.5 123V88.5C441.5 87.3954 440.605 86.5 439.5 86.5H387.5C386.395 86.5 385.5 87.3954 385.5 88.5V123C385.5 124.105 386.395 125 387.5 125H429M400.5 144.5H389C387.895 144.5 387 145.395 387 146.5V161M387 166V161M387 176.5V212.5M387 240V212.5M387 250V251.5C387 252.605 387.895 253.5 389 253.5H431M435 253.5H431M443 253.5H476.5C477.605 253.5 478.5 252.605 478.5 251.5V230M478.5 195.5V230M478.5 195.5L519.5 195.351M478.5 195.5H459.5M431 195.5V207.5M431 195.5V161M431 195.5H453.5M417.5 144.5H429C430.105 144.5 431 145.395 431 146.5V161M431 253.5V212.5M431 212.5H387M431 212.5V207.5M387.5 207.5H431M431 161H387M441.5 144.5H453.5M463.5 144.5H459.5M473.5 144.5H519.5M536 144.5H519.5M544 144.5H545.5C546.605 144.5 547.5 145.395 547.5 146.5V161M547.5 183V176.5M547.5 191V195.25M547.5 199.5V195.25M547.5 216V230M547.5 253.5V230M547.5 262V265.5C547.5 266.605 546.605 267.5 545.5 267.5H512C510.895 267.5 510 266.605 510 265.5V230M510 230H478.5M510 230H547.5M547.5 195.25L519.5 195.351M519.5 195.351V176.5M519.5 144.5V176.5M547.5 161H543C541.895 161 541 161.895 541 163V176.5M547.5 161V176.5M541 176.5H547.5M541 176.5H519.5M518 152H514C512.895 152 512 152.895 512 154V186.5C512 187.605 511.105 188.5 510 188.5H468.5C467.395 188.5 466.5 187.605 466.5 186.5V182C466.5 180.895 465.605 180 464.5 180H459.5M459.5 180V144.5M459.5 180V195.5M459.5 144.5H453.5M459.5 195.5H453.5M453.5 195.5V144.5M457.302 66H492.5M500.5 66H501.5C502.605 66 503.5 65.1046 503.5 64V22M682 120V114.5C682 113.395 681.105 112.5 680 112.5H648C646.895 112.5 646 113.395 646 114.5V120C646 121.105 646.895 122 648 122H680C681.105 122 682 121.105 682 120ZM484 175H496C497.105 175 498 174.105 498 173V165C498 163.895 497.105 163 496 163H484C482.895 163 482 163.895 482 165V173C482 174.105 482.895 175 484 175ZM131 212V206.5C131 205.395 131.895 204.5 133 204.5H156C157.105 204.5 158 205.395 158 206.5V212C158 213.105 157.105 214 156 214H133C131.895 214 131 213.105 131 212ZM116.5 276.5H117.5C118.605 276.5 119.5 275.605 119.5 274.5V260.5C119.5 259.395 118.605 258.5 117.5 258.5H116.5C115.395 258.5 114.5 259.395 114.5 260.5V274.5C114.5 275.605 115.395 276.5 116.5 276.5Z" stroke="#95A7B8"/>
<path d="M458 38.9997V20.9997C458 19.8951 458.887 18.999 459.992 19.0084C484.963 19.222 526.551 23.3214 542.027 27.1174C542.901 27.3318 543.5 28.123 543.5 29.0227V39.4997C543.5 40.6043 544.395 41.4997 545.5 41.4997H608C609.105 41.4997 610 40.6043 610 39.4997V36.4997C610 35.3951 610.895 34.4997 612 34.4997H646C647.105 34.4997 648 35.3951 648 36.4997V39.4997C648 40.6043 648.895 41.4997 650 41.4997H712.5C713.605 41.4997 714.5 40.6043 714.5 39.4997V36.9997C714.5 35.8951 715.395 34.9997 716.5 34.9997H749.5C750.605 34.9997 751.5 35.8951 751.5 36.9997V39.4997C751.5 40.6043 752.395 41.4997 753.5 41.4997H809.5C810.605 41.4997 811.5 42.3951 811.5 43.4997V54.4997C811.5 55.6043 812.395 56.4997 813.5 56.4997H824C825.105 56.4997 826 57.3951 826 58.4997V121C826 122.104 825.105 123 824 123H783.5C782.395 123 781.5 123.895 781.5 125V185.5C781.5 186.604 782.395 187.5 783.5 187.5H809.5C810.605 187.5 811.5 188.395 811.5 189.5V231.5C811.5 232.604 810.605 233.5 809.5 233.5H615C613.895 233.5 613 232.604 613 231.5V165C613 163.895 612.105 163 611 163H575.5C574.395 163 573.5 162.104 573.5 161V127C573.5 125.895 572.605 125 571.5 125H482C480.895 125 480 124.104 480 123V86.9997C480 85.8951 479.108 84.9997 478.003 84.9997H461.053C459.927 84.9997 459.028 84.066 459.035 82.9397C459.117 70.4585 456.71 62.4375 455.242 59.46C455.09 59.1519 455 58.8193 455 58.4758V41.9997C455 41.1713 455.672 40.4997 456.5 40.4997C457.328 40.4997 458 39.8281 458 38.9997Z" stroke="#80B8E6"/>
<path d="M18.5 156.5H74.5C75.6046 156.5 76.5 157.395 76.5 158.5V214.978C76.5 216.083 75.6046 216.978 74.5 216.978H17.9618C16.8572 216.978 15.9618 217.874 15.9618 218.978V262.626C15.9618 263.467 15.9618 265 13.5 265H2.99967C1.8951 265 1 265.895 1 267V292.5V329C1 330.105 1.89543 331 3 331H14.5C15.6046 331 16.5 331.895 16.5 333V344.5C16.5 345.605 17.3954 346.5 18.5 346.5H69C70.1046 346.5 71 345.605 71 344.5V294.5C71 293.395 71.8954 292.5 73 292.5H96C97.1046 292.5 98 291.605 98 290.5V244C98 242.895 98.8954 242 100 242H202.5C203.605 242 204.5 241.105 204.5 240V182C204.5 180.895 203.605 180 202.5 180H182C180.895 180 180 179.105 180 178V125.5C180 124.395 180.895 123.5 182 123.5H205.071C205.354 123.5 205.631 123.44 205.891 123.329C209.537 121.784 218.825 119 230 119C241.31 119 252.271 121.852 256.674 123.385C256.892 123.461 257.118 123.5 257.349 123.5H286.25C287.216 123.5 288 122.716 288 121.75C288 120.784 288.784 120 289.75 120H301.5C302.605 120 303.5 120.895 303.5 122V123C303.5 124.105 304.395 125 305.5 125H370C371.105 125 372 124.105 372 123V106.531C372 106.183 371.907 105.844 371.755 105.531C370.365 102.671 368 94.439 368 80.5C368 67.193 370.156 60.4342 371.56 58.1157C371.814 57.6967 372 57.2294 372 56.7396V42.5C372 41.3954 371.105 40.5 370 40.5C368.895 40.5 368 39.6046 368 38.5V22.5754C368 21.4418 367.059 20.5344 365.927 20.586C344.384 21.5688 304.583 25.9606 285.255 28.2876C284.251 28.4085 283.5 29.2602 283.5 30.2713V40.5C283.5 41.6046 282.605 42.5 281.5 42.5H218.5C217.395 42.5 216.5 41.6046 216.5 40.5V37C216.5 35.8954 215.605 35 214.5 35H181.5C180.395 35 179.5 35.8954 179.5 37V40.5C179.5 41.6046 178.605 42.5 177.5 42.5H114C112.895 42.5 112 41.6046 112 40.5V37.5C112 36.3954 111.105 35.5 110 35.5H91C90.7239 35.5 90.5 35.2761 90.5 35C90.5 34.7239 90.2761 34.5 90 34.5H82.5C82.2239 34.5 82 34.7239 82 35C82 35.2761 81.7761 35.5 81.5 35.5H77.5C76.3954 35.5 75.5 36.3954 75.5 37.5V40.5C75.5 41.6046 74.6046 42.5 73.5 42.5H18C16.8954 42.5 16 43.3954 16 44.5V55.5C16 56.6046 15.1046 57.5 14 57.5H3C1.89543 57.5 1 58.3954 1 59.5V121C1 122.105 1.89543 123 3 123H14.5C15.6046 123 16.5 123.895 16.5 125V154.5C16.5 155.605 17.3954 156.5 18.5 156.5Z" stroke="#F7CA0F"/>
<path d="M72.5 345.25V294H112C112.552 294 113 294.448 113 295V305.5C113 307.157 114.343 308.5 116 308.5H135C136.657 308.5 138 307.157 138 305.5V276.5C138 275.948 138.448 275.5 139 275.5H176.5C178.157 275.5 179.5 274.157 179.5 272.5V243.5H203C204.657 243.5 206 242.157 206 240.5V196.5H282.5C284.157 196.5 285.5 195.157 285.5 193.5V146.5C285.5 145.948 285.948 145.5 286.5 145.5H304C304.552 145.5 305 145.948 305 146.5V151C305 152.657 306.343 154 308 154H340.5C342.157 154 343.5 152.657 343.5 151V146.5C343.5 145.948 343.948 145.5 344.5 145.5H370.5C371.052 145.5 371.5 145.948 371.5 146.5V316C371.5 316.552 371.052 317 370.5 317H286.5C284.843 317 283.5 318.343 283.5 320V345C283.5 345.552 283.052 346 282.5 346H219C217.343 346 216 347.343 216 349V351.5C216 352.052 215.552 352.5 215 352.5H209.75C208.868 352.5 208.139 353.152 208.018 354H187.982C187.861 353.152 187.132 352.5 186.25 352.5H181C180.448 352.5 180 352.052 180 351.5V349C180 347.343 178.657 346 177 346H114.5C112.843 346 111.5 347.343 111.5 349V351.5C111.5 352.052 111.052 352.5 110.5 352.5H92.25C91.3684 352.5 90.639 353.152 90.5177 354H82.9823C82.861 353.152 82.1316 352.5 81.25 352.5H77C76.4477 352.5 76 352.052 76 351.5V348.75C76 347.231 74.7688 346 73.25 346C72.8358 346 72.5 345.664 72.5 345.25Z" stroke="#00B1B0" stroke-width="2"/>
<path d="M811.5 264V261.5V236.5C811.5 235.395 810.605 234.5 809.5 234.5H549.5C548.395 234.5 547.5 233.605 547.5 232.5V178.5C547.5 177.395 546.605 176.5 545.5 176.5H521.5C520.395 176.5 519.5 177.395 519.5 178.5V193.5C519.5 194.605 518.605 195.5 517.5 195.5H480.5C479.395 195.5 478.5 196.395 478.5 197.5V251.5C478.5 252.605 477.605 253.5 476.5 253.5H375C373.895 253.5 373 254.395 373 255.5V315.5C373 316.605 373.895 317.5 375 317.5H541.5C542.605 317.5 543.5 318.395 543.5 319.5V345C543.5 346.105 544.395 347 545.5 347H608C609.105 347 610 347.895 610 349V352.5C610 353.605 610.895 354.5 612 354.5H646C647.105 354.5 648 353.605 648 352.5V349C648 347.895 648.895 347 650 347H712.5C713.605 347 714.5 347.895 714.5 349V352.5C714.5 353.605 715.395 354.5 716.5 354.5H750C751.105 354.5 752 353.605 752 352.5V349C752 347.895 752.895 347 754 347H809.5C810.605 347 811.5 346.105 811.5 345V334C811.5 332.895 812.395 332 813.5 332H824.5C825.605 332 826.5 331.105 826.5 330V268C826.5 266.895 825.605 266 824.5 266H813.5C812.395 266 811.5 265.105 811.5 264Z" stroke="#ED8B00"/>
<rect x="147" y="248" width="20" height="20" rx="4" fill="#ECFBF2"/>
<path d="M154.5 260.5H159.5V263H154.5V260.5ZM160.5 262V259.5H153.5V262H152.5C152.367 262 152.24 261.947 152.146 261.854C152.053 261.76 152 261.633 152 261.5V256.5C152 256.367 152.053 256.24 152.146 256.146C152.24 256.053 152.367 256 152.5 256H161.5C161.633 256 161.76 256.053 161.854 256.146C161.947 256.24 162 256.367 162 256.5V261.5C162 261.633 161.947 261.76 161.854 261.854C161.76 261.947 161.633 262 161.5 262H160.5ZM153.5 257V258H155V257H153.5ZM154.5 253H159.5C159.633 253 159.76 253.053 159.854 253.146C159.947 253.24 160 253.367 160 253.5V255H154V253.5C154 253.367 154.053 253.24 154.146 253.146C154.24 253.053 154.367 253 154.5 253Z" fill="#49BF78"/>
<rect x="587" y="177" width="20" height="20" rx="4" fill="#ECFBF2"/>
<path d="M594.5 189.5H599.5V192H594.5V189.5ZM600.5 191V188.5H593.5V191H592.5C592.367 191 592.24 190.947 592.146 190.854C592.053 190.76 592 190.633 592 190.5V185.5C592 185.367 592.053 185.24 592.146 185.146C592.24 185.053 592.367 185 592.5 185H601.5C601.633 185 601.76 185.053 601.854 185.146C601.947 185.24 602 185.367 602 185.5V190.5C602 190.633 601.947 190.76 601.854 190.854C601.76 190.947 601.633 191 601.5 191H600.5ZM593.5 186V187H595V186H593.5ZM594.5 182H599.5C599.633 182 599.76 182.053 599.854 182.146C599.947 182.24 600 182.367 600 182.5V184H594V182.5C594 182.367 594.053 182.24 594.146 182.146C594.24 182.053 594.367 182 594.5 182Z" fill="#49BF78"/>
<path d="M536.273 188.335V189.831C536.273 189.938 536.232 190.041 536.159 190.12C536.086 190.198 535.986 190.246 535.879 190.253C535.694 190.266 535.543 190.273 535.427 190.273C531.687 190.273 528.655 187.241 528.655 183.502C528.655 183.385 528.662 183.234 528.675 183.049C528.682 182.942 528.73 182.842 528.808 182.769C528.887 182.696 528.99 182.655 529.097 182.655H530.594C530.646 182.655 530.697 182.675 530.736 182.71C530.775 182.745 530.799 182.793 530.804 182.846C530.814 182.943 530.823 183.02 530.831 183.079C530.915 183.666 531.088 184.237 531.343 184.773C531.383 184.857 531.357 184.958 531.28 185.012L530.367 185.665C530.926 186.966 531.962 188.003 533.264 188.561L533.915 187.65C533.942 187.613 533.981 187.586 534.025 187.574C534.069 187.563 534.116 187.567 534.158 187.587C534.693 187.841 535.264 188.013 535.851 188.097C535.909 188.105 535.987 188.115 536.083 188.124C536.135 188.129 536.184 188.154 536.219 188.193C536.254 188.232 536.273 188.282 536.273 188.335H536.273Z" fill="#00355F"/>
<rect x="494.928" y="236.116" width="12.6961" height="12.6961" rx="4.23203" fill="#00355F"/>
<path d="M499.1 243.315C499.1 244.263 499.878 244.915 500.922 244.915C502.011 244.915 502.714 244.196 502.714 243.382C502.714 242.841 502.403 242.515 502.003 242.271C502.07 242.197 502.626 241.604 502.626 240.908C502.626 240.049 501.952 239.508 500.981 239.508C499.878 239.508 499.352 240.182 499.352 240.879C499.352 241.36 499.596 241.678 499.937 241.923C499.796 242.019 499.1 242.515 499.1 243.315ZM501.959 243.36C501.959 243.9 501.47 244.256 500.922 244.256C500.367 244.256 499.848 243.871 499.848 243.271C499.848 242.708 500.307 242.352 500.478 242.234C501.181 242.575 501.959 242.797 501.959 243.36ZM500.078 240.893C500.078 240.493 500.396 240.168 500.974 240.168C501.522 240.168 501.907 240.471 501.907 240.953C501.907 241.501 501.529 241.901 501.448 241.982C500.774 241.693 500.078 241.471 500.078 240.893Z" fill="white"/>
<g clip-path="url(#clip0_6246:270449)">
<path d="M482.232 246.696C482.232 245.798 482.589 244.937 483.224 244.302C483.859 243.667 484.72 243.31 485.618 243.31C486.516 243.31 487.377 243.667 488.012 244.302C488.647 244.937 489.004 245.798 489.004 246.696H482.232ZM485.618 242.887C484.215 242.887 483.079 241.751 483.079 240.348C483.079 238.945 484.215 237.809 485.618 237.809C487.021 237.809 488.157 238.945 488.157 240.348C488.157 241.751 487.021 242.887 485.618 242.887ZM488.734 243.832C489.381 243.999 489.96 244.365 490.387 244.879C490.814 245.393 491.068 246.029 491.112 246.696H489.85C489.85 245.592 489.427 244.586 488.734 243.832ZM487.878 242.869C488.233 242.552 488.516 242.163 488.71 241.729C488.904 241.294 489.004 240.824 489.004 240.348C489.005 239.77 488.857 239.201 488.574 238.696C489.053 238.793 489.485 239.052 489.794 239.43C490.104 239.808 490.273 240.282 490.273 240.771C490.273 241.073 490.209 241.371 490.085 241.645C489.96 241.92 489.778 242.165 489.552 242.364C489.325 242.562 489.058 242.71 488.769 242.797C488.481 242.884 488.177 242.909 487.878 242.869Z" fill="#00355F"/>
</g>
<g clip-path="url(#clip1_6246:270449)">
<path d="M588.928 140C588.928 138.939 589.349 137.922 590.099 137.172C590.849 136.421 591.867 136 592.928 136C593.989 136 595.006 136.421 595.756 137.172C596.506 137.922 596.928 138.939 596.928 140H588.928ZM592.928 135.5C591.27 135.5 589.928 134.158 589.928 132.5C589.928 130.842 591.27 129.5 592.928 129.5C594.585 129.5 595.928 130.842 595.928 132.5C595.928 134.158 594.585 135.5 592.928 135.5ZM596.609 136.616C597.374 136.813 598.057 137.246 598.562 137.853C599.066 138.461 599.366 139.212 599.419 140H597.928C597.928 138.695 597.428 137.507 596.609 136.616ZM595.598 135.478C596.017 135.104 596.352 134.645 596.581 134.131C596.81 133.618 596.928 133.062 596.928 132.5C596.929 131.817 596.754 131.145 596.42 130.548C596.987 130.662 597.496 130.969 597.862 131.416C598.228 131.863 598.428 132.422 598.428 133C598.428 133.356 598.352 133.708 598.205 134.033C598.058 134.357 597.843 134.647 597.575 134.881C597.307 135.116 596.992 135.291 596.651 135.394C596.31 135.497 595.951 135.526 595.598 135.478Z" fill="#00355F"/>
</g>
<rect x="587.58" y="145" width="12.6961" height="12.6961" rx="4.23203" fill="#00355F"/>
<path d="M593.007 153.799C594.629 153.799 595.362 152.199 595.362 150.859C595.362 149.363 594.518 148.392 593.407 148.392C592.43 148.392 591.726 149.111 591.726 150.14C591.726 151.11 592.385 151.858 593.377 151.858C593.837 151.858 594.318 151.666 594.533 151.37H594.548C594.437 152.236 593.94 153.125 592.978 153.125C592.563 153.125 592.23 152.947 592.23 152.947L591.993 153.584C591.993 153.584 592.385 153.799 593.007 153.799ZM593.526 151.244C592.852 151.244 592.452 150.777 592.452 150.14C592.452 149.533 592.807 149.066 593.415 149.066C594.081 149.066 594.592 149.829 594.592 150.511C594.592 150.881 594.118 151.244 593.526 151.244Z" fill="white"/>
<rect x="44.1523" y="74" width="12.6961" height="12.6961" rx="4.23203" fill="#00355F"/>
<path d="M48.421 82.073C48.421 82.073 48.9468 82.7988 50.0207 82.7988C51.0797 82.7988 51.8722 82.0434 51.8722 81.0362C51.8722 80.0956 51.1538 79.3328 50.0503 79.3328C49.6652 79.3328 49.3764 79.4957 49.3764 79.4957H49.3615C49.3615 79.4957 49.3912 79.3772 49.3986 79.2217L49.5245 78.1182H51.5241V77.4813H48.8876L48.6283 80.0734L49.0505 80.2289C49.0505 80.2289 49.4208 79.9697 49.9318 79.9697C50.6058 79.9697 51.1242 80.4141 51.1242 81.0436C51.1242 81.6805 50.5909 82.1027 49.9762 82.1027C49.2356 82.1027 48.8283 81.5398 48.8283 81.5398L48.421 82.073Z" fill="white"/>
<path d="M32.7317 98.6961H34.7877C35.8357 98.6961 36.7477 98.1841 36.7477 97.0481C36.7477 96.4721 36.4517 95.8961 35.8277 95.7121V95.6961C36.2597 95.4641 36.5157 95.0081 36.5157 94.4801C36.5157 93.5441 35.7877 93.0161 34.7637 93.0161H32.7317V98.6961ZM33.7637 95.3361V93.9041H34.7477C35.2277 93.9041 35.4677 94.2001 35.4677 94.6081C35.4677 95.0161 35.2117 95.3361 34.7637 95.3361H33.7637ZM33.7637 97.8081V96.1681H34.8677C35.3877 96.1681 35.6917 96.5121 35.6917 96.9841C35.6917 97.4641 35.3957 97.8081 34.8677 97.8081H33.7637ZM37.7045 93.9201H38.7125V93.0161H37.7045V93.9201ZM37.7045 98.6961H38.7205V94.6161H37.7045V98.6961ZM39.7813 97.4241C39.7813 98.5921 40.4773 98.7361 41.0373 98.7361C41.2053 98.7361 41.3573 98.7121 41.3573 98.7121V97.8241C41.3573 97.8241 41.2853 97.8321 41.2053 97.8321C40.9413 97.8321 40.7893 97.7201 40.7893 97.2721V93.0161H39.7813V97.4241ZM42.0548 97.4241C42.0548 98.5921 42.7508 98.7361 43.3108 98.7361C43.4788 98.7361 43.6308 98.7121 43.6308 98.7121V97.8241C43.6308 97.8241 43.5588 97.8321 43.4788 97.8321C43.2148 97.8321 43.0628 97.7201 43.0628 97.2721V93.0161H42.0548V97.4241ZM46.4895 98.6961H47.5215V96.5761H48.5135L49.6415 98.6961H50.7935L49.6255 96.5761C49.5135 96.3761 49.4335 96.2961 49.4335 96.2961V96.2801C50.0335 96.0401 50.3935 95.4081 50.3935 94.7281C50.3935 93.9761 50.0335 93.4321 49.4655 93.1761C49.2175 93.0641 48.9375 93.0161 48.3215 93.0161H46.4895V98.6961ZM47.5215 95.6801V93.9041H48.3055C49.1135 93.9041 49.3455 94.2401 49.3455 94.7841C49.3455 95.3521 49.0015 95.6801 48.4495 95.6801H47.5215ZM51.2521 96.6561C51.2521 97.9121 52.2521 98.7921 53.5001 98.7921C54.7401 98.7921 55.7401 97.9121 55.7401 96.6561C55.7401 95.4081 54.7401 94.5201 53.4921 94.5201C52.2521 94.5201 51.2521 95.4081 51.2521 96.6561ZM52.2841 96.6561C52.2841 95.9041 52.8361 95.3841 53.5001 95.3841C54.1561 95.3841 54.7081 95.9041 54.7081 96.6561C54.7081 97.4161 54.1561 97.9281 53.5001 97.9281C52.8361 97.9281 52.2841 97.4161 52.2841 96.6561ZM56.0041 100.112C56.0041 100.112 56.3641 100.376 56.8521 100.376C57.4681 100.376 58.0361 100.056 58.3241 99.3121L60.1481 94.6161H59.0361L58.2361 96.9841C58.1641 97.2001 58.1001 97.5201 58.1001 97.5201H58.0841C58.0841 97.5201 58.0121 97.1841 57.9321 96.9681L57.0761 94.6161H55.9321L57.6521 98.6321L57.5001 98.9921C57.3481 99.3521 57.0761 99.5201 56.7961 99.5201C56.5641 99.5201 56.3401 99.3521 56.3401 99.3521L56.0041 100.112ZM60.384 97.5201C60.384 98.3361 61.04 98.7921 61.768 98.7921C62.696 98.7921 63.016 98.0721 63.008 98.0721H63.024C63.024 98.0721 63.008 98.2001 63.008 98.3601V98.6961H63.944V96.1441C63.944 95.1121 63.32 94.5201 62.248 94.5201C61.28 94.5201 60.648 95.0241 60.648 95.0241L61.032 95.7521C61.032 95.7521 61.568 95.3601 62.152 95.3601C62.6 95.3601 62.936 95.5441 62.936 96.0801V96.1361H62.8C62.136 96.1361 60.384 96.2241 60.384 97.5201ZM61.408 97.4721C61.408 96.9041 62.248 96.8321 62.768 96.8321H62.944V96.9281C62.944 97.4241 62.56 98.0001 62.024 98.0001C61.608 98.0001 61.408 97.7441 61.408 97.4721ZM64.9454 97.4241C64.9454 98.5921 65.6414 98.7361 66.2014 98.7361C66.3694 98.7361 66.5214 98.7121 66.5214 98.7121V97.8241C66.5214 97.8241 66.4494 97.8321 66.3694 97.8321C66.1054 97.8321 65.9534 97.7201 65.9534 97.2721V93.0161H64.9454V97.4241ZM67.2188 97.4241C67.2188 98.5921 67.9148 98.7361 68.4748 98.7361C68.6428 98.7361 68.7948 98.7121 68.7948 98.7121V97.8241C68.7948 97.8241 68.7228 97.8321 68.6428 97.8321C68.3788 97.8321 68.2268 97.7201 68.2268 97.2721V93.0161H67.2188V97.4241Z" fill="#00355F"/>
<rect x="39.8047" y="126" width="12.6961" height="12.6961" rx="4.23203" fill="#00355F"/>
<path d="M43.7883 133.31H46.3212V134.71H47.0396V133.31H47.7505V132.688H47.0396V129.481H46.2027L43.7883 132.851V133.31ZM44.5956 132.688V132.673L46.0768 130.696C46.2175 130.511 46.336 130.266 46.336 130.266H46.3508C46.3508 130.266 46.3212 130.54 46.3212 130.785V132.688H44.5956Z" fill="white"/>
<path d="M28.3997 150.696H29.4317V148.4H31.3117V147.512H29.4317V145.904H31.6637V145.016H28.3997V150.696ZM32.1701 148.656C32.1701 149.912 33.1701 150.792 34.4181 150.792C35.6581 150.792 36.6581 149.912 36.6581 148.656C36.6581 147.408 35.6581 146.52 34.4101 146.52C33.1701 146.52 32.1701 147.408 32.1701 148.656ZM33.2021 148.656C33.2021 147.904 33.7541 147.384 34.4181 147.384C35.0741 147.384 35.6261 147.904 35.6261 148.656C35.6261 149.416 35.0741 149.928 34.4181 149.928C33.7541 149.928 33.2021 149.416 33.2021 148.656ZM37.4181 149.24C37.4181 150.352 37.9621 150.792 38.8341 150.792C39.5301 150.792 40.0501 150.368 40.2501 149.944H40.2661C40.2661 149.944 40.2501 150.072 40.2501 150.232V150.696H41.2261V146.616H40.2101V148.488C40.2101 149.216 39.8021 149.864 39.0661 149.864C38.5621 149.864 38.4341 149.528 38.4341 149.032V146.616H37.4181V149.24ZM42.3491 150.696H43.3651V148.824C43.3651 148.632 43.3811 148.448 43.4371 148.28C43.5891 147.792 43.9891 147.448 44.5331 147.448C45.0531 147.448 45.1811 147.784 45.1811 148.28V150.696H46.1891V148.072C46.1891 146.992 45.6771 146.52 44.7731 146.52C43.9491 146.52 43.5011 147.024 43.3251 147.368H43.3091C43.3091 147.368 43.3251 147.24 43.3251 147.088V146.616H42.3491V150.696ZM46.9753 148.656C46.9753 149.92 47.6793 150.792 48.7833 150.792C49.7193 150.792 50.0633 150.096 50.0633 150.096H50.0793C50.0793 150.096 50.0633 150.208 50.0633 150.36V150.696H51.0233V145.016H50.0073V146.808C50.0073 146.936 50.0153 147.04 50.0153 147.04H49.9993C49.9993 147.04 49.7193 146.52 48.8233 146.52C47.7433 146.52 46.9753 147.36 46.9753 148.656ZM47.9993 148.656C47.9993 147.848 48.4633 147.392 49.0233 147.392C49.7033 147.392 50.0393 148.016 50.0393 148.648C50.0393 149.552 49.5433 149.936 49.0153 149.936C48.4153 149.936 47.9993 149.432 47.9993 148.656ZM51.8579 148.656C51.8579 149.816 52.6979 150.792 54.0499 150.792C55.0659 150.792 55.6899 150.208 55.6899 150.208L55.2979 149.48C55.2979 149.48 54.7779 149.928 54.1219 149.928C53.5139 149.928 52.9619 149.56 52.8979 148.848H55.7139C55.7139 148.848 55.7379 148.576 55.7379 148.456C55.7379 147.376 55.1059 146.52 53.9299 146.52C52.7139 146.52 51.8579 147.4 51.8579 148.656ZM52.9299 148.152C53.0259 147.624 53.3859 147.304 53.9059 147.304C54.3539 147.304 54.6979 147.6 54.7139 148.152H52.9299ZM56.5756 150.696H57.5916V149.08C57.5916 148.84 57.6156 148.616 57.6796 148.416C57.8716 147.808 58.3596 147.56 58.7916 147.56C58.9276 147.56 59.0316 147.576 59.0316 147.576V146.576C59.0316 146.576 58.9436 146.56 58.8476 146.56C58.2236 146.56 57.7356 147.024 57.5516 147.608H57.5356C57.5356 147.608 57.5516 147.472 57.5516 147.32V146.616H56.5756V150.696ZM59.5083 146.672H60.2283L60.8203 144.92H59.8843L59.5083 146.672ZM61.2238 150.192C61.2238 150.192 61.7918 150.792 62.8078 150.792C63.7758 150.792 64.3678 150.248 64.3678 149.568C64.3678 148.256 62.3838 148.328 62.3838 147.752C62.3838 147.496 62.6398 147.384 62.9038 147.384C63.5278 147.384 63.9038 147.736 63.9038 147.736L64.2798 146.984C64.2798 146.984 63.8318 146.52 62.9118 146.52C62.0318 146.52 61.3518 146.96 61.3518 147.72C61.3518 149.032 63.3358 148.952 63.3358 149.56C63.3358 149.8 63.0878 149.928 62.7998 149.928C62.1358 149.928 61.6878 149.48 61.6878 149.48L61.2238 150.192Z" fill="#00355F"/>
<rect x="196.652" y="70" width="12.6961" height="12.6961" rx="4.23203" fill="#00355F"/>
<path d="M202.827 78.7988C203.805 78.7988 204.509 78.0804 204.509 77.051C204.509 76.0808 203.849 75.3254 202.857 75.3254C202.398 75.3254 201.924 75.5254 201.702 75.8216H201.687C201.798 74.9551 202.294 74.0664 203.257 74.0664C203.672 74.0664 204.005 74.2367 204.005 74.2367L204.242 73.6072C204.242 73.6072 203.842 73.3924 203.227 73.3924C201.605 73.3924 200.872 74.9921 200.872 76.3326C200.872 77.8212 201.709 78.7988 202.827 78.7988ZM202.82 78.1249C202.154 78.1249 201.642 77.3621 201.642 76.6807C201.642 76.303 202.116 75.9475 202.709 75.9475C203.375 75.9475 203.783 76.4141 203.783 77.051C203.783 77.6583 203.42 78.1249 202.82 78.1249Z" fill="white"/>
<path d="M178.732 94.6961H179.764V92.5761H180.756L181.884 94.6961H183.036L181.868 92.5761C181.756 92.3761 181.676 92.2961 181.676 92.2961V92.2801C182.276 92.0401 182.636 91.4081 182.636 90.7281C182.636 89.9761 182.276 89.4321 181.708 89.1761C181.46 89.0641 181.18 89.0161 180.564 89.0161H178.732V94.6961ZM179.764 91.6801V89.9041H180.548C181.356 89.9041 181.588 90.2401 181.588 90.7841C181.588 91.3521 181.244 91.6801 180.692 91.6801H179.764ZM183.494 92.6561C183.494 93.9121 184.494 94.7921 185.742 94.7921C186.982 94.7921 187.982 93.9121 187.982 92.6561C187.982 91.4081 186.982 90.5201 185.734 90.5201C184.494 90.5201 183.494 91.4081 183.494 92.6561ZM184.526 92.6561C184.526 91.9041 185.078 91.3841 185.742 91.3841C186.398 91.3841 186.95 91.9041 186.95 92.6561C186.95 93.4161 186.398 93.9281 185.742 93.9281C185.078 93.9281 184.526 93.4161 184.526 92.6561ZM188.798 94.6961H189.758V94.4641C189.758 94.3041 189.742 94.1841 189.742 94.1841H189.758C189.758 94.1841 190.126 94.7921 190.974 94.7921C192.054 94.7921 192.846 93.9521 192.846 92.6561C192.846 91.3921 192.142 90.5201 191.038 90.5201C190.174 90.5201 189.814 91.1121 189.814 91.1121H189.798C189.798 91.1121 189.814 90.9681 189.814 90.7681V89.0161H188.798V94.6961ZM189.782 92.6801C189.782 91.7761 190.278 91.3921 190.806 91.3921C191.406 91.3921 191.822 91.8961 191.822 92.6721C191.822 93.4801 191.358 93.9361 190.798 93.9361C190.118 93.9361 189.782 93.3121 189.782 92.6801ZM193.401 92.6561C193.401 93.8161 194.241 94.7921 195.593 94.7921C196.609 94.7921 197.233 94.2081 197.233 94.2081L196.841 93.4801C196.841 93.4801 196.321 93.9281 195.665 93.9281C195.057 93.9281 194.505 93.5601 194.441 92.8481H197.257C197.257 92.8481 197.281 92.5761 197.281 92.4561C197.281 91.3761 196.649 90.5201 195.473 90.5201C194.257 90.5201 193.401 91.4001 193.401 92.6561ZM194.473 92.1521C194.569 91.6241 194.929 91.3041 195.449 91.3041C195.897 91.3041 196.241 91.6001 196.257 92.1521H194.473ZM198.119 94.6961H199.135V93.0801C199.135 92.8401 199.159 92.6161 199.223 92.4161C199.415 91.8081 199.903 91.5601 200.335 91.5601C200.471 91.5601 200.575 91.5761 200.575 91.5761V90.5761C200.575 90.5761 200.487 90.5601 200.391 90.5601C199.767 90.5601 199.279 91.0241 199.095 91.6081H199.079C199.079 91.6081 199.095 91.4721 199.095 91.3201V90.6161H198.119V94.6961ZM201.435 93.2001C201.435 94.5681 202.563 94.7361 203.131 94.7361C203.323 94.7361 203.443 94.7121 203.443 94.7121V93.8241C203.443 93.8241 203.371 93.8401 203.259 93.8401C202.979 93.8401 202.451 93.7441 202.451 93.0721V91.4881H203.379V90.6801H202.451V89.5041H201.459V90.6801H200.907V91.4881H201.435V93.2001ZM205.852 93.0161C205.852 94.2401 206.74 94.7921 207.612 94.7921C208.492 94.7921 209.388 94.2561 209.388 93.0161V89.0161H206.892V89.9041H208.356V93.0001C208.356 93.6161 208.012 93.8481 207.628 93.8481C207.244 93.8481 206.876 93.6241 206.876 92.9521V92.6881H205.852V93.0161ZM210.291 92.6561C210.291 93.9121 211.291 94.7921 212.539 94.7921C213.779 94.7921 214.779 93.9121 214.779 92.6561C214.779 91.4081 213.779 90.5201 212.531 90.5201C211.291 90.5201 210.291 91.4081 210.291 92.6561ZM211.323 92.6561C211.323 91.9041 211.875 91.3841 212.539 91.3841C213.195 91.3841 213.747 91.9041 213.747 92.6561C213.747 93.4161 213.195 93.9281 212.539 93.9281C211.875 93.9281 211.323 93.4161 211.323 92.6561ZM215.595 94.6961H216.611V92.8241C216.611 92.6321 216.627 92.4481 216.683 92.2801C216.835 91.7921 217.235 91.4481 217.779 91.4481C218.299 91.4481 218.427 91.7841 218.427 92.2801V94.6961H219.435V92.0721C219.435 90.9921 218.923 90.5201 218.019 90.5201C217.195 90.5201 216.747 91.0241 216.571 91.3681H216.555C216.555 91.3681 216.571 91.2401 216.571 91.0881V90.6161H215.595V94.6961ZM220.213 92.6561C220.213 93.8161 221.053 94.7921 222.405 94.7921C223.421 94.7921 224.045 94.2081 224.045 94.2081L223.653 93.4801C223.653 93.4801 223.133 93.9281 222.477 93.9281C221.869 93.9281 221.317 93.5601 221.253 92.8481H224.069C224.069 92.8481 224.093 92.5761 224.093 92.4561C224.093 91.3761 223.461 90.5201 222.285 90.5201C221.069 90.5201 220.213 91.4001 220.213 92.6561ZM221.285 92.1521C221.381 91.6241 221.741 91.3041 222.261 91.3041C222.709 91.3041 223.053 91.6001 223.069 92.1521H221.285ZM224.587 94.1921C224.587 94.1921 225.155 94.7921 226.171 94.7921C227.139 94.7921 227.731 94.2481 227.731 93.5681C227.731 92.2561 225.747 92.3281 225.747 91.7521C225.747 91.4961 226.003 91.3841 226.267 91.3841C226.891 91.3841 227.267 91.7361 227.267 91.7361L227.643 90.9841C227.643 90.9841 227.195 90.5201 226.275 90.5201C225.395 90.5201 224.715 90.9601 224.715 91.7201C224.715 93.0321 226.699 92.9521 226.699 93.5601C226.699 93.8001 226.451 93.9281 226.163 93.9281C225.499 93.9281 225.051 93.4801 225.051 93.4801L224.587 94.1921Z" fill="#00355F"/>
<rect x="316.152" y="70" width="12.6961" height="12.6961" rx="4.23203" fill="#00355F"/>
<path d="M320.829 78.71H321.584L323.947 73.9849V73.4813H320.451V74.1182H322.784C323.051 74.1182 323.169 74.096 323.169 74.096V74.1108C323.169 74.1108 323.014 74.2959 322.866 74.5922L320.829 78.71Z" fill="white"/>
<path d="M297.742 89.0161H296.846L295.822 92.9441C295.734 93.2721 295.726 93.5441 295.718 93.5441H295.702C295.702 93.5441 295.678 93.2641 295.606 92.9441L294.71 89.0161H293.646L295.07 94.6961H296.262L297.134 91.3361C297.23 90.9681 297.278 90.5921 297.278 90.5921H297.294C297.294 90.5921 297.342 90.9681 297.438 91.3361L298.31 94.6961H299.502L300.966 89.0161H299.902L298.966 92.9441C298.894 93.2641 298.87 93.5441 298.87 93.5441H298.854C298.846 93.5441 298.838 93.2721 298.75 92.9441L297.742 89.0161ZM301.271 93.5201C301.271 94.3361 301.927 94.7921 302.655 94.7921C303.583 94.7921 303.903 94.0721 303.895 94.0721H303.911C303.911 94.0721 303.895 94.2001 303.895 94.3601V94.6961H304.831V92.1441C304.831 91.1121 304.207 90.5201 303.135 90.5201C302.167 90.5201 301.535 91.0241 301.535 91.0241L301.919 91.7521C301.919 91.7521 302.455 91.3601 303.039 91.3601C303.487 91.3601 303.823 91.5441 303.823 92.0801V92.1361H303.687C303.023 92.1361 301.271 92.2241 301.271 93.5201ZM302.295 93.4721C302.295 92.9041 303.135 92.8321 303.655 92.8321H303.831V92.9281C303.831 93.4241 303.447 94.0001 302.911 94.0001C302.495 94.0001 302.295 93.7441 302.295 93.4721ZM305.832 93.4241C305.832 94.5921 306.528 94.7361 307.088 94.7361C307.256 94.7361 307.408 94.7121 307.408 94.7121V93.8241C307.408 93.8241 307.336 93.8321 307.256 93.8321C306.992 93.8321 306.84 93.7201 306.84 93.2721V89.0161H305.832V93.4241ZM308.106 93.4241C308.106 94.5921 308.802 94.7361 309.362 94.7361C309.53 94.7361 309.682 94.7121 309.682 94.7121V93.8241C309.682 93.8241 309.61 93.8321 309.53 93.8321C309.266 93.8321 309.114 93.7201 309.114 93.2721V89.0161H308.106V93.4241ZM309.883 96.1121C309.883 96.1121 310.243 96.3761 310.731 96.3761C311.347 96.3761 311.915 96.0561 312.203 95.3121L314.027 90.6161H312.915L312.115 92.9841C312.043 93.2001 311.979 93.5201 311.979 93.5201H311.963C311.963 93.5201 311.891 93.1841 311.811 92.9681L310.955 90.6161H309.811L311.531 94.6321L311.379 94.9921C311.227 95.3521 310.955 95.5201 310.675 95.5201C310.443 95.5201 310.219 95.3521 310.219 95.3521L309.883 96.1121ZM316.28 94.0161C316.28 94.0161 316.976 94.7921 318.24 94.7921C319.424 94.7921 320.112 94.0321 320.112 93.1281C320.112 91.3121 317.44 91.5601 317.44 90.5521C317.44 90.1521 317.816 89.8721 318.296 89.8721C319.008 89.8721 319.552 90.3681 319.552 90.3681L320 89.5281C320 89.5281 319.424 88.9201 318.304 88.9201C317.216 88.9201 316.4 89.6241 316.4 90.5681C316.4 92.3121 319.08 92.1361 319.08 93.1521C319.08 93.6161 318.688 93.8401 318.256 93.8401C317.456 93.8401 316.84 93.2401 316.84 93.2401L316.28 94.0161ZM321.158 93.2001C321.158 94.5681 322.286 94.7361 322.854 94.7361C323.046 94.7361 323.166 94.7121 323.166 94.7121V93.8241C323.166 93.8241 323.094 93.8401 322.982 93.8401C322.702 93.8401 322.174 93.7441 322.174 93.0721V91.4881H323.102V90.6801H322.174V89.5041H321.182V90.6801H320.63V91.4881H321.158V93.2001ZM323.71 92.6561C323.71 93.8161 324.55 94.7921 325.902 94.7921C326.918 94.7921 327.542 94.2081 327.542 94.2081L327.15 93.4801C327.15 93.4801 326.63 93.9281 325.974 93.9281C325.366 93.9281 324.814 93.5601 324.75 92.8481H327.566C327.566 92.8481 327.59 92.5761 327.59 92.4561C327.59 91.3761 326.958 90.5201 325.782 90.5201C324.566 90.5201 323.71 91.4001 323.71 92.6561ZM324.782 92.1521C324.878 91.6241 325.238 91.3041 325.758 91.3041C326.206 91.3041 326.55 91.6001 326.566 92.1521H324.782ZM328.603 93.2001C328.603 94.5681 329.731 94.7361 330.299 94.7361C330.491 94.7361 330.611 94.7121 330.611 94.7121V93.8241C330.611 93.8241 330.539 93.8401 330.427 93.8401C330.147 93.8401 329.619 93.7441 329.619 93.0721V91.4881H330.547V90.6801H329.619V89.5041H328.627V90.6801H328.075V91.4881H328.603V93.2001ZM331.619 93.2001C331.619 94.5681 332.747 94.7361 333.315 94.7361C333.507 94.7361 333.627 94.7121 333.627 94.7121V93.8241C333.627 93.8241 333.555 93.8401 333.443 93.8401C333.163 93.8401 332.635 93.7441 332.635 93.0721V91.4881H333.563V90.6801H332.635V89.5041H331.643V90.6801H331.091V91.4881H331.619V93.2001ZM334.458 89.9201H335.466V89.0161H334.458V89.9201ZM334.458 94.6961H335.474V90.6161H334.458V94.6961ZM336.591 94.6961H337.607V92.8241C337.607 92.6321 337.623 92.4481 337.679 92.2801C337.831 91.7921 338.231 91.4481 338.775 91.4481C339.295 91.4481 339.423 91.7841 339.423 92.2801V94.6961H340.431V92.0721C340.431 90.9921 339.919 90.5201 339.015 90.5201C338.191 90.5201 337.743 91.0241 337.567 91.3681H337.551C337.551 91.3681 337.567 91.2401 337.567 91.0881V90.6161H336.591V94.6961ZM341.498 89.9201H342.506V89.0161H341.498V89.9201ZM341.498 94.6961H342.514V90.6161H341.498V94.6961ZM343.574 93.2401C343.574 94.3521 344.118 94.7921 344.99 94.7921C345.686 94.7921 346.206 94.3681 346.406 93.9441H346.422C346.422 93.9441 346.406 94.0721 346.406 94.2321V94.6961H347.382V90.6161H346.366V92.4881C346.366 93.2161 345.958 93.8641 345.222 93.8641C344.718 93.8641 344.59 93.5281 344.59 93.0321V90.6161H343.574V93.2401ZM348.161 94.1921C348.161 94.1921 348.729 94.7921 349.745 94.7921C350.713 94.7921 351.305 94.2481 351.305 93.5681C351.305 92.2561 349.321 92.3281 349.321 91.7521C349.321 91.4961 349.577 91.3841 349.841 91.3841C350.465 91.3841 350.841 91.7361 350.841 91.7361L351.217 90.9841C351.217 90.9841 350.769 90.5201 349.849 90.5201C348.969 90.5201 348.289 90.9601 348.289 91.7201C348.289 93.0321 350.273 92.9521 350.273 93.5601C350.273 93.8001 350.025 93.9281 349.737 93.9281C349.073 93.9281 348.625 93.4801 348.625 93.4801L348.161 94.1921Z" fill="#00355F"/>
<rect x="40.1523" y="226.304" width="12.6961" height="12.6961" rx="4.23203" fill="#00355F"/>
<path d="M44.3473 234.392C44.3473 234.392 44.9768 235.103 46.0432 235.103C47.1171 235.103 47.8207 234.318 47.8207 233.422C47.8207 232.407 46.9764 231.963 46.2876 231.889L47.7096 230.252V229.785H44.5843V230.422H46.3543C46.6431 230.422 46.7987 230.4 46.7987 230.4V230.415C46.7987 230.415 46.6431 230.555 46.4728 230.755L45.3323 232.096L45.5026 232.488H45.8655C46.5098 232.488 47.0801 232.807 47.0801 233.451C47.0801 234.014 46.5987 234.407 46.0136 234.407C45.2582 234.407 44.7472 233.836 44.7472 233.836L44.3473 234.392Z" fill="white"/>
<path d="M17.0233 248.136C17.0233 249.808 18.2233 251.096 19.9593 251.096C21.4073 251.096 22.1913 250.176 22.1913 250.176L21.6473 249.432C21.6473 249.432 20.9833 250.152 19.9993 250.152C18.8153 250.152 18.0873 249.2 18.0873 248.12C18.0873 247.064 18.7913 246.168 19.9913 246.168C20.8953 246.168 21.5433 246.768 21.5433 246.768L22.0393 246C22.0393 246 21.3273 245.224 19.9433 245.224C18.2713 245.224 17.0233 246.488 17.0233 248.136ZM22.6779 248.96C22.6779 250.216 23.6779 251.096 24.9259 251.096C26.1659 251.096 27.1659 250.216 27.1659 248.96C27.1659 247.712 26.1659 246.824 24.9179 246.824C23.6779 246.824 22.6779 247.712 22.6779 248.96ZM23.7099 248.96C23.7099 248.208 24.2619 247.688 24.9259 247.688C25.5819 247.688 26.1339 248.208 26.1339 248.96C26.1339 249.72 25.5819 250.232 24.9259 250.232C24.2619 250.232 23.7099 249.72 23.7099 248.96ZM27.9819 251H28.9979V249.128C28.9979 248.936 29.0139 248.752 29.0699 248.584C29.2219 248.096 29.6219 247.752 30.1659 247.752C30.6859 247.752 30.8139 248.088 30.8139 248.584V251H31.8219V248.376C31.8219 247.296 31.3099 246.824 30.4059 246.824C29.5819 246.824 29.1339 247.328 28.9579 247.672H28.9419C28.9419 247.672 28.9579 247.544 28.9579 247.392V246.92H27.9819V251ZM33.0961 251H34.1121V247.792H34.9841V246.984H34.1121V246.824C34.1121 246.232 34.6081 246.16 34.8961 246.16C35.0161 246.16 35.1041 246.176 35.1041 246.176V245.312C35.1041 245.312 34.9681 245.288 34.7601 245.288C34.1921 245.288 33.0961 245.464 33.0961 246.8V246.984H32.5921V247.792H33.0961V251ZM35.3736 248.96C35.3736 250.12 36.2136 251.096 37.5656 251.096C38.5816 251.096 39.2056 250.512 39.2056 250.512L38.8136 249.784C38.8136 249.784 38.2936 250.232 37.6376 250.232C37.0296 250.232 36.4776 249.864 36.4136 249.152H39.2296C39.2296 249.152 39.2536 248.88 39.2536 248.76C39.2536 247.68 38.6216 246.824 37.4456 246.824C36.2296 246.824 35.3736 247.704 35.3736 248.96ZM36.4456 248.456C36.5416 247.928 36.9016 247.608 37.4216 247.608C37.8696 247.608 38.2136 247.904 38.2296 248.456H36.4456ZM40.0913 251H41.1073V249.384C41.1073 249.144 41.1313 248.92 41.1953 248.72C41.3873 248.112 41.8753 247.864 42.3073 247.864C42.4433 247.864 42.5473 247.88 42.5473 247.88V246.88C42.5473 246.88 42.4593 246.864 42.3633 246.864C41.7393 246.864 41.2513 247.328 41.0673 247.912H41.0513C41.0513 247.912 41.0673 247.776 41.0673 247.624V246.92H40.0913V251ZM42.9439 248.96C42.9439 250.12 43.7839 251.096 45.1359 251.096C46.1519 251.096 46.7759 250.512 46.7759 250.512L46.3839 249.784C46.3839 249.784 45.8639 250.232 45.2079 250.232C44.5999 250.232 44.0479 249.864 43.9839 249.152H46.7999C46.7999 249.152 46.8239 248.88 46.8239 248.76C46.8239 247.68 46.1919 246.824 45.0159 246.824C43.7999 246.824 42.9439 247.704 42.9439 248.96ZM44.0159 248.456C44.1119 247.928 44.4719 247.608 44.9919 247.608C45.4399 247.608 45.7839 247.904 45.7999 248.456H44.0159ZM47.6616 251H48.6776V249.128C48.6776 248.936 48.6936 248.752 48.7496 248.584C48.9016 248.096 49.3016 247.752 49.8456 247.752C50.3656 247.752 50.4936 248.088 50.4936 248.584V251H51.5016V248.376C51.5016 247.296 50.9896 246.824 50.0856 246.824C49.2616 246.824 48.8136 247.328 48.6376 247.672H48.6216C48.6216 247.672 48.6376 247.544 48.6376 247.392V246.92H47.6616V251ZM52.2718 248.96C52.2718 250.144 53.1358 251.096 54.4878 251.096C55.5838 251.096 56.1678 250.432 56.1678 250.432L55.7758 249.712C55.7758 249.712 55.2638 250.232 54.5758 250.232C53.7998 250.232 53.3038 249.64 53.3038 248.952C53.3038 248.256 53.7918 247.688 54.5438 247.688C55.1838 247.688 55.6078 248.128 55.6078 248.128L56.0558 247.432C56.0558 247.432 55.5518 246.824 54.4878 246.824C53.1358 246.824 52.2718 247.8 52.2718 248.96ZM56.6392 248.96C56.6392 250.12 57.4792 251.096 58.8312 251.096C59.8472 251.096 60.4712 250.512 60.4712 250.512L60.0792 249.784C60.0792 249.784 59.5592 250.232 58.9032 250.232C58.2952 250.232 57.7432 249.864 57.6792 249.152H60.4952C60.4952 249.152 60.5192 248.88 60.5192 248.76C60.5192 247.68 59.8872 246.824 58.7112 246.824C57.4952 246.824 56.6392 247.704 56.6392 248.96ZM57.7112 248.456C57.8072 247.928 58.1672 247.608 58.6872 247.608C59.1352 247.608 59.4792 247.904 59.4952 248.456H57.7112ZM63.1902 251H66.9582V250.112H64.3022C64.3262 249.04 66.8702 248.728 66.8702 246.904C66.8702 245.832 66.0222 245.224 65.0222 245.224C63.6622 245.224 63.1422 246.36 63.1422 246.36L63.9102 246.872C63.9102 246.872 64.2702 246.2 64.9342 246.2C65.4142 246.2 65.7982 246.496 65.7982 246.992C65.7982 248.12 63.1422 248.448 63.1422 250.496C63.1422 250.656 63.1662 250.816 63.1902 251ZM67.8148 251H71.2868V250.112H70.0548V245.32H69.1508L67.7268 246.688L68.3348 247.328L68.7908 246.896C68.9748 246.712 69.0388 246.576 69.0388 246.576H69.0548C69.0548 246.576 69.0468 246.768 69.0468 246.96V250.112H67.8148V251ZM74.0926 251.096C75.2206 251.096 75.9646 250.248 75.9646 249.192C75.9646 248.168 75.2606 247.296 74.1406 247.296C73.7326 247.296 73.2766 247.464 73.0766 247.696H73.0606C73.2046 246.92 73.6766 246.176 74.5726 246.176C75.0126 246.176 75.3726 246.352 75.3726 246.352L75.6766 245.464C75.6766 245.464 75.2366 245.224 74.5166 245.224C72.7566 245.224 71.9006 246.912 71.9006 248.4C71.9006 250.112 72.9086 251.096 74.0926 251.096ZM74.0926 250.152C73.4926 250.152 72.9726 249.472 72.9726 248.76C72.9726 248.408 73.3886 248.144 73.9006 248.144C74.5806 248.144 74.9406 248.616 74.9406 249.192C74.9406 249.728 74.6206 250.152 74.0926 250.152Z" fill="#00355F"/>
<rect x="28.6523" y="299" width="12.6961" height="12.6961" rx="4.23203" fill="#00355F"/>
<path d="M32.9773 307.71H36.3471V307.073H33.7549C33.7697 305.881 36.2656 305.614 36.2656 303.896C36.2656 302.992 35.5768 302.392 34.614 302.392C33.4365 302.392 32.9625 303.385 32.9625 303.385L33.5031 303.748C33.5031 303.748 33.8734 303.081 34.5622 303.081C35.1102 303.081 35.5028 303.429 35.5028 303.948C35.5028 305.177 32.9403 305.444 32.9403 307.31C32.9403 307.436 32.9551 307.569 32.9773 307.71Z" fill="white"/>
<path d="M7.02469 323.696H8.05669V321.576H9.04869L10.1767 323.696H11.3287L10.1607 321.576C10.0487 321.376 9.96869 321.296 9.96869 321.296V321.28C10.5687 321.04 10.9287 320.408 10.9287 319.728C10.9287 318.976 10.5687 318.432 10.0007 318.176C9.75269 318.064 9.47269 318.016 8.85669 318.016H7.02469V323.696ZM8.05669 320.68V318.904H8.84069C9.64869 318.904 9.88069 319.24 9.88069 319.784C9.88069 320.352 9.53669 320.68 8.98469 320.68H8.05669ZM11.7873 321.656C11.7873 322.912 12.7873 323.792 14.0353 323.792C15.2753 323.792 16.2753 322.912 16.2753 321.656C16.2753 320.408 15.2753 319.52 14.0273 319.52C12.7873 319.52 11.7873 320.408 11.7873 321.656ZM12.8193 321.656C12.8193 320.904 13.3713 320.384 14.0353 320.384C14.6913 320.384 15.2433 320.904 15.2433 321.656C15.2433 322.416 14.6913 322.928 14.0353 322.928C13.3713 322.928 12.8193 322.416 12.8193 321.656ZM16.7952 321.656C16.7952 322.84 17.6593 323.792 19.0113 323.792C20.1073 323.792 20.6913 323.128 20.6913 323.128L20.2993 322.408C20.2993 322.408 19.7873 322.928 19.0993 322.928C18.3233 322.928 17.8273 322.336 17.8273 321.648C17.8273 320.952 18.3153 320.384 19.0673 320.384C19.7073 320.384 20.1313 320.824 20.1313 320.824L20.5793 320.128C20.5793 320.128 20.0753 319.52 19.0113 319.52C17.6593 319.52 16.7952 320.496 16.7952 321.656ZM21.4506 323.696H22.4666V321.912H22.9946L24.0746 323.696H25.2426L23.7946 321.456V321.44L25.0826 319.616H23.9546L22.9706 321.056H22.4666V318.016H21.4506V323.696ZM25.5142 321.656C25.5142 322.816 26.3542 323.792 27.7062 323.792C28.7222 323.792 29.3462 323.208 29.3462 323.208L28.9542 322.48C28.9542 322.48 28.4342 322.928 27.7782 322.928C27.1702 322.928 26.6182 322.56 26.5542 321.848H29.3702C29.3702 321.848 29.3942 321.576 29.3942 321.456C29.3942 320.376 28.7622 319.52 27.5862 319.52C26.3702 319.52 25.5142 320.4 25.5142 321.656ZM26.5862 321.152C26.6822 320.624 27.0422 320.304 27.5622 320.304C28.0102 320.304 28.3542 320.6 28.3702 321.152H26.5862ZM30.4079 322.2C30.4079 323.568 31.5359 323.736 32.1039 323.736C32.2959 323.736 32.4159 323.712 32.4159 323.712V322.824C32.4159 322.824 32.3439 322.84 32.2319 322.84C31.9519 322.84 31.4239 322.744 31.4239 322.072V320.488H32.3519V319.68H31.4239V318.504H30.4319V319.68H29.8799V320.488H30.4079V322.2ZM35.3528 323.696H36.3848V321.576H37.3768L38.5048 323.696H39.6568L38.4888 321.576C38.3768 321.376 38.2968 321.296 38.2968 321.296V321.28C38.8968 321.04 39.2568 320.408 39.2568 319.728C39.2568 318.976 38.8968 318.432 38.3288 318.176C38.0808 318.064 37.8008 318.016 37.1848 318.016H35.3528V323.696ZM36.3848 320.68V318.904H37.1688C37.9768 318.904 38.2088 319.24 38.2088 319.784C38.2088 320.352 37.8648 320.68 37.3128 320.68H36.3848ZM40.1144 322.52C40.1144 323.336 40.7704 323.792 41.4984 323.792C42.4264 323.792 42.7464 323.072 42.7384 323.072H42.7544C42.7544 323.072 42.7384 323.2 42.7384 323.36V323.696H43.6744V321.144C43.6744 320.112 43.0504 319.52 41.9784 319.52C41.0104 319.52 40.3784 320.024 40.3784 320.024L40.7624 320.752C40.7624 320.752 41.2984 320.36 41.8824 320.36C42.3304 320.36 42.6664 320.544 42.6664 321.08V321.136H42.5304C41.8664 321.136 40.1144 321.224 40.1144 322.52ZM41.1384 322.472C41.1384 321.904 41.9784 321.832 42.4984 321.832H42.6744V321.928C42.6744 322.424 42.2904 323 41.7544 323C41.3384 323 41.1384 322.744 41.1384 322.472ZM44.7319 323.696H45.7479V321.904C45.7479 321.72 45.7559 321.536 45.7959 321.384C45.9239 320.864 46.2679 320.448 46.7959 320.448C47.2759 320.448 47.3479 320.824 47.3479 321.264V323.696H48.3639V321.904C48.3639 321.712 48.3719 321.536 48.4119 321.376C48.5319 320.864 48.8759 320.448 49.3959 320.448C49.8679 320.448 49.9559 320.8 49.9559 321.264V323.696H50.9719V321.072C50.9719 320 50.4839 319.52 49.6359 319.52C48.9959 319.52 48.4679 319.92 48.2439 320.36H48.2279C48.0599 319.808 47.6599 319.52 47.0359 319.52C46.3959 319.52 45.9079 319.968 45.7079 320.368H45.6919C45.6919 320.368 45.7079 320.24 45.7079 320.088V319.616H44.7319V323.696ZM51.6926 323.192C51.6926 323.192 52.2606 323.792 53.2766 323.792C54.2446 323.792 54.8366 323.248 54.8366 322.568C54.8366 321.256 52.8526 321.328 52.8526 320.752C52.8526 320.496 53.1086 320.384 53.3726 320.384C53.9966 320.384 54.3726 320.736 54.3726 320.736L54.7486 319.984C54.7486 319.984 54.3006 319.52 53.3806 319.52C52.5006 319.52 51.8206 319.96 51.8206 320.72C51.8206 322.032 53.8046 321.952 53.8046 322.56C53.8046 322.8 53.5566 322.928 53.2686 322.928C52.6046 322.928 52.1566 322.48 52.1566 322.48L51.6926 323.192ZM55.3658 321.656C55.3658 322.816 56.2058 323.792 57.5578 323.792C58.5738 323.792 59.1978 323.208 59.1978 323.208L58.8058 322.48C58.8058 322.48 58.2858 322.928 57.6298 322.928C57.0218 322.928 56.4698 322.56 56.4058 321.848H59.2218C59.2218 321.848 59.2458 321.576 59.2458 321.456C59.2458 320.376 58.6138 319.52 57.4378 319.52C56.2218 319.52 55.3658 320.4 55.3658 321.656ZM56.4378 321.152C56.5338 320.624 56.8938 320.304 57.4138 320.304C57.8618 320.304 58.2058 320.6 58.2218 321.152H56.4378ZM59.5314 325.112C59.5314 325.112 59.8914 325.376 60.3794 325.376C60.9954 325.376 61.5634 325.056 61.8514 324.312L63.6754 319.616H62.5634L61.7634 321.984C61.6914 322.2 61.6274 322.52 61.6274 322.52H61.6114C61.6114 322.52 61.5394 322.184 61.4594 321.968L60.6034 319.616H59.4594L61.1794 323.632L61.0274 323.992C60.8754 324.352 60.6034 324.52 60.3234 324.52C60.0914 324.52 59.8674 324.352 59.8674 324.352L59.5314 325.112Z" fill="#00355F"/>
<rect x="334.652" y="286" width="12.6961" height="12.6961" rx="4.23203" fill="#00355F"/>
<path d="M339.255 294.71H342.262V294.073H341.121V289.481H340.47L339.218 290.696L339.662 291.155L340.151 290.674C340.344 290.489 340.403 290.37 340.403 290.37H340.418C340.418 290.37 340.41 290.533 340.41 290.696V294.073H339.255V294.71Z" fill="white"/>
<path d="M322.384 310.696H323.416V305.904H325.28V305.016H320.52V305.904H322.384V310.696ZM325.869 310.696H326.885V308.824C326.885 308.632 326.901 308.456 326.949 308.296C327.101 307.8 327.517 307.448 328.053 307.448C328.573 307.448 328.701 307.784 328.701 308.28V310.696H329.709V308.072C329.709 306.992 329.197 306.52 328.293 306.52C327.581 306.52 327.085 306.936 326.885 307.328H326.869C326.869 307.328 326.885 307.184 326.885 306.984V305.016H325.869V310.696ZM330.775 305.92H331.783V305.016H330.775V305.92ZM330.775 310.696H331.791V306.616H330.775V310.696ZM332.908 310.696H333.924V308.824C333.924 308.632 333.94 308.448 333.996 308.28C334.148 307.792 334.548 307.448 335.092 307.448C335.612 307.448 335.74 307.784 335.74 308.28V310.696H336.748V308.072C336.748 306.992 336.236 306.52 335.332 306.52C334.508 306.52 334.06 307.024 333.884 307.368H333.868C333.868 307.368 333.884 307.24 333.884 307.088V306.616H332.908V310.696ZM337.814 310.696H338.83V308.912H339.358L340.438 310.696H341.606L340.158 308.456V308.44L341.446 306.616H340.318L339.334 308.056H338.83V305.016H337.814V310.696ZM345.509 310.696H346.541V305.904H348.405V305.016H343.645V305.904H345.509V310.696ZM348.134 309.52C348.134 310.336 348.79 310.792 349.518 310.792C350.446 310.792 350.766 310.072 350.758 310.072H350.774C350.774 310.072 350.758 310.2 350.758 310.36V310.696H351.694V308.144C351.694 307.112 351.07 306.52 349.998 306.52C349.03 306.52 348.398 307.024 348.398 307.024L348.782 307.752C348.782 307.752 349.318 307.36 349.902 307.36C350.35 307.36 350.686 307.544 350.686 308.08V308.136H350.55C349.886 308.136 348.134 308.224 348.134 309.52ZM349.158 309.472C349.158 308.904 349.998 308.832 350.518 308.832H350.694V308.928C350.694 309.424 350.31 310 349.774 310C349.358 310 349.158 309.744 349.158 309.472ZM352.751 310.696H353.767V308.824C353.767 308.632 353.783 308.448 353.839 308.28C353.991 307.792 354.391 307.448 354.935 307.448C355.455 307.448 355.583 307.784 355.583 308.28V310.696H356.591V308.072C356.591 306.992 356.079 306.52 355.175 306.52C354.351 306.52 353.903 307.024 353.727 307.368H353.711C353.711 307.368 353.727 307.24 353.727 307.088V306.616H352.751V310.696ZM357.658 310.696H358.674V308.912H359.202L360.282 310.696H361.45L360.002 308.456V308.44L361.29 306.616H360.162L359.178 308.056H358.674V305.016H357.658V310.696Z" fill="#00355F"/>
<rect x="522" y="152" width="16" height="16" rx="4" fill="#F4EEFF"/>
<g clip-path="url(#clip2_6246:270449)">
<path fill-rule="evenodd" clip-rule="evenodd" d="M528.976 156.926C528.976 156.361 529.43 155.9 529.991 155.9C530.552 155.9 531.006 156.361 531.006 156.926C531.006 157.061 530.98 157.193 530.93 157.317C530.882 157.433 530.857 157.568 530.857 157.717V157.818C530.857 157.924 530.942 158.008 531.044 158.008C532 158.008 532.342 158.417 532.342 158.917V159.045H532.9V159.761H532.39L532.566 160.123C532.601 160.195 532.62 160.274 532.62 160.354V163.571C532.62 163.863 532.383 164.1 532.091 164.1H527.892C527.599 164.1 527.363 163.863 527.363 163.571V160.354C527.363 160.274 527.381 160.195 527.416 160.123L527.592 159.761H527.1V159.045H527.64V158.917C527.64 158.417 528 158.008 528.939 158.008C529.04 158.008 529.125 157.924 529.125 157.818V157.717C529.125 157.568 529.1 157.433 529.053 157.317C529.002 157.193 528.976 157.061 528.976 156.926ZM529.999 160.8H531.999V161.4H529.999V160.8ZM531.999 162H529.999V162.6H531.999V162Z" fill="#8643FF"/>
</g>
<rect x="434" y="149" width="16" height="16" rx="4" fill="#FFE9E0"/>
<g clip-path="url(#clip3_6246:270449)">
<path d="M445.6 153V161H444.8V157.8H443.6V155C443.6 154.47 443.811 153.961 444.186 153.586C444.561 153.211 445.07 153 445.6 153ZM440.8 157.76V161H440V157.76C439.549 157.668 439.143 157.422 438.851 157.065C438.56 156.708 438.4 156.261 438.4 155.8V153.4H439.2V156.2H440V153.4H440.8V156.2H441.6V153.4H442.4V155.8C442.4 156.261 442.241 156.708 441.95 157.065C441.658 157.422 441.252 157.668 440.8 157.76Z" fill="#FF8D62"/>
</g>
<rect x="434" y="172" width="16" height="16" rx="4" fill="#FDE2E5"/>
<g clip-path="url(#clip4_6246:270449)">
<path d="M443.6 176C443.821 176 444 176.179 444 176.4V177.6H445.6C445.821 177.6 446 177.779 446 178V183.6C446 183.821 445.821 184 445.6 184H438.4C438.179 184 438 183.821 438 183.6V178C438 177.779 438.179 177.6 438.4 177.6H440V176.4C440 176.179 440.179 176 440.4 176H443.6ZM442.4 179.2H441.6V180.4H440.4V181.2H441.6L441.6 182.4H442.4L442.4 181.2H443.6V180.4H442.4V179.2ZM443.2 176.8H440.8V177.6H443.2V176.8Z" fill="#F45A67"/>
</g>
<rect x="662.5" y="31.5" width="36" height="19" rx="9.5" fill="#C8E9FF"/>
<path d="M670.9 44H673.47C674.78 44 675.92 43.36 675.92 41.94C675.92 41.22 675.55 40.5 674.77 40.27V40.25C675.31 39.96 675.63 39.39 675.63 38.73C675.63 37.56 674.72 36.9 673.44 36.9H670.9V44ZM672.19 39.8V38.01H673.42C674.02 38.01 674.32 38.38 674.32 38.89C674.32 39.4 674 39.8 673.44 39.8H672.19ZM672.19 42.89V40.84H673.57C674.22 40.84 674.6 41.27 674.6 41.86C674.6 42.46 674.23 42.89 673.57 42.89H672.19ZM677.046 42.41C677.046 43.87 677.916 44.05 678.616 44.05C678.826 44.05 679.016 44.02 679.016 44.02V42.91C679.016 42.91 678.926 42.92 678.826 42.92C678.496 42.92 678.306 42.78 678.306 42.22V36.9H677.046V42.41ZM679.888 42.18C679.888 43.57 680.568 44.12 681.658 44.12C682.528 44.12 683.178 43.59 683.428 43.06H683.448C683.448 43.06 683.428 43.22 683.428 43.42V44H684.648V38.9H683.378V41.24C683.378 42.15 682.868 42.96 681.948 42.96C681.318 42.96 681.158 42.54 681.158 41.92V38.9H679.888V42.18ZM685.692 41.45C685.692 42.9 686.742 44.12 688.432 44.12C689.702 44.12 690.482 43.39 690.482 43.39L689.992 42.48C689.992 42.48 689.342 43.04 688.522 43.04C687.762 43.04 687.072 42.58 686.992 41.69H690.512C690.512 41.69 690.542 41.35 690.542 41.2C690.542 39.85 689.752 38.78 688.282 38.78C686.762 38.78 685.692 39.88 685.692 41.45ZM687.032 40.82C687.152 40.16 687.602 39.76 688.252 39.76C688.812 39.76 689.242 40.13 689.262 40.82H687.032Z" fill="#00355F"/>
<rect x="662.5" y="31.5" width="36" height="19" rx="9.5" stroke="#80B8E6"/>
<rect x="553.5" y="338.5" width="51" height="19" rx="9.5" fill="#F7C687"/>
<path d="M561.41 347.4C561.41 349.49 562.99 351.12 565.08 351.12C567.17 351.12 568.75 349.49 568.75 347.4C568.75 345.37 567.17 343.78 565.08 343.78C562.99 343.78 561.41 345.37 561.41 347.4ZM562.74 347.4C562.74 346 563.78 344.96 565.08 344.96C566.38 344.96 567.42 346 567.42 347.4C567.42 348.86 566.38 349.94 565.08 349.94C563.78 349.94 562.74 348.86 562.74 347.4ZM569.864 351H571.134V348.98C571.134 348.68 571.164 348.4 571.244 348.15C571.484 347.39 572.094 347.08 572.634 347.08C572.804 347.08 572.934 347.1 572.934 347.1V345.85C572.934 345.85 572.824 345.83 572.704 345.83C571.924 345.83 571.314 346.41 571.084 347.14H571.064C571.064 347.14 571.084 346.97 571.084 346.78V345.9H569.864V351ZM573.36 349.53C573.36 350.55 574.18 351.12 575.09 351.12C576.25 351.12 576.65 350.22 576.64 350.22H576.66C576.66 350.22 576.64 350.38 576.64 350.58V351H577.81V347.81C577.81 346.52 577.03 345.78 575.69 345.78C574.48 345.78 573.69 346.41 573.69 346.41L574.17 347.32C574.17 347.32 574.84 346.83 575.57 346.83C576.13 346.83 576.55 347.06 576.55 347.73V347.8H576.38C575.55 347.8 573.36 347.91 573.36 349.53ZM574.64 349.47C574.64 348.76 575.69 348.67 576.34 348.67H576.56V348.79C576.56 349.41 576.08 350.13 575.41 350.13C574.89 350.13 574.64 349.81 574.64 349.47ZM579.132 351H580.402V348.66C580.402 348.42 580.422 348.19 580.492 347.98C580.682 347.37 581.182 346.94 581.862 346.94C582.512 346.94 582.672 347.36 582.672 347.98V351H583.932V347.72C583.932 346.37 583.292 345.78 582.162 345.78C581.132 345.78 580.572 346.41 580.352 346.84H580.332C580.332 346.84 580.352 346.68 580.352 346.49V345.9H579.132V351ZM585.784 351.69L585.404 352.66C585.894 352.92 586.574 353.1 587.214 353.1C588.544 353.1 589.904 352.44 589.904 350.69V345.9H588.714V346.29C588.714 346.37 588.724 346.43 588.724 346.43H588.694C588.694 346.43 588.294 345.78 587.184 345.78C585.714 345.78 584.924 346.92 584.924 348.32C584.924 349.72 585.754 350.9 587.214 350.9C587.894 350.9 588.334 350.66 588.634 350.21H588.654C588.654 350.21 588.634 350.36 588.634 350.48V350.78C588.634 351.69 587.974 352.02 587.194 352.02C586.424 352.02 585.784 351.69 585.784 351.69ZM587.484 349.83C586.664 349.83 586.204 349.17 586.204 348.28C586.204 347.42 586.634 346.86 587.404 346.86C588.094 346.86 588.664 347.17 588.664 348.33C588.664 349.48 588.094 349.83 587.484 349.83ZM590.94 348.45C590.94 349.9 591.99 351.12 593.68 351.12C594.95 351.12 595.73 350.39 595.73 350.39L595.24 349.48C595.24 349.48 594.59 350.04 593.77 350.04C593.01 350.04 592.32 349.58 592.24 348.69H595.76C595.76 348.69 595.79 348.35 595.79 348.2C595.79 346.85 595 345.78 593.53 345.78C592.01 345.78 590.94 346.88 590.94 348.45ZM592.28 347.82C592.4 347.16 592.85 346.76 593.5 346.76C594.06 346.76 594.49 347.13 594.51 347.82H592.28Z" fill="#00355F"/>
<rect x="553.5" y="338.5" width="51" height="19" rx="9.5" stroke="#ED8B00"/>
<path d="M129.956 331H134.666V329.89H131.346C131.376 328.55 134.556 328.16 134.556 325.88C134.556 324.54 133.496 323.78 132.246 323.78C130.546 323.78 129.896 325.2 129.896 325.2L130.856 325.84C130.856 325.84 131.306 325 132.136 325C132.736 325 133.216 325.37 133.216 325.99C133.216 327.4 129.896 327.81 129.896 330.37C129.896 330.57 129.926 330.77 129.956 331ZM138.337 331.12C140.277 331.12 140.917 329.48 140.917 327.44C140.917 325.4 140.277 323.78 138.337 323.78C136.397 323.78 135.767 325.4 135.767 327.44C135.767 329.48 136.397 331.12 138.337 331.12ZM138.337 329.94C137.367 329.94 137.087 328.84 137.087 327.44C137.087 326.06 137.367 324.97 138.337 324.97C139.307 324.97 139.587 326.06 139.587 327.44C139.587 328.84 139.307 329.94 138.337 329.94ZM142.026 331H146.366V329.89H144.826V323.9H143.696L141.916 325.61L142.676 326.41L143.246 325.87C143.476 325.64 143.556 325.47 143.556 325.47H143.576C143.576 325.47 143.566 325.71 143.566 325.95V329.89H142.026V331Z" fill="#00355F"/>
<path d="M148.615 295H153.325V293.89H150.005C150.035 292.55 153.215 292.16 153.215 289.88C153.215 288.54 152.155 287.78 150.905 287.78C149.205 287.78 148.555 289.2 148.555 289.2L149.515 289.84C149.515 289.84 149.965 289 150.795 289C151.395 289 151.875 289.37 151.875 289.99C151.875 291.4 148.555 291.81 148.555 294.37C148.555 294.57 148.585 294.77 148.615 295ZM156.995 295.12C158.935 295.12 159.575 293.48 159.575 291.44C159.575 289.4 158.935 287.78 156.995 287.78C155.055 287.78 154.425 289.4 154.425 291.44C154.425 293.48 155.055 295.12 156.995 295.12ZM156.995 293.94C156.025 293.94 155.745 292.84 155.745 291.44C155.745 290.06 156.025 288.97 156.995 288.97C157.965 288.97 158.245 290.06 158.245 291.44C158.245 292.84 157.965 293.94 156.995 293.94ZM160.705 295H165.415V293.89H162.095C162.125 292.55 165.305 292.16 165.305 289.88C165.305 288.54 164.245 287.78 162.995 287.78C161.295 287.78 160.645 289.2 160.645 289.2L161.605 289.84C161.605 289.84 162.055 289 162.885 289C163.485 289 163.965 289.37 163.965 289.99C163.965 291.4 160.645 291.81 160.645 294.37C160.645 294.57 160.675 294.77 160.705 295Z" fill="#00355F"/>
<path d="M210.815 224H214.583V223.112H211.927C211.951 222.04 214.495 221.728 214.495 219.904C214.495 218.832 213.647 218.224 212.647 218.224C211.287 218.224 210.767 219.36 210.767 219.36L211.535 219.872C211.535 219.872 211.895 219.2 212.559 219.2C213.039 219.2 213.423 219.496 213.423 219.992C213.423 221.12 210.767 221.448 210.767 223.496C210.767 223.656 210.791 223.816 210.815 224ZM217.52 224.096C219.072 224.096 219.584 222.784 219.584 221.152C219.584 219.52 219.072 218.224 217.52 218.224C215.968 218.224 215.464 219.52 215.464 221.152C215.464 222.784 215.968 224.096 217.52 224.096ZM217.52 223.152C216.744 223.152 216.52 222.272 216.52 221.152C216.52 220.048 216.744 219.176 217.52 219.176C218.296 219.176 218.52 220.048 218.52 221.152C218.52 222.272 218.296 223.152 217.52 223.152ZM220.319 223.336C220.319 223.336 220.991 224.096 222.199 224.096C223.463 224.096 224.199 223.2 224.199 222.232C224.199 221.248 223.431 220.688 222.647 220.576L224.039 218.968V218.32H220.567V219.208H222.263C222.599 219.208 222.767 219.184 222.767 219.184V219.2C222.767 219.2 222.583 219.368 222.359 219.632L221.319 220.864L221.551 221.392H221.943C222.607 221.392 223.159 221.672 223.159 222.272C223.159 222.76 222.727 223.12 222.135 223.12C221.383 223.12 220.847 222.544 220.847 222.544L220.319 223.336Z" fill="#00355F"/>
<path d="M350.835 175H354.603V174.112H351.947C351.971 173.04 354.515 172.728 354.515 170.904C354.515 169.832 353.667 169.224 352.667 169.224C351.307 169.224 350.787 170.36 350.787 170.36L351.555 170.872C351.555 170.872 351.915 170.2 352.579 170.2C353.059 170.2 353.443 170.496 353.443 170.992C353.443 172.12 350.787 172.448 350.787 174.496C350.787 174.656 350.811 174.816 350.835 175ZM357.539 175.096C359.091 175.096 359.603 173.784 359.603 172.152C359.603 170.52 359.091 169.224 357.539 169.224C355.987 169.224 355.483 170.52 355.483 172.152C355.483 173.784 355.987 175.096 357.539 175.096ZM357.539 174.152C356.763 174.152 356.539 173.272 356.539 172.152C356.539 171.048 356.763 170.176 357.539 170.176C358.315 170.176 358.539 171.048 358.539 172.152C358.539 173.272 358.315 174.152 357.539 174.152ZM360.403 174.328C360.403 174.328 361.019 175.096 362.219 175.096C363.403 175.096 364.267 174.264 364.267 173.144C364.267 172.12 363.523 171.28 362.267 171.28C361.923 171.28 361.659 171.408 361.659 171.408H361.643C361.643 171.408 361.667 171.296 361.683 171.144L361.771 170.208H363.867V169.32H360.883L360.619 172.2L361.187 172.408C361.187 172.408 361.563 172.168 362.067 172.168C362.715 172.168 363.211 172.56 363.211 173.152C363.211 173.752 362.691 174.12 362.139 174.12C361.403 174.12 360.931 173.552 360.931 173.552L360.403 174.328Z" fill="#00355F"/>
<path d="M237.628 224H241.396V223.112H238.74C238.764 222.04 241.308 221.728 241.308 219.904C241.308 218.832 240.46 218.224 239.46 218.224C238.1 218.224 237.58 219.36 237.58 219.36L238.348 219.872C238.348 219.872 238.708 219.2 239.372 219.2C239.852 219.2 240.236 219.496 240.236 219.992C240.236 221.12 237.58 221.448 237.58 223.496C237.58 223.656 237.604 223.816 237.628 224ZM244.332 224.096C245.884 224.096 246.396 222.784 246.396 221.152C246.396 219.52 245.884 218.224 244.332 218.224C242.78 218.224 242.276 219.52 242.276 221.152C242.276 222.784 242.78 224.096 244.332 224.096ZM244.332 223.152C243.556 223.152 243.332 222.272 243.332 221.152C243.332 220.048 243.556 219.176 244.332 219.176C245.108 219.176 245.332 220.048 245.332 221.152C245.332 222.272 245.108 223.152 244.332 223.152ZM247.076 222.536H249.732V224H250.748V222.536H251.484V221.68H250.748V218.32H249.524L247.076 221.904V222.536ZM248.164 221.68V221.664L249.476 219.848C249.628 219.632 249.756 219.328 249.756 219.328H249.772C249.772 219.328 249.732 219.64 249.732 219.92V221.68H248.164Z" fill="#00355F"/>
<path d="M519.754 253H524.464V251.89H521.144C521.174 250.55 524.354 250.16 524.354 247.88C524.354 246.54 523.294 245.78 522.044 245.78C520.344 245.78 519.694 247.2 519.694 247.2L520.654 247.84C520.654 247.84 521.104 247 521.934 247C522.534 247 523.014 247.37 523.014 247.99C523.014 249.4 519.694 249.81 519.694 252.37C519.694 252.57 519.724 252.77 519.754 253ZM525.535 253H529.875V251.89H528.335V245.9H527.205L525.425 247.61L526.185 248.41L526.755 247.87C526.985 247.64 527.065 247.47 527.065 247.47H527.085C527.085 247.47 527.075 247.71 527.075 247.95V251.89H525.535V253ZM530.542 252.16C530.542 252.16 531.312 253.12 532.812 253.12C534.292 253.12 535.372 252.08 535.372 250.68C535.372 249.4 534.442 248.35 532.872 248.35C532.442 248.35 532.112 248.51 532.112 248.51H532.092C532.092 248.51 532.122 248.37 532.142 248.18L532.252 247.01H534.872V245.9H531.142L530.812 249.5L531.522 249.76C531.522 249.76 531.992 249.46 532.622 249.46C533.432 249.46 534.052 249.95 534.052 250.69C534.052 251.44 533.402 251.9 532.712 251.9C531.792 251.9 531.202 251.19 531.202 251.19L530.542 252.16Z" fill="#00355F"/>
<path d="M663.574 335H668.284V333.89H664.964C664.994 332.55 668.174 332.16 668.174 329.88C668.174 328.54 667.114 327.78 665.864 327.78C664.164 327.78 663.514 329.2 663.514 329.2L664.474 329.84C664.474 329.84 664.924 329 665.754 329C666.354 329 666.834 329.37 666.834 329.99C666.834 331.4 663.514 331.81 663.514 334.37C663.514 334.57 663.544 334.77 663.574 335ZM669.354 335H673.694V333.89H672.154V327.9H671.024L669.244 329.61L670.004 330.41L670.574 329.87C670.804 329.64 670.884 329.47 670.884 329.47H670.904C670.904 329.47 670.894 329.71 670.894 329.95V333.89H669.354V335ZM674.055 333.17H677.375V335H678.645V333.17H679.565V332.1H678.645V327.9H677.115L674.055 332.38V333.17ZM675.415 332.1V332.08L677.055 329.81C677.245 329.54 677.405 329.16 677.405 329.16H677.425C677.425 329.16 677.375 329.55 677.375 329.9V332.1H675.415Z" fill="#00355F"/>
<path d="M799.73 289H804.44V287.89H801.12C801.15 286.55 804.33 286.16 804.33 283.88C804.33 282.54 803.27 281.78 802.02 281.78C800.32 281.78 799.67 283.2 799.67 283.2L800.63 283.84C800.63 283.84 801.08 283 801.91 283C802.51 283 802.99 283.37 802.99 283.99C802.99 285.4 799.67 285.81 799.67 288.37C799.67 288.57 799.7 288.77 799.73 289ZM805.511 289H809.851V287.89H808.311V281.9H807.181L805.401 283.61L806.161 284.41L806.731 283.87C806.961 283.64 807.041 283.47 807.041 283.47H807.061C807.061 283.47 807.051 283.71 807.051 283.95V287.89H805.511V289ZM810.438 288.17C810.438 288.17 811.278 289.12 812.788 289.12C814.368 289.12 815.288 288 815.288 286.79C815.288 285.56 814.328 284.86 813.348 284.72L815.088 282.71V281.9H810.748V283.01H812.868C813.288 283.01 813.498 282.98 813.498 282.98V283C813.498 283 813.268 283.21 812.988 283.54L811.688 285.08L811.978 285.74H812.468C813.298 285.74 813.988 286.09 813.988 286.84C813.988 287.45 813.448 287.9 812.708 287.9C811.768 287.9 811.098 287.18 811.098 287.18L810.438 288.17Z" fill="#00355F"/>
<path d="M798.701 107H803.411V105.89H800.091C800.121 104.55 803.301 104.16 803.301 101.88C803.301 100.54 802.241 99.78 800.991 99.78C799.291 99.78 798.641 101.2 798.641 101.2L799.601 101.84C799.601 101.84 800.051 101 800.881 101C801.481 101 801.961 101.37 801.961 101.99C801.961 103.4 798.641 103.81 798.641 106.37C798.641 106.57 798.671 106.77 798.701 107ZM804.481 107H808.821V105.89H807.281V99.9H806.151L804.371 101.61L805.131 102.41L805.701 101.87C805.931 101.64 806.011 101.47 806.011 101.47H806.031C806.031 101.47 806.021 101.71 806.021 101.95V105.89H804.481V107ZM809.619 107H814.329V105.89H811.009C811.039 104.55 814.219 104.16 814.219 101.88C814.219 100.54 813.159 99.78 811.909 99.78C810.209 99.78 809.559 101.2 809.559 101.2L810.519 101.84C810.519 101.84 810.969 101 811.799 101C812.399 101 812.879 101.37 812.879 101.99C812.879 103.4 809.559 103.81 809.559 106.37C809.559 106.57 809.589 106.77 809.619 107Z" fill="#00355F"/>
<path d="M799.042 72H803.752V70.89H800.432C800.462 69.55 803.642 69.16 803.642 66.88C803.642 65.54 802.582 64.78 801.332 64.78C799.632 64.78 798.982 66.2 798.982 66.2L799.942 66.84C799.942 66.84 800.392 66 801.222 66C801.822 66 802.302 66.37 802.302 66.99C802.302 68.4 798.982 68.81 798.982 71.37C798.982 71.57 799.012 71.77 799.042 72ZM804.823 72H809.163V70.89H807.623V64.9H806.493L804.713 66.61L805.473 67.41L806.043 66.87C806.273 66.64 806.353 66.47 806.353 66.47H806.373C806.373 66.47 806.363 66.71 806.363 66.95V70.89H804.823V72ZM809.94 72H814.28V70.89H812.74V64.9H811.61L809.83 66.61L810.59 67.41L811.16 66.87C811.39 66.64 811.47 66.47 811.47 66.47H811.49C811.49 66.47 811.48 66.71 811.48 66.95V70.89H809.94V72Z" fill="#00355F"/>
<path d="M656.956 72H661.666V70.89H658.346C658.376 69.55 661.556 69.16 661.556 66.88C661.556 65.54 660.496 64.78 659.246 64.78C657.546 64.78 656.896 66.2 656.896 66.2L657.856 66.84C657.856 66.84 658.306 66 659.136 66C659.736 66 660.216 66.37 660.216 66.99C660.216 68.4 656.896 68.81 656.896 71.37C656.896 71.57 656.926 71.77 656.956 72ZM662.737 72H667.077V70.89H665.537V64.9H664.407L662.627 66.61L663.387 67.41L663.957 66.87C664.187 66.64 664.267 66.47 664.267 66.47H664.287C664.287 66.47 664.277 66.71 664.277 66.95V70.89H662.737V72ZM670.454 72.12C672.394 72.12 673.034 70.48 673.034 68.44C673.034 66.4 672.394 64.78 670.454 64.78C668.514 64.78 667.884 66.4 667.884 68.44C667.884 70.48 668.514 72.12 670.454 72.12ZM670.454 70.94C669.484 70.94 669.204 69.84 669.204 68.44C669.204 67.06 669.484 65.97 670.454 65.97C671.424 65.97 671.704 67.06 671.704 68.44C671.704 69.84 671.424 70.94 670.454 70.94Z" fill="#00355F"/>
<path d="M624.998 78H629.708V76.89H626.388C626.418 75.55 629.598 75.16 629.598 72.88C629.598 71.54 628.538 70.78 627.288 70.78C625.588 70.78 624.938 72.2 624.938 72.2L625.898 72.84C625.898 72.84 626.348 72 627.178 72C627.778 72 628.258 72.37 628.258 72.99C628.258 74.4 624.938 74.81 624.938 77.37C624.938 77.57 624.968 77.77 624.998 78ZM633.378 78.12C635.318 78.12 635.958 76.48 635.958 74.44C635.958 72.4 635.318 70.78 633.378 70.78C631.438 70.78 630.808 72.4 630.808 74.44C630.808 76.48 631.438 78.12 633.378 78.12ZM633.378 76.94C632.408 76.94 632.128 75.84 632.128 74.44C632.128 73.06 632.408 71.97 633.378 71.97C634.348 71.97 634.628 73.06 634.628 74.44C634.628 75.84 634.348 76.94 633.378 76.94ZM638.767 78.12C640.967 78.12 642.037 76.01 642.037 74.15C642.037 72.01 640.777 70.78 639.297 70.78C637.887 70.78 636.957 71.85 636.957 73.16C636.957 74.44 637.827 75.54 639.227 75.54C639.737 75.54 640.317 75.33 640.567 75.04H640.587C640.407 76.01 639.807 76.94 638.687 76.94C638.147 76.94 637.697 76.71 637.697 76.71L637.317 77.82C637.317 77.82 637.867 78.12 638.767 78.12ZM639.537 74.48C638.677 74.48 638.227 73.88 638.227 73.16C638.227 72.49 638.637 71.97 639.297 71.97C640.037 71.97 640.697 72.82 640.697 73.71C640.697 74.14 640.177 74.48 639.537 74.48Z" fill="#00355F"/>
<rect x="592.58" y="88" width="12.6961" height="12.6961" rx="4.23203" fill="#00355F"/>
<path d="M594.868 96.71H597.875V96.073H596.735V91.4813H596.083L594.831 92.6959L595.276 93.1551L595.765 92.6737C595.957 92.4885 596.016 92.37 596.016 92.37H596.031C596.031 92.37 596.024 92.533 596.024 92.6959V96.073H594.868V96.71ZM600.388 96.7988C601.788 96.7988 602.239 95.5991 602.239 94.0882C602.239 92.5848 601.788 91.3924 600.388 91.3924C598.995 91.3924 598.544 92.5848 598.544 94.0882C598.544 95.5991 598.995 96.7988 600.388 96.7988ZM600.388 96.1249C599.536 96.1249 599.292 95.2288 599.292 94.0882C599.292 92.9551 599.536 92.0664 600.388 92.0664C601.247 92.0664 601.491 92.9551 601.491 94.0882C601.491 95.2288 601.247 96.1249 600.388 96.1249Z" fill="white"/>
<path d="M519.958 112H524.668V110.89H521.348C521.378 109.55 524.558 109.16 524.558 106.88C524.558 105.54 523.498 104.78 522.248 104.78C520.548 104.78 519.898 106.2 519.898 106.2L520.858 106.84C520.858 106.84 521.308 106 522.138 106C522.738 106 523.218 106.37 523.218 106.99C523.218 108.4 519.898 108.81 519.898 111.37C519.898 111.57 519.928 111.77 519.958 112ZM528.339 112.12C530.279 112.12 530.919 110.48 530.919 108.44C530.919 106.4 530.279 104.78 528.339 104.78C526.399 104.78 525.769 106.4 525.769 108.44C525.769 110.48 526.399 112.12 528.339 112.12ZM528.339 110.94C527.369 110.94 527.089 109.84 527.089 108.44C527.089 107.06 527.369 105.97 528.339 105.97C529.309 105.97 529.589 107.06 529.589 108.44C529.589 109.84 529.309 110.94 528.339 110.94ZM531.998 109.94C531.998 111.16 532.998 112.12 534.538 112.12C536.128 112.12 537.038 111.1 537.038 110.01C537.038 109.28 536.648 108.83 536.128 108.5C536.198 108.42 536.918 107.63 536.918 106.75C536.918 105.52 535.938 104.78 534.618 104.78C533.058 104.78 532.338 105.74 532.338 106.72C532.338 107.35 532.638 107.78 533.068 108.11C532.848 108.26 531.998 108.93 531.998 109.94ZM535.728 109.95C535.728 110.58 535.198 110.98 534.538 110.98C533.888 110.98 533.318 110.51 533.318 109.84C533.318 109.25 533.748 108.83 533.978 108.64C534.838 109.05 535.728 109.33 535.728 109.95ZM533.608 106.75C533.608 106.29 533.948 105.93 534.598 105.93C535.238 105.93 535.658 106.28 535.658 106.83C535.658 107.45 535.278 107.92 535.178 108.03C534.368 107.68 533.608 107.4 533.608 106.75Z" fill="#00355F"/>
<path d="M486.795 112H491.505V110.89H488.185C488.215 109.55 491.395 109.16 491.395 106.88C491.395 105.54 490.335 104.78 489.085 104.78C487.385 104.78 486.735 106.2 486.735 106.2L487.695 106.84C487.695 106.84 488.145 106 488.975 106C489.575 106 490.055 106.37 490.055 106.99C490.055 108.4 486.735 108.81 486.735 111.37C486.735 111.57 486.765 111.77 486.795 112ZM495.176 112.12C497.116 112.12 497.756 110.48 497.756 108.44C497.756 106.4 497.116 104.78 495.176 104.78C493.236 104.78 492.606 106.4 492.606 108.44C492.606 110.48 493.236 112.12 495.176 112.12ZM495.176 110.94C494.206 110.94 493.926 109.84 493.926 108.44C493.926 107.06 494.206 105.97 495.176 105.97C496.146 105.97 496.426 107.06 496.426 108.44C496.426 109.84 496.146 110.94 495.176 110.94ZM499.105 112H500.445L503.555 105.8V104.9H498.675V106.01H501.705C502.055 106.01 502.195 105.99 502.195 105.99V106.01C502.195 106.01 501.985 106.22 501.765 106.66L499.105 112Z" fill="#00355F"/>
<path d="M471.998 48H476.708V46.89H473.388C473.418 45.55 476.598 45.16 476.598 42.88C476.598 41.54 475.538 40.78 474.288 40.78C472.588 40.78 471.938 42.2 471.938 42.2L472.898 42.84C472.898 42.84 473.348 42 474.178 42C474.778 42 475.258 42.37 475.258 42.99C475.258 44.4 471.938 44.81 471.938 47.37C471.938 47.57 471.968 47.77 471.998 48ZM480.378 48.12C482.318 48.12 482.958 46.48 482.958 44.44C482.958 42.4 482.318 40.78 480.378 40.78C478.438 40.78 477.808 42.4 477.808 44.44C477.808 46.48 478.438 48.12 480.378 48.12ZM480.378 46.94C479.408 46.94 479.128 45.84 479.128 44.44C479.128 43.06 479.408 41.97 480.378 41.97C481.348 41.97 481.628 43.06 481.628 44.44C481.628 45.84 481.348 46.94 480.378 46.94ZM486.797 48.12C488.207 48.12 489.137 47.06 489.137 45.74C489.137 44.46 488.257 43.37 486.857 43.37C486.347 43.37 485.777 43.58 485.527 43.87H485.507C485.687 42.9 486.277 41.97 487.397 41.97C487.947 41.97 488.397 42.19 488.397 42.19L488.777 41.08C488.777 41.08 488.227 40.78 487.327 40.78C485.127 40.78 484.057 42.89 484.057 44.75C484.057 46.89 485.317 48.12 486.797 48.12ZM486.797 46.94C486.047 46.94 485.397 46.09 485.397 45.2C485.397 44.76 485.917 44.43 486.557 44.43C487.407 44.43 487.857 45.02 487.857 45.74C487.857 46.41 487.457 46.94 486.797 46.94Z" fill="#00355F"/>
<rect x="399" y="174" width="20" height="20" rx="4" fill="#EBF6FF"/>
<path fill-rule="evenodd" clip-rule="evenodd" d="M410.415 179.586C410.04 179.211 409.531 179 409 179C408.47 179 407.961 179.211 407.586 179.586C407.211 179.961 407 180.47 407 181C407 181.53 407.211 182.039 407.586 182.414C407.961 182.789 408.47 183 409 183C409.531 183 410.04 182.789 410.415 182.414C410.79 182.039 411 181.53 411 181C411 180.47 410.79 179.961 410.415 179.586ZM408.581 183.646C408.778 183.342 409.223 183.342 409.42 183.646L412.396 188.228C412.612 188.56 412.373 189 411.977 189H406.024C405.628 189 405.389 188.56 405.605 188.228L408.581 183.646Z" fill="#63BAFF"/>
<rect x="238" y="161" width="16" height="16" rx="4" fill="#EBF6FF"/>
<g clip-path="url(#clip5_6246:270449)">
<path fill-rule="evenodd" clip-rule="evenodd" d="M247.131 165.469C246.831 165.169 246.424 165 245.999 165C245.575 165 245.168 165.169 244.868 165.469C244.568 165.769 244.399 166.176 244.399 166.6C244.399 167.024 244.568 167.431 244.868 167.731C245.168 168.031 245.575 168.2 245.999 168.2C246.424 168.2 246.831 168.031 247.131 167.731C247.431 167.431 247.599 167.024 247.599 166.6C247.599 166.176 247.431 165.769 247.131 165.469ZM245.664 168.716C245.822 168.474 246.177 168.474 246.335 168.716L248.716 172.382C248.889 172.648 248.698 173 248.38 173H243.618C243.301 173 243.11 172.648 243.283 172.382L245.664 168.716Z" fill="#63BAFF"/>
</g>
<rect x="399" y="223" width="20" height="20" rx="4" fill="#EBF6FF"/>
<path fill-rule="evenodd" clip-rule="evenodd" d="M410.415 228.586C410.04 228.211 409.531 228 409 228C408.47 228 407.961 228.211 407.586 228.586C407.211 228.961 407 229.47 407 230C407 230.53 407.211 231.039 407.586 231.414C407.961 231.789 408.47 232 409 232C409.531 232 410.04 231.789 410.415 231.414C410.79 231.039 411 230.53 411 230C411 229.47 410.79 228.961 410.415 228.586ZM408.581 237.772C408.778 238.076 409.223 238.076 409.42 237.772L412.396 233.19C412.612 232.858 412.373 232.418 411.977 232.418H406.024C405.628 232.418 405.389 232.858 405.605 233.19L408.581 237.772Z" fill="#63BAFF"/>
<rect x="206" y="161" width="16" height="16" rx="4" fill="#EBF6FF"/>
<g clip-path="url(#clip6_6246:270449)">
<path fill-rule="evenodd" clip-rule="evenodd" d="M215.131 165.469C214.831 165.169 214.424 165 213.999 165C213.575 165 213.168 165.169 212.868 165.469C212.568 165.769 212.399 166.176 212.399 166.6C212.399 167.024 212.568 167.431 212.868 167.731C213.168 168.031 213.575 168.2 213.999 168.2C214.424 168.2 214.831 168.031 215.131 167.731C215.431 167.431 215.599 167.024 215.599 166.6C215.599 166.176 215.431 165.769 215.131 165.469ZM213.664 172.818C213.822 173.061 214.177 173.061 214.335 172.818L216.716 169.152C216.889 168.886 216.698 168.534 216.38 168.534H211.618C211.301 168.534 211.11 168.886 211.283 169.152L213.664 172.818Z" fill="#63BAFF"/>
</g>
<rect x="124.5" y="33.5" width="47" height="19" rx="9.5" fill="#FEEF99"/>
<path d="M134.38 46H135.67V43.03L138.03 38.9H136.57L135.47 40.99C135.24 41.43 135.04 41.94 135.04 41.94H135.02C135.01 41.95 134.82 41.43 134.59 40.99L133.48 38.9H132.02L134.38 43.03V46ZM137.838 43.45C137.838 44.9 138.888 46.12 140.578 46.12C141.848 46.12 142.628 45.39 142.628 45.39L142.138 44.48C142.138 44.48 141.488 45.04 140.668 45.04C139.908 45.04 139.218 44.58 139.138 43.69H142.658C142.658 43.69 142.688 43.35 142.688 43.2C142.688 41.85 141.898 40.78 140.428 40.78C138.908 40.78 137.838 41.88 137.838 43.45ZM139.178 42.82C139.298 42.16 139.748 41.76 140.398 41.76C140.958 41.76 141.388 42.13 141.408 42.82H139.178ZM143.665 44.41C143.665 45.87 144.535 46.05 145.235 46.05C145.445 46.05 145.635 46.02 145.635 46.02V44.91C145.635 44.91 145.545 44.92 145.445 44.92C145.115 44.92 144.925 44.78 144.925 44.22V38.9H143.665V44.41ZM146.507 44.41C146.507 45.87 147.377 46.05 148.077 46.05C148.287 46.05 148.477 46.02 148.477 46.02V44.91C148.477 44.91 148.387 44.92 148.287 44.92C147.957 44.92 147.767 44.78 147.767 44.22V38.9H146.507V44.41ZM149.039 43.45C149.039 45.02 150.289 46.12 151.849 46.12C153.399 46.12 154.649 45.02 154.649 43.45C154.649 41.89 153.399 40.78 151.839 40.78C150.289 40.78 149.039 41.89 149.039 43.45ZM150.329 43.45C150.329 42.51 151.019 41.86 151.849 41.86C152.669 41.86 153.359 42.51 153.359 43.45C153.359 44.4 152.669 45.04 151.849 45.04C151.019 45.04 150.329 44.4 150.329 43.45ZM156.669 46H158.089L158.949 43.09C159.029 42.82 159.069 42.54 159.069 42.54H159.089C159.089 42.54 159.139 42.82 159.219 43.09L160.079 46H161.489L163.039 40.9H161.719L160.829 44.25C160.759 44.52 160.719 44.79 160.719 44.79H160.699C160.699 44.79 160.659 44.52 160.589 44.25L159.649 40.91H158.519L157.579 44.25C157.509 44.52 157.459 44.79 157.459 44.79H157.439C157.439 44.79 157.409 44.52 157.339 44.25L156.449 40.9L155.109 40.9L156.669 46Z" fill="#00355F"/>
<rect x="124.5" y="33.5" width="47" height="19" rx="9.5" stroke="#F7CA0F"/>
<rect x="234.5" y="336.5" width="34" height="19" rx="9.5" fill="#E0F1F1"/>
<path d="M244.37 349H245.66V343.01H247.99V341.9H242.04V343.01H244.37V349ZM247.565 346.45C247.565 347.9 248.615 349.12 250.305 349.12C251.575 349.12 252.355 348.39 252.355 348.39L251.865 347.48C251.865 347.48 251.215 348.04 250.395 348.04C249.635 348.04 248.945 347.58 248.865 346.69H252.385C252.385 346.69 252.415 346.35 252.415 346.2C252.415 344.85 251.625 343.78 250.155 343.78C248.635 343.78 247.565 344.88 247.565 346.45ZM248.905 345.82C249.025 345.16 249.475 344.76 250.125 344.76C250.685 344.76 251.115 345.13 251.135 345.82H248.905ZM253.032 347.53C253.032 348.55 253.852 349.12 254.762 349.12C255.922 349.12 256.322 348.22 256.312 348.22H256.332C256.332 348.22 256.312 348.38 256.312 348.58V349H257.482V345.81C257.482 344.52 256.702 343.78 255.362 343.78C254.152 343.78 253.362 344.41 253.362 344.41L253.842 345.32C253.842 345.32 254.512 344.83 255.242 344.83C255.802 344.83 256.222 345.06 256.222 345.73V345.8H256.052C255.222 345.8 253.032 345.91 253.032 347.53ZM254.312 347.47C254.312 346.76 255.362 346.67 256.012 346.67H256.232V346.79C256.232 347.41 255.752 348.13 255.082 348.13C254.562 348.13 254.312 347.81 254.312 347.47ZM258.734 347.41C258.734 348.87 259.604 349.05 260.304 349.05C260.514 349.05 260.704 349.02 260.704 349.02V347.91C260.704 347.91 260.614 347.92 260.514 347.92C260.184 347.92 259.994 347.78 259.994 347.22V341.9H258.734V347.41Z" fill="#00355F"/>
<rect x="234.5" y="336.5" width="34" height="19" rx="9.5" stroke="#80D8D7"/>
<g filter="url(#filter0_d_6246:270449)">
<rect x="227.5" y="337" width="43" height="20" rx="10" fill="#00B1B0"/>
<path d="M241.87 350H243.16V344.01H245.49V342.9H239.54V344.01H241.87V350ZM245.065 347.45C245.065 348.9 246.115 350.12 247.805 350.12C249.075 350.12 249.855 349.39 249.855 349.39L249.365 348.48C249.365 348.48 248.715 349.04 247.895 349.04C247.135 349.04 246.445 348.58 246.365 347.69H249.885C249.885 347.69 249.915 347.35 249.915 347.2C249.915 345.85 249.125 344.78 247.655 344.78C246.135 344.78 245.065 345.88 245.065 347.45ZM246.405 346.82C246.525 346.16 246.975 345.76 247.625 345.76C248.185 345.76 248.615 346.13 248.635 346.82H246.405ZM250.532 348.53C250.532 349.55 251.352 350.12 252.262 350.12C253.422 350.12 253.822 349.22 253.812 349.22H253.832C253.832 349.22 253.812 349.38 253.812 349.58V350H254.982V346.81C254.982 345.52 254.202 344.78 252.862 344.78C251.652 344.78 250.862 345.41 250.862 345.41L251.342 346.32C251.342 346.32 252.012 345.83 252.742 345.83C253.302 345.83 253.722 346.06 253.722 346.73V346.8H253.552C252.722 346.8 250.532 346.91 250.532 348.53ZM251.812 348.47C251.812 347.76 252.862 347.67 253.512 347.67H253.732V347.79C253.732 348.41 253.252 349.13 252.582 349.13C252.062 349.13 251.812 348.81 251.812 348.47ZM256.234 348.41C256.234 349.87 257.104 350.05 257.804 350.05C258.014 350.05 258.204 350.02 258.204 350.02V348.91C258.204 348.91 258.114 348.92 258.014 348.92C257.684 348.92 257.494 348.78 257.494 348.22V342.9H256.234V348.41Z" fill="white"/>
</g>
<defs>
<filter id="filter0_d_6246:270449" x="211.5" y="329" width="75" height="52" filterUnits="userSpaceOnUse" color-interpolation-filters="sRGB">
<feFlood flood-opacity="0" result="BackgroundImageFix"/>
<feColorMatrix in="SourceAlpha" type="matrix" values="0 0 0 0 0 0 0 0 0 0 0 0 0 0 0 0 0 0 127 0" result="hardAlpha"/>
<feOffset dy="8"/>
<feGaussianBlur stdDeviation="8"/>
<feColorMatrix type="matrix" values="0 0 0 0 0 0 0 0 0 0.176471 0 0 0 0 0.313726 0 0 0 0.12 0"/>
<feBlend mode="normal" in2="BackgroundImageFix" result="effect1_dropShadow_6246:270449"/>
<feBlend mode="normal" in="SourceGraphic" in2="effect1_dropShadow_6246:270449" result="shape"/>
</filter>
<clipPath id="clip0_6246:270449">
<rect width="10.1569" height="10.1569" fill="white" transform="translate(481.386 237.386)"/>
</clipPath>
<clipPath id="clip1_6246:270449">
<rect width="12" height="12" fill="white" transform="translate(587.928 129)"/>
</clipPath>
<clipPath id="clip2_6246:270449">
<rect width="9.6" height="9.6" fill="white" transform="translate(525.2 155.2)"/>
</clipPath>
<clipPath id="clip3_6246:270449">
<rect width="9.6" height="9.6" fill="white" transform="translate(437.2 152.2)"/>
</clipPath>
<clipPath id="clip4_6246:270449">
<rect width="9.6" height="9.6" fill="white" transform="translate(437.2 175.2)"/>
</clipPath>
<clipPath id="clip5_6246:270449">
<rect width="9.6" height="9.6" fill="white" transform="translate(241.2 164.2)"/>
</clipPath>
<clipPath id="clip6_6246:270449">
<rect width="9.6" height="9.6" fill="white" transform="translate(209.2 164.2)"/>
</clipPath>
</defs>
</svg>
