<svg width="648" height="304" viewBox="0 0 648 304" fill="none" xmlns="http://www.w3.org/2000/svg">
<circle opacity="0.03" cx="485" cy="150" r="485" fill="#8643FF"/>
<circle opacity="0.03" cx="485" cy="150" r="343" fill="#8643FF"/>
<circle opacity="0.05" cx="485" cy="150" r="221" fill="#8643FF"/>
<circle opacity="0.1" cx="485" cy="150" r="131" fill="#8643FF"/>
<rect x="433" y="98" width="104" height="104" rx="52" fill="#8643FF"/>
<path fill-rule="evenodd" clip-rule="evenodd" d="M479.5 142.509C478.752 149.454 476.569 156.169 473.091 162.227C473.779 162.56 474.453 162.917 475.106 163.311H505V164.644H477.08C478.721 165.857 480.207 167.268 481.504 168.845L480.473 169.689C478.28 167.02 475.529 164.865 472.413 163.374C471.928 164.165 471.429 164.941 470.905 165.688L469.814 164.925C474.648 157.916 477.561 149.762 478.261 141.276L477.687 140.705L476.921 141.467C476.377 149.402 473.325 156.958 468.206 163.045L467.184 162.19C467.294 162.058 467.402 161.923 467.509 161.788C467.535 161.755 467.562 161.722 467.588 161.688C466.93 161.536 466.268 161.401 465.602 161.306L465.213 161.268L465.347 159.942L465.763 159.984C466.679 160.118 467.587 160.303 468.482 160.538C472.329 155.393 474.733 149.316 475.447 142.932L469.678 148.667C469.553 148.792 469.384 148.861 469.208 148.861C469.172 148.861 469.136 148.859 469.1 148.853C468.889 148.818 468.708 148.684 468.612 148.493C467.356 145.986 467.848 142.957 469.833 140.977L470.377 140.432H465.696C465.624 140.432 465.553 140.42 465.485 140.397C465.136 140.281 464.947 139.903 465.064 139.554C465.948 136.894 468.438 135.1 471.242 135.102H472.117L468.786 131.756C468.736 131.706 468.694 131.647 468.662 131.584C468.498 131.255 468.631 130.855 468.961 130.69C471.467 129.434 474.496 129.926 476.476 131.91L477.112 132.546C477.318 132.755 477.509 132.978 477.685 133.212C477.862 132.978 478.055 132.755 478.262 132.546L478.898 131.91C480.88 129.925 483.911 129.433 486.419 130.69C486.483 130.722 486.541 130.764 486.591 130.814C486.852 131.074 486.853 131.495 486.593 131.756L483.266 135.102H484.132C486.936 135.1 489.426 136.894 490.311 139.554C490.333 139.622 490.345 139.694 490.345 139.766C490.345 140.134 490.046 140.432 489.678 140.432H484.993L485.537 140.977C487.522 142.957 488.014 145.986 486.758 148.493C486.662 148.684 486.481 148.818 486.269 148.853C486.234 148.859 486.198 148.861 486.162 148.861C485.987 148.86 485.819 148.791 485.695 148.667L479.5 142.509ZM478.879 140.01L485.917 147.008C486.437 145.198 485.933 143.249 484.6 141.919L483.964 141.282C482.629 139.96 480.679 139.472 478.879 140.01ZM483.146 139.099H488.662C487.749 137.453 486.013 136.432 484.13 136.435H483.231C481.558 136.434 479.989 137.244 479.02 138.607C480.412 138.315 481.861 138.488 483.146 139.099ZM479.838 132.852L479.202 133.488H479.204C478.038 134.668 477.527 136.346 477.837 137.975C478.6 136.843 479.7 135.979 480.981 135.507L484.931 131.535C483.12 131.015 481.17 131.519 479.838 132.852ZM476.168 133.488L475.532 132.852H475.534C474.204 131.519 472.254 131.015 470.444 131.535L474.394 135.507C475.139 135.781 475.828 136.189 476.426 136.712C476.461 135.949 476.633 135.199 476.935 134.497C476.723 134.13 476.465 133.791 476.168 133.488ZM472.14 136.435H471.242C469.36 136.433 467.625 137.453 466.713 139.099H472.231C473.515 138.488 474.963 138.315 476.355 138.606C475.384 137.242 473.813 136.433 472.14 136.435ZM470.775 141.919C469.442 143.249 468.937 145.198 469.457 147.008L476.499 140.007C476.019 139.867 475.522 139.796 475.023 139.795C473.669 139.791 472.369 140.326 471.411 141.282L470.775 141.919ZM489 153C489 155.761 491.239 158 494 158C496.761 158 499 155.761 499 153C499 150.239 496.761 148 494 148C491.24 148.003 489.003 150.24 489 153ZM494 149C496.209 149 498 150.791 498 153C498 155.209 496.209 157 494 157C491.791 157 490 155.209 490 153C490.003 150.792 491.792 149.002 494 149ZM487.678 167.976H501.001V169.308H487.678V167.976Z" fill="white"/>
<path d="M473.091 162.227L472.657 161.978L472.39 162.444L472.873 162.678L473.091 162.227ZM479.5 142.509L479.852 142.154L479.114 141.42L479.003 142.455L479.5 142.509ZM475.106 163.311L474.848 163.739L474.967 163.811H475.106V163.311ZM505 163.311H505.5V162.811H505V163.311ZM505 164.644V165.144H505.5V164.644H505ZM477.08 164.644V164.144H475.562L476.782 165.046L477.08 164.644ZM481.504 168.845L481.821 169.232L482.208 168.914L481.89 168.527L481.504 168.845ZM480.473 169.689L480.087 170.007L480.404 170.392L480.79 170.076L480.473 169.689ZM472.413 163.374L472.628 162.923L472.222 162.728L471.986 163.113L472.413 163.374ZM470.905 165.688L470.618 166.098L471.028 166.384L471.314 165.975L470.905 165.688ZM469.814 164.925L469.402 164.641L469.12 165.05L469.527 165.334L469.814 164.925ZM478.261 141.276L478.76 141.317L478.779 141.085L478.614 140.921L478.261 141.276ZM477.687 140.705L478.04 140.35L477.688 140L477.335 140.35L477.687 140.705ZM476.921 141.467L476.568 141.112L476.435 141.245L476.422 141.433L476.921 141.467ZM468.206 163.045L467.885 163.428L468.267 163.748L468.588 163.367L468.206 163.045ZM467.184 162.19L466.8 161.869L466.479 162.253L466.863 162.574L467.184 162.19ZM467.509 161.788L467.9 162.099H467.9L467.509 161.788ZM467.588 161.688L467.979 162L468.474 161.38L467.701 161.201L467.588 161.688ZM465.602 161.306L465.673 160.811L465.661 160.809L465.65 160.808L465.602 161.306ZM465.213 161.268L464.716 161.218L464.666 161.717L465.165 161.766L465.213 161.268ZM465.347 159.942L465.397 159.444L464.899 159.394L464.849 159.892L465.347 159.942ZM465.763 159.984L465.835 159.489L465.824 159.487L465.813 159.486L465.763 159.984ZM468.482 160.538L468.355 161.022L468.681 161.107L468.883 160.837L468.482 160.538ZM475.447 142.932L475.944 142.988L476.102 141.576L475.095 142.578L475.447 142.932ZM469.678 148.667L469.325 148.313L469.325 148.313L469.678 148.667ZM469.208 148.861V148.361L469.205 148.361L469.208 148.861ZM469.1 148.853L469.182 148.359L469.181 148.359L469.1 148.853ZM468.612 148.493L469.059 148.269L469.059 148.269L468.612 148.493ZM469.833 140.977L470.186 141.331L470.186 141.33L469.833 140.977ZM470.377 140.432L470.731 140.785L471.584 139.932H470.377V140.432ZM465.485 140.397L465.644 139.923L465.643 139.923L465.485 140.397ZM465.064 139.554L465.538 139.713L465.538 139.712L465.064 139.554ZM471.242 135.102L471.242 135.602H471.242V135.102ZM472.117 135.102V135.602H473.32L472.471 134.75L472.117 135.102ZM468.786 131.756L468.432 132.109L468.432 132.109L468.786 131.756ZM468.662 131.584L469.11 131.361L469.109 131.36L468.662 131.584ZM468.961 130.69L469.184 131.137L469.185 131.137L468.961 130.69ZM476.476 131.91L476.122 132.263L476.123 132.264L476.476 131.91ZM477.112 132.546L477.468 132.195L477.466 132.193L477.112 132.546ZM477.685 133.212L477.284 133.511L477.682 134.045L478.084 133.514L477.685 133.212ZM478.262 132.546L477.909 132.193L477.908 132.194L478.262 132.546ZM478.898 131.91L479.252 132.264L479.252 132.263L478.898 131.91ZM486.419 130.69L486.195 131.137L486.196 131.138L486.419 130.69ZM486.591 130.814L486.944 130.46L486.944 130.46L486.591 130.814ZM486.593 131.756L486.239 131.403L486.239 131.404L486.593 131.756ZM483.266 135.102L482.912 134.75L482.064 135.602H483.266V135.102ZM484.132 135.102V135.602L484.133 135.602L484.132 135.102ZM490.311 139.554L490.785 139.397L490.785 139.397L490.311 139.554ZM490.345 139.766L489.845 139.764V139.766H490.345ZM489.678 140.432L489.679 139.932H489.678V140.432ZM484.993 140.432V139.932H483.786L484.639 140.785L484.993 140.432ZM485.537 140.977L485.184 141.33L485.184 141.331L485.537 140.977ZM486.758 148.493L486.311 148.269L486.31 148.27L486.758 148.493ZM486.269 148.853L486.189 148.359L486.187 148.359L486.269 148.853ZM486.162 148.861L486.165 148.361L486.164 148.361L486.162 148.861ZM485.695 148.667L486.048 148.313L486.048 148.313L485.695 148.667ZM485.917 147.008L485.565 147.363L486.164 147.959L486.398 147.146L485.917 147.008ZM478.879 140.01L478.735 139.531L477.929 139.771L478.526 140.365L478.879 140.01ZM484.6 141.919L484.247 142.272L484.247 142.272L484.6 141.919ZM483.964 141.282L484.318 140.929L484.316 140.927L483.964 141.282ZM488.662 139.099V139.599H489.511L489.099 138.857L488.662 139.099ZM483.146 139.099L482.931 139.551L483.033 139.599H483.146V139.099ZM484.13 136.435V136.935L484.131 136.935L484.13 136.435ZM483.231 136.435L483.231 136.935H483.231V136.435ZM479.02 138.607L478.612 138.317L477.871 139.359L479.122 139.096L479.02 138.607ZM479.202 133.488L478.849 133.135L477.995 133.988H479.202V133.488ZM479.838 132.852L480.192 133.206L480.192 133.205L479.838 132.852ZM479.204 133.488L479.56 133.84L480.402 132.988H479.204V133.488ZM477.837 137.975L477.345 138.069L477.572 139.263L478.251 138.255L477.837 137.975ZM480.981 135.507L481.154 135.977L481.258 135.938L481.336 135.86L480.981 135.507ZM484.931 131.535L485.285 131.887L485.881 131.288L485.069 131.054L484.931 131.535ZM475.532 132.852V132.352H474.325L475.179 133.206L475.532 132.852ZM476.168 133.488L476.526 133.138L476.522 133.135L476.168 133.488ZM475.534 132.852V133.352H476.74L475.888 132.499L475.534 132.852ZM470.444 131.535L470.306 131.054L469.493 131.288L470.089 131.887L470.444 131.535ZM474.394 135.507L474.039 135.86L474.117 135.938L474.221 135.977L474.394 135.507ZM476.426 136.712L476.097 137.088L476.878 137.771L476.925 136.735L476.426 136.712ZM476.935 134.497L477.394 134.695L477.493 134.464L477.368 134.247L476.935 134.497ZM471.242 136.435L471.242 136.935H471.242V136.435ZM472.14 136.435V136.935L472.14 136.935L472.14 136.435ZM466.713 139.099L466.275 138.857L465.864 139.599H466.713V139.099ZM472.231 139.099V139.599H472.344L472.446 139.551L472.231 139.099ZM476.355 138.606L476.253 139.096L477.503 139.357L476.762 138.316L476.355 138.606ZM469.457 147.008L468.977 147.146L469.21 147.959L469.81 147.363L469.457 147.008ZM470.775 141.919L471.128 142.272L471.128 142.272L470.775 141.919ZM476.499 140.007L476.852 140.362L477.452 139.765L476.639 139.527L476.499 140.007ZM475.023 139.795L475.021 140.295L475.022 140.295L475.023 139.795ZM471.411 141.282L471.058 140.928L471.057 140.929L471.411 141.282ZM489 153L488.5 152.999V153H489ZM494 148V147.5H494L494 148ZM494 149V148.5H494L494 149ZM490 153L489.5 152.999V153H490ZM501.001 167.976H501.501V167.476H501.001V167.976ZM487.678 167.976V167.476H487.178V167.976H487.678ZM501.001 169.308V169.808H501.501V169.308H501.001ZM487.678 169.308H487.178V169.808H487.678V169.308ZM473.524 162.476C477.037 156.358 479.241 149.577 479.997 142.562L479.003 142.455C478.262 149.332 476.101 155.98 472.657 161.978L473.524 162.476ZM475.364 162.883C474.696 162.479 474.007 162.115 473.308 161.777L472.873 162.678C473.55 163.005 474.21 163.354 474.848 163.739L475.364 162.883ZM505 162.811H475.106V163.811H505V162.811ZM505.5 164.644V163.311H504.5V164.644H505.5ZM477.08 165.144H505V164.144H477.08V165.144ZM481.89 168.527C480.567 166.919 479.052 165.48 477.377 164.242L476.782 165.046C478.391 166.235 479.847 167.618 481.118 169.163L481.89 168.527ZM480.79 170.076L481.821 169.232L481.187 168.458L480.156 169.302L480.79 170.076ZM472.197 163.825C475.247 165.284 477.94 167.394 480.087 170.007L480.86 169.372C478.62 166.646 475.81 164.445 472.628 162.923L472.197 163.825ZM471.314 165.975C471.846 165.217 472.351 164.432 472.839 163.635L471.986 163.113C471.506 163.897 471.012 164.664 470.495 165.401L471.314 165.975ZM469.527 165.334L470.618 166.098L471.192 165.279L470.1 164.515L469.527 165.334ZM477.763 141.235C477.07 149.633 474.187 157.704 469.402 164.641L470.225 165.209C475.11 158.128 478.052 149.89 478.76 141.317L477.763 141.235ZM477.335 141.059L477.909 141.63L478.614 140.921L478.04 140.35L477.335 141.059ZM477.273 141.821L478.04 141.06L477.335 140.35L476.568 141.112L477.273 141.821ZM468.588 163.367C473.776 157.199 476.869 149.542 477.419 141.501L476.422 141.433C475.885 149.262 472.874 156.717 467.823 162.723L468.588 163.367ZM466.863 162.574L467.885 163.428L468.526 162.661L467.505 161.807L466.863 162.574ZM467.117 161.477C467.01 161.613 466.906 161.743 466.8 161.869L467.567 162.511C467.682 162.373 467.794 162.233 467.9 162.099L467.117 161.477ZM467.197 161.377C467.171 161.41 467.144 161.444 467.117 161.477L467.9 162.099C467.927 162.066 467.953 162.033 467.979 162L467.197 161.377ZM465.531 161.801C466.178 161.894 466.825 162.025 467.476 162.176L467.701 161.201C467.034 161.047 466.358 160.909 465.673 160.811L465.531 161.801ZM465.165 161.766L465.553 161.804L465.65 160.808L465.262 160.77L465.165 161.766ZM464.849 159.892L464.716 161.218L465.711 161.318L465.844 159.992L464.849 159.892ZM465.813 159.486L465.397 159.444L465.297 160.439L465.713 160.481L465.813 159.486ZM468.609 160.054C467.696 159.814 466.77 159.626 465.835 159.489L465.691 160.478C466.588 160.61 467.478 160.791 468.355 161.022L468.609 160.054ZM474.95 142.877C474.246 149.172 471.875 155.165 468.082 160.239L468.883 160.837C472.782 155.622 475.22 149.46 475.944 142.988L474.95 142.877ZM470.03 149.022L475.8 143.287L475.095 142.578L469.325 148.313L470.03 149.022ZM469.208 149.361C469.516 149.361 469.812 149.239 470.031 149.022L469.325 148.313C469.294 148.344 469.252 148.361 469.208 148.361V149.361ZM469.019 149.346C469.081 149.356 469.146 149.362 469.212 149.361L469.205 148.361C469.198 148.361 469.191 148.361 469.182 148.359L469.019 149.346ZM468.165 148.717C468.332 149.051 468.65 149.286 469.02 149.346L469.181 148.359C469.129 148.351 469.083 148.317 469.059 148.269L468.165 148.717ZM469.479 140.623C467.342 142.755 466.813 146.018 468.165 148.717L469.059 148.269C467.9 145.955 468.354 143.159 470.186 141.331L469.479 140.623ZM470.024 140.078L469.479 140.623L470.186 141.33L470.731 140.785L470.024 140.078ZM465.696 140.932H470.377V139.932H465.696V140.932ZM465.326 140.871C465.446 140.911 465.571 140.932 465.696 140.932V139.932C465.678 139.932 465.66 139.929 465.644 139.923L465.326 140.871ZM464.59 139.396C464.385 140.007 464.716 140.667 465.326 140.871L465.643 139.923C465.556 139.894 465.509 139.8 465.538 139.713L464.59 139.396ZM471.243 134.602C468.223 134.599 465.542 136.531 464.589 139.397L465.538 139.712C466.355 137.256 468.653 135.6 471.242 135.602L471.243 134.602ZM472.117 134.602H471.242V135.602H472.117V134.602ZM468.432 132.109L471.762 135.455L472.471 134.75L469.14 131.403L468.432 132.109ZM468.215 131.807C468.271 131.919 468.344 132.021 468.432 132.109L469.141 131.403C469.127 131.39 469.117 131.376 469.11 131.361L468.215 131.807ZM468.737 130.243C468.161 130.531 467.927 131.231 468.215 131.807L469.109 131.36C469.069 131.279 469.102 131.179 469.184 131.137L468.737 130.243ZM476.83 131.557C474.698 129.42 471.435 128.891 468.737 130.243L469.185 131.137C471.498 129.978 474.294 130.432 476.122 132.263L476.83 131.557ZM477.466 132.193L476.83 131.557L476.123 132.264L476.759 132.9L477.466 132.193ZM478.085 132.913C477.896 132.66 477.69 132.42 477.468 132.195L476.756 132.897C476.946 133.09 477.123 133.295 477.284 133.511L478.085 132.913ZM477.908 132.194C477.684 132.419 477.477 132.658 477.286 132.911L478.084 133.514C478.248 133.297 478.426 133.091 478.617 132.899L477.908 132.194ZM478.545 131.557L477.909 132.193L478.616 132.9L479.252 132.264L478.545 131.557ZM486.643 130.243C483.943 128.889 480.679 129.419 478.544 131.557L479.252 132.263C481.082 130.43 483.88 129.977 486.195 131.137L486.643 130.243ZM486.944 130.46C486.856 130.372 486.754 130.299 486.642 130.243L486.196 131.138C486.211 131.145 486.225 131.155 486.239 131.169L486.944 130.46ZM486.948 132.109C487.402 131.652 487.4 130.914 486.944 130.46L486.238 131.168C486.304 131.233 486.304 131.338 486.239 131.403L486.948 132.109ZM483.621 135.455L486.948 132.109L486.239 131.404L482.912 134.75L483.621 135.455ZM484.132 134.602H483.266V135.602H484.132V134.602ZM490.785 139.397C489.832 136.532 487.151 134.599 484.132 134.602L484.133 135.602C486.721 135.6 489.019 137.256 489.836 139.712L490.785 139.397ZM490.845 139.768C490.845 139.64 490.824 139.515 490.785 139.397L489.836 139.712C489.842 139.73 489.845 139.748 489.845 139.764L490.845 139.768ZM489.678 140.932C490.322 140.932 490.845 140.41 490.845 139.766H489.845C489.845 139.857 489.771 139.932 489.679 139.932L489.678 140.932ZM484.993 140.932H489.678V139.932H484.993V140.932ZM485.891 140.623L485.346 140.078L484.639 140.785L485.184 141.33L485.891 140.623ZM487.205 148.717C488.557 146.018 488.028 142.755 485.891 140.623L485.184 141.331C487.016 143.159 487.47 145.955 486.311 148.269L487.205 148.717ZM486.35 149.346C486.72 149.286 487.038 149.051 487.205 148.716L486.31 148.27C486.287 148.317 486.242 148.351 486.189 148.359L486.35 149.346ZM486.158 149.361C486.224 149.362 486.289 149.356 486.352 149.346L486.187 148.359C486.179 148.361 486.172 148.361 486.165 148.361L486.158 149.361ZM485.343 149.022C485.56 149.238 485.853 149.36 486.159 149.361L486.164 148.361C486.12 148.361 486.079 148.344 486.048 148.313L485.343 149.022ZM479.147 142.863L485.343 149.022L486.048 148.313L479.852 142.154L479.147 142.863ZM486.27 146.653L479.231 139.655L478.526 140.365L485.565 147.363L486.27 146.653ZM484.247 142.272C485.451 143.474 485.906 145.235 485.437 146.87L486.398 147.146C486.968 145.161 486.415 143.024 484.953 141.565L484.247 142.272ZM483.61 141.636L484.247 142.272L484.954 141.565L484.318 140.929L483.61 141.636ZM479.022 140.489C480.647 140.004 482.407 140.444 483.612 141.637L484.316 140.927C482.851 139.476 480.711 138.941 478.735 139.531L479.022 140.489ZM488.662 138.599H483.146V139.599H488.662V138.599ZM484.131 136.935C485.832 136.932 487.4 137.854 488.225 139.342L489.099 138.857C488.098 137.051 486.194 135.932 484.129 135.935L484.131 136.935ZM483.231 136.935H484.13V135.935H483.231V136.935ZM479.427 138.897C480.303 137.666 481.72 136.935 483.231 136.935L483.231 135.935C481.396 135.934 479.675 136.822 478.612 138.317L479.427 138.897ZM483.361 138.648C481.977 137.99 480.417 137.803 478.917 138.118L479.122 139.096C480.407 138.827 481.745 138.986 482.931 139.551L483.361 138.648ZM479.556 133.842L480.192 133.206L479.485 132.498L478.849 133.135L479.556 133.842ZM479.204 132.988H479.202V133.988H479.204V132.988ZM478.328 137.882C478.049 136.414 478.509 134.902 479.56 133.84L478.849 133.137C477.567 134.433 477.005 136.278 477.345 138.069L478.328 137.882ZM480.809 135.038C479.428 135.546 478.243 136.476 477.422 137.696L478.251 138.255C478.956 137.209 479.971 136.412 481.154 135.977L480.809 135.038ZM484.576 131.182L480.627 135.155L481.336 135.86L485.285 131.887L484.576 131.182ZM480.192 133.205C481.395 132.001 483.157 131.545 484.792 132.015L485.069 131.054C483.083 130.484 480.945 131.037 479.485 132.499L480.192 133.205ZM475.179 133.206L475.815 133.842L476.522 133.135L475.886 132.498L475.179 133.206ZM475.534 132.352H475.532V133.352H475.534V132.352ZM470.582 132.015C472.217 131.546 473.978 132.001 475.18 133.205L475.888 132.499C474.429 131.037 472.291 130.484 470.306 131.054L470.582 132.015ZM474.748 135.155L470.799 131.182L470.089 131.887L474.039 135.86L474.748 135.155ZM476.755 136.335C476.11 135.773 475.369 135.333 474.567 135.038L474.221 135.977C474.909 136.23 475.545 136.606 476.097 137.088L476.755 136.335ZM476.475 134.3C476.15 135.057 475.964 135.866 475.926 136.689L476.925 136.735C476.957 136.032 477.116 135.341 477.394 134.695L476.475 134.3ZM475.811 133.838C476.079 134.111 476.311 134.417 476.502 134.747L477.368 134.247C477.135 133.844 476.852 133.471 476.526 133.138L475.811 133.838ZM471.242 136.935H472.14V135.935H471.242V136.935ZM467.15 139.342C467.974 137.855 469.541 136.933 471.242 136.935L471.243 135.935C469.178 135.933 467.276 137.052 466.275 138.857L467.15 139.342ZM472.231 138.599H466.713V139.599H472.231V138.599ZM476.457 138.117C474.959 137.803 473.398 137.99 472.016 138.648L472.446 139.551C473.631 138.987 474.968 138.827 476.253 139.096L476.457 138.117ZM472.14 136.935C473.652 136.933 475.071 137.664 475.948 138.896L476.762 138.316C475.698 136.82 473.975 135.933 472.139 135.935L472.14 136.935ZM469.938 146.87C469.468 145.235 469.924 143.474 471.128 142.272L470.421 141.565C468.96 143.024 468.407 145.161 468.977 147.146L469.938 146.87ZM476.146 139.653L469.105 146.653L469.81 147.363L476.852 140.362L476.146 139.653ZM475.022 140.295C475.475 140.296 475.924 140.36 476.359 140.487L476.639 139.527C476.114 139.374 475.57 139.296 475.023 139.295L475.022 140.295ZM471.764 141.636C472.628 140.774 473.8 140.292 475.021 140.295L475.024 139.295C473.537 139.291 472.11 139.878 471.058 140.928L471.764 141.636ZM471.128 142.272L471.764 141.636L471.057 140.929L470.421 141.565L471.128 142.272ZM494 157.5C491.515 157.5 489.5 155.485 489.5 153H488.5C488.5 156.038 490.962 158.5 494 158.5V157.5ZM498.5 153C498.5 155.485 496.485 157.5 494 157.5V158.5C497.038 158.5 499.5 156.038 499.5 153H498.5ZM494 148.5C496.485 148.5 498.5 150.515 498.5 153H499.5C499.5 149.962 497.038 147.5 494 147.5V148.5ZM489.5 153C489.503 150.516 491.516 148.503 494.001 148.5L494 147.5C490.964 147.503 488.503 149.964 488.5 152.999L489.5 153ZM498.5 153C498.5 150.515 496.485 148.5 494 148.5V149.5C495.933 149.5 497.5 151.067 497.5 153H498.5ZM494 157.5C496.485 157.5 498.5 155.485 498.5 153H497.5C497.5 154.933 495.933 156.5 494 156.5V157.5ZM489.5 153C489.5 155.485 491.515 157.5 494 157.5V156.5C492.067 156.5 490.5 154.933 490.5 153H489.5ZM494 148.5C491.516 148.503 489.503 150.516 489.5 152.999L490.5 153C490.502 151.068 492.068 149.502 494.001 149.5L494 148.5ZM501.001 167.476H487.678V168.476H501.001V167.476ZM501.501 169.308V167.976H500.501V169.308H501.501ZM487.678 169.808H501.001V168.808H487.678V169.808ZM487.178 167.976V169.308H488.178V167.976H487.178Z" fill="white"/>
</svg>
