<svg width="76" height="52" viewBox="0 0 76 52" fill="none" xmlns="http://www.w3.org/2000/svg">
<path d="M74.3999 48.4552H0.399902V48.4922H74.3999V48.4552Z" fill="#EBEBEB"/>
<path d="M66.9853 50.8365H62.0835V50.8735H66.9853V50.8365Z" fill="#EBEBEB"/>
<path d="M49.4204 51.239H48.1343V51.276H49.4204V51.239Z" fill="#EBEBEB"/>
<path d="M61.9353 49.4631H59.0952V49.5001H61.9353V49.4631Z" fill="#EBEBEB"/>
<path d="M14.5562 49.7117H8.16406V49.7487H14.5562V49.7117Z" fill="#EBEBEB"/>
<path d="M16.8114 49.7117H15.8745V49.7487H16.8114V49.7117Z" fill="#EBEBEB"/>
<path d="M33.7221 50.3362H19.8574V50.3732H33.7221V50.3362Z" fill="#EBEBEB"/>
<path d="M42.5493 15.2988C45.9455 15.2988 48.6987 12.5456 48.6987 9.1494C48.6987 5.75318 45.9455 3 42.5493 3C39.1531 3 36.3999 5.75318 36.3999 9.1494C36.3999 12.5456 39.1531 15.2988 42.5493 15.2988Z" fill="#F9F7FF"/>
<path d="M17.3999 18.1562L22.4774 46L23.3999 45.4771L18.0674 18L17.3999 18.1562Z" fill="#E2D2FF"/>
<path d="M60.0896 46.4869C60.0896 46.4869 57.4369 28.4067 63.3999 9.71332L62.4656 9C62.4656 9 55.4845 23.1413 56.501 47L60.0896 46.4869Z" fill="#E2D2FF"/>
<path d="M66.0034 4.39992C69.5056 3.0802 74.6878 5.17922 75.3999 8.45958C74.8851 8.28898 74.3469 8.14283 73.7907 8.02259C73.5196 7.19668 73.2586 6.4669 73.2586 6.4669L73.4461 7.9483C73.1369 7.88421 72.7999 7.82158 72.4325 7.76477L72.179 6.96798L72.065 7.71233C71.569 7.64575 71.0663 7.5971 70.5598 7.56666L69.9059 5.23603L69.5765 7.52005C69.0577 7.51178 68.5386 7.52492 68.0231 7.55938L67.6227 5.97747V7.59143C67.179 7.63264 66.7405 7.69054 66.31 7.76477L65.8311 5.40501C65.8311 5.40501 65.8438 6.73201 65.8184 7.85799C64.5792 8.11613 63.4332 8.50326 62.4379 9L62.3999 8.70867C62.3999 8.70867 62.8028 5.60311 66.0034 4.39992Z" fill="#E2D2FF"/>
<path d="M61.0375 3.00293C58.8315 0.834147 54.1226 2.33737 52.3999 6.02517C52.8541 5.91842 53.3176 5.84499 53.7857 5.80566C54.2891 4.89425 54.7523 4.09171 54.7523 4.09171L54.0765 5.78107C54.3352 5.76351 54.6139 5.75298 54.9128 5.75298L55.3841 4.87493L55.2036 5.76176C55.6065 5.77136 56.0084 5.80303 56.4068 5.85659L57.7445 3.2681L57.179 5.99005C57.5788 6.07322 57.9709 6.1824 58.3522 6.31668L59.2286 4.54829L58.653 6.42029C58.978 6.54751 59.2924 6.6948 59.5936 6.86107L60.8109 4.20059C60.8109 4.20059 60.3215 5.74244 59.9365 7.056C60.79 7.58176 61.5256 8.24077 62.1064 9L62.2408 8.6681C62.2408 8.6681 63.045 4.9838 61.0375 3.00293Z" fill="#E2D2FF"/>
<path d="M59.115 9.07296C61.5623 6.84092 63.3999 8.78382 63.3999 8.78382C62.4811 9.0064 61.6601 9.55765 60.9527 10.2587L60.6212 9.85511L60.6746 10.5437C60.5055 10.7267 60.3409 10.9181 60.1829 11.1157L59.6223 9.92376L59.8625 11.538C59.64 11.8459 59.4176 12.162 59.2329 12.4782L58.986 11.2967L59.006 12.8631C58.8013 13.2167 58.6189 13.5641 58.4565 13.8907L58.1895 11.721L58.1539 14.5272C57.7623 15.3926 57.5577 16 57.5577 16C57.5577 16 56.6678 11.3071 59.115 9.07296Z" fill="#E2D2FF"/>
<path d="M66.1433 14.7268L65.4037 15.0613C65.2962 14.6145 65.1692 14.1472 65.0291 13.6723L65.5308 12.9498L64.8988 13.2562C64.8499 13.0979 64.7945 12.9421 64.7424 12.7838L65.394 11.3694L64.4166 11.9336C63.8953 10.657 63.2307 9.53617 62.3999 9C62.3999 9 70.6165 11.0579 65.9837 18C65.9837 18 65.8338 16.9021 65.5047 15.4596L66.1433 14.7268Z" fill="#E2D2FF"/>
<path d="M60.7442 9.01258L59.9585 7.84658L60.2845 9.06168C60.206 9.07088 60.1254 9.08316 60.0449 9.09543L59.0176 8.09666L59.271 9.24578C58.9199 9.32881 58.5756 9.4282 58.2397 9.54342C57.8737 9.67158 57.5163 9.81445 57.1692 9.97147L56.6683 8.95121L56.902 10.0927C56.5622 10.2461 56.2303 10.4195 55.9199 10.5944L55.6724 9.69531L55.696 10.7186C55.3031 10.9396 54.9378 11.1635 54.5999 11.3829L54.6313 9.75361L54.3269 11.5624C53.9812 11.7926 53.6688 12.0135 53.4036 12.2099L53.3663 11.0792L52.999 12.5152C52.6179 12.8113 52.3999 13 52.3999 13C52.5963 9.04327 54.5606 7.47684 57.8095 7.04726C61.0585 6.61768 63.3999 9.25806 63.3999 9.25806C63.3999 9.25806 62.3903 8.88371 60.7442 9.01258Z" fill="#E2D2FF"/>
<path d="M70.9034 15.4452L70.5332 17.116C70.3542 16.7031 70.1114 16.1736 69.7976 15.5835L70.1311 13.1519L69.523 15.0691C69.0476 14.1973 68.4967 13.3591 67.8752 12.5618L68.4539 10.8759L67.5172 12.1274C67.3284 11.9113 67.1347 11.6951 66.9336 11.4963L67.2622 10.435L66.7546 11.3233C66.6173 11.1893 66.4751 11.0618 66.3305 10.9386L66.7301 9.52288L66.0951 10.7484C65.6999 10.4298 65.2647 10.152 64.798 9.92058L65.4428 8.19144L64.4326 9.76064C63.7974 9.49799 63.1013 9.36994 62.3999 9.38671C62.3999 9.38671 63.6259 7.65757 65.8793 7.06317C68.1327 6.46878 72.9901 10.0654 70.8814 18C70.8814 18 70.8176 17.8206 70.6901 17.5115L70.9034 15.4452Z" fill="#E2D2FF"/>
<path d="M70.7613 1.88982L71.4126 2.69507C71.1722 2.70073 70.9334 2.71519 70.6991 2.73827L69.915 1.68938L70.4377 2.76419C69.9403 2.82611 69.4657 2.91624 69.0273 3.03203L67.9487 1.6168L68.571 3.1599C68.3967 3.21346 68.2225 3.27222 68.0441 3.3327L66.8245 2.00387L67.7413 3.45538C66.8399 3.83126 66.0704 4.25825 65.4555 4.72373L65.1361 2.76419L64.5968 5.42356C63.7026 6.25516 62.9809 7.11712 62.4397 8C62.4397 8 61.7759 0.915236 65.8704 0.12036C69.9648 -0.674516 72.3999 2.7279 72.3999 2.7279C72.2178 2.70555 72.0296 2.69278 71.8399 2.68988L70.7613 1.88982Z" fill="#E2D2FF"/>
<path d="M63.3745 11.626L63.1886 14L62.5548 11.7115L61.7098 13.502L61.376 11.8338L60.3999 13.0192C60.3999 13.0192 60.5203 9.99137 61.1436 8.6073C61.7668 7.22322 63.6386 8.19483 63.3745 11.626Z" fill="#E2D2FF"/>
<path d="M42.244 29.6725V21.6538C42.244 21.6538 40.616 23.3839 39.54 23.1471C38.464 22.9103 37.064 23.7288 37.064 23.7288C37.064 23.7288 38.4744 23.523 38.9983 24.0958C39.5222 24.6686 41.8606 24.7292 41.8606 24.7292V29.9655L42.244 29.6725Z" fill="#E2D2FF"/>
<path d="M49.4221 27.2144H49.0521V27.719H47.8326V27.2144H46.6338V27.719H45.4142V27.2144H44.2169V27.719H42.9959V27.2144H41.7986V27.719H40.5791V27.2144H39.3803V27.719H38.1608V27.2144H36.962V27.719H35.7424V27.2144H35.3325L34.144 36.716L50.6505 36.6479L49.4221 27.2144Z" fill="#E2D2FF"/>
<path d="M52.0475 34.1111H51.5398V34.8037H49.8645V34.1111H48.2187V34.8037H46.5419V34.1111H44.8961V34.8037H43.2208V34.1111H41.575V34.8037H39.8982V34.1111H38.2524V34.8037H36.5756V34.1111H34.9298V34.8037H33.2544V34.1111H32.6906L31.0566 47.1662L53.7376 47.0714L52.0475 34.1111Z" fill="#EADEFD"/>
<path d="M63.4258 45.6284C63.0751 45.2332 62.745 44.8292 62.378 44.4444C62.359 44.4252 62.3416 44.4044 62.3262 44.3822C62.2053 44.3041 62.0792 44.2344 61.9488 44.1736C61.9251 44.1662 61.8482 44.1351 61.7697 44.1055C61.6217 44.0522 61.4737 43.9945 61.3257 43.9353C60.4066 43.5653 59.5808 43.1361 58.8867 42.4064C58.5063 42.0068 58.2029 41.5406 57.8092 41.1529C57.7989 41.1662 57.7219 41.1248 57.6849 41.0952L57.3889 41.0567C57.2305 41.0567 57.0707 41.0567 56.9123 41.067C56.6859 41.0774 56.4595 41.0952 56.233 41.1159C55.345 42.4064 54.235 44.1691 53.7437 44.4015C52.9815 44.7626 45.9574 46.6215 45.4394 46.5075C44.9214 46.3936 42.21 46.617 41.5292 46.5919C40.8484 46.5667 39.6156 46.2648 37.8292 45.4434C36.0429 44.622 35.069 44.6176 32.9186 43.9323C30.7682 43.2471 29.3266 42.9866 28.0686 44.0404C26.8106 45.0941 23.3548 42.8697 22.2774 42.553C21.1999 42.2362 19.1398 40.4114 17.7338 41.2624C16.3278 42.1134 15.1586 42.5189 13.4018 44.0404C11.6451 45.5618 8.15967 48.5026 8.15967 48.5026H67.5077L66.8254 47.3112C66.1752 47.2716 65.5394 47.1023 64.9556 46.8133C64.3717 46.5243 63.8516 46.1214 63.4258 45.6284Z" fill="#F9F7FF"/>
<path d="M73.3999 48H2.3999V49H73.3999V48Z" fill="#F9F7FF"/>
<path d="M6.3999 22.8303C6.3999 22.8303 9.07109 18.6424 16.3087 15.0288C16.3087 15.0288 22.2004 14.5921 28.8521 17.1188C28.8521 17.1188 30.2003 19.0691 28.6667 19.8389C27.1331 20.6087 25.8627 19.0612 25.8627 19.0612C25.8627 19.0612 25.5789 21.4184 23.5738 21.4862C21.5687 21.554 20.9873 19.8389 20.9873 19.8389C20.9873 19.8389 20.7904 22.0027 18.4031 22.5491C16.3385 23.0297 15.0567 21.4862 15.0567 21.4862C15.0567 21.4862 14.6447 23.265 12.7883 23.7775C11.2959 24.1883 10.2705 23.0696 10.2705 23.0696C10.2705 23.0696 9.84246 25 8.25852 25C6.8966 25 6.3999 22.8303 6.3999 22.8303Z" fill="#E2D2FF"/>
</svg>
