<svg width="338" height="107" viewBox="0 0 338 107" fill="none" xmlns="http://www.w3.org/2000/svg">
<path d="M272.743 103.298C273.043 101.254 274.723 99.7446 276.725 99.659C276.65 98.8992 276.564 98.15 276.489 97.4008C273.556 97.8289 271.352 100.258 271.234 103.169C271.726 103.212 272.229 103.255 272.743 103.298Z" fill="#002D50"/>
<path d="M36.7916 12.2146L30.2993 12.4536L30.4187 15.6942L36.9109 15.4551L36.7916 12.2146Z" fill="#00B1B0"/>
<path d="M1.84619 57.3515L0.404297 61.8684L9.45918 64.7585L10.9011 60.2416L1.84619 57.3515Z" fill="#F6CB15"/>
<path d="M335.802 76.1847L338 79.7606L327.266 86.3575L325.068 82.7816L335.802 76.1847Z" fill="#F18C21"/>
<path d="M74.6026 5.22892C81.8487 3.25968 88.0994 6.71655 90.1544 11.1152C88.5382 11.1366 87.1361 11.6182 86.0658 12.3353C83.7432 9.31723 77.6744 7.69046 72.0767 11.7146C72.4192 9.48846 73.254 7.26237 74.6026 5.22892Z" fill="#716FB3"/>
<path d="M112.785 44.1694C113.084 42.1252 114.765 40.6162 116.766 40.5306C116.691 39.7707 116.606 39.0216 116.531 38.2724C113.598 38.7005 111.393 41.1299 111.275 44.041C111.768 44.0838 112.271 44.1266 112.785 44.1694Z" fill="#002D50"/>
<path d="M45.1998 91.4489C51.1936 90.2181 56.1064 93.3539 57.562 97.0355C56.2455 96.9713 55.0789 97.2924 54.1798 97.8168C52.4352 95.2375 47.5867 93.6 42.8237 96.5967C43.209 94.8094 44.0011 93.0328 45.1998 91.4489Z" fill="#00A4E4"/>
<path d="M71.6856 46.0251C69.181 52.8426 71.8247 60.377 77.8827 63.9944C76.3736 66.1991 74.8537 68.4038 73.3339 70.6085C64.9639 64.3155 62.256 53.078 66.7835 43.874C68.4211 44.591 70.048 45.3081 71.6856 46.0251Z" fill="#0071BA"/>
<path d="M315.091 32.6708L316.559 38.9331L304.012 41.8736L302.544 35.6113L315.091 32.6708Z" fill="#00B1B0"/>
<path d="M277 62.5462L268.135 64.7717L269.248 69.2041L278.113 66.9785L277 62.5462Z" fill="#F6CB15"/>
<path d="M108.951 99.8905L100.085 102.116L101.198 106.548L110.064 104.323L108.951 99.8905Z" fill="#F6CB15"/>
<path d="M266.878 22.0713C269.969 16.3995 268.587 9.46416 263.682 5.53094C265.304 3.79235 266.926 2.04426 268.549 0.305664C275.162 6.88002 276.132 17.0741 270.948 24.5795C269.595 23.7434 268.232 22.9074 266.878 22.0713Z" fill="#0071BA"/>
</svg>
