<svg width="648" height="304" viewBox="0 0 648 304" fill="none" xmlns="http://www.w3.org/2000/svg">
<circle opacity="0.03" cx="485" cy="150" r="484.5" fill="#526E88" stroke="black"/>
<circle opacity="0.03" cx="485" cy="150" r="343" fill="#526E88"/>
<circle opacity="0.05" cx="485" cy="150" r="221" fill="#526E88"/>
<circle opacity="0.1" cx="485" cy="150" r="131" fill="#526E88"/>
<rect x="433" y="98" width="104" height="104" rx="52" fill="#526E88"/>
<path d="M499 168H471C470.47 168 469.961 167.789 469.586 167.414C469.211 167.039 469 166.53 469 166V148H463L483.654 129.224C484.022 128.889 484.502 128.703 485 128.703C485.498 128.703 485.978 128.889 486.346 129.224L507 148H501V166C501 166.53 500.789 167.039 500.414 167.414C500.039 167.789 499.53 168 499 168ZM487 164H497V144.314L485 133.406L473 144.314V164H483V152H487V164Z" fill="white"/>
</svg>
