<svg width="20" height="20" viewBox="0 0 20 20" fill="none" xmlns="http://www.w3.org/2000/svg">
<path d="M15.0262 13.8475L18.5953 17.4159L17.4162 18.595L13.8478 15.0259C12.5201 16.0902 10.8687 16.6691 9.16699 16.6667C5.02699 16.6667 1.66699 13.3067 1.66699 9.16669C1.66699 5.02669 5.02699 1.66669 9.16699 1.66669C13.307 1.66669 16.667 5.02669 16.667 9.16669C16.6694 10.8684 16.0905 12.5198 15.0262 13.8475ZM13.3545 13.2292C14.4121 12.1416 15.0027 10.6837 15.0003 9.16669C15.0003 5.94335 12.3895 3.33335 9.16699 3.33335C5.94366 3.33335 3.33366 5.94335 3.33366 9.16669C3.33366 12.3892 5.94366 15 9.16699 15C10.684 15.0024 12.1419 14.4118 13.2295 13.3542L13.3545 13.2292Z" fill="#95A7B8"/>
</svg>
