<svg width="12" height="18" viewBox="0 0 12 18" fill="none" xmlns="http://www.w3.org/2000/svg">
<path d="M6 8C7.10457 8 8 7.10457 8 6C8 4.89543 7.10457 4 6 4C4.89543 4 4 4.89543 4 6C4 7.10457 4.89543 8 6 8Z" fill="#526E88"/>
<path fill-rule="evenodd" clip-rule="evenodd" d="M12 6C12 8.973 9.83771 11.441 7 11.917V17C7 17.5523 6.55229 18 6 18C5.44771 18 5 17.5523 5 17V11.917C2.16229 11.441 0 8.973 0 6C0 2.68629 2.68629 0 6 0C9.31371 0 12 2.68629 12 6ZM6 10C8.20914 10 10 8.20914 10 6C10 3.79086 8.20914 2 6 2C3.79086 2 2 3.79086 2 6C2 8.20914 3.79086 10 6 10Z" fill="#526E88"/>
</svg>
