<svg width="13" height="15" viewBox="0 0 13 15" fill="none" xmlns="http://www.w3.org/2000/svg">
<path d="M9.98943 9.54144C10.6164 8.87903 11.0355 8.04743 11.1949 7.14943C11.3543 6.25142 11.2472 5.32638 10.8866 4.48863C10.526 3.65089 9.92783 2.93716 9.16602 2.43568C8.40421 1.9342 7.51215 1.66694 6.6001 1.66694C5.68805 1.66694 4.79599 1.9342 4.03418 2.43568C3.27237 2.93716 2.67421 3.65089 2.31363 4.48863C1.95305 5.32638 1.84585 6.25142 2.0053 7.14943C2.16474 8.04743 2.58383 8.87903 3.21077 9.54144C3.57054 8.96734 4.07034 8.49411 4.66321 8.16618C5.25609 7.83826 5.92258 7.66641 6.6001 7.66678C7.27762 7.66641 7.94411 7.83826 8.53699 8.16618C9.12986 8.49411 9.62966 8.96734 9.98943 9.54144ZM4.1901 10.5234L6.6001 12.9328L9.0101 10.5234C8.79398 10.0672 8.45276 9.68159 8.02613 9.4116C7.5995 9.1416 7.10499 8.99827 6.6001 8.99827C6.09521 8.99827 5.6007 9.1416 5.17407 9.4116C4.74744 9.68159 4.40622 10.0672 4.1901 10.5234ZM6.6001 14.8188L2.35743 10.5761C1.51833 9.73699 0.946889 8.66789 0.715383 7.50401C0.483878 6.34013 0.602702 5.13373 1.05683 4.03738C1.51096 2.94103 2.27999 2.00396 3.26669 1.34467C4.25338 0.685388 5.41341 0.333496 6.6001 0.333496C7.78678 0.333496 8.94682 0.685388 9.93351 1.34467C10.9202 2.00396 11.6892 2.94103 12.1434 4.03738C12.5975 5.13373 12.7163 6.34013 12.4848 7.50401C12.2533 8.66789 11.6819 9.73699 10.8428 10.5761L6.6001 14.8188ZM6.6001 5.66678C6.77691 5.66678 6.94648 5.59654 7.0715 5.47152C7.19653 5.34649 7.26677 5.17692 7.26677 5.00011C7.26677 4.8233 7.19653 4.65373 7.0715 4.52871C6.94648 4.40368 6.77691 4.33344 6.6001 4.33344C6.42329 4.33344 6.25372 4.40368 6.1287 4.52871C6.00367 4.65373 5.93343 4.8233 5.93343 5.00011C5.93343 5.17692 6.00367 5.34649 6.1287 5.47152C6.25372 5.59654 6.42329 5.66678 6.6001 5.66678ZM6.6001 7.00011C6.06967 7.00011 5.56096 6.7894 5.18589 6.41432C4.81081 6.03925 4.6001 5.53054 4.6001 5.00011C4.6001 4.46968 4.81081 3.96097 5.18589 3.5859C5.56096 3.21082 6.06967 3.00011 6.6001 3.00011C7.13053 3.00011 7.63924 3.21082 8.01431 3.5859C8.38939 3.96097 8.6001 4.46968 8.6001 5.00011C8.6001 5.53054 8.38939 6.03925 8.01431 6.41432C7.63924 6.7894 7.13053 7.00011 6.6001 7.00011Z" fill="#526E88"/>
</svg>
