<svg width="18" height="18" viewBox="0 0 18 18" fill="none" xmlns="http://www.w3.org/2000/svg">
<path d="M14.0262 12.8475L17.5953 16.4159L16.4162 17.595L12.8478 14.0259C11.5201 15.0902 9.86866 15.6691 8.16699 15.6667C4.02699 15.6667 0.666992 12.3067 0.666992 8.16669C0.666992 4.02669 4.02699 0.666687 8.16699 0.666687C12.307 0.666687 15.667 4.02669 15.667 8.16669C15.6694 9.86835 15.0905 11.5198 14.0262 12.8475ZM12.3545 12.2292C13.4121 11.1416 14.0027 9.68371 14.0003 8.16669C14.0003 4.94335 11.3895 2.33335 8.16699 2.33335C4.94366 2.33335 2.33366 4.94335 2.33366 8.16669C2.33366 11.3892 4.94366 14 8.16699 14C9.68402 14.0024 11.1419 13.4118 12.2295 12.3542L12.3545 12.2292Z" fill="#00355F"/>
</svg>
