<svg width="24" height="24" viewBox="0 0 24 24" fill="none" xmlns="http://www.w3.org/2000/svg">
<rect width="24" height="24" rx="12" fill="#C8E9FF"/>
<path d="M6 18C6 16.727 6.50571 15.5061 7.40589 14.6059C8.30606 13.7057 9.52696 13.2 10.8 13.2C12.073 13.2 13.2939 13.7057 14.1941 14.6059C15.0943 15.5061 15.6 16.727 15.6 18H14.4C14.4 17.0452 14.0207 16.1295 13.3456 15.4544C12.6705 14.7793 11.7548 14.4 10.8 14.4C9.84522 14.4 8.92955 14.7793 8.25442 15.4544C7.57928 16.1295 7.2 17.0452 7.2 18H6ZM10.8 12.6C8.811 12.6 7.2 10.989 7.2 9C7.2 7.011 8.811 5.4 10.8 5.4C12.789 5.4 14.4 7.011 14.4 9C14.4 10.989 12.789 12.6 10.8 12.6ZM10.8 11.4C12.126 11.4 13.2 10.326 13.2 9C13.2 7.674 12.126 6.6 10.8 6.6C9.474 6.6 8.4 7.674 8.4 9C8.4 10.326 9.474 11.4 10.8 11.4ZM15.7704 13.6218C16.6136 14.0016 17.3292 14.6167 17.8312 15.3934C18.3331 16.1701 18.6001 17.0752 18.6 18H17.4C17.4001 17.3064 17.1999 16.6275 16.8235 16.045C16.447 15.4624 15.9102 15.001 15.2778 14.7162L15.7698 13.6218H15.7704ZM15.3576 6.8478C15.9621 7.09698 16.479 7.52012 16.8426 8.06354C17.2062 8.60696 17.4002 9.24615 17.4 9.9C17.4003 10.7234 17.0926 11.5171 16.5375 12.1253C15.9824 12.7335 15.22 13.1121 14.4 13.1868V11.979C14.8446 11.9153 15.257 11.7108 15.5768 11.3955C15.8966 11.0801 16.1068 10.6706 16.1767 10.227C16.2466 9.78333 16.1724 9.32898 15.965 8.93061C15.7577 8.53225 15.4281 8.21085 15.0246 8.0136L15.3576 6.8478Z" fill="#00355F"/>
</svg>
