<svg width="840" height="441" viewBox="0 0 840 441" fill="none" xmlns="http://www.w3.org/2000/svg">
<path d="M18.5 232.5H74.5C75.6046 232.5 76.5 233.395 76.5 234.5V341.5C76.5 342.605 75.6046 343.5 74.5 343.5H59C57.8954 343.5 57 344.395 57 345.5V366.5C57 367.605 56.1046 368.5 55 368.5H3C1.89543 368.5 1 369.395 1 370.5V405C1 406.105 1.89543 407 3 407H14.5C15.6046 407 16.5 407.895 16.5 409V420.5C16.5 421.605 17.3954 422.5 18.5 422.5H69C70.1046 422.5 71 421.605 71 420.5V370.5C71 369.395 71.8954 368.5 73 368.5H96C97.1046 368.5 98 367.605 98 366.5V320C98 318.895 98.8954 318 100 318H202.5C203.605 318 204.5 317.105 204.5 316V258C204.5 256.895 203.605 256 202.5 256H182C180.895 256 180 255.105 180 254V201.5C180 200.395 180.895 199.5 182 199.5H205.071C205.354 199.5 205.631 199.44 205.891 199.329C209.537 197.784 218.825 195 230 195C241.31 195 252.271 197.852 256.674 199.385C256.892 199.461 257.118 199.5 257.349 199.5H286.25C287.216 199.5 288 198.716 288 197.75C288 196.784 288.784 196 289.75 196H301.5C302.605 196 303.5 196.895 303.5 198V199C303.5 200.105 304.395 201 305.5 201H370C371.105 201 372 200.105 372 199V182.531C372 182.183 371.907 181.844 371.755 181.531C370.365 178.671 368 170.439 368 156.5C368 143.193 370.156 136.434 371.56 134.116C371.814 133.697 372 133.229 372 132.74V119C372 117.895 371.105 117 370 117C368.895 117 368 116.105 368 115V98.5754C368 97.4418 367.059 96.5344 365.927 96.586C344.384 97.5688 304.583 101.961 285.255 104.288C284.251 104.408 283.5 105.26 283.5 106.271V116.5C283.5 117.605 282.605 118.5 281.5 118.5H218.5C217.395 118.5 216.5 117.605 216.5 116.5V113C216.5 111.895 215.605 111 214.5 111H181.5C180.395 111 179.5 111.895 179.5 113V116.5C179.5 117.605 178.605 118.5 177.5 118.5H114C112.895 118.5 112 117.605 112 116.5V113.5C112 112.395 111.105 111.5 110 111.5H91C90.7239 111.5 90.5 111.276 90.5 111C90.5 110.724 90.2761 110.5 90 110.5H82.5C82.2239 110.5 82 110.724 82 111C82 111.276 81.7761 111.5 81.5 111.5H77.5C76.3954 111.5 75.5 112.395 75.5 113.5V116.5C75.5 117.605 74.6046 118.5 73.5 118.5H18C16.8954 118.5 16 119.395 16 120.5V131.5C16 132.605 15.1046 133.5 14 133.5H3C1.89543 133.5 1 134.395 1 135.5V197C1 198.105 1.89543 199 3 199H14.5C15.6046 199 16.5 199.895 16.5 201V230.5C16.5 231.605 17.3954 232.5 18.5 232.5Z" fill="#FEEF99"/>
<path d="M811.5 340V337.5V312.5C811.5 311.395 810.605 310.5 809.5 310.5H549.5C548.395 310.5 547.5 309.605 547.5 308.5V254.5C547.5 253.395 546.605 252.5 545.5 252.5H521.5C520.395 252.5 519.5 253.395 519.5 254.5V269.5C519.5 270.605 518.605 271.5 517.5 271.5H480.5C479.395 271.5 478.5 272.395 478.5 273.5V327.5C478.5 328.605 477.605 329.5 476.5 329.5H375C373.895 329.5 373 330.395 373 331.5V391.5C373 392.605 373.895 393.5 375 393.5H541.5C542.605 393.5 543.5 394.395 543.5 395.5V421C543.5 422.105 544.395 423 545.5 423H608C609.105 423 610 423.895 610 425V428.5C610 429.605 610.895 430.5 612 430.5H645.5C646.605 430.5 647.5 429.605 647.5 428.5V425C647.5 423.895 648.395 423 649.5 423H712.5C713.605 423 714.5 423.895 714.5 425V428.5C714.5 429.605 715.395 430.5 716.5 430.5H750C751.105 430.5 752 429.605 752 428.5V425C752 423.895 752.895 423 754 423H809.5C810.605 423 811.5 422.105 811.5 421V410C811.5 408.895 812.395 408 813.5 408H824.5C825.605 408 826.5 407.105 826.5 406V344C826.5 342.895 825.605 342 824.5 342H813.5C812.395 342 811.5 341.105 811.5 340Z" fill="#F7C687"/>
<path d="M458 115V97C458 95.8954 458.887 94.9993 459.992 95.0087C484.963 95.2223 526.551 99.3217 542.027 103.118C542.901 103.332 543.5 104.123 543.5 105.023V115.5C543.5 116.605 544.395 117.5 545.5 117.5H608C609.105 117.5 610 116.605 610 115.5V112.5C610 111.395 610.895 110.5 612 110.5H646C647.105 110.5 648 111.395 648 112.5V115.5C648 116.605 648.895 117.5 650 117.5H712.5C713.605 117.5 714.5 116.605 714.5 115.5V113C714.5 111.895 715.395 111 716.5 111H749.5C750.605 111 751.5 111.895 751.5 113V115.5C751.5 116.605 752.395 117.5 753.5 117.5H809.5C810.605 117.5 811.5 118.395 811.5 119.5V130.5C811.5 131.605 812.395 132.5 813.5 132.5H824C825.105 132.5 826 133.395 826 134.5V197C826 198.105 825.105 199 824 199H783.5C782.395 199 781.5 199.895 781.5 201V261.5C781.5 262.605 782.395 263.5 783.5 263.5H809.5C810.605 263.5 811.5 264.395 811.5 265.5V307.5C811.5 308.605 810.605 309.5 809.5 309.5H615C613.895 309.5 613 308.605 613 307.5V241C613 239.895 612.105 239 611 239H575.5C574.395 239 573.5 238.105 573.5 237V203C573.5 201.895 572.605 201 571.5 201H482C480.895 201 480 200.105 480 199V163C480 161.895 479.108 161 478.003 161H461.053C459.927 161 459.028 160.066 459.035 158.94C459.117 146.459 456.71 138.438 455.242 135.46C455.09 135.152 455 134.82 455 134.476V118C455 117.172 455.672 116.5 456.5 116.5C457.328 116.5 458 115.828 458 115Z" fill="#C8E9FF"/>
<path d="M72 371.5V420.75C72 421.716 72.7835 422.5 73.75 422.5C74.7165 422.5 75.5 423.284 75.5 424.25V427C75.5 428.105 76.3954 429 77.5 429H81.75C82.1642 429 82.5 429.336 82.5 429.75C82.5 430.164 82.8358 430.5 83.25 430.5H90.25C90.6642 430.5 91 430.164 91 429.75C91 429.336 91.3358 429 91.75 429H110C111.105 429 112 428.105 112 427V424.5C112 423.395 112.895 422.5 114 422.5H177.5C178.605 422.5 179.5 423.395 179.5 424.5V427C179.5 428.105 180.395 429 181.5 429H186.75C187.164 429 187.5 429.336 187.5 429.75C187.5 430.164 187.836 430.5 188.25 430.5H207.75C208.164 430.5 208.5 430.164 208.5 429.75C208.5 429.336 208.836 429 209.25 429H214.5C215.605 429 216.5 428.105 216.5 427V424.5C216.5 423.395 217.395 422.5 218.5 422.5H282C283.105 422.5 284 421.605 284 420.5V395.5C284 394.395 284.895 393.5 286 393.5H370C371.105 393.5 372 392.605 372 391.5V222.5C372 221.395 371.105 220.5 370 220.5H344.5C343.395 220.5 342.5 221.395 342.5 222.5V227C342.5 228.105 341.605 229 340.5 229H308C306.895 229 306 228.105 306 227V222.5C306 221.395 305.105 220.5 304 220.5H286.5C285.395 220.5 284.5 221.395 284.5 222.5V269.5C284.5 270.605 283.605 271.5 282.5 271.5H207.5C206.395 271.5 205.5 272.395 205.5 273.5V317C205.5 318.105 204.605 319 203.5 319H180.5C179.395 319 178.5 319.895 178.5 321V348.5C178.5 349.605 177.605 350.5 176.5 350.5H139C137.895 350.5 137 351.395 137 352.5V381.5C137 382.605 136.105 383.5 135 383.5H116C114.895 383.5 114 382.605 114 381.5V371.5C114 370.395 113.105 369.5 112 369.5H74C72.8954 369.5 72 370.395 72 371.5Z" fill="#E0F1F1"/>
<path d="M811.5 295V340C811.5 341.105 812.395 342 813.5 342H824.5C825.605 342 826.5 342.895 826.5 344V406C826.5 407.105 825.605 408 824.5 408H813.5C812.395 408 811.5 408.895 811.5 410V421C811.5 422.105 810.605 423 809.5 423H754C752.895 423 752 423.895 752 425V428.5C752 429.605 751.105 430.5 750 430.5H744.5M735 430.5H716.5C715.395 430.5 714.5 429.605 714.5 428.5V425C714.5 423.895 713.605 423 712.5 423H650C648.895 423 648 423.895 648 425V428.5C648 429.605 647.105 430.5 646 430.5H640M617 430.5H612C610.895 430.5 610 429.605 610 428.5V425C610 423.895 609.105 423 608 423H545.5C544.395 423 543.5 422.105 543.5 421V395.5C543.5 394.395 542.605 393.5 541.5 393.5H422.5M404 393.5H286C284.895 393.5 284 394.395 284 395.5V420.5C284 421.605 283.105 422.5 282 422.5H218.5C217.395 422.5 216.5 423.395 216.5 424.5V427C216.5 428.105 215.605 429 214.5 429H209.25C208.836 429 208.5 429.336 208.5 429.75V429.75C208.5 430.164 208.164 430.5 207.75 430.5H188.25C187.836 430.5 187.5 430.164 187.5 429.75V429.75C187.5 429.336 187.164 429 186.75 429H181.5C180.395 429 179.5 428.105 179.5 427V424.5C179.5 423.395 178.605 422.5 177.5 422.5H114C112.895 422.5 112 423.395 112 424.5V427C112 428.105 111.105 429 110 429H92.2906C91.8184 429 91.3993 429.302 91.25 429.75V429.75C91.1007 430.198 90.6816 430.5 90.2094 430.5H83.25C82.8358 430.5 82.5 430.164 82.5 429.75V429.75C82.5 429.336 82.1642 429 81.75 429H77.5C76.3954 429 75.5 428.105 75.5 427V424.5C75.5 423.395 74.6046 422.5 73.5 422.5H18.5C17.3954 422.5 16.5 421.605 16.5 420.5V409C16.5 407.895 15.6046 407 14.5 407H3C1.89543 407 1 406.105 1 405V343C1 341.895 1.89543 341 3 341H14C15.1046 341 16 340.105 16 339V263.25C16 262.836 15.6642 262.5 15.25 262.5V262.5C14.8358 262.5 14.5 262.164 14.5 261.75V245.5C14.5 244.948 14.9477 244.5 15.5 244.5V244.5C16.0523 244.5 16.5 244.052 16.5 243.5V201C16.5 199.895 15.6046 199 14.5 199H3C1.89543 199 1 198.105 1 197L1 135.5C1 134.395 1.89543 133.5 3 133.5H14C15.1046 133.5 16 132.605 16 131.5V120.5C16 119.395 16.8954 118.5 18 118.5H73.5C74.6046 118.5 75.5 117.605 75.5 116.5V113.5C75.5 112.395 76.3954 111.5 77.5 111.5H81.5C81.7761 111.5 82 111.276 82 111V111C82 110.724 82.2239 110.5 82.5 110.5H90C90.2761 110.5 90.5 110.724 90.5 111V111C90.5 111.276 90.7239 111.5 91 111.5H110C111.105 111.5 112 112.395 112 113.5V116.5C112 117.605 112.895 118.5 114 118.5H177.5C178.605 118.5 179.5 117.605 179.5 116.5V113C179.5 111.895 180.395 111 181.5 111H185.5M209 111H214.5C215.605 111 216.5 111.895 216.5 113V116.5C216.5 117.605 217.395 118.5 218.5 118.5H281.5C282.605 118.5 283.5 117.605 283.5 116.5V106.28C283.5 105.265 284.237 104.414 285.244 104.296C311.997 101.175 375.011 94 429 94C482.349 94 526.451 99.6043 541.987 103.14C542.882 103.343 543.5 104.144 543.5 105.062V115.5C543.5 116.605 544.395 117.5 545.5 117.5H608C609.105 117.5 610 116.605 610 115.5V112.5C610 111.395 610.895 110.5 612 110.5H618M640.5 110.5H646C647.105 110.5 648 111.395 648 112.5V115.5C648 116.605 648.895 117.5 650 117.5H712.5C713.605 117.5 714.5 116.605 714.5 115.5V113C714.5 111.895 715.395 111 716.5 111H735.5M745 111H749.5C750.605 111 751.5 111.895 751.5 113V115.5C751.5 116.605 752.395 117.5 753.5 117.5H809.5C810.605 117.5 811.5 118.395 811.5 119.5V130.5C811.5 131.605 812.395 132.5 813.5 132.5H824C825.105 132.5 826 133.395 826 134.5V197C826 198.105 825.105 199 824 199H813.5C812.395 199 811.5 199.895 811.5 201V204.5M811.5 212.5V278" stroke="#95A7B8"/>
<path d="M785 118V149M785 158.5H824C825.105 158.5 826 159.395 826 160.5V197C826 198.105 825.105 199 824 199H785M812 263.5H783.5C782.395 263.5 781.5 262.605 781.5 261.5V201C781.5 199.895 782.395 199 783.5 199H785M785 199V168.5M812 337.5H791.5C790.395 337.5 789.5 338.395 789.5 339.5V368M789.5 377V379.5C789.5 380.605 790.395 381.5 791.5 381.5H827M695.5 423V393.5C695.5 392.395 694.605 391.5 693.5 391.5H692M684 391.5H650C648.895 391.5 648 392.395 648 393.5V425.5M318 354.5H313.5C312.395 354.5 311.5 355.395 311.5 356.5V391.5C311.5 392.605 312.395 393.5 313.5 393.5H370C371.105 393.5 372 392.605 372 391.5V356.5C372 355.395 371.105 354.5 370 354.5H326.5M372 282.5V345M372 274.5V271.5M335 220.5H342.5M318 220.5H306M272 220.5H284.5M262 220.5H256.5M256.5 220.5V232C256.5 233.105 257.395 234 258.5 234H273.5M256.5 220.5C253.167 222 243.2 225 230 225C217.451 225 209.029 222.289 205.938 220.732C205.645 220.585 205.328 220.5 205 220.5V220.5M282 234H284.5M284.5 234V220.5M284.5 234V256M284.5 220.5H306M284.5 271.5H275.5M284.5 271.5H305M284.5 271.5V256M306 220.5V227C306 228.105 306.895 229 308 229H342.5M342.5 229V220.5M342.5 229V271.5M342.5 220.5H370C371.105 220.5 372 221.395 372 222.5V271.5M342.5 271.5H346.5M342.5 271.5H322M354 271.5H372M267 271.5L256.5 271.501M204.5 271.5V318M204.5 271.5H228M204.5 271.5V258C204.5 256.895 203.605 256 202.5 256H180M204.5 318H217.5M204.5 318H178.5M226 318H228.5M231 318H228.5M239.5 318H258.978C260.091 318 260.99 317.091 260.978 315.978L260.828 302M228 271.5L228.5 271.508M228 271.5L232 271.5M228 271.5V225M228.5 318V271.508M228.5 271.508L256.5 271.501M256.5 271.501L258.521 271.5C259.617 271.5 260.509 272.383 260.521 273.479L260.828 302M256.5 271.501V258C256.5 256.895 257.395 256 258.5 256H284.5M256.5 271.501L232 271.5M284.5 280.5V300C284.5 301.105 283.605 302 282.5 302H260.828M232 271.5V225M201 220.5H205M205 220.5V232.5C205 233.605 204.105 234.5 203 234.5H190.5M183 234.5H180M180 234.5V220.5M180 234.5V256M180 220.5H190.5M180 220.5H153M180 271.508V256M98 318V301M98 318H110M98 318V320.5M133.5 220.5H125.5M125.5 220.5H110.828C110.298 220.5 109.789 220.711 109.414 221.086L98.5858 231.914C98.2107 232.289 98 232.798 98 233.328V249.5M125.5 220.5V249.5M125.5 259V249.5M125.5 249.5H122.5M114 249.5H98M98 249.5V301M98 301H111C112.105 301 113 301.895 113 303V307M113 314.5V318M113 318H110M113 318H137M110 318V321.5C110 322.605 110.895 323.5 112 323.5H137M137 323.5V318M137 323.5V328.5M137 318H178.5M178.5 318V328.5M98 367.5V365.5M98 365.5H101.5C102.605 365.5 103.5 364.605 103.5 363.5V322.5C103.5 321.395 102.605 320.5 101.5 320.5H98M98 365.5V350.5M98 320.5V350.5M71 423V420.5M178.5 383.5V411M178.5 383.5V380.5M178.5 383.5H137M178.5 372V350.5M178.5 340V350.5M178.5 350.5H137M137 350.5V383.5M137 350.5V343.5M137 336.5V343.5M137 383.5H116C114.895 383.5 114 382.605 114 381.5V378.5M137 343.5H133.5C132.395 343.5 131.5 344.395 131.5 345.5V376.5C131.5 377.605 130.605 378.5 129.5 378.5H114M114 378.5V370.5C114 369.395 113.105 368.5 112 368.5H91.5M91.5 368.5H73C71.8954 368.5 71 369.395 71 370.5V420.5M91.5 368.5V418.5C91.5 419.605 90.6046 420.5 89.5 420.5H88.5M80.5 420.5H71M1 368.5H28.5M57 340H76.5M57 340H28.5M57 340V343.5M25 340H28.5M76.5 340V295C76.5 293.895 75.6046 293 74.5 293H18C16.8954 293 16 293.895 16 295V338C16 339.105 16.8954 340 18 340H19M76.5 340V343.5M28.5 340V358M28.5 365.5V368.5M28.5 368.5H55C56.1046 368.5 57 367.605 57 366.5V343.5M57 343.5H76.5M76.5 343.5V348.5C76.5 349.605 77.3954 350.5 78.5 350.5H79M95.5 350.5H98M16 232.5H62M71 232.5H74.5C75.6046 232.5 76.5 231.605 76.5 230.5V199M76.5 199H13.8387M76.5 199H104.5C105.605 199 106.5 198.105 106.5 197V195.5M106.5 186V160.5M106.5 127V139.5M106.5 119V111.5M106.5 139.5H109M106.5 139.5V160.5M117 139.5H131M131 139.5V119M131 139.5V160.5M131 160.5H130H106.5M131 160.5H149.5M157 160.5H160.5M160.5 160.5V118M160.5 160.5V197.5C160.5 198.605 161.395 199.5 162.5 199.5H205.175C205.39 199.5 205.603 199.465 205.807 199.399C209.46 198.204 217.335 196 222 196M239.5 196C241.64 196 247.942 196.683 256.19 199.397C256.394 199.465 256.601 199.5 256.816 199.5C261.404 199.5 277.284 199.5 286.25 199.5C287.217 199.5 288 198.716 288 197.75V197.75C288 196.784 288.784 196 289.75 196H301.5C302.605 196 303.5 196.895 303.5 198V199C303.5 200.105 304.395 201 305.5 201H370C371.105 201 372 200.105 372 199V182.447C372 182.153 371.935 181.867 371.82 181.596C370.441 178.354 368 169.276 368 155.5C368 142.958 370.023 136.839 371.426 134.698C371.742 134.215 372 133.669 372 133.092V131.5M368 96.5V114.5C368 115.605 368.895 116.5 370 116.5V116.5C371.105 116.5 372 117.395 372 118.5V131.5M399 95V108M382 131.5C382.479 131.66 383.785 131.881 385.301 131.547C385.434 131.518 385.571 131.497 385.707 131.49C395.013 131.01 398.406 124.5 398.977 121.145C398.993 121.047 399 120.95 399 120.851V108M374 131.5H372M399 108H404.5M421.5 108H427C428.105 108 429 107.105 429 106V95M458 95V115C458 115.828 457.328 116.5 456.5 116.5V116.5C455.672 116.5 455 117.172 455 118V134.85C455 135.272 455.14 135.681 455.342 136.051C455.922 137.111 456.649 139.048 457.302 142M459 161C459 174.053 457.225 180.007 455.847 182.119C455.434 182.754 455 183.479 455 184.236V199C455 200.105 455.895 201 457 201H480M459 161H463.5M459 161C459 152.376 458.225 146.173 457.302 142M547.5 152V169.5M547.5 169.5H544M547.5 169.5V185.25M536 169.5H510M510 169.5V163C510 161.895 509.105 161 508 161H491M510 169.5V201M510 201H545.5C546.605 201 547.5 200.105 547.5 199V185.25M510 201H480M480 201V161M480 161H483M480 161H470.5M547.5 185.25H580M621 132.5H619.5C618.395 132.5 617.5 133.395 617.5 134.5V152M627.5 132.5H648M648 132.5V115.5M648 132.5V169.5M648 173.5V169.5M648 169.5H617.5M617.5 169.5V183.25C617.5 184.355 616.605 185.25 615.5 185.25H580M617.5 169.5V152M580 185.25V154C580 152.895 580.895 152 582 152H607M614.5 152H617.5M657.5 169.5H680C681.105 169.5 682 168.605 682 167.5V117.5M613 200V239M599.5 292H611C612.105 292 613 291.105 613 290V239M583.5 292H581.5M574 292H566.5C565.395 292 564.5 291.105 564.5 290V287.429C564.5 287.146 564.557 286.874 564.671 286.615C567.722 279.685 573.5 262.701 573.5 247C573.5 231.275 567.704 213.618 564.657 206.371C564.552 206.121 564.5 205.86 564.5 205.589V203C564.5 201.895 565.395 201 566.5 201H571.511C572.611 201 573.505 201.889 573.511 202.989L573.709 239M574 292H581.5M574 292L573.874 269M581.5 292V271C581.5 269.895 580.605 269 579.5 269H573.874M573.874 269L573.709 239M573.709 239H613M437 201H439.5C440.605 201 441.5 200.105 441.5 199V164.5C441.5 163.395 440.605 162.5 439.5 162.5H387.5C386.395 162.5 385.5 163.395 385.5 164.5V199C385.5 200.105 386.395 201 387.5 201H429M400.5 220.5H389C387.895 220.5 387 221.395 387 222.5V237M387 242V237M387 252.5V288.5M387 316V288.5M387 326V327.5C387 328.605 387.895 329.5 389 329.5H431M435 329.5H431M443 329.5H476.5C477.605 329.5 478.5 328.605 478.5 327.5V306M478.5 271.5V306M478.5 271.5L519.5 271.351M478.5 271.5H459.5M431 271.5V283.5M431 271.5V237M431 271.5H453.5M417.5 220.5H429C430.105 220.5 431 221.395 431 222.5V237M431 329.5V288.5M431 288.5H387M431 288.5V283.5M387.5 283.5H431M431 237H387M441.5 220.5H453.5M463.5 220.5H459.5M473.5 220.5H519.5M536 220.5H519.5M544 220.5H545.5C546.605 220.5 547.5 221.395 547.5 222.5V237M547.5 259V252.5M547.5 267V271.25M547.5 275.5V271.25M547.5 292V306M547.5 329.5V306M547.5 338V341.5C547.5 342.605 546.605 343.5 545.5 343.5H512C510.895 343.5 510 342.605 510 341.5V306M510 306H478.5M510 306H547.5M547.5 271.25L519.5 271.351M519.5 271.351V252.5M519.5 220.5V252.5M547.5 237H543C541.895 237 541 237.895 541 239V252.5M547.5 237V252.5M541 252.5H547.5M541 252.5H519.5M518 228H514C512.895 228 512 228.895 512 230V262.5C512 263.605 511.105 264.5 510 264.5H468.5C467.395 264.5 466.5 263.605 466.5 262.5V258C466.5 256.895 465.605 256 464.5 256H459.5M459.5 256V220.5M459.5 256V271.5M459.5 220.5H453.5M459.5 271.5H453.5M453.5 271.5V220.5M457.302 142H492.5M500.5 142H501.5C502.605 142 503.5 141.105 503.5 140V98M682 196V190.5C682 189.395 681.105 188.5 680 188.5H648C646.895 188.5 646 189.395 646 190.5V196C646 197.105 646.895 198 648 198H680C681.105 198 682 197.105 682 196ZM484 251H496C497.105 251 498 250.105 498 249V241C498 239.895 497.105 239 496 239H484C482.895 239 482 239.895 482 241V249C482 250.105 482.895 251 484 251ZM131 288V282.5C131 281.395 131.895 280.5 133 280.5H156C157.105 280.5 158 281.395 158 282.5V288C158 289.105 157.105 290 156 290H133C131.895 290 131 289.105 131 288ZM116.5 352.5H117.5C118.605 352.5 119.5 351.605 119.5 350.5V336.5C119.5 335.395 118.605 334.5 117.5 334.5H116.5C115.395 334.5 114.5 335.395 114.5 336.5V350.5C114.5 351.605 115.395 352.5 116.5 352.5Z" stroke="#95A7B8"/>
<path d="M458 115V96.9997C458 95.8951 458.887 94.999 459.992 95.0084C484.963 95.222 526.551 99.3214 542.027 103.117C542.901 103.332 543.5 104.123 543.5 105.023V115.5C543.5 116.604 544.395 117.5 545.5 117.5H608C609.105 117.5 610 116.604 610 115.5V112.5C610 111.395 610.895 110.5 612 110.5H646C647.105 110.5 648 111.395 648 112.5V115.5C648 116.604 648.895 117.5 650 117.5H712.5C713.605 117.5 714.5 116.604 714.5 115.5V113C714.5 111.895 715.395 111 716.5 111H749.5C750.605 111 751.5 111.895 751.5 113V115.5C751.5 116.604 752.395 117.5 753.5 117.5H809.5C810.605 117.5 811.5 118.395 811.5 119.5V130.5C811.5 131.604 812.395 132.5 813.5 132.5H824C825.105 132.5 826 133.395 826 134.5V197C826 198.104 825.105 199 824 199H783.5C782.395 199 781.5 199.895 781.5 201V261.5C781.5 262.604 782.395 263.5 783.5 263.5H809.5C810.605 263.5 811.5 264.395 811.5 265.5V307.5C811.5 308.604 810.605 309.5 809.5 309.5H615C613.895 309.5 613 308.604 613 307.5V241C613 239.895 612.105 239 611 239H575.5C574.395 239 573.5 238.104 573.5 237V203C573.5 201.895 572.605 201 571.5 201H482C480.895 201 480 200.104 480 199V163C480 161.895 479.108 161 478.003 161H461.053C459.927 161 459.028 160.066 459.035 158.94C459.117 146.459 456.71 138.437 455.242 135.46C455.09 135.152 455 134.819 455 134.476V118C455 117.171 455.672 116.5 456.5 116.5C457.328 116.5 458 115.828 458 115Z" stroke="#80B8E6"/>
<path d="M18.5 232.5H74.5C75.6046 232.5 76.5 233.395 76.5 234.5V341.5C76.5 342.605 75.6046 343.5 74.5 343.5H59C57.8954 343.5 57 344.395 57 345.5V366.5C57 367.605 56.1046 368.5 55 368.5H3C1.89543 368.5 1 369.395 1 370.5V405C1 406.105 1.89543 407 3 407H14.5C15.6046 407 16.5 407.895 16.5 409V420.5C16.5 421.605 17.3954 422.5 18.5 422.5H69C70.1046 422.5 71 421.605 71 420.5V370.5C71 369.395 71.8954 368.5 73 368.5H96C97.1046 368.5 98 367.605 98 366.5V320C98 318.895 98.8954 318 100 318H202.5C203.605 318 204.5 317.105 204.5 316V258C204.5 256.895 203.605 256 202.5 256H182C180.895 256 180 255.105 180 254V201.5C180 200.395 180.895 199.5 182 199.5H205.071C205.354 199.5 205.631 199.44 205.891 199.329C209.537 197.784 218.825 195 230 195C241.31 195 252.271 197.852 256.674 199.385C256.892 199.461 257.118 199.5 257.349 199.5H286.25C287.216 199.5 288 198.716 288 197.75C288 196.784 288.784 196 289.75 196H301.5C302.605 196 303.5 196.895 303.5 198V199C303.5 200.105 304.395 201 305.5 201H370C371.105 201 372 200.105 372 199V182.531C372 182.183 371.907 181.844 371.755 181.531C370.365 178.671 368 170.439 368 156.5C368 143.193 370.156 136.434 371.56 134.116C371.814 133.697 372 133.229 372 132.74V118.5C372 117.395 371.105 116.5 370 116.5C368.895 116.5 368 115.605 368 114.5V98.5754C368 97.4418 367.059 96.5344 365.927 96.586C344.384 97.5688 304.583 101.961 285.255 104.288C284.251 104.408 283.5 105.26 283.5 106.271V116.5C283.5 117.605 282.605 118.5 281.5 118.5H218.5C217.395 118.5 216.5 117.605 216.5 116.5V113C216.5 111.895 215.605 111 214.5 111H181.5C180.395 111 179.5 111.895 179.5 113V116.5C179.5 117.605 178.605 118.5 177.5 118.5H114C112.895 118.5 112 117.605 112 116.5V113.5C112 112.395 111.105 111.5 110 111.5H91C90.7239 111.5 90.5 111.276 90.5 111C90.5 110.724 90.2761 110.5 90 110.5H82.5C82.2239 110.5 82 110.724 82 111C82 111.276 81.7761 111.5 81.5 111.5H77.5C76.3954 111.5 75.5 112.395 75.5 113.5V116.5C75.5 117.605 74.6046 118.5 73.5 118.5H18C16.8954 118.5 16 119.395 16 120.5V131.5C16 132.605 15.1046 133.5 14 133.5H3C1.89543 133.5 1 134.395 1 135.5V197C1 198.105 1.89543 199 3 199H14.5C15.6046 199 16.5 199.895 16.5 201V230.5C16.5 231.605 17.3954 232.5 18.5 232.5Z" stroke="#F7CA0F"/>
<path d="M72 421.25V370C72 369.724 72.2239 369.5 72.5 369.5H112C112.828 369.5 113.5 370.172 113.5 371V381.5C113.5 382.881 114.619 384 116 384H135C136.381 384 137.5 382.881 137.5 381.5V352.5C137.5 351.672 138.172 351 139 351H176.5C177.881 351 179 349.881 179 348.5V319.5C179 319.224 179.224 319 179.5 319H203C204.381 319 205.5 317.881 205.5 316.5V272.5C205.5 272.224 205.724 272 206 272H282.5C283.881 272 285 270.881 285 269.5V222.5C285 221.672 285.672 221 286.5 221H304C304.828 221 305.5 221.672 305.5 222.5V227C305.5 228.381 306.619 229.5 308 229.5H340.5C341.881 229.5 343 228.381 343 227V222.5C343 221.672 343.672 221 344.5 221H370.5C371.328 221 372 221.672 372 222.5V392C372 392.828 371.328 393.5 370.5 393.5H286.5C285.119 393.5 284 394.619 284 396V421C284 421.828 283.328 422.5 282.5 422.5H219C217.619 422.5 216.5 423.619 216.5 425V427.5C216.5 428.328 215.828 429 215 429H209.75C209.06 429 208.5 429.56 208.5 430.25C208.5 430.388 208.388 430.5 208.25 430.5H187.75C187.612 430.5 187.5 430.388 187.5 430.25C187.5 429.56 186.94 429 186.25 429H181C180.172 429 179.5 428.328 179.5 427.5V425C179.5 423.619 178.381 422.5 177 422.5H114.5C113.119 422.5 112 423.619 112 425V427.5C112 428.328 111.328 429 110.5 429H92.25C91.5596 429 91 429.56 91 430.25C91 430.388 90.8881 430.5 90.75 430.5H82.75C82.6119 430.5 82.5 430.388 82.5 430.25C82.5 429.56 81.9404 429 81.25 429H77C76.1716 429 75.5 428.328 75.5 427.5V424.75C75.5 423.507 74.4926 422.5 73.25 422.5C72.5596 422.5 72 421.94 72 421.25Z" stroke="#80D8D7"/>
<path d="M811.5 340V337.5V312.5C811.5 311.395 810.605 310.5 809.5 310.5H549.5C548.395 310.5 547.5 309.605 547.5 308.5V254.5C547.5 253.395 546.605 252.5 545.5 252.5H521.5C520.395 252.5 519.5 253.395 519.5 254.5V269.5C519.5 270.605 518.605 271.5 517.5 271.5H480.5C479.395 271.5 478.5 272.395 478.5 273.5V327.5C478.5 328.605 477.605 329.5 476.5 329.5H375C373.895 329.5 373 330.395 373 331.5V391.5C373 392.605 373.895 393.5 375 393.5H541.5C542.605 393.5 543.5 394.395 543.5 395.5V421C543.5 422.105 544.395 423 545.5 423H608C609.105 423 610 423.895 610 425V428.5C610 429.605 610.895 430.5 612 430.5H646C647.105 430.5 648 429.605 648 428.5V425C648 423.895 648.895 423 650 423H712.5C713.605 423 714.5 423.895 714.5 425V428.5C714.5 429.605 715.395 430.5 716.5 430.5H750C751.105 430.5 752 429.605 752 428.5V425C752 423.895 752.895 423 754 423H809.5C810.605 423 811.5 422.105 811.5 421V410C811.5 408.895 812.395 408 813.5 408H824.5C825.605 408 826.5 407.105 826.5 406V344C826.5 342.895 825.605 342 824.5 342H813.5C812.395 342 811.5 341.105 811.5 340Z" stroke="#ED8B00"/>
<rect x="147" y="324" width="20" height="20" rx="4" fill="#ECFBF2"/>
<path d="M154.5 336.5H159.5V339H154.5V336.5ZM160.5 338V335.5H153.5V338H152.5C152.367 338 152.24 337.947 152.146 337.854C152.053 337.76 152 337.633 152 337.5V332.5C152 332.367 152.053 332.24 152.146 332.146C152.24 332.053 152.367 332 152.5 332H161.5C161.633 332 161.76 332.053 161.854 332.146C161.947 332.24 162 332.367 162 332.5V337.5C162 337.633 161.947 337.76 161.854 337.854C161.76 337.947 161.633 338 161.5 338H160.5ZM153.5 333V334H155V333H153.5ZM154.5 329H159.5C159.633 329 159.76 329.053 159.854 329.146C159.947 329.24 160 329.367 160 329.5V331H154V329.5C154 329.367 154.053 329.24 154.146 329.146C154.24 329.053 154.367 329 154.5 329Z" fill="#49BF78"/>
<rect x="587" y="253" width="20" height="20" rx="4" fill="#ECFBF2"/>
<path d="M594.5 265.5H599.5V268H594.5V265.5ZM600.5 267V264.5H593.5V267H592.5C592.367 267 592.24 266.947 592.146 266.854C592.053 266.76 592 266.633 592 266.5V261.5C592 261.367 592.053 261.24 592.146 261.146C592.24 261.053 592.367 261 592.5 261H601.5C601.633 261 601.76 261.053 601.854 261.146C601.947 261.24 602 261.367 602 261.5V266.5C602 266.633 601.947 266.76 601.854 266.854C601.76 266.947 601.633 267 601.5 267H600.5ZM593.5 262V263H595V262H593.5ZM594.5 258H599.5C599.633 258 599.76 258.053 599.854 258.146C599.947 258.24 600 258.367 600 258.5V260H594V258.5C594 258.367 594.053 258.24 594.146 258.146C594.24 258.053 594.367 258 594.5 258Z" fill="#49BF78"/>
<path d="M536.274 264.335V265.831C536.274 265.938 536.233 266.041 536.16 266.12C536.087 266.198 535.987 266.246 535.88 266.253C535.695 266.266 535.544 266.273 535.427 266.273C531.688 266.273 528.656 263.241 528.656 259.502C528.656 259.385 528.663 259.234 528.676 259.049C528.683 258.942 528.731 258.842 528.809 258.769C528.888 258.696 528.991 258.655 529.098 258.655H530.595C530.647 258.655 530.698 258.675 530.737 258.71C530.776 258.745 530.8 258.793 530.805 258.846C530.815 258.943 530.824 259.02 530.832 259.079C530.916 259.666 531.089 260.237 531.344 260.772C531.384 260.857 531.358 260.958 531.281 261.012L530.368 261.665C530.927 262.966 531.963 264.003 533.265 264.561L533.916 263.65C533.943 263.613 533.982 263.586 534.026 263.574C534.07 263.563 534.117 263.567 534.159 263.587C534.694 263.841 535.265 264.013 535.852 264.097C535.91 264.105 535.988 264.115 536.084 264.124C536.136 264.129 536.185 264.154 536.22 264.193C536.255 264.232 536.274 264.282 536.274 264.335H536.274Z" fill="#00355F"/>
<rect x="494.928" y="312.116" width="12.6961" height="12.6961" rx="4.23203" fill="#00355F"/>
<path d="M499.605 320.826H500.361L502.723 316.101V315.597H499.228V316.234H501.561C501.827 316.234 501.946 316.212 501.946 316.212V316.227C501.946 316.227 501.79 316.412 501.642 316.708L499.605 320.826Z" fill="white"/>
<g clip-path="url(#clip0)">
<path d="M482.23 322.696C482.23 321.798 482.587 320.937 483.222 320.302C483.857 319.667 484.718 319.31 485.616 319.31C486.514 319.31 487.375 319.667 488.01 320.302C488.645 320.937 489.002 321.798 489.002 322.696H482.23ZM485.616 318.887C484.213 318.887 483.077 317.751 483.077 316.348C483.077 314.945 484.213 313.809 485.616 313.809C487.019 313.809 488.155 314.945 488.155 316.348C488.155 317.751 487.019 318.887 485.616 318.887ZM488.732 319.832C489.379 319.999 489.958 320.365 490.385 320.879C490.812 321.393 491.066 322.029 491.111 322.696H489.848C489.848 321.592 489.425 320.586 488.732 319.832ZM487.876 318.869C488.231 318.552 488.514 318.163 488.708 317.729C488.902 317.294 489.002 316.824 489.002 316.348C489.003 315.77 488.855 315.201 488.572 314.696C489.052 314.793 489.483 315.052 489.792 315.43C490.102 315.808 490.271 316.282 490.271 316.771C490.271 317.073 490.207 317.371 490.083 317.645C489.958 317.92 489.776 318.165 489.55 318.364C489.323 318.562 489.056 318.71 488.767 318.797C488.479 318.884 488.175 318.909 487.876 318.869Z" fill="#00355F"/>
</g>
<g clip-path="url(#clip1)">
<path d="M588.928 216C588.928 214.939 589.349 213.922 590.099 213.172C590.849 212.421 591.867 212 592.928 212C593.989 212 595.006 212.421 595.756 213.172C596.506 213.922 596.928 214.939 596.928 216H588.928ZM592.928 211.5C591.27 211.5 589.928 210.158 589.928 208.5C589.928 206.842 591.27 205.5 592.928 205.5C594.585 205.5 595.928 206.842 595.928 208.5C595.928 210.158 594.585 211.5 592.928 211.5ZM596.609 212.616C597.374 212.813 598.057 213.246 598.562 213.853C599.066 214.461 599.366 215.212 599.419 216H597.928C597.928 214.695 597.428 213.507 596.609 212.616ZM595.598 211.478C596.017 211.104 596.352 210.645 596.581 210.131C596.81 209.618 596.928 209.062 596.928 208.5C596.929 207.817 596.754 207.145 596.42 206.548C596.987 206.662 597.496 206.969 597.862 207.416C598.228 207.863 598.428 208.422 598.428 209C598.428 209.356 598.352 209.708 598.205 210.033C598.058 210.357 597.843 210.647 597.575 210.881C597.307 211.116 596.992 211.291 596.651 211.394C596.31 211.497 595.951 211.526 595.598 211.478Z" fill="#00355F"/>
</g>
<rect x="587.58" y="221" width="12.6961" height="12.6961" rx="4.23203" fill="#00355F"/>
<path d="M591.754 228.199C591.754 229.147 592.531 229.799 593.575 229.799C594.664 229.799 595.368 229.08 595.368 228.266C595.368 227.725 595.057 227.399 594.657 227.155C594.723 227.081 595.279 226.488 595.279 225.792C595.279 224.933 594.605 224.392 593.635 224.392C592.531 224.392 592.005 225.066 592.005 225.763C592.005 226.244 592.25 226.562 592.59 226.807C592.45 226.903 591.754 227.399 591.754 228.199ZM594.612 228.244C594.612 228.784 594.124 229.14 593.575 229.14C593.02 229.14 592.502 228.755 592.502 228.155C592.502 227.592 592.961 227.236 593.131 227.118C593.835 227.459 594.612 227.681 594.612 228.244ZM592.731 225.777C592.731 225.377 593.05 225.052 593.627 225.052C594.175 225.052 594.561 225.355 594.561 225.837C594.561 226.385 594.183 226.785 594.101 226.866C593.427 226.577 592.731 226.355 592.731 225.777Z" fill="white"/>
<rect x="44.1523" y="150" width="12.6961" height="12.6961" rx="4.23203" fill="#00355F"/>
<path d="M48.1369 157.31H50.6698V158.71H51.3882V157.31H52.0992V156.688H51.3882V153.481H50.5513L48.1369 156.851V157.31ZM48.9442 156.688V156.673L50.4254 154.696C50.5661 154.511 50.6846 154.266 50.6846 154.266H50.6994C50.6994 154.266 50.6698 154.54 50.6698 154.785V156.688H48.9442Z" fill="white"/>
<path d="M32.7317 174.696H34.7877C35.8357 174.696 36.7477 174.184 36.7477 173.048C36.7477 172.472 36.4517 171.896 35.8277 171.712V171.696C36.2597 171.464 36.5157 171.008 36.5157 170.48C36.5157 169.544 35.7877 169.016 34.7637 169.016H32.7317V174.696ZM33.7637 171.336V169.904H34.7477C35.2277 169.904 35.4677 170.2 35.4677 170.608C35.4677 171.016 35.2117 171.336 34.7637 171.336H33.7637ZM33.7637 173.808V172.168H34.8677C35.3877 172.168 35.6917 172.512 35.6917 172.984C35.6917 173.464 35.3957 173.808 34.8677 173.808H33.7637ZM37.7045 169.92H38.7125V169.016H37.7045V169.92ZM37.7045 174.696H38.7205V170.616H37.7045V174.696ZM39.7813 173.424C39.7813 174.592 40.4773 174.736 41.0373 174.736C41.2053 174.736 41.3573 174.712 41.3573 174.712V173.824C41.3573 173.824 41.2853 173.832 41.2053 173.832C40.9413 173.832 40.7893 173.72 40.7893 173.272V169.016H39.7813V173.424ZM42.0548 173.424C42.0548 174.592 42.7508 174.736 43.3108 174.736C43.4788 174.736 43.6308 174.712 43.6308 174.712V173.824C43.6308 173.824 43.5588 173.832 43.4788 173.832C43.2148 173.832 43.0628 173.72 43.0628 173.272V169.016H42.0548V173.424ZM46.4895 174.696H47.5215V172.576H48.5135L49.6415 174.696H50.7935L49.6255 172.576C49.5135 172.376 49.4335 172.296 49.4335 172.296V172.28C50.0335 172.04 50.3935 171.408 50.3935 170.728C50.3935 169.976 50.0335 169.432 49.4655 169.176C49.2175 169.064 48.9375 169.016 48.3215 169.016H46.4895V174.696ZM47.5215 171.68V169.904H48.3055C49.1135 169.904 49.3455 170.24 49.3455 170.784C49.3455 171.352 49.0015 171.68 48.4495 171.68H47.5215ZM51.2521 172.656C51.2521 173.912 52.2521 174.792 53.5001 174.792C54.7401 174.792 55.7401 173.912 55.7401 172.656C55.7401 171.408 54.7401 170.52 53.4921 170.52C52.2521 170.52 51.2521 171.408 51.2521 172.656ZM52.2841 172.656C52.2841 171.904 52.8361 171.384 53.5001 171.384C54.1561 171.384 54.7081 171.904 54.7081 172.656C54.7081 173.416 54.1561 173.928 53.5001 173.928C52.8361 173.928 52.2841 173.416 52.2841 172.656ZM56.0041 176.112C56.0041 176.112 56.3641 176.376 56.8521 176.376C57.4681 176.376 58.0361 176.056 58.3241 175.312L60.1481 170.616H59.0361L58.2361 172.984C58.1641 173.2 58.1001 173.52 58.1001 173.52H58.0841C58.0841 173.52 58.0121 173.184 57.9321 172.968L57.0761 170.616H55.9321L57.6521 174.632L57.5001 174.992C57.3481 175.352 57.0761 175.52 56.7961 175.52C56.5641 175.52 56.3401 175.352 56.3401 175.352L56.0041 176.112ZM60.384 173.52C60.384 174.336 61.04 174.792 61.768 174.792C62.696 174.792 63.016 174.072 63.008 174.072H63.024C63.024 174.072 63.008 174.2 63.008 174.36V174.696H63.944V172.144C63.944 171.112 63.32 170.52 62.248 170.52C61.28 170.52 60.648 171.024 60.648 171.024L61.032 171.752C61.032 171.752 61.568 171.36 62.152 171.36C62.6 171.36 62.936 171.544 62.936 172.08V172.136H62.8C62.136 172.136 60.384 172.224 60.384 173.52ZM61.408 173.472C61.408 172.904 62.248 172.832 62.768 172.832H62.944V172.928C62.944 173.424 62.56 174 62.024 174C61.608 174 61.408 173.744 61.408 173.472ZM64.9454 173.424C64.9454 174.592 65.6414 174.736 66.2014 174.736C66.3694 174.736 66.5214 174.712 66.5214 174.712V173.824C66.5214 173.824 66.4494 173.832 66.3694 173.832C66.1054 173.832 65.9534 173.72 65.9534 173.272V169.016H64.9454V173.424ZM67.2188 173.424C67.2188 174.592 67.9148 174.736 68.4748 174.736C68.6428 174.736 68.7948 174.712 68.7948 174.712V173.824C68.7948 173.824 68.7228 173.832 68.6428 173.832C68.3788 173.832 68.2268 173.72 68.2268 173.272V169.016H67.2188V173.424Z" fill="#00355F"/>
<rect x="196.652" y="146" width="12.6961" height="12.6961" rx="4.23203" fill="#00355F"/>
<path d="M200.922 154.073C200.922 154.073 201.448 154.799 202.522 154.799C203.581 154.799 204.373 154.043 204.373 153.036C204.373 152.096 203.655 151.333 202.551 151.333C202.166 151.333 201.877 151.496 201.877 151.496H201.863C201.863 151.496 201.892 151.377 201.9 151.222L202.025 150.118H204.025V149.481H201.389L201.129 152.073L201.551 152.229C201.551 152.229 201.922 151.97 202.433 151.97C203.107 151.97 203.625 152.414 203.625 153.044C203.625 153.681 203.092 154.103 202.477 154.103C201.737 154.103 201.329 153.54 201.329 153.54L200.922 154.073Z" fill="white"/>
<path d="M178.732 170.696H179.764V168.576H180.756L181.884 170.696H183.036L181.868 168.576C181.756 168.376 181.676 168.296 181.676 168.296V168.28C182.276 168.04 182.636 167.408 182.636 166.728C182.636 165.976 182.276 165.432 181.708 165.176C181.46 165.064 181.18 165.016 180.564 165.016H178.732V170.696ZM179.764 167.68V165.904H180.548C181.356 165.904 181.588 166.24 181.588 166.784C181.588 167.352 181.244 167.68 180.692 167.68H179.764ZM183.494 168.656C183.494 169.912 184.494 170.792 185.742 170.792C186.982 170.792 187.982 169.912 187.982 168.656C187.982 167.408 186.982 166.52 185.734 166.52C184.494 166.52 183.494 167.408 183.494 168.656ZM184.526 168.656C184.526 167.904 185.078 167.384 185.742 167.384C186.398 167.384 186.95 167.904 186.95 168.656C186.95 169.416 186.398 169.928 185.742 169.928C185.078 169.928 184.526 169.416 184.526 168.656ZM188.798 170.696H189.758V170.464C189.758 170.304 189.742 170.184 189.742 170.184H189.758C189.758 170.184 190.126 170.792 190.974 170.792C192.054 170.792 192.846 169.952 192.846 168.656C192.846 167.392 192.142 166.52 191.038 166.52C190.174 166.52 189.814 167.112 189.814 167.112H189.798C189.798 167.112 189.814 166.968 189.814 166.768V165.016H188.798V170.696ZM189.782 168.68C189.782 167.776 190.278 167.392 190.806 167.392C191.406 167.392 191.822 167.896 191.822 168.672C191.822 169.48 191.358 169.936 190.798 169.936C190.118 169.936 189.782 169.312 189.782 168.68ZM193.401 168.656C193.401 169.816 194.241 170.792 195.593 170.792C196.609 170.792 197.233 170.208 197.233 170.208L196.841 169.48C196.841 169.48 196.321 169.928 195.665 169.928C195.057 169.928 194.505 169.56 194.441 168.848H197.257C197.257 168.848 197.281 168.576 197.281 168.456C197.281 167.376 196.649 166.52 195.473 166.52C194.257 166.52 193.401 167.4 193.401 168.656ZM194.473 168.152C194.569 167.624 194.929 167.304 195.449 167.304C195.897 167.304 196.241 167.6 196.257 168.152H194.473ZM198.119 170.696H199.135V169.08C199.135 168.84 199.159 168.616 199.223 168.416C199.415 167.808 199.903 167.56 200.335 167.56C200.471 167.56 200.575 167.576 200.575 167.576V166.576C200.575 166.576 200.487 166.56 200.391 166.56C199.767 166.56 199.279 167.024 199.095 167.608H199.079C199.079 167.608 199.095 167.472 199.095 167.32V166.616H198.119V170.696ZM201.435 169.2C201.435 170.568 202.563 170.736 203.131 170.736C203.323 170.736 203.443 170.712 203.443 170.712V169.824C203.443 169.824 203.371 169.84 203.259 169.84C202.979 169.84 202.451 169.744 202.451 169.072V167.488H203.379V166.68H202.451V165.504H201.459V166.68H200.907V167.488H201.435V169.2ZM205.852 169.016C205.852 170.24 206.74 170.792 207.612 170.792C208.492 170.792 209.388 170.256 209.388 169.016V165.016H206.892V165.904H208.356V169C208.356 169.616 208.012 169.848 207.628 169.848C207.244 169.848 206.876 169.624 206.876 168.952V168.688H205.852V169.016ZM210.291 168.656C210.291 169.912 211.291 170.792 212.539 170.792C213.779 170.792 214.779 169.912 214.779 168.656C214.779 167.408 213.779 166.52 212.531 166.52C211.291 166.52 210.291 167.408 210.291 168.656ZM211.323 168.656C211.323 167.904 211.875 167.384 212.539 167.384C213.195 167.384 213.747 167.904 213.747 168.656C213.747 169.416 213.195 169.928 212.539 169.928C211.875 169.928 211.323 169.416 211.323 168.656ZM215.595 170.696H216.611V168.824C216.611 168.632 216.627 168.448 216.683 168.28C216.835 167.792 217.235 167.448 217.779 167.448C218.299 167.448 218.427 167.784 218.427 168.28V170.696H219.435V168.072C219.435 166.992 218.923 166.52 218.019 166.52C217.195 166.52 216.747 167.024 216.571 167.368H216.555C216.555 167.368 216.571 167.24 216.571 167.088V166.616H215.595V170.696ZM220.213 168.656C220.213 169.816 221.053 170.792 222.405 170.792C223.421 170.792 224.045 170.208 224.045 170.208L223.653 169.48C223.653 169.48 223.133 169.928 222.477 169.928C221.869 169.928 221.317 169.56 221.253 168.848H224.069C224.069 168.848 224.093 168.576 224.093 168.456C224.093 167.376 223.461 166.52 222.285 166.52C221.069 166.52 220.213 167.4 220.213 168.656ZM221.285 168.152C221.381 167.624 221.741 167.304 222.261 167.304C222.709 167.304 223.053 167.6 223.069 168.152H221.285ZM224.587 170.192C224.587 170.192 225.155 170.792 226.171 170.792C227.139 170.792 227.731 170.248 227.731 169.568C227.731 168.256 225.747 168.328 225.747 167.752C225.747 167.496 226.003 167.384 226.267 167.384C226.891 167.384 227.267 167.736 227.267 167.736L227.643 166.984C227.643 166.984 227.195 166.52 226.275 166.52C225.395 166.52 224.715 166.96 224.715 167.72C224.715 169.032 226.699 168.952 226.699 169.56C226.699 169.8 226.451 169.928 226.163 169.928C225.499 169.928 225.051 169.48 225.051 169.48L224.587 170.192Z" fill="#00355F"/>
<rect x="316.152" y="146" width="12.6961" height="12.6961" rx="4.23203" fill="#00355F"/>
<path d="M322.328 154.799C323.306 154.799 324.01 154.08 324.01 153.051C324.01 152.081 323.35 151.325 322.358 151.325C321.899 151.325 321.425 151.525 321.203 151.822H321.188C321.299 150.955 321.795 150.066 322.758 150.066C323.173 150.066 323.506 150.237 323.506 150.237L323.743 149.607C323.743 149.607 323.343 149.392 322.728 149.392C321.106 149.392 320.373 150.992 320.373 152.333C320.373 153.821 321.21 154.799 322.328 154.799ZM322.321 154.125C321.654 154.125 321.143 153.362 321.143 152.681C321.143 152.303 321.617 151.948 322.21 151.948C322.876 151.948 323.284 152.414 323.284 153.051C323.284 153.658 322.921 154.125 322.321 154.125Z" fill="white"/>
<path d="M297.742 165.016H296.846L295.822 168.944C295.734 169.272 295.726 169.544 295.718 169.544H295.702C295.702 169.544 295.678 169.264 295.606 168.944L294.71 165.016H293.646L295.07 170.696H296.262L297.134 167.336C297.23 166.968 297.278 166.592 297.278 166.592H297.294C297.294 166.592 297.342 166.968 297.438 167.336L298.31 170.696H299.502L300.966 165.016H299.902L298.966 168.944C298.894 169.264 298.87 169.544 298.87 169.544H298.854C298.846 169.544 298.838 169.272 298.75 168.944L297.742 165.016ZM301.271 169.52C301.271 170.336 301.927 170.792 302.655 170.792C303.583 170.792 303.903 170.072 303.895 170.072H303.911C303.911 170.072 303.895 170.2 303.895 170.36V170.696H304.831V168.144C304.831 167.112 304.207 166.52 303.135 166.52C302.167 166.52 301.535 167.024 301.535 167.024L301.919 167.752C301.919 167.752 302.455 167.36 303.039 167.36C303.487 167.36 303.823 167.544 303.823 168.08V168.136H303.687C303.023 168.136 301.271 168.224 301.271 169.52ZM302.295 169.472C302.295 168.904 303.135 168.832 303.655 168.832H303.831V168.928C303.831 169.424 303.447 170 302.911 170C302.495 170 302.295 169.744 302.295 169.472ZM305.832 169.424C305.832 170.592 306.528 170.736 307.088 170.736C307.256 170.736 307.408 170.712 307.408 170.712V169.824C307.408 169.824 307.336 169.832 307.256 169.832C306.992 169.832 306.84 169.72 306.84 169.272V165.016H305.832V169.424ZM308.106 169.424C308.106 170.592 308.802 170.736 309.362 170.736C309.53 170.736 309.682 170.712 309.682 170.712V169.824C309.682 169.824 309.61 169.832 309.53 169.832C309.266 169.832 309.114 169.72 309.114 169.272V165.016H308.106V169.424ZM309.883 172.112C309.883 172.112 310.243 172.376 310.731 172.376C311.347 172.376 311.915 172.056 312.203 171.312L314.027 166.616H312.915L312.115 168.984C312.043 169.2 311.979 169.52 311.979 169.52H311.963C311.963 169.52 311.891 169.184 311.811 168.968L310.955 166.616H309.811L311.531 170.632L311.379 170.992C311.227 171.352 310.955 171.52 310.675 171.52C310.443 171.52 310.219 171.352 310.219 171.352L309.883 172.112ZM316.28 170.016C316.28 170.016 316.976 170.792 318.24 170.792C319.424 170.792 320.112 170.032 320.112 169.128C320.112 167.312 317.44 167.56 317.44 166.552C317.44 166.152 317.816 165.872 318.296 165.872C319.008 165.872 319.552 166.368 319.552 166.368L320 165.528C320 165.528 319.424 164.92 318.304 164.92C317.216 164.92 316.4 165.624 316.4 166.568C316.4 168.312 319.08 168.136 319.08 169.152C319.08 169.616 318.688 169.84 318.256 169.84C317.456 169.84 316.84 169.24 316.84 169.24L316.28 170.016ZM321.158 169.2C321.158 170.568 322.286 170.736 322.854 170.736C323.046 170.736 323.166 170.712 323.166 170.712V169.824C323.166 169.824 323.094 169.84 322.982 169.84C322.702 169.84 322.174 169.744 322.174 169.072V167.488H323.102V166.68H322.174V165.504H321.182V166.68H320.63V167.488H321.158V169.2ZM323.71 168.656C323.71 169.816 324.55 170.792 325.902 170.792C326.918 170.792 327.542 170.208 327.542 170.208L327.15 169.48C327.15 169.48 326.63 169.928 325.974 169.928C325.366 169.928 324.814 169.56 324.75 168.848H327.566C327.566 168.848 327.59 168.576 327.59 168.456C327.59 167.376 326.958 166.52 325.782 166.52C324.566 166.52 323.71 167.4 323.71 168.656ZM324.782 168.152C324.878 167.624 325.238 167.304 325.758 167.304C326.206 167.304 326.55 167.6 326.566 168.152H324.782ZM328.603 169.2C328.603 170.568 329.731 170.736 330.299 170.736C330.491 170.736 330.611 170.712 330.611 170.712V169.824C330.611 169.824 330.539 169.84 330.427 169.84C330.147 169.84 329.619 169.744 329.619 169.072V167.488H330.547V166.68H329.619V165.504H328.627V166.68H328.075V167.488H328.603V169.2ZM331.619 169.2C331.619 170.568 332.747 170.736 333.315 170.736C333.507 170.736 333.627 170.712 333.627 170.712V169.824C333.627 169.824 333.555 169.84 333.443 169.84C333.163 169.84 332.635 169.744 332.635 169.072V167.488H333.563V166.68H332.635V165.504H331.643V166.68H331.091V167.488H331.619V169.2ZM334.458 165.92H335.466V165.016H334.458V165.92ZM334.458 170.696H335.474V166.616H334.458V170.696ZM336.591 170.696H337.607V168.824C337.607 168.632 337.623 168.448 337.679 168.28C337.831 167.792 338.231 167.448 338.775 167.448C339.295 167.448 339.423 167.784 339.423 168.28V170.696H340.431V168.072C340.431 166.992 339.919 166.52 339.015 166.52C338.191 166.52 337.743 167.024 337.567 167.368H337.551C337.551 167.368 337.567 167.24 337.567 167.088V166.616H336.591V170.696ZM341.498 165.92H342.506V165.016H341.498V165.92ZM341.498 170.696H342.514V166.616H341.498V170.696ZM343.574 169.24C343.574 170.352 344.118 170.792 344.99 170.792C345.686 170.792 346.206 170.368 346.406 169.944H346.422C346.422 169.944 346.406 170.072 346.406 170.232V170.696H347.382V166.616H346.366V168.488C346.366 169.216 345.958 169.864 345.222 169.864C344.718 169.864 344.59 169.528 344.59 169.032V166.616H343.574V169.24ZM348.161 170.192C348.161 170.192 348.729 170.792 349.745 170.792C350.713 170.792 351.305 170.248 351.305 169.568C351.305 168.256 349.321 168.328 349.321 167.752C349.321 167.496 349.577 167.384 349.841 167.384C350.465 167.384 350.841 167.736 350.841 167.736L351.217 166.984C351.217 166.984 350.769 166.52 349.849 166.52C348.969 166.52 348.289 166.96 348.289 167.72C348.289 169.032 350.273 168.952 350.273 169.56C350.273 169.8 350.025 169.928 349.737 169.928C349.073 169.928 348.625 169.48 348.625 169.48L348.161 170.192Z" fill="#00355F"/>
<rect x="41.1523" y="204" width="12.6961" height="12.6961" rx="4.23203" fill="#00355F"/>
<path d="M45.3482 212.088C45.3482 212.088 45.9777 212.799 47.0442 212.799C48.1181 212.799 48.8217 212.014 48.8217 211.118C48.8217 210.103 47.9774 209.659 47.2886 209.585L48.7106 207.948V207.481H45.5852V208.118H47.3553C47.6441 208.118 47.7996 208.096 47.7996 208.096V208.111C47.7996 208.111 47.6441 208.252 47.4738 208.451L46.3332 209.792L46.5036 210.184H46.8665C47.5108 210.184 48.0811 210.503 48.0811 211.147C48.0811 211.71 47.5997 212.103 47.0146 212.103C46.2592 212.103 45.7482 211.532 45.7482 211.532L45.3482 212.088Z" fill="white"/>
<path d="M29.7473 228.696H30.7793V226.4H32.6593V225.512H30.7793V223.904H33.0113V223.016H29.7473V228.696ZM33.5177 226.656C33.5177 227.912 34.5177 228.792 35.7657 228.792C37.0057 228.792 38.0057 227.912 38.0057 226.656C38.0057 225.408 37.0057 224.52 35.7577 224.52C34.5177 224.52 33.5177 225.408 33.5177 226.656ZM34.5497 226.656C34.5497 225.904 35.1017 225.384 35.7657 225.384C36.4217 225.384 36.9737 225.904 36.9737 226.656C36.9737 227.416 36.4217 227.928 35.7657 227.928C35.1017 227.928 34.5497 227.416 34.5497 226.656ZM38.7657 227.24C38.7657 228.352 39.3097 228.792 40.1817 228.792C40.8777 228.792 41.3977 228.368 41.5977 227.944H41.6137C41.6137 227.944 41.5977 228.072 41.5977 228.232V228.696H42.5737V224.616H41.5577V226.488C41.5577 227.216 41.1497 227.864 40.4137 227.864C39.9097 227.864 39.7817 227.528 39.7817 227.032V224.616H38.7657V227.24ZM43.6967 228.696H44.7127V226.824C44.7127 226.632 44.7287 226.448 44.7847 226.28C44.9367 225.792 45.3367 225.448 45.8807 225.448C46.4007 225.448 46.5287 225.784 46.5287 226.28V228.696H47.5367V226.072C47.5367 224.992 47.0247 224.52 46.1207 224.52C45.2967 224.52 44.8487 225.024 44.6727 225.368H44.6567C44.6567 225.368 44.6727 225.24 44.6727 225.088V224.616H43.6967V228.696ZM48.323 226.656C48.323 227.92 49.027 228.792 50.131 228.792C51.067 228.792 51.411 228.096 51.411 228.096H51.427C51.427 228.096 51.411 228.208 51.411 228.36V228.696H52.371V223.016H51.355V224.808C51.355 224.936 51.363 225.04 51.363 225.04H51.347C51.347 225.04 51.067 224.52 50.171 224.52C49.091 224.52 48.323 225.36 48.323 226.656ZM49.347 226.656C49.347 225.848 49.811 225.392 50.371 225.392C51.051 225.392 51.387 226.016 51.387 226.648C51.387 227.552 50.891 227.936 50.363 227.936C49.763 227.936 49.347 227.432 49.347 226.656ZM53.2056 226.656C53.2056 227.816 54.0456 228.792 55.3976 228.792C56.4136 228.792 57.0376 228.208 57.0376 228.208L56.6456 227.48C56.6456 227.48 56.1256 227.928 55.4696 227.928C54.8616 227.928 54.3096 227.56 54.2456 226.848H57.0616C57.0616 226.848 57.0856 226.576 57.0856 226.456C57.0856 225.376 56.4536 224.52 55.2776 224.52C54.0616 224.52 53.2056 225.4 53.2056 226.656ZM54.2776 226.152C54.3736 225.624 54.7336 225.304 55.2536 225.304C55.7016 225.304 56.0456 225.6 56.0616 226.152H54.2776ZM57.9233 228.696H58.9393V227.08C58.9393 226.84 58.9633 226.616 59.0273 226.416C59.2193 225.808 59.7073 225.56 60.1393 225.56C60.2753 225.56 60.3793 225.576 60.3793 225.576V224.576C60.3793 224.576 60.2913 224.56 60.1953 224.56C59.5713 224.56 59.0833 225.024 58.8993 225.608H58.8833C58.8833 225.608 58.8993 225.472 58.8993 225.32V224.616H57.9233V228.696ZM60.8559 224.672H61.5759L62.1679 222.92H61.2319L60.8559 224.672ZM62.5715 228.192C62.5715 228.192 63.1395 228.792 64.1555 228.792C65.1235 228.792 65.7155 228.248 65.7155 227.568C65.7155 226.256 63.7315 226.328 63.7315 225.752C63.7315 225.496 63.9875 225.384 64.2515 225.384C64.8755 225.384 65.2515 225.736 65.2515 225.736L65.6275 224.984C65.6275 224.984 65.1795 224.52 64.2595 224.52C63.3795 224.52 62.6995 224.96 62.6995 225.72C62.6995 227.032 64.6835 226.952 64.6835 227.56C64.6835 227.8 64.4355 227.928 64.1475 227.928C63.4835 227.928 63.0355 227.48 63.0355 227.48L62.5715 228.192Z" fill="#00355F"/>
<rect x="28.6523" y="375" width="12.6961" height="12.6961" rx="4.23203" fill="#00355F"/>
<path d="M32.9783 383.71H36.348V383.073H33.7559C33.7707 381.881 36.2666 381.614 36.2666 379.896C36.2666 378.992 35.5778 378.392 34.615 378.392C33.4374 378.392 32.9635 379.385 32.9635 379.385L33.5041 379.748C33.5041 379.748 33.8744 379.081 34.5632 379.081C35.1112 379.081 35.5037 379.429 35.5037 379.948C35.5037 381.177 32.9412 381.444 32.9412 383.31C32.9412 383.436 32.9561 383.569 32.9783 383.71Z" fill="white"/>
<path d="M7.02469 399.696H8.05669V397.576H9.04869L10.1767 399.696H11.3287L10.1607 397.576C10.0487 397.376 9.96869 397.296 9.96869 397.296V397.28C10.5687 397.04 10.9287 396.408 10.9287 395.728C10.9287 394.976 10.5687 394.432 10.0007 394.176C9.75269 394.064 9.47269 394.016 8.85669 394.016H7.02469V399.696ZM8.05669 396.68V394.904H8.84069C9.64869 394.904 9.88069 395.24 9.88069 395.784C9.88069 396.352 9.53669 396.68 8.98469 396.68H8.05669ZM11.7873 397.656C11.7873 398.912 12.7873 399.792 14.0353 399.792C15.2753 399.792 16.2753 398.912 16.2753 397.656C16.2753 396.408 15.2753 395.52 14.0273 395.52C12.7873 395.52 11.7873 396.408 11.7873 397.656ZM12.8193 397.656C12.8193 396.904 13.3713 396.384 14.0353 396.384C14.6913 396.384 15.2433 396.904 15.2433 397.656C15.2433 398.416 14.6913 398.928 14.0353 398.928C13.3713 398.928 12.8193 398.416 12.8193 397.656ZM16.7952 397.656C16.7952 398.84 17.6593 399.792 19.0113 399.792C20.1073 399.792 20.6913 399.128 20.6913 399.128L20.2993 398.408C20.2993 398.408 19.7873 398.928 19.0993 398.928C18.3233 398.928 17.8273 398.336 17.8273 397.648C17.8273 396.952 18.3153 396.384 19.0673 396.384C19.7073 396.384 20.1313 396.824 20.1313 396.824L20.5793 396.128C20.5793 396.128 20.0753 395.52 19.0113 395.52C17.6593 395.52 16.7952 396.496 16.7952 397.656ZM21.4506 399.696H22.4666V397.912H22.9946L24.0746 399.696H25.2426L23.7946 397.456V397.44L25.0826 395.616H23.9546L22.9706 397.056H22.4666V394.016H21.4506V399.696ZM25.5142 397.656C25.5142 398.816 26.3542 399.792 27.7062 399.792C28.7222 399.792 29.3462 399.208 29.3462 399.208L28.9542 398.48C28.9542 398.48 28.4342 398.928 27.7782 398.928C27.1702 398.928 26.6182 398.56 26.5542 397.848H29.3702C29.3702 397.848 29.3942 397.576 29.3942 397.456C29.3942 396.376 28.7622 395.52 27.5862 395.52C26.3702 395.52 25.5142 396.4 25.5142 397.656ZM26.5862 397.152C26.6822 396.624 27.0422 396.304 27.5622 396.304C28.0102 396.304 28.3542 396.6 28.3702 397.152H26.5862ZM30.4079 398.2C30.4079 399.568 31.5359 399.736 32.1039 399.736C32.2959 399.736 32.4159 399.712 32.4159 399.712V398.824C32.4159 398.824 32.3439 398.84 32.2319 398.84C31.9519 398.84 31.4239 398.744 31.4239 398.072V396.488H32.3519V395.68H31.4239V394.504H30.4319V395.68H29.8799V396.488H30.4079V398.2ZM35.3528 399.696H36.3848V397.576H37.3768L38.5048 399.696H39.6568L38.4888 397.576C38.3768 397.376 38.2968 397.296 38.2968 397.296V397.28C38.8968 397.04 39.2568 396.408 39.2568 395.728C39.2568 394.976 38.8968 394.432 38.3288 394.176C38.0808 394.064 37.8008 394.016 37.1848 394.016H35.3528V399.696ZM36.3848 396.68V394.904H37.1688C37.9768 394.904 38.2088 395.24 38.2088 395.784C38.2088 396.352 37.8648 396.68 37.3128 396.68H36.3848ZM40.1144 398.52C40.1144 399.336 40.7704 399.792 41.4984 399.792C42.4264 399.792 42.7464 399.072 42.7384 399.072H42.7544C42.7544 399.072 42.7384 399.2 42.7384 399.36V399.696H43.6744V397.144C43.6744 396.112 43.0504 395.52 41.9784 395.52C41.0104 395.52 40.3784 396.024 40.3784 396.024L40.7624 396.752C40.7624 396.752 41.2984 396.36 41.8824 396.36C42.3304 396.36 42.6664 396.544 42.6664 397.08V397.136H42.5304C41.8664 397.136 40.1144 397.224 40.1144 398.52ZM41.1384 398.472C41.1384 397.904 41.9784 397.832 42.4984 397.832H42.6744V397.928C42.6744 398.424 42.2904 399 41.7544 399C41.3384 399 41.1384 398.744 41.1384 398.472ZM44.7319 399.696H45.7479V397.904C45.7479 397.72 45.7559 397.536 45.7959 397.384C45.9239 396.864 46.2679 396.448 46.7959 396.448C47.2759 396.448 47.3479 396.824 47.3479 397.264V399.696H48.3639V397.904C48.3639 397.712 48.3719 397.536 48.4119 397.376C48.5319 396.864 48.8759 396.448 49.3959 396.448C49.8679 396.448 49.9559 396.8 49.9559 397.264V399.696H50.9719V397.072C50.9719 396 50.4839 395.52 49.6359 395.52C48.9959 395.52 48.4679 395.92 48.2439 396.36H48.2279C48.0599 395.808 47.6599 395.52 47.0359 395.52C46.3959 395.52 45.9079 395.968 45.7079 396.368H45.6919C45.6919 396.368 45.7079 396.24 45.7079 396.088V395.616H44.7319V399.696ZM51.6926 399.192C51.6926 399.192 52.2606 399.792 53.2766 399.792C54.2446 399.792 54.8366 399.248 54.8366 398.568C54.8366 397.256 52.8526 397.328 52.8526 396.752C52.8526 396.496 53.1086 396.384 53.3726 396.384C53.9966 396.384 54.3726 396.736 54.3726 396.736L54.7486 395.984C54.7486 395.984 54.3006 395.52 53.3806 395.52C52.5006 395.52 51.8206 395.96 51.8206 396.72C51.8206 398.032 53.8046 397.952 53.8046 398.56C53.8046 398.8 53.5566 398.928 53.2686 398.928C52.6046 398.928 52.1566 398.48 52.1566 398.48L51.6926 399.192ZM55.3658 397.656C55.3658 398.816 56.2058 399.792 57.5578 399.792C58.5738 399.792 59.1978 399.208 59.1978 399.208L58.8058 398.48C58.8058 398.48 58.2858 398.928 57.6298 398.928C57.0218 398.928 56.4698 398.56 56.4058 397.848H59.2218C59.2218 397.848 59.2458 397.576 59.2458 397.456C59.2458 396.376 58.6138 395.52 57.4378 395.52C56.2218 395.52 55.3658 396.4 55.3658 397.656ZM56.4378 397.152C56.5338 396.624 56.8938 396.304 57.4138 396.304C57.8618 396.304 58.2058 396.6 58.2218 397.152H56.4378ZM59.5314 401.112C59.5314 401.112 59.8914 401.376 60.3794 401.376C60.9954 401.376 61.5634 401.056 61.8514 400.312L63.6754 395.616H62.5634L61.7634 397.984C61.6914 398.2 61.6274 398.52 61.6274 398.52H61.6114C61.6114 398.52 61.5394 398.184 61.4594 397.968L60.6034 395.616H59.4594L61.1794 399.632L61.0274 399.992C60.8754 400.352 60.6034 400.52 60.3234 400.52C60.0914 400.52 59.8674 400.352 59.8674 400.352L59.5314 401.112Z" fill="#00355F"/>
<rect x="334.652" y="362" width="12.6961" height="12.6961" rx="4.23203" fill="#00355F"/>
<path d="M339.256 370.71H342.263V370.073H341.122V365.481H340.471L339.219 366.696L339.663 367.155L340.152 366.674C340.345 366.489 340.404 366.37 340.404 366.37H340.419C340.419 366.37 340.411 366.533 340.411 366.696V370.073H339.256V370.71Z" fill="white"/>
<path d="M322.384 386.696H323.416V381.904H325.28V381.016H320.52V381.904H322.384V386.696ZM325.869 386.696H326.885V384.824C326.885 384.632 326.901 384.456 326.949 384.296C327.101 383.8 327.517 383.448 328.053 383.448C328.573 383.448 328.701 383.784 328.701 384.28V386.696H329.709V384.072C329.709 382.992 329.197 382.52 328.293 382.52C327.581 382.52 327.085 382.936 326.885 383.328H326.869C326.869 383.328 326.885 383.184 326.885 382.984V381.016H325.869V386.696ZM330.775 381.92H331.783V381.016H330.775V381.92ZM330.775 386.696H331.791V382.616H330.775V386.696ZM332.908 386.696H333.924V384.824C333.924 384.632 333.94 384.448 333.996 384.28C334.148 383.792 334.548 383.448 335.092 383.448C335.612 383.448 335.74 383.784 335.74 384.28V386.696H336.748V384.072C336.748 382.992 336.236 382.52 335.332 382.52C334.508 382.52 334.06 383.024 333.884 383.368H333.868C333.868 383.368 333.884 383.24 333.884 383.088V382.616H332.908V386.696ZM337.814 386.696H338.83V384.912H339.358L340.438 386.696H341.606L340.158 384.456V384.44L341.446 382.616H340.318L339.334 384.056H338.83V381.016H337.814V386.696ZM345.509 386.696H346.541V381.904H348.405V381.016H343.645V381.904H345.509V386.696ZM348.134 385.52C348.134 386.336 348.79 386.792 349.518 386.792C350.446 386.792 350.766 386.072 350.758 386.072H350.774C350.774 386.072 350.758 386.2 350.758 386.36V386.696H351.694V384.144C351.694 383.112 351.07 382.52 349.998 382.52C349.03 382.52 348.398 383.024 348.398 383.024L348.782 383.752C348.782 383.752 349.318 383.36 349.902 383.36C350.35 383.36 350.686 383.544 350.686 384.08V384.136H350.55C349.886 384.136 348.134 384.224 348.134 385.52ZM349.158 385.472C349.158 384.904 349.998 384.832 350.518 384.832H350.694V384.928C350.694 385.424 350.31 386 349.774 386C349.358 386 349.158 385.744 349.158 385.472ZM352.751 386.696H353.767V384.824C353.767 384.632 353.783 384.448 353.839 384.28C353.991 383.792 354.391 383.448 354.935 383.448C355.455 383.448 355.583 383.784 355.583 384.28V386.696H356.591V384.072C356.591 382.992 356.079 382.52 355.175 382.52C354.351 382.52 353.903 383.024 353.727 383.368H353.711C353.711 383.368 353.727 383.24 353.727 383.088V382.616H352.751V386.696ZM357.658 386.696H358.674V384.912H359.202L360.282 386.696H361.45L360.002 384.456V384.44L361.29 382.616H360.162L359.178 384.056H358.674V381.016H357.658V386.696Z" fill="#00355F"/>
<rect x="522" y="228" width="16" height="16" rx="4" fill="#F4EEFF"/>
<g clip-path="url(#clip2)">
<path fill-rule="evenodd" clip-rule="evenodd" d="M528.976 232.926C528.976 232.361 529.43 231.9 529.991 231.9C530.552 231.9 531.006 232.361 531.006 232.926C531.006 233.061 530.98 233.193 530.93 233.317C530.882 233.433 530.857 233.568 530.857 233.717V233.818C530.857 233.924 530.942 234.008 531.044 234.008C532 234.008 532.342 234.417 532.342 234.917V235.045H532.9V235.76H532.39L532.566 236.123C532.601 236.195 532.62 236.274 532.62 236.354V239.571C532.62 239.863 532.383 240.1 532.091 240.1H527.892C527.599 240.1 527.363 239.863 527.363 239.571V236.354C527.363 236.274 527.381 236.195 527.416 236.123L527.592 235.76H527.1V235.045H527.64V234.917C527.64 234.417 528 234.008 528.939 234.008C529.04 234.008 529.125 233.924 529.125 233.818V233.717C529.125 233.568 529.1 233.433 529.053 233.317C529.002 233.193 528.976 233.061 528.976 232.926ZM530 236.8H532V237.4H530V236.8ZM532 238H530V238.6H532V238Z" fill="#8643FF"/>
</g>
<rect x="434" y="225" width="16" height="16" rx="4" fill="#FFE9E0"/>
<path d="M445.598 229V237H444.798V233.8H443.598V231C443.598 230.47 443.809 229.961 444.184 229.586C444.559 229.211 445.068 229 445.598 229ZM440.798 233.76V237H439.998V233.76C439.547 233.668 439.141 233.422 438.849 233.065C438.558 232.708 438.398 232.261 438.398 231.8V229.4H439.198V232.2H439.998V229.4H440.798V232.2H441.598V229.4H442.398V231.8C442.398 232.261 442.239 232.708 441.948 233.065C441.656 233.422 441.25 233.668 440.798 233.76Z" fill="#FF8D62"/>
<rect x="434" y="248" width="16" height="16" rx="4" fill="#FDE2E5"/>
<path d="M443.6 252C443.821 252 444 252.179 444 252.4V253.6H445.6C445.821 253.6 446 253.779 446 254V259.6C446 259.821 445.821 260 445.6 260H438.4C438.179 260 438 259.821 438 259.6V254C438 253.779 438.179 253.6 438.4 253.6H440V252.4C440 252.179 440.179 252 440.4 252H443.6ZM442.4 255.2H441.6V256.4H440.4V257.2H441.6L441.6 258.4H442.4L442.4 257.2H443.6V256.4H442.4V255.2ZM443.2 252.8H440.8V253.6H443.2V252.8Z" fill="#F45A67"/>
<rect x="662.5" y="107.5" width="36" height="19" rx="9.5" fill="#C8E9FF"/>
<path d="M670.9 120H673.47C674.78 120 675.92 119.36 675.92 117.94C675.92 117.22 675.55 116.5 674.77 116.27V116.25C675.31 115.96 675.63 115.39 675.63 114.73C675.63 113.56 674.72 112.9 673.44 112.9H670.9V120ZM672.19 115.8V114.01H673.42C674.02 114.01 674.32 114.38 674.32 114.89C674.32 115.4 674 115.8 673.44 115.8H672.19ZM672.19 118.89V116.84H673.57C674.22 116.84 674.6 117.27 674.6 117.86C674.6 118.46 674.23 118.89 673.57 118.89H672.19ZM677.046 118.41C677.046 119.87 677.916 120.05 678.616 120.05C678.826 120.05 679.016 120.02 679.016 120.02V118.91C679.016 118.91 678.926 118.92 678.826 118.92C678.496 118.92 678.306 118.78 678.306 118.22V112.9H677.046V118.41ZM679.888 118.18C679.888 119.57 680.568 120.12 681.658 120.12C682.528 120.12 683.178 119.59 683.428 119.06H683.448C683.448 119.06 683.428 119.22 683.428 119.42V120H684.648V114.9H683.378V117.24C683.378 118.15 682.868 118.96 681.948 118.96C681.318 118.96 681.158 118.54 681.158 117.92V114.9H679.888V118.18ZM685.692 117.45C685.692 118.9 686.742 120.12 688.432 120.12C689.702 120.12 690.482 119.39 690.482 119.39L689.992 118.48C689.992 118.48 689.342 119.04 688.522 119.04C687.762 119.04 687.072 118.58 686.992 117.69H690.512C690.512 117.69 690.542 117.35 690.542 117.2C690.542 115.85 689.752 114.78 688.282 114.78C686.762 114.78 685.692 115.88 685.692 117.45ZM687.032 116.82C687.152 116.16 687.602 115.76 688.252 115.76C688.812 115.76 689.242 116.13 689.262 116.82H687.032Z" fill="#00355F"/>
<rect x="662.5" y="107.5" width="36" height="19" rx="9.5" stroke="#80B8E6"/>
<rect x="553.5" y="414.5" width="51" height="19" rx="9.5" fill="#F7C687"/>
<path d="M561.41 423.4C561.41 425.49 562.99 427.12 565.08 427.12C567.17 427.12 568.75 425.49 568.75 423.4C568.75 421.37 567.17 419.78 565.08 419.78C562.99 419.78 561.41 421.37 561.41 423.4ZM562.74 423.4C562.74 422 563.78 420.96 565.08 420.96C566.38 420.96 567.42 422 567.42 423.4C567.42 424.86 566.38 425.94 565.08 425.94C563.78 425.94 562.74 424.86 562.74 423.4ZM569.864 427H571.134V424.98C571.134 424.68 571.164 424.4 571.244 424.15C571.484 423.39 572.094 423.08 572.634 423.08C572.804 423.08 572.934 423.1 572.934 423.1V421.85C572.934 421.85 572.824 421.83 572.704 421.83C571.924 421.83 571.314 422.41 571.084 423.14H571.064C571.064 423.14 571.084 422.97 571.084 422.78V421.9H569.864V427ZM573.36 425.53C573.36 426.55 574.18 427.12 575.09 427.12C576.25 427.12 576.65 426.22 576.64 426.22H576.66C576.66 426.22 576.64 426.38 576.64 426.58V427H577.81V423.81C577.81 422.52 577.03 421.78 575.69 421.78C574.48 421.78 573.69 422.41 573.69 422.41L574.17 423.32C574.17 423.32 574.84 422.83 575.57 422.83C576.13 422.83 576.55 423.06 576.55 423.73V423.8H576.38C575.55 423.8 573.36 423.91 573.36 425.53ZM574.64 425.47C574.64 424.76 575.69 424.67 576.34 424.67H576.56V424.79C576.56 425.41 576.08 426.13 575.41 426.13C574.89 426.13 574.64 425.81 574.64 425.47ZM579.132 427H580.402V424.66C580.402 424.42 580.422 424.19 580.492 423.98C580.682 423.37 581.182 422.94 581.862 422.94C582.512 422.94 582.672 423.36 582.672 423.98V427H583.932V423.72C583.932 422.37 583.292 421.78 582.162 421.78C581.132 421.78 580.572 422.41 580.352 422.84H580.332C580.332 422.84 580.352 422.68 580.352 422.49V421.9H579.132V427ZM585.784 427.69L585.404 428.66C585.894 428.92 586.574 429.1 587.214 429.1C588.544 429.1 589.904 428.44 589.904 426.69V421.9H588.714V422.29C588.714 422.37 588.724 422.43 588.724 422.43H588.694C588.694 422.43 588.294 421.78 587.184 421.78C585.714 421.78 584.924 422.92 584.924 424.32C584.924 425.72 585.754 426.9 587.214 426.9C587.894 426.9 588.334 426.66 588.634 426.21H588.654C588.654 426.21 588.634 426.36 588.634 426.48V426.78C588.634 427.69 587.974 428.02 587.194 428.02C586.424 428.02 585.784 427.69 585.784 427.69ZM587.484 425.83C586.664 425.83 586.204 425.17 586.204 424.28C586.204 423.42 586.634 422.86 587.404 422.86C588.094 422.86 588.664 423.17 588.664 424.33C588.664 425.48 588.094 425.83 587.484 425.83ZM590.94 424.45C590.94 425.9 591.99 427.12 593.68 427.12C594.95 427.12 595.73 426.39 595.73 426.39L595.24 425.48C595.24 425.48 594.59 426.04 593.77 426.04C593.01 426.04 592.32 425.58 592.24 424.69H595.76C595.76 424.69 595.79 424.35 595.79 424.2C595.79 422.85 595 421.78 593.53 421.78C592.01 421.78 590.94 422.88 590.94 424.45ZM592.28 423.82C592.4 423.16 592.85 422.76 593.5 422.76C594.06 422.76 594.49 423.13 594.51 423.82H592.28Z" fill="#00355F"/>
<rect x="553.5" y="414.5" width="51" height="19" rx="9.5" stroke="#ED8B00"/>
<path d="M126.765 407H131.475V405.89H128.155C128.185 404.55 131.365 404.16 131.365 401.88C131.365 400.54 130.305 399.78 129.055 399.78C127.355 399.78 126.705 401.2 126.705 401.2L127.665 401.84C127.665 401.84 128.115 401 128.945 401C129.545 401 130.025 401.37 130.025 401.99C130.025 403.4 126.705 403.81 126.705 406.37C126.705 406.57 126.735 406.77 126.765 407ZM135.146 407.12C137.086 407.12 137.726 405.48 137.726 403.44C137.726 401.4 137.086 399.78 135.146 399.78C133.206 399.78 132.576 401.4 132.576 403.44C132.576 405.48 133.206 407.12 135.146 407.12ZM135.146 405.94C134.176 405.94 133.896 404.84 133.896 403.44C133.896 402.06 134.176 400.97 135.146 400.97C136.116 400.97 136.396 402.06 136.396 403.44C136.396 404.84 136.116 405.94 135.146 405.94ZM141.435 407.12C143.375 407.12 144.015 405.48 144.015 403.44C144.015 401.4 143.375 399.78 141.435 399.78C139.495 399.78 138.865 401.4 138.865 403.44C138.865 405.48 139.495 407.12 141.435 407.12ZM141.435 405.94C140.465 405.94 140.185 404.84 140.185 403.44C140.185 402.06 140.465 400.97 141.435 400.97C142.405 400.97 142.685 402.06 142.685 403.44C142.685 404.84 142.405 405.94 141.435 405.94ZM144.864 405.17H148.184V407H149.454V405.17H150.374V404.1H149.454V399.9H147.924L144.864 404.38V405.17ZM146.224 404.1V404.08L147.864 401.81C148.054 401.54 148.214 401.16 148.214 401.16H148.234C148.234 401.16 148.184 401.55 148.184 401.9V404.1H146.224Z" fill="#00355F"/>
<path d="M146.024 371H150.734V369.89H147.414C147.444 368.55 150.624 368.16 150.624 365.88C150.624 364.54 149.564 363.78 148.314 363.78C146.614 363.78 145.964 365.2 145.964 365.2L146.924 365.84C146.924 365.84 147.374 365 148.204 365C148.804 365 149.284 365.37 149.284 365.99C149.284 367.4 145.964 367.81 145.964 370.37C145.964 370.57 145.994 370.77 146.024 371ZM154.405 371.12C156.345 371.12 156.985 369.48 156.985 367.44C156.985 365.4 156.345 363.78 154.405 363.78C152.465 363.78 151.835 365.4 151.835 367.44C151.835 369.48 152.465 371.12 154.405 371.12ZM154.405 369.94C153.435 369.94 153.155 368.84 153.155 367.44C153.155 366.06 153.435 364.97 154.405 364.97C155.375 364.97 155.655 366.06 155.655 367.44C155.655 368.84 155.375 369.94 154.405 369.94ZM160.694 371.12C162.634 371.12 163.274 369.48 163.274 367.44C163.274 365.4 162.634 363.78 160.694 363.78C158.754 363.78 158.124 365.4 158.124 367.44C158.124 369.48 158.754 371.12 160.694 371.12ZM160.694 369.94C159.724 369.94 159.444 368.84 159.444 367.44C159.444 366.06 159.724 364.97 160.694 364.97C161.664 364.97 161.944 366.06 161.944 367.44C161.944 368.84 161.664 369.94 160.694 369.94ZM164.273 370.16C164.273 370.16 165.043 371.12 166.543 371.12C168.023 371.12 169.103 370.08 169.103 368.68C169.103 367.4 168.173 366.35 166.603 366.35C166.173 366.35 165.843 366.51 165.843 366.51H165.823C165.823 366.51 165.853 366.37 165.873 366.18L165.983 365.01H168.603V363.9H164.873L164.543 367.5L165.253 367.76C165.253 367.76 165.723 367.46 166.353 367.46C167.163 367.46 167.783 367.95 167.783 368.69C167.783 369.44 167.133 369.9 166.443 369.9C165.523 369.9 164.933 369.19 164.933 369.19L164.273 370.16Z" fill="#00355F"/>
<path d="M207.682 300H211.45V299.112H208.794C208.818 298.04 211.362 297.728 211.362 295.904C211.362 294.832 210.514 294.224 209.514 294.224C208.154 294.224 207.634 295.36 207.634 295.36L208.402 295.872C208.402 295.872 208.762 295.2 209.426 295.2C209.906 295.2 210.29 295.496 210.29 295.992C210.29 297.12 207.634 297.448 207.634 299.496C207.634 299.656 207.658 299.816 207.682 300ZM214.387 300.096C215.939 300.096 216.451 298.784 216.451 297.152C216.451 295.52 215.939 294.224 214.387 294.224C212.835 294.224 212.331 295.52 212.331 297.152C212.331 298.784 212.835 300.096 214.387 300.096ZM214.387 299.152C213.611 299.152 213.387 298.272 213.387 297.152C213.387 296.048 213.611 295.176 214.387 295.176C215.163 295.176 215.387 296.048 215.387 297.152C215.387 298.272 215.163 299.152 214.387 299.152ZM219.418 300.096C220.97 300.096 221.482 298.784 221.482 297.152C221.482 295.52 220.97 294.224 219.418 294.224C217.866 294.224 217.362 295.52 217.362 297.152C217.362 298.784 217.866 300.096 219.418 300.096ZM219.418 299.152C218.642 299.152 218.418 298.272 218.418 297.152C218.418 296.048 218.642 295.176 219.418 295.176C220.194 295.176 220.418 296.048 220.418 297.152C220.418 298.272 220.194 299.152 219.418 299.152ZM224.554 300.096C225.682 300.096 226.426 299.248 226.426 298.192C226.426 297.168 225.722 296.296 224.602 296.296C224.194 296.296 223.738 296.464 223.538 296.696H223.522C223.666 295.92 224.138 295.176 225.034 295.176C225.474 295.176 225.834 295.352 225.834 295.352L226.138 294.464C226.138 294.464 225.698 294.224 224.978 294.224C223.218 294.224 222.362 295.912 222.362 297.4C222.362 299.112 223.37 300.096 224.554 300.096ZM224.554 299.152C223.954 299.152 223.434 298.472 223.434 297.76C223.434 297.408 223.85 297.144 224.362 297.144C225.042 297.144 225.402 297.616 225.402 298.192C225.402 298.728 225.082 299.152 224.554 299.152Z" fill="#00355F"/>
<path d="M347.651 251H351.419V250.112H348.763C348.787 249.04 351.331 248.728 351.331 246.904C351.331 245.832 350.483 245.224 349.483 245.224C348.123 245.224 347.603 246.36 347.603 246.36L348.371 246.872C348.371 246.872 348.731 246.2 349.395 246.2C349.875 246.2 350.259 246.496 350.259 246.992C350.259 248.12 347.603 248.448 347.603 250.496C347.603 250.656 347.627 250.816 347.651 251ZM354.356 251.096C355.908 251.096 356.42 249.784 356.42 248.152C356.42 246.52 355.908 245.224 354.356 245.224C352.804 245.224 352.3 246.52 352.3 248.152C352.3 249.784 352.804 251.096 354.356 251.096ZM354.356 250.152C353.58 250.152 353.356 249.272 353.356 248.152C353.356 247.048 353.58 246.176 354.356 246.176C355.132 246.176 355.356 247.048 355.356 248.152C355.356 249.272 355.132 250.152 354.356 250.152ZM359.387 251.096C360.939 251.096 361.451 249.784 361.451 248.152C361.451 246.52 360.939 245.224 359.387 245.224C357.835 245.224 357.331 246.52 357.331 248.152C357.331 249.784 357.835 251.096 359.387 251.096ZM359.387 250.152C358.611 250.152 358.387 249.272 358.387 248.152C358.387 247.048 358.611 246.176 359.387 246.176C360.163 246.176 360.387 247.048 360.387 248.152C360.387 249.272 360.163 250.152 359.387 250.152ZM362.314 249.352C362.314 250.328 363.114 251.096 364.346 251.096C365.618 251.096 366.346 250.28 366.346 249.408C366.346 248.824 366.034 248.464 365.618 248.2C365.674 248.136 366.25 247.504 366.25 246.8C366.25 245.816 365.466 245.224 364.41 245.224C363.162 245.224 362.586 245.992 362.586 246.776C362.586 247.28 362.826 247.624 363.17 247.888C362.994 248.008 362.314 248.544 362.314 249.352ZM365.298 249.36C365.298 249.864 364.874 250.184 364.346 250.184C363.826 250.184 363.37 249.808 363.37 249.272C363.37 248.8 363.714 248.464 363.898 248.312C364.586 248.64 365.298 248.864 365.298 249.36ZM363.602 246.8C363.602 246.432 363.874 246.144 364.394 246.144C364.906 246.144 365.242 246.424 365.242 246.864C365.242 247.36 364.938 247.736 364.858 247.824C364.21 247.544 363.602 247.32 363.602 246.8Z" fill="#00355F"/>
<path d="M234.921 300H238.689V299.112H236.033C236.057 298.04 238.601 297.728 238.601 295.904C238.601 294.832 237.753 294.224 236.753 294.224C235.393 294.224 234.873 295.36 234.873 295.36L235.641 295.872C235.641 295.872 236.001 295.2 236.665 295.2C237.145 295.2 237.529 295.496 237.529 295.992C237.529 297.12 234.873 297.448 234.873 299.496C234.873 299.656 234.897 299.816 234.921 300ZM241.625 300.096C243.177 300.096 243.689 298.784 243.689 297.152C243.689 295.52 243.177 294.224 241.625 294.224C240.073 294.224 239.569 295.52 239.569 297.152C239.569 298.784 240.073 300.096 241.625 300.096ZM241.625 299.152C240.849 299.152 240.625 298.272 240.625 297.152C240.625 296.048 240.849 295.176 241.625 295.176C242.401 295.176 242.625 296.048 242.625 297.152C242.625 298.272 242.401 299.152 241.625 299.152ZM246.657 300.096C248.209 300.096 248.721 298.784 248.721 297.152C248.721 295.52 248.209 294.224 246.657 294.224C245.105 294.224 244.601 295.52 244.601 297.152C244.601 298.784 245.105 300.096 246.657 300.096ZM246.657 299.152C245.881 299.152 245.657 298.272 245.657 297.152C245.657 296.048 245.881 295.176 246.657 295.176C247.433 295.176 247.657 296.048 247.657 297.152C247.657 298.272 247.433 299.152 246.657 299.152ZM249.8 300H250.872L253.36 295.04V294.32H249.456V295.208H251.88C252.16 295.208 252.272 295.192 252.272 295.192V295.208C252.272 295.208 252.104 295.376 251.928 295.728L249.8 300Z" fill="#00355F"/>
<path d="M519.72 329H524.43V327.89H521.11C521.14 326.55 524.32 326.16 524.32 323.88C524.32 322.54 523.26 321.78 522.01 321.78C520.31 321.78 519.66 323.2 519.66 323.2L520.62 323.84C520.62 323.84 521.07 323 521.9 323C522.5 323 522.98 323.37 522.98 323.99C522.98 325.4 519.66 325.81 519.66 328.37C519.66 328.57 519.69 328.77 519.72 329ZM525.741 329H527.081L530.191 322.8V321.9H525.311V323.01H528.341C528.691 323.01 528.831 322.99 528.831 322.99V323.01C528.831 323.01 528.621 323.22 528.401 323.66L525.741 329ZM531.18 329H532.52L535.63 322.8V321.9H530.75V323.01H533.78C534.13 323.01 534.27 322.99 534.27 322.99V323.01C534.27 323.01 534.06 323.22 533.84 323.66L531.18 329Z" fill="#00355F"/>
<path d="M663.037 411H667.747V409.89H664.427C664.457 408.55 667.637 408.16 667.637 405.88C667.637 404.54 666.577 403.78 665.327 403.78C663.627 403.78 662.977 405.2 662.977 405.2L663.937 405.84C663.937 405.84 664.387 405 665.217 405C665.817 405 666.297 405.37 666.297 405.99C666.297 407.4 662.977 407.81 662.977 410.37C662.977 410.57 663.007 410.77 663.037 411ZM671.547 411.12C672.957 411.12 673.887 410.06 673.887 408.74C673.887 407.46 673.007 406.37 671.607 406.37C671.097 406.37 670.527 406.58 670.277 406.87H670.257C670.437 405.9 671.027 404.97 672.147 404.97C672.697 404.97 673.147 405.19 673.147 405.19L673.527 404.08C673.527 404.08 672.977 403.78 672.077 403.78C669.877 403.78 668.807 405.89 668.807 407.75C668.807 409.89 670.067 411.12 671.547 411.12ZM671.547 409.94C670.797 409.94 670.147 409.09 670.147 408.2C670.147 407.76 670.667 407.43 671.307 407.43C672.157 407.43 672.607 408.02 672.607 408.74C672.607 409.41 672.207 409.94 671.547 409.94ZM674.593 409.17H677.913V411H679.183V409.17H680.103V408.1H679.183V403.9H677.653L674.593 408.38V409.17ZM675.953 408.1V408.08L677.593 405.81C677.783 405.54 677.943 405.16 677.943 405.16H677.963C677.963 405.16 677.913 405.55 677.913 405.9V408.1H675.953Z" fill="#00355F"/>
<path d="M798.966 365H803.676V363.89H800.356C800.386 362.55 803.566 362.16 803.566 359.88C803.566 358.54 802.506 357.78 801.256 357.78C799.556 357.78 798.906 359.2 798.906 359.2L799.866 359.84C799.866 359.84 800.316 359 801.146 359C801.746 359 802.226 359.37 802.226 359.99C802.226 361.4 798.906 361.81 798.906 364.37C798.906 364.57 798.936 364.77 798.966 365ZM804.637 364.16C804.637 364.16 805.407 365.12 806.907 365.12C808.387 365.12 809.467 364.08 809.467 362.68C809.467 361.4 808.537 360.35 806.967 360.35C806.537 360.35 806.207 360.51 806.207 360.51H806.187C806.187 360.51 806.217 360.37 806.237 360.18L806.347 359.01H808.967V357.9H805.237L804.907 361.5L805.617 361.76C805.617 361.76 806.087 361.46 806.717 361.46C807.527 361.46 808.147 361.95 808.147 362.69C808.147 363.44 807.497 363.9 806.807 363.9C805.887 363.9 805.297 363.19 805.297 363.19L804.637 364.16ZM810.33 364.16C810.33 364.16 811.1 365.12 812.6 365.12C814.08 365.12 815.16 364.08 815.16 362.68C815.16 361.4 814.23 360.35 812.66 360.35C812.23 360.35 811.9 360.51 811.9 360.51H811.88C811.88 360.51 811.91 360.37 811.93 360.18L812.04 359.01H814.66V357.9H810.93L810.6 361.5L811.31 361.76C811.31 361.76 811.78 361.46 812.41 361.46C813.22 361.46 813.84 361.95 813.84 362.69C813.84 363.44 813.19 363.9 812.5 363.9C811.58 363.9 810.99 363.19 810.99 363.19L810.33 364.16Z" fill="#00355F"/>
<path d="M797.958 183H802.668V181.89H799.348C799.378 180.55 802.558 180.16 802.558 177.88C802.558 176.54 801.498 175.78 800.248 175.78C798.548 175.78 797.898 177.2 797.898 177.2L798.858 177.84C798.858 177.84 799.308 177 800.138 177C800.738 177 801.218 177.37 801.218 177.99C801.218 179.4 797.898 179.81 797.898 182.37C797.898 182.57 797.928 182.77 797.958 183ZM806.339 183.12C808.279 183.12 808.919 181.48 808.919 179.44C808.919 177.4 808.279 175.78 806.339 175.78C804.399 175.78 803.769 177.4 803.769 179.44C803.769 181.48 804.399 183.12 806.339 183.12ZM806.339 181.94C805.369 181.94 805.089 180.84 805.089 179.44C805.089 178.06 805.369 176.97 806.339 176.97C807.309 176.97 807.589 178.06 807.589 179.44C807.589 180.84 807.309 181.94 806.339 181.94ZM809.998 180.94C809.998 182.16 810.998 183.12 812.538 183.12C814.128 183.12 815.038 182.1 815.038 181.01C815.038 180.28 814.648 179.83 814.128 179.5C814.198 179.42 814.918 178.63 814.918 177.75C814.918 176.52 813.938 175.78 812.618 175.78C811.058 175.78 810.338 176.74 810.338 177.72C810.338 178.35 810.638 178.78 811.068 179.11C810.848 179.26 809.998 179.93 809.998 180.94ZM813.728 180.95C813.728 181.58 813.198 181.98 812.538 181.98C811.888 181.98 811.318 181.51 811.318 180.84C811.318 180.25 811.748 179.83 811.978 179.64C812.838 180.05 813.728 180.33 813.728 180.95ZM811.608 177.75C811.608 177.29 811.948 176.93 812.598 176.93C813.238 176.93 813.658 177.28 813.658 177.83C813.658 178.45 813.278 178.92 813.178 179.03C812.368 178.68 811.608 178.4 811.608 177.75Z" fill="#00355F"/>
<path d="M797.871 148H802.581V146.89H799.261C799.291 145.55 802.471 145.16 802.471 142.88C802.471 141.54 801.411 140.78 800.161 140.78C798.461 140.78 797.811 142.2 797.811 142.2L798.771 142.84C798.771 142.84 799.221 142 800.051 142C800.651 142 801.131 142.37 801.131 142.99C801.131 144.4 797.811 144.81 797.811 147.37C797.811 147.57 797.841 147.77 797.871 148ZM806.251 148.12C808.191 148.12 808.831 146.48 808.831 144.44C808.831 142.4 808.191 140.78 806.251 140.78C804.311 140.78 803.681 142.4 803.681 144.44C803.681 146.48 804.311 148.12 806.251 148.12ZM806.251 146.94C805.281 146.94 805.001 145.84 805.001 144.44C805.001 143.06 805.281 141.97 806.251 141.97C807.221 141.97 807.501 143.06 807.501 144.44C807.501 145.84 807.221 146.94 806.251 146.94ZM812.54 148.12C814.48 148.12 815.12 146.48 815.12 144.44C815.12 142.4 814.48 140.78 812.54 140.78C810.6 140.78 809.97 142.4 809.97 144.44C809.97 146.48 810.6 148.12 812.54 148.12ZM812.54 146.94C811.57 146.94 811.29 145.84 811.29 144.44C811.29 143.06 811.57 141.97 812.54 141.97C813.51 141.97 813.79 143.06 813.79 144.44C813.79 145.84 813.51 146.94 812.54 146.94Z" fill="#00355F"/>
<path d="M656.91 148H661.62V146.89H658.3C658.33 145.55 661.51 145.16 661.51 142.88C661.51 141.54 660.45 140.78 659.2 140.78C657.5 140.78 656.85 142.2 656.85 142.2L657.81 142.84C657.81 142.84 658.26 142 659.09 142C659.69 142 660.17 142.37 660.17 142.99C660.17 144.4 656.85 144.81 656.85 147.37C656.85 147.57 656.88 147.77 656.91 148ZM665.29 148.12C667.23 148.12 667.87 146.48 667.87 144.44C667.87 142.4 667.23 140.78 665.29 140.78C663.35 140.78 662.72 142.4 662.72 144.44C662.72 146.48 663.35 148.12 665.29 148.12ZM665.29 146.94C664.32 146.94 664.04 145.84 664.04 144.44C664.04 143.06 664.32 141.97 665.29 141.97C666.26 141.97 666.54 143.06 666.54 144.44C666.54 145.84 666.26 146.94 665.29 146.94ZM668.719 146.17H672.039V148H673.309V146.17H674.229V145.1H673.309V140.9H671.779L668.719 145.38V146.17ZM670.079 145.1V145.08L671.719 142.81C671.909 142.54 672.069 142.16 672.069 142.16H672.089C672.089 142.16 672.039 142.55 672.039 142.9V145.1H670.079Z" fill="#00355F"/>
<path d="M622.058 154H626.768V152.89H623.448C623.478 151.55 626.658 151.16 626.658 148.88C626.658 147.54 625.598 146.78 624.348 146.78C622.648 146.78 621.998 148.2 621.998 148.2L622.958 148.84C622.958 148.84 623.408 148 624.238 148C624.838 148 625.318 148.37 625.318 148.99C625.318 150.4 621.998 150.81 621.998 153.37C621.998 153.57 622.028 153.77 622.058 154ZM630.439 154.12C632.379 154.12 633.019 152.48 633.019 150.44C633.019 148.4 632.379 146.78 630.439 146.78C628.499 146.78 627.869 148.4 627.869 150.44C627.869 152.48 628.499 154.12 630.439 154.12ZM630.439 152.94C629.469 152.94 629.189 151.84 629.189 150.44C629.189 149.06 629.469 147.97 630.439 147.97C631.409 147.97 631.689 149.06 631.689 150.44C631.689 151.84 631.409 152.94 630.439 152.94ZM634.148 154H638.858V152.89H635.538C635.568 151.55 638.748 151.16 638.748 148.88C638.748 147.54 637.688 146.78 636.438 146.78C634.738 146.78 634.088 148.2 634.088 148.2L635.048 148.84C635.048 148.84 635.498 148 636.328 148C636.928 148 637.408 148.37 637.408 148.99C637.408 150.4 634.088 150.81 634.088 153.37C634.088 153.57 634.118 153.77 634.148 154ZM639.899 151.94C639.899 153.16 640.899 154.12 642.439 154.12C644.029 154.12 644.939 153.1 644.939 152.01C644.939 151.28 644.549 150.83 644.029 150.5C644.099 150.42 644.819 149.63 644.819 148.75C644.819 147.52 643.839 146.78 642.519 146.78C640.959 146.78 640.239 147.74 640.239 148.72C640.239 149.35 640.539 149.78 640.969 150.11C640.749 150.26 639.899 150.93 639.899 151.94ZM643.629 151.95C643.629 152.58 643.099 152.98 642.439 152.98C641.789 152.98 641.219 152.51 641.219 151.84C641.219 151.25 641.649 150.83 641.879 150.64C642.739 151.05 643.629 151.33 643.629 151.95ZM641.509 148.75C641.509 148.29 641.849 147.93 642.499 147.93C643.139 147.93 643.559 148.28 643.559 148.83C643.559 149.45 643.179 149.92 643.079 150.03C642.269 149.68 641.509 149.4 641.509 148.75Z" fill="#00355F"/>
<path d="M587.895 173H592.605V171.89H589.285C589.315 170.55 592.495 170.16 592.495 167.88C592.495 166.54 591.435 165.78 590.185 165.78C588.485 165.78 587.835 167.2 587.835 167.2L588.795 167.84C588.795 167.84 589.245 167 590.075 167C590.675 167 591.155 167.37 591.155 167.99C591.155 169.4 587.835 169.81 587.835 172.37C587.835 172.57 587.865 172.77 587.895 173ZM596.276 173.12C598.216 173.12 598.856 171.48 598.856 169.44C598.856 167.4 598.216 165.78 596.276 165.78C594.336 165.78 593.706 167.4 593.706 169.44C593.706 171.48 594.336 173.12 596.276 173.12ZM596.276 171.94C595.306 171.94 595.026 170.84 595.026 169.44C595.026 168.06 595.306 166.97 596.276 166.97C597.246 166.97 597.526 168.06 597.526 169.44C597.526 170.84 597.246 171.94 596.276 171.94ZM599.985 173H604.695V171.89H601.375C601.405 170.55 604.585 170.16 604.585 167.88C604.585 166.54 603.525 165.78 602.275 165.78C600.575 165.78 599.925 167.2 599.925 167.2L600.885 167.84C600.885 167.84 601.335 167 602.165 167C602.765 167 603.245 167.37 603.245 167.99C603.245 169.4 599.925 169.81 599.925 172.37C599.925 172.57 599.955 172.77 599.985 173ZM606.006 173H607.346L610.456 166.8V165.9H605.576V167.01H608.606C608.956 167.01 609.096 166.99 609.096 166.99V167.01C609.096 167.01 608.886 167.22 608.666 167.66L606.006 173Z" fill="#00355F"/>
<path d="M516.597 188H521.307V186.89H517.987C518.017 185.55 521.197 185.16 521.197 182.88C521.197 181.54 520.137 180.78 518.887 180.78C517.187 180.78 516.537 182.2 516.537 182.2L517.497 182.84C517.497 182.84 517.947 182 518.777 182C519.377 182 519.857 182.37 519.857 182.99C519.857 184.4 516.537 184.81 516.537 187.37C516.537 187.57 516.567 187.77 516.597 188ZM524.978 188.12C526.918 188.12 527.558 186.48 527.558 184.44C527.558 182.4 526.918 180.78 524.978 180.78C523.038 180.78 522.408 182.4 522.408 184.44C522.408 186.48 523.038 188.12 524.978 188.12ZM524.978 186.94C524.008 186.94 523.728 185.84 523.728 184.44C523.728 183.06 524.008 181.97 524.978 181.97C525.948 181.97 526.228 183.06 526.228 184.44C526.228 185.84 525.948 186.94 524.978 186.94ZM528.687 188H533.397V186.89H530.077C530.107 185.55 533.287 185.16 533.287 182.88C533.287 181.54 532.227 180.78 530.977 180.78C529.277 180.78 528.627 182.2 528.627 182.2L529.587 182.84C529.587 182.84 530.037 182 530.867 182C531.467 182 531.947 182.37 531.947 182.99C531.947 184.4 528.627 184.81 528.627 187.37C528.627 187.57 528.657 187.77 528.687 188ZM537.198 188.12C538.608 188.12 539.538 187.06 539.538 185.74C539.538 184.46 538.658 183.37 537.258 183.37C536.748 183.37 536.178 183.58 535.928 183.87H535.908C536.088 182.9 536.678 181.97 537.798 181.97C538.348 181.97 538.798 182.19 538.798 182.19L539.178 181.08C539.178 181.08 538.628 180.78 537.728 180.78C535.528 180.78 534.458 182.89 534.458 184.75C534.458 186.89 535.718 188.12 537.198 188.12ZM537.198 186.94C536.448 186.94 535.798 186.09 535.798 185.2C535.798 184.76 536.318 184.43 536.958 184.43C537.808 184.43 538.258 185.02 538.258 185.74C538.258 186.41 537.858 186.94 537.198 186.94Z" fill="#00355F"/>
<path d="M484.768 188H489.478V186.89H486.158C486.188 185.55 489.368 185.16 489.368 182.88C489.368 181.54 488.308 180.78 487.058 180.78C485.358 180.78 484.708 182.2 484.708 182.2L485.668 182.84C485.668 182.84 486.118 182 486.948 182C487.548 182 488.028 182.37 488.028 182.99C488.028 184.4 484.708 184.81 484.708 187.37C484.708 187.57 484.738 187.77 484.768 188ZM493.149 188.12C495.089 188.12 495.729 186.48 495.729 184.44C495.729 182.4 495.089 180.78 493.149 180.78C491.209 180.78 490.579 182.4 490.579 184.44C490.579 186.48 491.209 188.12 493.149 188.12ZM493.149 186.94C492.179 186.94 491.899 185.84 491.899 184.44C491.899 183.06 492.179 181.97 493.149 181.97C494.119 181.97 494.399 183.06 494.399 184.44C494.399 185.84 494.119 186.94 493.149 186.94ZM496.858 188H501.568V186.89H498.248C498.278 185.55 501.458 185.16 501.458 182.88C501.458 181.54 500.398 180.78 499.148 180.78C497.448 180.78 496.798 182.2 496.798 182.2L497.758 182.84C497.758 182.84 498.208 182 499.038 182C499.638 182 500.118 182.37 500.118 182.99C500.118 184.4 496.798 184.81 496.798 187.37C496.798 187.57 496.828 187.77 496.858 188ZM502.529 187.16C502.529 187.16 503.299 188.12 504.799 188.12C506.279 188.12 507.359 187.08 507.359 185.68C507.359 184.4 506.429 183.35 504.859 183.35C504.429 183.35 504.099 183.51 504.099 183.51H504.079C504.079 183.51 504.109 183.37 504.129 183.18L504.239 182.01H506.859V180.9H503.129L502.799 184.5L503.509 184.76C503.509 184.76 503.979 184.46 504.609 184.46C505.419 184.46 506.039 184.95 506.039 185.69C506.039 186.44 505.389 186.9 504.699 186.9C503.779 186.9 503.189 186.19 503.189 186.19L502.529 187.16Z" fill="#00355F"/>
<path d="M469.053 124H473.763V122.89H470.443C470.473 121.55 473.653 121.16 473.653 118.88C473.653 117.54 472.593 116.78 471.343 116.78C469.643 116.78 468.993 118.2 468.993 118.2L469.953 118.84C469.953 118.84 470.403 118 471.233 118C471.833 118 472.313 118.37 472.313 118.99C472.313 120.4 468.993 120.81 468.993 123.37C468.993 123.57 469.023 123.77 469.053 124ZM477.434 124.12C479.374 124.12 480.014 122.48 480.014 120.44C480.014 118.4 479.374 116.78 477.434 116.78C475.494 116.78 474.864 118.4 474.864 120.44C474.864 122.48 475.494 124.12 477.434 124.12ZM477.434 122.94C476.464 122.94 476.184 121.84 476.184 120.44C476.184 119.06 476.464 117.97 477.434 117.97C478.404 117.97 478.684 119.06 478.684 120.44C478.684 121.84 478.404 122.94 477.434 122.94ZM481.143 124H485.853V122.89H482.533C482.563 121.55 485.743 121.16 485.743 118.88C485.743 117.54 484.683 116.78 483.433 116.78C481.733 116.78 481.083 118.2 481.083 118.2L482.043 118.84C482.043 118.84 482.493 118 483.323 118C483.923 118 484.403 118.37 484.403 118.99C484.403 120.4 481.083 120.81 481.083 123.37C481.083 123.57 481.113 123.77 481.143 124ZM486.576 122.17H489.896V124H491.166V122.17H492.086V121.1H491.166V116.9H489.636L486.576 121.38V122.17ZM487.936 121.1V121.08L489.576 118.81C489.766 118.54 489.926 118.16 489.926 118.16H489.946C489.946 118.16 489.896 118.55 489.896 118.9V121.1H487.936Z" fill="#00355F"/>
<rect x="399" y="250" width="20" height="20" rx="4" fill="#EBF6FF"/>
<path fill-rule="evenodd" clip-rule="evenodd" d="M410.413 255.586C410.038 255.211 409.529 255 408.999 255C408.469 255 407.96 255.211 407.585 255.586C407.21 255.961 406.999 256.47 406.999 257C406.999 257.53 407.21 258.039 407.585 258.414C407.96 258.789 408.469 259 408.999 259C409.529 259 410.038 258.789 410.413 258.414C410.788 258.039 410.999 257.53 410.999 257C410.999 256.47 410.788 255.961 410.413 255.586ZM408.579 259.646C408.776 259.342 409.221 259.342 409.418 259.646L412.394 264.228C412.61 264.56 412.371 265 411.975 265H406.022C405.626 265 405.387 264.56 405.603 264.228L408.579 259.646Z" fill="#63BAFF"/>
<rect x="238" y="237" width="16" height="16" rx="4" fill="#EBF6FF"/>
<path fill-rule="evenodd" clip-rule="evenodd" d="M247.132 241.469C246.832 241.169 246.425 241 246.001 241C245.576 241 245.169 241.169 244.869 241.469C244.569 241.769 244.401 242.176 244.401 242.6C244.401 243.024 244.569 243.431 244.869 243.731C245.169 244.031 245.576 244.2 246.001 244.2C246.425 244.2 246.832 244.031 247.132 243.731C247.432 243.431 247.601 243.024 247.601 242.6C247.601 242.176 247.432 241.769 247.132 241.469ZM245.665 244.717C245.823 244.474 246.178 244.474 246.336 244.717L248.717 248.382C248.89 248.648 248.699 249 248.381 249H243.619C243.302 249 243.111 248.648 243.284 248.382L245.665 244.717Z" fill="#63BAFF"/>
<rect x="399" y="299" width="20" height="20" rx="4" fill="#EBF6FF"/>
<path fill-rule="evenodd" clip-rule="evenodd" d="M410.413 304.586C410.038 304.211 409.529 304 408.999 304C408.469 304 407.96 304.211 407.585 304.586C407.21 304.961 406.999 305.47 406.999 306C406.999 306.53 407.21 307.039 407.585 307.414C407.96 307.789 408.469 308 408.999 308C409.529 308 410.038 307.789 410.413 307.414C410.788 307.039 410.999 306.53 410.999 306C410.999 305.47 410.788 304.961 410.413 304.586ZM408.579 313.772C408.776 314.076 409.221 314.076 409.418 313.772L412.394 309.19C412.61 308.858 412.371 308.418 411.975 308.418H406.022C405.626 308.418 405.387 308.858 405.603 309.19L408.579 313.772Z" fill="#63BAFF"/>
<rect x="206" y="237" width="16" height="16" rx="4" fill="#EBF6FF"/>
<path fill-rule="evenodd" clip-rule="evenodd" d="M215.132 241.469C214.832 241.169 214.425 241 214.001 241C213.576 241 213.169 241.169 212.869 241.469C212.569 241.769 212.401 242.176 212.401 242.6C212.401 243.024 212.569 243.431 212.869 243.731C213.169 244.031 213.576 244.2 214.001 244.2C214.425 244.2 214.832 244.031 215.132 243.731C215.432 243.431 215.601 243.024 215.601 242.6C215.601 242.176 215.432 241.769 215.132 241.469ZM213.665 248.818C213.823 249.061 214.178 249.061 214.336 248.818L216.717 245.152C216.89 244.886 216.699 244.534 216.381 244.534H211.619C211.302 244.534 211.111 244.886 211.284 245.152L213.665 248.818Z" fill="#63BAFF"/>
<rect x="124.5" y="109.5" width="47" height="19" rx="9.5" fill="#FEEF99"/>
<path d="M134.38 122H135.67V119.03L138.03 114.9H136.57L135.47 116.99C135.24 117.43 135.04 117.94 135.04 117.94H135.02C135.01 117.95 134.82 117.43 134.59 116.99L133.48 114.9H132.02L134.38 119.03V122ZM137.838 119.45C137.838 120.9 138.888 122.12 140.578 122.12C141.848 122.12 142.628 121.39 142.628 121.39L142.138 120.48C142.138 120.48 141.488 121.04 140.668 121.04C139.908 121.04 139.218 120.58 139.138 119.69H142.658C142.658 119.69 142.688 119.35 142.688 119.2C142.688 117.85 141.898 116.78 140.428 116.78C138.908 116.78 137.838 117.88 137.838 119.45ZM139.178 118.82C139.298 118.16 139.748 117.76 140.398 117.76C140.958 117.76 141.388 118.13 141.408 118.82H139.178ZM143.665 120.41C143.665 121.87 144.535 122.05 145.235 122.05C145.445 122.05 145.635 122.02 145.635 122.02V120.91C145.635 120.91 145.545 120.92 145.445 120.92C145.115 120.92 144.925 120.78 144.925 120.22V114.9H143.665V120.41ZM146.507 120.41C146.507 121.87 147.377 122.05 148.077 122.05C148.287 122.05 148.477 122.02 148.477 122.02V120.91C148.477 120.91 148.387 120.92 148.287 120.92C147.957 120.92 147.767 120.78 147.767 120.22V114.9H146.507V120.41ZM149.039 119.45C149.039 121.02 150.289 122.12 151.849 122.12C153.399 122.12 154.649 121.02 154.649 119.45C154.649 117.89 153.399 116.78 151.839 116.78C150.289 116.78 149.039 117.89 149.039 119.45ZM150.329 119.45C150.329 118.51 151.019 117.86 151.849 117.86C152.669 117.86 153.359 118.51 153.359 119.45C153.359 120.4 152.669 121.04 151.849 121.04C151.019 121.04 150.329 120.4 150.329 119.45ZM156.669 122H158.089L158.949 119.09C159.029 118.82 159.069 118.54 159.069 118.54H159.089C159.089 118.54 159.139 118.82 159.219 119.09L160.079 122H161.489L163.039 116.9H161.719L160.829 120.25C160.759 120.52 160.719 120.79 160.719 120.79H160.699C160.699 120.79 160.659 120.52 160.589 120.25L159.649 116.91H158.519L157.579 120.25C157.509 120.52 157.459 120.79 157.459 120.79H157.439C157.439 120.79 157.409 120.52 157.339 120.25L156.449 116.9H155.109L156.669 122Z" fill="#00355F"/>
<rect x="124.5" y="109.5" width="47" height="19" rx="9.5" stroke="#F7CA0F"/>
<rect x="234.5" y="412.5" width="34" height="19" rx="9.5" fill="#E0F1F1"/>
<path d="M244.37 425H245.66V419.01H247.99V417.9H242.04V419.01H244.37V425ZM247.565 422.45C247.565 423.9 248.615 425.12 250.305 425.12C251.575 425.12 252.355 424.39 252.355 424.39L251.865 423.48C251.865 423.48 251.215 424.04 250.395 424.04C249.635 424.04 248.945 423.58 248.865 422.69H252.385C252.385 422.69 252.415 422.35 252.415 422.2C252.415 420.85 251.625 419.78 250.155 419.78C248.635 419.78 247.565 420.88 247.565 422.45ZM248.905 421.82C249.025 421.16 249.475 420.76 250.125 420.76C250.685 420.76 251.115 421.13 251.135 421.82H248.905ZM253.032 423.53C253.032 424.55 253.852 425.12 254.762 425.12C255.922 425.12 256.322 424.22 256.312 424.22H256.332C256.332 424.22 256.312 424.38 256.312 424.58V425H257.482V421.81C257.482 420.52 256.702 419.78 255.362 419.78C254.152 419.78 253.362 420.41 253.362 420.41L253.842 421.32C253.842 421.32 254.512 420.83 255.242 420.83C255.802 420.83 256.222 421.06 256.222 421.73V421.8H256.052C255.222 421.8 253.032 421.91 253.032 423.53ZM254.312 423.47C254.312 422.76 255.362 422.67 256.012 422.67H256.232V422.79C256.232 423.41 255.752 424.13 255.082 424.13C254.562 424.13 254.312 423.81 254.312 423.47ZM258.734 423.41C258.734 424.87 259.604 425.05 260.304 425.05C260.514 425.05 260.704 425.02 260.704 425.02V423.91C260.704 423.91 260.614 423.92 260.514 423.92C260.184 423.92 259.994 423.78 259.994 423.22V417.9H258.734V423.41Z" fill="#00355F"/>
<rect x="234.5" y="412.5" width="34" height="19" rx="9.5" stroke="#80D8D7"/>
<defs>
<clipPath id="clip0">
<rect width="10.1569" height="10.1569" fill="white" transform="translate(481.385 313.386)"/>
</clipPath>
<clipPath id="clip1">
<rect width="12" height="12" fill="white" transform="translate(587.928 205)"/>
</clipPath>
<clipPath id="clip2">
<rect width="9.6" height="9.6" fill="white" transform="translate(525.199 231.2)"/>
</clipPath>
</defs>
</svg>
