<svg width="849" height="580" viewBox="0 0 849 580" fill="none" xmlns="http://www.w3.org/2000/svg">
<path d="M298.5 730L370.5 730C371.605 730 372.5 729.105 372.5 728L372.5 687.338C372.5 686.802 372.715 686.288 373.098 685.912L402 657.5M290 730L207 730M190.5 730L87 730M78 730L29.5 730C28.3954 730 27.5 729.105 27.5 728L27.5 636M27.5 628L27.5 515C27.5 513.895 28.3954 513 29.5 513L78.5 513M86.5 513L240.5 513M248.5 513L311.662 513C312.198 513 312.712 512.785 313.088 512.403L344.5 480.5M356 469L385.414 439.586C385.789 439.211 386 438.702 386 438.172L386 351M386 342.5L386 330.5M386 322L386 272.5C386 271.395 386.895 270.5 388 270.5L428.672 270.5C429.202 270.5 429.711 270.289 430.086 269.914L457.5 242.5M464 236L470.5 229M477 224L503.942 196.079C504.3 195.707 504.501 195.212 504.503 194.696L504.994 36.9938C504.997 35.8916 505.892 35 506.994 35L556.5 35M565 35L577 35M585.5 35L668 35M685.5 35L767.5 35M776 35L788 35M797.5 35L846.49 35C847.598 35 848.496 35.9015 848.49 37.01L848 135.5M848 150.5L848 249.5C848 250.605 847.105 251.5 846 251.5L797 251.5M788.5 251.5L776 251.5M768 251.5L678.867 251.5C678.314 251.5 677.785 251.729 677.407 252.133L648.5 283M637 294.5L605.586 325.914C605.211 326.289 605 326.798 605 327.328L605 533.5M605 542.5V554.5M605 562.5L605 613C605 614.105 604.105 615 603 615L545.5 615M537 615L489.5 615M482 615L445.319 615C444.794 615 444.29 615.206 443.916 615.574L413.5 645.5" stroke="#95A7B8"/>
<path d="M847 35H507.494C506.392 35 505.497 35.8916 505.494 36.9938L505.003 194.696C505.001 195.212 504.8 195.707 504.441 196.079L492.365 208.586C491.607 209.371 491.618 210.618 492.39 211.39L496.914 215.914C497.289 216.289 497.798 216.5 498.328 216.5H590.5C591.605 216.5 592.5 215.605 592.5 214.5V195C592.5 193.895 593.395 193 594.5 193H617C618.105 193 619 192.105 619 191V119C619 117.895 619.895 117 621 117H666.5C667.605 117 668.5 116.105 668.5 115V81.5C668.5 80.3954 669.395 79.5 670.5 79.5H683.5C684.605 79.5 685.5 80.3954 685.5 81.5V116.421C685.5 116.799 685.607 117.165 685.799 117.491C687.872 121.011 691.5 129.476 691.5 139C691.5 148.524 687.872 156.989 685.799 160.509C685.607 160.835 685.5 161.201 685.5 161.579V191C685.5 192.105 686.395 193 687.5 193H725.722C726.826 193 727.722 192.105 727.722 191V81.5C727.722 80.3954 728.617 79.5 729.722 79.5H796.5C797.605 79.5 798.5 78.6046 798.5 77.5V76.7198C798.5 75.6152 799.395 74.7198 800.5 74.7198H808C809.105 74.7198 810 75.6152 810 76.7198V108.5C810 109.605 810.895 110.5 812 110.5H815C816.105 110.5 817 111.395 817 112.5V156.5C817 157.605 817.895 158.5 819 158.5H820.5C821.605 158.5 822.5 159.395 822.5 160.5V211C822.5 212.105 821.605 213 820.5 213H650C648.895 213 648 213.895 648 215V220.191C648 220.71 648.202 221.209 648.563 221.582L677.41 251.391C677.787 251.78 678.306 252 678.848 252H847C848.105 252 849 251.105 849 250V37C849 35.8954 848.105 35 847 35Z" fill="#FEEF99"/>
<path d="M557 614.5L602.5 614.5C603.605 614.5 604.5 613.604 604.5 612.5L604.5 327.304C604.5 326.788 604.699 326.292 605.056 325.92L614.616 315.944C615.38 315.146 615.354 313.88 614.556 313.116L592.616 292.091C592.223 291.713 592 291.192 592 290.647L592 262.5C592 261.395 591.105 260.5 590 260.5L474.834 260.5C474.3 260.5 473.789 260.713 473.413 261.092L456.079 278.583C455.708 278.958 455.5 279.464 455.5 279.991L455.5 396.5C455.5 397.604 456.395 398.5 457.5 398.5L493 398.5C494.105 398.5 495 399.395 495 400.5L495 415.5C495 416.604 495.895 417.5 497 417.5L501 417.5C502.105 417.5 503 418.395 503 419.5L503 434C503 435.104 502.105 436 501 436L465 436C463.895 436 463 436.895 463 438L463 458.5C463 459.604 463.895 460.5 465 460.5L501 460.5C502.105 460.5 503 461.395 503 462.5L503 565C503 566.104 503.895 567 505 567L553 567C554.105 567 555 567.895 555 569L555 612.5C555 613.604 555.895 614.5 557 614.5Z" fill="#C8E9FF"/>
<path d="M489.5 567L448 567C446.895 567 446 566.105 446 565L446 507.5C446 506.395 445.105 505.5 444 505.5L400.5 505.5C399.395 505.5 398.5 506.395 398.5 507.5C398.5 508.605 397.605 509.5 396.5 509.5L378.5 509.5L317.328 509.5C316.798 509.5 316.289 509.711 315.914 510.086L313.086 512.914C312.711 513.289 312.202 513.5 311.672 513.5L29 513.5C28.4477 513.5 28 513.948 28 514.5L28 589.5C28 590.605 28.8954 591.5 30 591.5L90 591.5C91.1046 591.5 92 592.395 92 593.5L92 619C92 620.105 92.8954 621 94 621L230 621C231.105 621 232 620.105 232 619L232 596.5C232 595.395 232.895 594.5 234 594.5L351.5 594.5C352.605 594.5 353.5 595.395 353.5 596.5L353.5 621C353.5 622.105 354.395 623 355.5 623L358 623C359.105 623 360 623.895 360 625L360 673.672C360 674.202 360.211 674.711 360.586 675.086L370.591 685.091C371.37 685.87 372.632 685.872 373.414 685.096L443.915 615.081C444.29 614.709 444.796 614.5 445.324 614.5L489.5 614.5C490.605 614.5 491.5 613.605 491.5 612.5L491.5 569C491.5 567.895 490.605 567 489.5 567Z" fill="#F7C687"/>
<path d="M27.5 591.5L71 591.5C72.1046 591.5 73 592.395 73 593.5L73 628M73 635.5V636.5C73 637.605 72.1046 638.5 71 638.5L27.5 638.5M123.5 591.5L94 591.5C92.8954 591.5 92 592.395 92 593.5L92 621M131.5 591.5H134.5M164 591.5L134.5 591.5M172.5 591.5H175.5M193 591.5H175.5M200.5 591.5H203M221.5 591.5L203 591.5M229 591.5H230C231.105 591.5 232 592.395 232 593.5V594.5M236.5 663L234 663C232.895 663 232 662.105 232 661L232 649M243.5 663H256C257.105 663 258 662.105 258 661L258 621M258 616V621M258 599.5L258 596.5C258 595.395 257.105 594.5 256 594.5H247M245 594.5H247M237.5 594.5L232 594.5M232 594.5L232 649M247 594.5L247 621M247 621H258M247 621L203 621M92 621L92 647C92 648.105 92.8954 649 94 649L120 649M92 621L131.5 621M129 649H131.5M134 649H131.5M141.5 649L175.5 649M178.5 649H175.5M187 649L232 649M175.5 621L175.5 649M175.5 621L131.5 621M175.5 621L175.5 591.5M175.5 621H203M131.5 621L131.5 649M134.5 620L134.5 591.5M203 591.5L203 621M271.5 599.5L271.5 596.5C271.5 595.395 272.395 594.5 273.5 594.5L326.5 594.5M336 594.5L326.5 594.5M326.5 594.5L326.5 623M326.5 667L273.5 667C272.395 667 271.5 666.105 271.5 665L271.5 660M326.5 667L326.5 623M326.5 667L360 667M271.5 653.5V650.5M271.5 647.5V650.5M271.5 641L271.5 623M271.5 605L271.5 623M271.5 623L326.5 623M271.5 650.5L344.5 650.5M352 650.5H360M360 667L360 623M360 667V673.672C360 674.202 360.211 674.711 360.586 675.086L372.5 687M360 623H355.5C354.395 623 353.5 622.105 353.5 621L353.5 611M360 623L402 623C403.105 623 404 622.105 404 621L404 614.5M353.5 594.5H349M353.5 594.5L393 594.5M353.5 594.5L353.5 611M401 594.5H402C403.105 594.5 404 595.395 404 596.5L404 614.5M353.5 611H349M404 614.5L432.5 614.5M432.5 614.5L432.5 626M432.5 614.5L432.5 594.5M432.5 585.5V576.25M432.5 567L432.5 576.25M432.5 567L398.5 567M432.5 567H446M432.5 576.25L423 576.25M398.5 567L398.5 574.25C398.5 575.355 399.395 576.25 400.5 576.25H407M398.5 567V563.5M398.5 556.5L398.5 507.5C398.5 506.395 399.395 505.5 400.5 505.5L444 505.5C445.105 505.5 446 506.395 446 507.5L446 544M446 567L488.5 567M446 567L446 544M555 614L555 575M555 575V569C555 567.895 554.105 567 553 567H548.5M555 575L596.5 575M491.5 567L491.5 614.5M491.5 567H488.5M491.5 567L503 567M488.5 567V563.5M488.5 556.5L488.5 544M488.5 544L503 544M488.5 544H463M457 544H463M503 544L503 567M503 544L503 534M503 567L548.5 567M503 436L465 436C463.895 436 463 436.895 463 438L463 450.5M503 436L546.5 436C547.605 436 548.5 436.895 548.5 438V459M503 436L503 460.5M463 458L463 460.5M463 463V460.5M463 470L463 505.5M463 534L463 505.5M463 540.5V544M450 544H446M548.5 467V468.25M548.5 491V468.25M548.5 498.5L548.5 500.5M548.5 524.5V500.5M548.5 531V532C548.5 533.105 547.605 534 546.5 534L503 534M503 534L503 505.5M503 500.5L548.5 500.5M503 500.5L503 468.25M503 500.5V505.5M503 468.25L548.5 468.25M503 468.25V460.5M503 460.5L463 460.5M503 505.5L463 505.5M548.5 567L548.5 547M366 459.5L369.5 463M374.5 468L376.414 469.914C376.789 470.289 377 470.798 377 471.328L377 485C377 486.105 377.895 487 379 487L444 487C445.105 487 446 486.105 446 485L446 419.5C446 418.395 446.895 417.5 448 417.5H448.5M467 417.5H463M474 417.5L495 417.5M550 417.5L495 417.5M495 417.5L495 400.5C495 399.395 494.105 398.5 493 398.5L463 398.5M448.5 398.5V396M448.5 398.5V402.5M448.5 398.5L455.75 398.5M448.5 409.5L448.5 417.5M448.5 417.5L463 417.5M463 398.5L463 417.5M463 398.5H455.75M448.5 389V385.5M448.5 385.5L455.5 385.5M448.5 385.5L420.5 385.5C419.395 385.5 418.5 386.395 418.5 387.5V390.5M455.5 385.5L455.75 398.5M455.5 385.5L455.5 279.828C455.5 279.298 455.711 278.789 456.086 278.414L473.414 261.086C473.789 260.711 474.298 260.5 474.828 260.5L569.5 260.5C570.605 260.5 571.5 261.395 571.5 262.5L571.5 283.636C571.5 284.187 571.272 284.714 570.871 285.092L563 292.5M418.5 390.5L418.5 440.5C418.5 441.605 417.605 442.5 416.5 442.5H412.5C411.395 442.5 410.5 441.605 410.5 440.5L410.5 392.5C410.5 391.395 411.395 390.5 412.5 390.5H418.5ZM576.5 306.5L592 291.5M592 291.5L592 262.5C592 261.395 592.895 260.5 594 260.5H598C599.105 260.5 600 261.395 600 262.5L600 299M592 291.5L600 299M600 299L611 309.656M616 314.5L611 309.656M611 309.656L620 309.656M611 309.656L611 262.5C611 261.395 611.895 260.5 613 260.5L618 260.5C619.105 260.5 620 261.395 620 262.5L620 309.656M621.5 309.656H620M378.5 500.5L378.5 509.5M378.5 563.5L378.5 509.5M378.5 572.5V574.25C378.5 575.355 377.605 576.25 376.5 576.25L332 576.25C330.895 576.25 330 575.355 330 574.25L330 509.5M330 509.5L316 509.5M330 509.5L378.5 509.5M312.5 513L312.5 576.25M490.5 210L496.414 215.914C496.789 216.289 497.298 216.5 497.828 216.5L571.5 216.5M592 204L592 214.5C592 215.605 592.895 216.5 594 216.5L616 216.5M630.5 204L630.5 214.5C630.5 215.605 629.605 216.5 628.5 216.5L616 216.5M630.5 196.5V193M630.5 193L618.5 193M630.5 193L649.5 193M592 193V190.5M592 193V196.5M592 193L616 193M592 182.5L592 155M592 126.5L592 155M592 119V119C592 117.895 592.895 117 594 117L618.5 117M655 117L618.5 117M618.5 117L618.5 155M618.5 193L618.5 155M618.5 193H616M618.5 155L592 155M616 193L616 216.5M664.5 193H666C667.105 193 668 192.105 668 191L668 161.579C668 161.201 667.893 160.835 667.701 160.509C665.628 156.989 662 148.524 662 139C662 129 666 120.167 668 117M668 117L662 117M668 117L668 84M685 93.5V97M689 193L687 193C685.895 193 685 192.105 685 191L685 161.579C685 161.201 685.107 160.835 685.299 160.509C687.372 156.989 691 148.524 691 139C691 129.476 687.372 121.011 685.299 117.491C685.107 117.165 685 116.799 685 116.421L685 97M695.5 193L725.5 193C726.605 193 727.5 192.105 727.5 191L727.5 99C727.5 97.8954 726.605 97 725.5 97L696.5 97M689 97L685 97M668 35L668 59M685 34.5L685 77.5C685 78.6046 685.895 79.5 687 79.5L708 79.5M715 79.5H717M719.5 79.5L717 79.5M727.5 79.5L755 79.5M787.5 79.5L755 79.5M795 79.5H796C797.105 79.5 798 78.6046 798 77.5L798 35M755 35L755 79.5M717 35L717 79.5M848.5 74.5L811.5 74.5C810.395 74.5 809.5 75.3954 809.5 76.5L809.5 99M809.5 107.5V108.5C809.5 109.605 810.395 110.5 811.5 110.5L816.5 110.5M848.5 110.5L816.5 110.5M816.5 110.5V114M816.5 120.5V123M816.5 158.5L816.5 123M816.5 123L805.5 123M798 123L786.5 123M786.5 123L786.5 99M786.5 123V143.5M786.5 94V99M786.5 194V188M786.5 158.5L822 158.5M786.5 158.5L786.5 182.5M786.5 158.5L786.5 143.5M848.5 158.5L822 158.5M822 158.5L822 182.5M822 203.5V182.5M822 182.5L798 182.5M789.5 182.5H786.5M786.5 182.5V188M822 209.5L822 213M822 213H819M822 213L848.5 213M813 213H809.75M806.5 213L809.75 213M809.75 213L809.75 252.5M768 252.5L768 213M768 213L800 213M768 213L764.5 213M757.5 213L729.5 213M727.5 213H729.5M729.5 213L729.5 252.5M721 213L695.5 213M692 213L695.5 213M695.5 213L695.5 250C695.5 251.105 694.605 252 693.5 252L678.348 252C677.806 252 677.287 251.78 676.91 251.391L648.063 221.582C647.702 221.209 647.5 220.71 647.5 220.191V215C647.5 213.895 648.395 213 649.5 213L685 213M786.5 99L742.5 99M742.5 99V94M742.5 99L742.5 115C742.5 116.105 743.395 117 744.5 117L747.5 117M754 117H755.5C756.605 117 757.5 117.895 757.5 119V136.5M752.5 172H755.5C756.605 172 757.5 171.105 757.5 170V152M745 172H744.5C743.395 172 742.5 172.895 742.5 174L742.5 188M742.5 193V188M742.5 188L786.5 188M757.5 143.5L786.5 143.5M757.5 143.5V136.5M757.5 143.5L757.5 152M757.5 136.5L744.5 136.5C743.395 136.5 742.5 137.395 742.5 138.5L742.5 150C742.5 151.105 743.395 152 744.5 152L757.5 152M426.5 461.5V463.5C426.5 464.605 425.605 465.5 424.5 465.5L400.5 465.5C399.395 465.5 398.5 464.605 398.5 463.5V461.5C398.5 460.395 399.395 459.5 400.5 459.5L424.5 459.5C425.605 459.5 426.5 460.395 426.5 461.5Z" stroke="#95A7B8"/>
<rect x="473" y="513" width="20" height="20" rx="4" fill="#EBF6FF"/>
<path fill-rule="evenodd" clip-rule="evenodd" d="M484.413 518.586C484.038 518.211 483.529 518 482.999 518C482.469 518 481.96 518.211 481.585 518.586C481.21 518.961 480.999 519.47 480.999 520C480.999 520.531 481.21 521.039 481.585 521.414C481.96 521.789 482.469 522 482.999 522C483.529 522 484.038 521.789 484.413 521.414C484.788 521.039 484.999 520.531 484.999 520C484.999 519.47 484.788 518.961 484.413 518.586ZM482.579 527.772C482.776 528.076 483.221 528.076 483.418 527.772L486.394 523.19C486.61 522.858 486.371 522.418 485.975 522.418L480.022 522.418C479.626 522.418 479.387 522.858 479.603 523.19L482.579 527.772Z" fill="#63BAFF"/>
<rect x="473" y="474" width="20" height="20" rx="4" fill="#EBF6FF"/>
<path fill-rule="evenodd" clip-rule="evenodd" d="M484.413 479.586C484.038 479.211 483.529 479 482.999 479C482.469 479 481.96 479.211 481.585 479.586C481.21 479.961 480.999 480.47 480.999 481C480.999 481.531 481.21 482.039 481.585 482.414C481.96 482.789 482.469 483 482.999 483C483.529 483 484.038 482.789 484.413 482.414C484.788 482.039 484.999 481.531 484.999 481C484.999 480.47 484.788 479.961 484.413 479.586ZM482.579 483.646C482.776 483.342 483.221 483.342 483.418 483.646L486.394 488.228C486.61 488.56 486.371 489 485.975 489L480.022 489C479.626 489 479.387 488.56 479.603 488.228L482.579 483.646Z" fill="#63BAFF"/>
<path d="M556.98 614.519L602.98 614.979C604.092 614.99 605 614.092 605 612.979L605 327.804C605 327.288 605.199 326.792 605.556 326.42L615.117 316.443C615.881 315.646 615.854 314.381 615.057 313.616L592.616 292.09C592.222 291.713 592 291.192 592 290.647L592 262.5C592 261.395 591.105 260.5 590 260.5L474.834 260.5C474.3 260.5 473.789 260.713 473.413 261.092L456.079 278.583C455.708 278.958 455.5 279.464 455.5 279.991L455.5 396.5C455.5 397.604 456.395 398.5 457.5 398.5L493 398.5C494.105 398.5 495 399.395 495 400.5L495 415.5C495 416.604 495.895 417.5 497 417.5L501 417.5C502.105 417.5 503 418.395 503 419.5L503 434C503 435.104 502.105 436 501 436L465 436C463.895 436 463 436.895 463 438L463 458.5C463 459.604 463.895 460.5 465 460.5L501 460.5C502.105 460.5 503 461.395 503 462.5L503 565C503 566.104 503.895 567 505 567L553 567C554.105 567 555 567.895 555 569L555 612.519C555 613.616 555.883 614.508 556.98 614.519Z" stroke="#80B8E6"/>
<path d="M489.5 567L448 567C446.895 567 446 566.105 446 565L446 507.5C446 506.395 445.105 505.5 444 505.5L400.5 505.5C399.395 505.5 398.5 506.395 398.5 507.5C398.5 508.605 397.605 509.5 396.5 509.5L378.5 509.5L316.828 509.5C316.298 509.5 315.789 509.711 315.414 510.086L313.086 512.414C312.711 512.789 312.202 513 311.672 513L29.5 513C28.3954 513 27.5 513.895 27.5 515L27.5 589.5C27.5 590.605 28.3954 591.5 29.5 591.5L90 591.5C91.1046 591.5 92 592.395 92 593.5L92 619C92 620.105 92.8954 621 94 621L230 621C231.105 621 232 620.105 232 619L232 596.5C232 595.395 232.895 594.5 234 594.5L351.5 594.5C352.605 594.5 353.5 595.395 353.5 596.5L353.5 621C353.5 622.105 354.395 623 355.5 623L358 623C359.105 623 360 623.895 360 625L360 673.672C360 674.202 360.211 674.711 360.586 675.086L370.591 685.091C371.37 685.87 372.632 685.872 373.414 685.096L443.915 615.081C444.29 614.709 444.796 614.5 445.324 614.5L489.5 614.5C490.605 614.5 491.5 613.605 491.5 612.5L491.5 569C491.5 567.895 490.605 567 489.5 567Z" stroke="#ED8B00"/>
<path d="M846.5 35H506.994C505.892 35 504.997 35.8916 504.994 36.9938L504.503 194.696C504.501 195.212 504.3 195.707 503.941 196.079L491.865 208.586C491.107 209.371 491.118 210.618 491.89 211.39L496.414 215.914C496.789 216.289 497.298 216.5 497.828 216.5H590C591.105 216.5 592 215.605 592 214.5V195C592 193.895 592.895 193 594 193H616.5C617.605 193 618.5 192.105 618.5 191V119C618.5 117.895 619.395 117 620.5 117H666C667.105 117 668 116.105 668 115V81.5C668 80.3954 668.895 79.5 670 79.5H683C684.105 79.5 685 80.3954 685 81.5V116.421C685 116.799 685.107 117.165 685.299 117.491C687.372 121.011 691 129.476 691 139C691 148.524 687.372 156.989 685.299 160.509C685.107 160.835 685 161.201 685 161.579V191C685 192.105 685.895 193 687 193H725.222C726.326 193 727.222 192.105 727.222 191V81.5C727.222 80.3954 728.117 79.5 729.222 79.5H796C797.105 79.5 798 78.6046 798 77.5V76.7198C798 75.6152 798.895 74.7198 800 74.7198H807.5C808.605 74.7198 809.5 75.6152 809.5 76.7198V108.5C809.5 109.605 810.395 110.5 811.5 110.5H814.5C815.605 110.5 816.5 111.395 816.5 112.5V156.5C816.5 157.605 817.395 158.5 818.5 158.5H820C821.105 158.5 822 159.395 822 160.5V211C822 212.105 821.105 213 820 213H649.5C648.395 213 647.5 213.895 647.5 215V220.191C647.5 220.71 647.702 221.209 648.063 221.582L676.91 251.391C677.287 251.78 677.806 252 678.348 252H846.5C847.605 252 848.5 251.105 848.5 250V37C848.5 35.8954 847.605 35 846.5 35Z" stroke="#F7CA0F"/>
<rect x="646.5" y="25.5" width="47" height="19" rx="9.5" fill="#FEEF99"/>
<path d="M656.38 38H657.67V35.03L660.03 30.9H658.57L657.47 32.99C657.24 33.43 657.04 33.94 657.04 33.94H657.02C657.01 33.95 656.82 33.43 656.59 32.99L655.48 30.9H654.02L656.38 35.03V38ZM659.838 35.45C659.838 36.9 660.888 38.12 662.578 38.12C663.848 38.12 664.628 37.39 664.628 37.39L664.138 36.48C664.138 36.48 663.488 37.04 662.668 37.04C661.908 37.04 661.218 36.58 661.138 35.69H664.658C664.658 35.69 664.688 35.35 664.688 35.2C664.688 33.85 663.898 32.78 662.428 32.78C660.908 32.78 659.838 33.88 659.838 35.45ZM661.178 34.82C661.298 34.16 661.748 33.76 662.398 33.76C662.958 33.76 663.388 34.13 663.408 34.82H661.178ZM665.665 36.41C665.665 37.87 666.535 38.05 667.235 38.05C667.445 38.05 667.635 38.02 667.635 38.02V36.91C667.635 36.91 667.545 36.92 667.445 36.92C667.115 36.92 666.925 36.78 666.925 36.22V30.9L665.665 30.9V36.41ZM668.507 36.41C668.507 37.87 669.377 38.05 670.077 38.05C670.287 38.05 670.477 38.02 670.477 38.02V36.91C670.477 36.91 670.387 36.92 670.287 36.92C669.957 36.92 669.767 36.78 669.767 36.22V30.9H668.507V36.41ZM671.039 35.45C671.039 37.02 672.289 38.12 673.849 38.12C675.399 38.12 676.649 37.02 676.649 35.45C676.649 33.89 675.399 32.78 673.839 32.78C672.289 32.78 671.039 33.89 671.039 35.45ZM672.329 35.45C672.329 34.51 673.019 33.86 673.849 33.86C674.669 33.86 675.359 34.51 675.359 35.45C675.359 36.4 674.669 37.04 673.849 37.04C673.019 37.04 672.329 36.4 672.329 35.45ZM678.669 38H680.089L680.949 35.09C681.029 34.82 681.069 34.54 681.069 34.54H681.089C681.089 34.54 681.139 34.82 681.219 35.09L682.079 38H683.489L685.039 32.9H683.719L682.829 36.25C682.759 36.52 682.719 36.79 682.719 36.79H682.699C682.699 36.79 682.659 36.52 682.589 36.25L681.649 32.91H680.519L679.579 36.25C679.509 36.52 679.459 36.79 679.459 36.79H679.439C679.439 36.79 679.409 36.52 679.339 36.25L678.449 32.9L677.109 32.9L678.669 38Z" fill="#00355F"/>
<rect x="646.5" y="25.5" width="47" height="19" rx="9.5" stroke="#F7CA0F"/>
<path d="M521.617 520.12C523.817 520.12 524.887 518.01 524.887 516.15C524.887 514.01 523.627 512.78 522.147 512.78C520.737 512.78 519.807 513.85 519.807 515.16C519.807 516.44 520.677 517.54 522.077 517.54C522.587 517.54 523.167 517.33 523.417 517.04H523.437C523.257 518.01 522.657 518.94 521.537 518.94C520.997 518.94 520.547 518.71 520.547 518.71L520.167 519.82C520.167 519.82 520.717 520.12 521.617 520.12ZM522.387 516.48C521.527 516.48 521.077 515.88 521.077 515.16C521.077 514.49 521.487 513.97 522.147 513.97C522.887 513.97 523.547 514.82 523.547 515.71C523.547 516.14 523.027 516.48 522.387 516.48ZM525.692 518.17H529.012V520H530.282V518.17H531.202V517.1H530.282V512.9H528.752L525.692 517.38V518.17ZM527.052 517.1V517.08L528.692 514.81C528.882 514.54 529.042 514.16 529.042 514.16H529.062C529.062 514.16 529.012 514.55 529.012 514.9V517.1H527.052Z" fill="#00355F"/>
<path d="M521.376 488.12C523.576 488.12 524.646 486.01 524.646 484.15C524.646 482.01 523.386 480.78 521.906 480.78C520.496 480.78 519.566 481.85 519.566 483.16C519.566 484.44 520.436 485.54 521.836 485.54C522.346 485.54 522.926 485.33 523.176 485.04H523.196C523.016 486.01 522.416 486.94 521.296 486.94C520.756 486.94 520.306 486.71 520.306 486.71L519.926 487.82C519.926 487.82 520.476 488.12 521.376 488.12ZM522.146 484.48C521.286 484.48 520.836 483.88 520.836 483.16C520.836 482.49 521.246 481.97 521.906 481.97C522.646 481.97 523.306 482.82 523.306 483.71C523.306 484.14 522.786 484.48 522.146 484.48ZM525.601 487.16C525.601 487.16 526.371 488.12 527.871 488.12C529.351 488.12 530.431 487.08 530.431 485.68C530.431 484.4 529.501 483.35 527.931 483.35C527.501 483.35 527.171 483.51 527.171 483.51H527.151C527.151 483.51 527.181 483.37 527.201 483.18L527.311 482.01H529.931V480.9H526.201L525.871 484.5L526.581 484.76C526.581 484.76 527.051 484.46 527.681 484.46C528.491 484.46 529.111 484.95 529.111 485.69C529.111 486.44 528.461 486.9 527.771 486.9C526.851 486.9 526.261 486.19 526.261 486.19L525.601 487.16Z" fill="#00355F"/>
<rect x="762" y="157" width="20" height="20" rx="4" fill="#EBF6FF"/>
<path fill-rule="evenodd" clip-rule="evenodd" d="M773.413 162.586C773.038 162.211 772.529 162 771.999 162C771.469 162 770.96 162.211 770.585 162.586C770.21 162.961 769.999 163.47 769.999 164C769.999 164.531 770.21 165.039 770.585 165.414C770.96 165.789 771.469 166 771.999 166C772.529 166 773.038 165.789 773.413 165.414C773.788 165.039 773.999 164.531 773.999 164C773.999 163.47 773.788 162.961 773.413 162.586ZM771.579 166.646C771.776 166.342 772.221 166.342 772.418 166.646L775.394 171.228C775.61 171.56 775.371 172 774.975 172L769.022 172C768.626 172 768.387 171.56 768.603 171.228L771.579 166.646Z" fill="#63BAFF"/>
<rect x="762" y="107" width="20" height="20" rx="4" fill="#EBF6FF"/>
<path fill-rule="evenodd" clip-rule="evenodd" d="M773.413 112.586C773.038 112.211 772.529 112 771.999 112C771.469 112 770.96 112.211 770.585 112.586C770.21 112.961 769.999 113.47 769.999 114C769.999 114.531 770.21 115.039 770.585 115.414C770.96 115.789 771.469 116 771.999 116C772.529 116 773.038 115.789 773.413 115.414C773.788 115.039 773.999 114.531 773.999 114C773.999 113.47 773.788 112.961 773.413 112.586ZM771.579 121.772C771.776 122.076 772.221 122.076 772.418 121.772L775.394 117.19C775.61 116.858 775.371 116.418 774.975 116.418L769.022 116.418C768.626 116.418 768.387 116.858 768.603 117.19L771.579 121.772Z" fill="#63BAFF"/>
<rect x="628" y="144" width="24" height="24" rx="4" fill="#ECFBF2"/>
<path d="M637 159L643 159L643 162L637 162L637 159ZM644.2 160.8L644.2 157.8L635.8 157.8L635.8 160.8L634.6 160.8C634.441 160.8 634.288 160.737 634.176 160.624C634.063 160.512 634 160.359 634 160.2L634 154.2C634 154.041 634.063 153.888 634.176 153.776C634.288 153.663 634.441 153.6 634.6 153.6L645.4 153.6C645.559 153.6 645.712 153.663 645.824 153.776C645.937 153.888 646 154.041 646 154.2L646 160.2C646 160.359 645.937 160.512 645.824 160.624C645.712 160.737 645.559 160.8 645.4 160.8L644.2 160.8ZM635.8 154.8L635.8 156L637.6 156L637.6 154.8L635.8 154.8ZM637 150L643 150C643.159 150 643.312 150.063 643.424 150.176C643.537 150.288 643.6 150.441 643.6 150.6L643.6 152.4L636.4 152.4L636.4 150.6C636.4 150.441 636.463 150.288 636.576 150.176C636.688 150.063 636.841 150 637 150Z" fill="#49BF78"/>
<rect x="797" y="162" width="16" height="16" rx="4" fill="#FFE9E0"/>
<path d="M808.598 166L808.598 174L807.798 174L807.798 170.8L806.598 170.8L806.598 168C806.598 167.47 806.809 166.961 807.184 166.586C807.559 166.211 808.068 166 808.598 166ZM803.798 170.76L803.798 174L802.998 174L802.998 170.76C802.547 170.668 802.141 170.422 801.849 170.065C801.558 169.708 801.398 169.261 801.398 168.8L801.398 166.4L802.198 166.4L802.198 169.2L802.998 169.2L802.998 166.4L803.798 166.4L803.798 169.2L804.598 169.2L804.598 166.4L805.398 166.4L805.398 168.8C805.398 169.261 805.239 169.708 804.948 170.065C804.656 170.422 804.25 170.668 803.798 170.76Z" fill="#FF8D62"/>
<path d="M521.705 457.12C523.905 457.12 524.975 455.01 524.975 453.15C524.975 451.01 523.715 449.78 522.235 449.78C520.825 449.78 519.895 450.85 519.895 452.16C519.895 453.44 520.765 454.54 522.165 454.54C522.675 454.54 523.255 454.33 523.505 454.04H523.525C523.345 455.01 522.745 455.94 521.625 455.94C521.085 455.94 520.635 455.71 520.635 455.71L520.255 456.82C520.255 456.82 520.805 457.12 521.705 457.12ZM522.475 453.48C521.615 453.48 521.165 452.88 521.165 452.16C521.165 451.49 521.575 450.97 522.235 450.97C522.975 450.97 523.635 451.82 523.635 452.71C523.635 453.14 523.115 453.48 522.475 453.48ZM528.77 457.12C530.18 457.12 531.11 456.06 531.11 454.74C531.11 453.46 530.23 452.37 528.83 452.37C528.32 452.37 527.75 452.58 527.5 452.87H527.48C527.66 451.9 528.25 450.97 529.37 450.97C529.92 450.97 530.37 451.19 530.37 451.19L530.75 450.08C530.75 450.08 530.2 449.78 529.3 449.78C527.1 449.78 526.03 451.89 526.03 453.75C526.03 455.89 527.29 457.12 528.77 457.12ZM528.77 455.94C528.02 455.94 527.37 455.09 527.37 454.2C527.37 453.76 527.89 453.43 528.53 453.43C529.38 453.43 529.83 454.02 529.83 454.74C529.83 455.41 529.43 455.94 528.77 455.94Z" fill="#00355F"/>
<path d="M399.569 338H400.859L400.859 332.01L403.189 332.01L403.189 330.9L397.239 330.9L397.239 332.01L399.569 332.01L399.569 338ZM403.925 338H405.195V335.66C405.195 335.42 405.215 335.2 405.275 335C405.465 334.38 405.985 333.94 406.655 333.94C407.305 333.94 407.465 334.36 407.465 334.98V338H408.725L408.725 334.72C408.725 333.37 408.085 332.78 406.955 332.78C406.065 332.78 405.445 333.3 405.195 333.79H405.175C405.175 333.79 405.195 333.61 405.195 333.36L405.195 330.9H403.925L403.925 338ZM409.697 335.45C409.697 336.9 410.747 338.12 412.437 338.12C413.707 338.12 414.487 337.39 414.487 337.39L413.997 336.48C413.997 336.48 413.347 337.04 412.527 337.04C411.767 337.04 411.077 336.58 410.997 335.69H414.517C414.517 335.69 414.547 335.35 414.547 335.2C414.547 333.85 413.757 332.78 412.287 332.78C410.767 332.78 409.697 333.88 409.697 335.45ZM411.037 334.82C411.157 334.16 411.607 333.76 412.257 333.76C412.817 333.76 413.247 334.13 413.267 334.82H411.037ZM417.736 334.42C417.736 336.51 419.236 338.12 421.406 338.12C423.216 338.12 424.196 336.97 424.196 336.97L423.516 336.04C423.516 336.04 422.686 336.94 421.456 336.94C419.976 336.94 419.066 335.75 419.066 334.4C419.066 333.08 419.946 331.96 421.446 331.96C422.576 331.96 423.386 332.71 423.386 332.71L424.006 331.75C424.006 331.75 423.116 330.78 421.386 330.78C419.296 330.78 417.736 332.36 417.736 334.42ZM424.754 336.53C424.754 337.55 425.574 338.12 426.484 338.12C427.644 338.12 428.044 337.22 428.034 337.22H428.054C428.054 337.22 428.034 337.38 428.034 337.58V338H429.204V334.81C429.204 333.52 428.424 332.78 427.084 332.78C425.874 332.78 425.084 333.41 425.084 333.41L425.564 334.32C425.564 334.32 426.234 333.83 426.964 333.83C427.524 333.83 427.944 334.06 427.944 334.73V334.8H427.774C426.944 334.8 424.754 334.91 424.754 336.53ZM426.034 336.47C426.034 335.76 427.084 335.67 427.734 335.67H427.954V335.79C427.954 336.41 427.474 337.13 426.804 337.13C426.284 337.13 426.034 336.81 426.034 336.47ZM430.757 338L432.027 338L432.027 333.99H433.117V332.98H432.027V332.78C432.027 332.04 432.647 331.95 433.007 331.95C433.157 331.95 433.267 331.97 433.267 331.97L433.267 330.89C433.267 330.89 433.097 330.86 432.837 330.86C432.127 330.86 430.757 331.08 430.757 332.75V332.98H430.127V333.99H430.757L430.757 338ZM433.604 335.45C433.604 336.9 434.654 338.12 436.344 338.12C437.614 338.12 438.394 337.39 438.394 337.39L437.904 336.48C437.904 336.48 437.254 337.04 436.434 337.04C435.674 337.04 434.984 336.58 434.904 335.69L438.424 335.69C438.424 335.69 438.454 335.35 438.454 335.2C438.454 333.85 437.664 332.78 436.194 332.78C434.674 332.78 433.604 333.88 433.604 335.45ZM434.944 334.82C435.064 334.16 435.514 333.76 436.164 333.76C436.724 333.76 437.154 334.13 437.174 334.82L434.944 334.82Z" fill="#00355F"/>
<path d="M613.906 252L615.196 252V249.35L616.436 249.35L617.846 252L619.286 252L617.826 249.35C617.686 249.1 617.586 249 617.586 249V248.98C618.336 248.68 618.786 247.89 618.786 247.04C618.786 246.1 618.336 245.42 617.626 245.1C617.316 244.96 616.966 244.9 616.196 244.9L613.906 244.9L613.906 252ZM615.196 248.23L615.196 246.01L616.176 246.01C617.186 246.01 617.476 246.43 617.476 247.11C617.476 247.82 617.046 248.23 616.356 248.23L615.196 248.23ZM619.879 249.45C619.879 250.9 620.929 252.12 622.619 252.12C623.889 252.12 624.669 251.39 624.669 251.39L624.179 250.48C624.179 250.48 623.529 251.04 622.709 251.04C621.949 251.04 621.259 250.58 621.179 249.69L624.699 249.69C624.699 249.69 624.729 249.35 624.729 249.2C624.729 247.85 623.939 246.78 622.469 246.78C620.949 246.78 619.879 247.88 619.879 249.45ZM621.219 248.82C621.339 248.16 621.789 247.76 622.439 247.76C622.999 247.76 623.429 248.13 623.449 248.82L621.219 248.82ZM625.406 249.45C625.406 250.93 626.486 252.12 628.176 252.12C629.546 252.12 630.276 251.29 630.276 251.29L629.786 250.39C629.786 250.39 629.146 251.04 628.286 251.04C627.316 251.04 626.696 250.3 626.696 249.44C626.696 248.57 627.306 247.86 628.246 247.86C629.046 247.86 629.576 248.41 629.576 248.41L630.136 247.54C630.136 247.54 629.506 246.78 628.176 246.78C626.486 246.78 625.406 248 625.406 249.45ZM630.865 249.45C630.865 250.9 631.915 252.12 633.605 252.12C634.875 252.12 635.655 251.39 635.655 251.39L635.165 250.48C635.165 250.48 634.515 251.04 633.695 251.04C632.935 251.04 632.245 250.58 632.165 249.69L635.685 249.69C635.685 249.69 635.715 249.35 635.715 249.2C635.715 247.85 634.925 246.78 633.455 246.78C631.935 246.78 630.865 247.88 630.865 249.45ZM632.205 248.82C632.325 248.16 632.775 247.76 633.425 247.76C633.985 247.76 634.415 248.13 634.435 248.82L632.205 248.82ZM636.763 254H638.033V251.86C638.033 251.6 638.013 251.42 638.013 251.42H638.033C638.033 251.42 638.483 252.12 639.493 252.12C640.833 252.12 641.823 251.07 641.823 249.45C641.823 247.87 640.943 246.78 639.563 246.78C638.363 246.78 637.923 247.62 637.923 247.62H637.903C637.903 247.62 637.923 247.46 637.923 247.27L637.923 246.9H636.763L636.763 254ZM637.993 249.48C637.993 248.35 638.613 247.87 639.273 247.87C640.023 247.87 640.543 248.5 640.543 249.47C640.543 250.48 639.963 251.05 639.263 251.05C638.423 251.05 637.993 250.27 637.993 249.48ZM643.096 250.13C643.096 251.84 644.506 252.05 645.216 252.05C645.456 252.05 645.606 252.02 645.606 252.02V250.91C645.606 250.91 645.516 250.93 645.376 250.93C645.026 250.93 644.366 250.81 644.366 249.97V247.99H645.526L645.526 246.98H644.366V245.51L643.126 245.51V246.98H642.436L642.436 247.99H643.096V250.13ZM646.645 246.03H647.905V244.9H646.645V246.03ZM646.645 252H647.915L647.915 246.9H646.645L646.645 252ZM648.931 249.45C648.931 251.02 650.181 252.12 651.741 252.12C653.291 252.12 654.541 251.02 654.541 249.45C654.541 247.89 653.291 246.78 651.731 246.78C650.181 246.78 648.931 247.89 648.931 249.45ZM650.221 249.45C650.221 248.51 650.911 247.86 651.741 247.86C652.561 247.86 653.251 248.51 653.251 249.45C653.251 250.4 652.561 251.04 651.741 251.04C650.911 251.04 650.221 250.4 650.221 249.45ZM655.561 252L656.831 252V249.66C656.831 249.42 656.851 249.19 656.921 248.98C657.111 248.37 657.611 247.94 658.291 247.94C658.941 247.94 659.101 248.36 659.101 248.98V252L660.361 252V248.72C660.361 247.37 659.721 246.78 658.591 246.78C657.561 246.78 657.001 247.41 656.781 247.84H656.761C656.761 247.84 656.781 247.68 656.781 247.49L656.781 246.9L655.561 246.9L655.561 252Z" fill="#00355F"/>
<path d="M677.981 236L682.321 236L682.321 234.89H680.781V228.9H679.651L677.871 230.61L678.631 231.41L679.201 230.87C679.431 230.64 679.511 230.47 679.511 230.47H679.531C679.531 230.47 679.521 230.71 679.521 230.95V234.89L677.981 234.89L677.981 236Z" fill="#00355F"/>
<path d="M709.66 236L714.37 236L714.37 234.89L711.05 234.89C711.08 233.55 714.26 233.16 714.26 230.88C714.26 229.54 713.2 228.78 711.95 228.78C710.25 228.78 709.6 230.2 709.6 230.2L710.56 230.84C710.56 230.84 711.01 230 711.84 230C712.44 230 712.92 230.37 712.92 230.99C712.92 232.4 709.6 232.81 709.6 235.37C709.6 235.57 709.63 235.77 709.66 236Z" fill="#00355F"/>
<path d="M745.479 235.17C745.479 235.17 746.319 236.12 747.829 236.12C749.409 236.12 750.329 235 750.329 233.79C750.329 232.56 749.369 231.86 748.389 231.72L750.129 229.71V228.9L745.789 228.9V230.01L747.909 230.01C748.329 230.01 748.539 229.98 748.539 229.98V230C748.539 230 748.309 230.21 748.029 230.54L746.729 232.08L747.019 232.74L747.509 232.74C748.339 232.74 749.029 233.09 749.029 233.84C749.029 234.45 748.489 234.9 747.749 234.9C746.809 234.9 746.139 234.18 746.139 234.18L745.479 235.17Z" fill="#00355F"/>
<path d="M786.675 234.17L789.995 234.17L789.995 236H791.265L791.265 234.17L792.185 234.17V233.1L791.265 233.1V228.9H789.735L786.675 233.38V234.17ZM788.035 233.1V233.08L789.675 230.81C789.865 230.54 790.025 230.16 790.025 230.16H790.045C790.045 230.16 789.995 230.55 789.995 230.9V233.1L788.035 233.1Z" fill="#00355F"/>
<path d="M832.583 189.16C832.583 189.16 833.353 190.12 834.853 190.12C836.333 190.12 837.413 189.08 837.413 187.68C837.413 186.4 836.483 185.35 834.913 185.35C834.483 185.35 834.153 185.51 834.153 185.51H834.133C834.133 185.51 834.163 185.37 834.183 185.18L834.293 184.01H836.913V182.9L833.183 182.9L832.853 186.5L833.563 186.76C833.563 186.76 834.033 186.46 834.663 186.46C835.473 186.46 836.093 186.95 836.093 187.69C836.093 188.44 835.443 188.9 834.753 188.9C833.833 188.9 833.243 188.19 833.243 188.19L832.583 189.16Z" fill="#00355F"/>
<path d="M832.752 136.12C834.162 136.12 835.092 135.06 835.092 133.74C835.092 132.46 834.212 131.37 832.812 131.37C832.302 131.37 831.732 131.58 831.482 131.87H831.462C831.642 130.9 832.232 129.97 833.352 129.97C833.902 129.97 834.352 130.19 834.352 130.19L834.732 129.08C834.732 129.08 834.182 128.78 833.282 128.78C831.082 128.78 830.012 130.89 830.012 132.75C830.012 134.89 831.272 136.12 832.752 136.12ZM832.752 134.94C832.002 134.94 831.352 134.09 831.352 133.2C831.352 132.76 831.872 132.43 832.512 132.43C833.362 132.43 833.812 133.02 833.812 133.74C833.812 134.41 833.412 134.94 832.752 134.94Z" fill="#00355F"/>
<path d="M829.06 95L830.4 95L833.51 88.8V87.9L828.63 87.9V89.01L831.66 89.01C832.01 89.01 832.15 88.99 832.15 88.99V89.01C832.15 89.01 831.94 89.22 831.72 89.66L829.06 95Z" fill="#00355F"/>
<path d="M819.953 55.94C819.953 57.16 820.953 58.12 822.493 58.12C824.083 58.12 824.993 57.1 824.993 56.01C824.993 55.28 824.603 54.83 824.083 54.5C824.153 54.42 824.873 53.63 824.873 52.75C824.873 51.52 823.893 50.78 822.573 50.78C821.013 50.78 820.293 51.74 820.293 52.72C820.293 53.35 820.593 53.78 821.023 54.11C820.803 54.26 819.953 54.93 819.953 55.94ZM823.683 55.95C823.683 56.58 823.153 56.98 822.493 56.98C821.843 56.98 821.273 56.51 821.273 55.84C821.273 55.25 821.703 54.83 821.933 54.64C822.793 55.05 823.683 55.33 823.683 55.95ZM821.563 52.75C821.563 52.29 821.903 51.93 822.553 51.93C823.193 51.93 823.613 52.28 823.613 52.83C823.613 53.45 823.233 53.92 823.133 54.03C822.323 53.68 821.563 53.4 821.563 52.75Z" fill="#00355F"/>
<path d="M775.722 58.12C777.922 58.12 778.992 56.01 778.992 54.15C778.992 52.01 777.732 50.78 776.252 50.78C774.842 50.78 773.912 51.85 773.912 53.16C773.912 54.44 774.782 55.54 776.182 55.54C776.692 55.54 777.272 55.33 777.522 55.04H777.542C777.362 56.01 776.762 56.94 775.642 56.94C775.102 56.94 774.652 56.71 774.652 56.71L774.272 57.82C774.272 57.82 774.822 58.12 775.722 58.12ZM776.492 54.48C775.632 54.48 775.182 53.88 775.182 53.16C775.182 52.49 775.592 51.97 776.252 51.97C776.992 51.97 777.652 52.82 777.652 53.71C777.652 54.14 777.132 54.48 776.492 54.48Z" fill="#00355F"/>
<path d="M729.837 58H734.177V56.89H732.637V50.9H731.507L729.727 52.61L730.487 53.41L731.057 52.87C731.287 52.64 731.367 52.47 731.367 52.47H731.387C731.387 52.47 731.377 52.71 731.377 52.95V56.89H729.837V58ZM737.554 58.12C739.494 58.12 740.134 56.48 740.134 54.44C740.134 52.4 739.494 50.78 737.554 50.78C735.614 50.78 734.984 52.4 734.984 54.44C734.984 56.48 735.614 58.12 737.554 58.12ZM737.554 56.94C736.584 56.94 736.304 55.84 736.304 54.44C736.304 53.06 736.584 51.97 737.554 51.97C738.524 51.97 738.804 53.06 738.804 54.44C738.804 55.84 738.524 56.94 737.554 56.94Z" fill="#00355F"/>
<path d="M697.923 58H702.263V56.89H700.723V50.9H699.593L697.813 52.61L698.573 53.41L699.143 52.87C699.373 52.64 699.453 52.47 699.453 52.47H699.473C699.473 52.47 699.463 52.71 699.463 52.95V56.89H697.923V58ZM703.04 58H707.38V56.89H705.84V50.9H704.71L702.93 52.61L703.69 53.41L704.26 52.87C704.49 52.64 704.57 52.47 704.57 52.47H704.59C704.59 52.47 704.58 52.71 704.58 52.95V56.89H703.04V58Z" fill="#00355F"/>
<rect x="821.652" y="219" width="12.6961" height="12.6961" rx="4.23203" fill="#00355F"/>
<path d="M825.637 226.31H828.17V227.71H828.888V226.31H829.599V225.688H828.888V222.481H828.051L825.637 225.851V226.31ZM826.444 225.688V225.673L827.925 223.696C828.066 223.511 828.185 223.266 828.185 223.266H828.199C828.199 223.266 828.17 223.54 828.17 223.785V225.688H826.444Z" fill="white"/>
<path d="M819.489 243.696H820.553L818.553 238.016H817.473L815.473 243.696H816.537L817.017 242.24H819.009L819.489 243.696ZM818.025 239C818.025 239 818.145 239.56 818.249 239.88L818.753 241.4H817.265L817.769 239.88C817.881 239.56 818.009 239 818.009 239H818.025ZM821.119 243.696H822.135V242.08C822.135 241.84 822.159 241.616 822.223 241.416C822.415 240.808 822.903 240.56 823.335 240.56C823.471 240.56 823.575 240.576 823.575 240.576V239.576C823.575 239.576 823.487 239.56 823.391 239.56C822.767 239.56 822.279 240.024 822.095 240.608H822.079C822.079 240.608 822.095 240.472 822.095 240.32V239.616H821.119V243.696ZM823.963 241.656C823.963 242.84 824.827 243.792 826.179 243.792C827.275 243.792 827.859 243.128 827.859 243.128L827.467 242.408C827.467 242.408 826.955 242.928 826.267 242.928C825.491 242.928 824.995 242.336 824.995 241.648C824.995 240.952 825.483 240.384 826.235 240.384C826.875 240.384 827.299 240.824 827.299 240.824L827.747 240.128C827.747 240.128 827.243 239.52 826.179 239.52C824.827 239.52 823.963 240.496 823.963 241.656ZM828.619 243.696H829.635V241.824C829.635 241.632 829.651 241.456 829.699 241.296C829.851 240.8 830.267 240.448 830.803 240.448C831.323 240.448 831.451 240.784 831.451 241.28V243.696H832.459V241.072C832.459 239.992 831.947 239.52 831.043 239.52C830.331 239.52 829.835 239.936 829.635 240.328H829.619C829.619 240.328 829.635 240.184 829.635 239.984V238.016H828.619V243.696ZM833.237 241.656C833.237 242.816 834.077 243.792 835.429 243.792C836.445 243.792 837.069 243.208 837.069 243.208L836.677 242.48C836.677 242.48 836.157 242.928 835.501 242.928C834.893 242.928 834.341 242.56 834.277 241.848H837.093C837.093 241.848 837.117 241.576 837.117 241.456C837.117 240.376 836.485 239.52 835.309 239.52C834.093 239.52 833.237 240.4 833.237 241.656ZM834.309 241.152C834.405 240.624 834.765 240.304 835.285 240.304C835.733 240.304 836.077 240.6 836.093 241.152H834.309ZM837.955 243.696H838.971V242.08C838.971 241.84 838.995 241.616 839.059 241.416C839.251 240.808 839.739 240.56 840.171 240.56C840.307 240.56 840.411 240.576 840.411 240.576V239.576C840.411 239.576 840.323 239.56 840.227 239.56C839.603 239.56 839.115 240.024 838.931 240.608H838.915C838.915 240.608 838.931 240.472 838.931 240.32V239.616H837.955V243.696Z" fill="#00355F"/>
<rect x="702.652" y="131" width="12.6961" height="12.6961" rx="4.23203" fill="#00355F"/>
<path d="M706.848 139.088C706.848 139.088 707.478 139.799 708.544 139.799C709.618 139.799 710.322 139.014 710.322 138.118C710.322 137.103 709.477 136.659 708.789 136.585L710.211 134.948V134.481H707.085V135.118H708.855C709.144 135.118 709.3 135.096 709.3 135.096V135.111C709.3 135.111 709.144 135.252 708.974 135.451L707.833 136.792L708.004 137.184H708.366C709.011 137.184 709.581 137.503 709.581 138.147C709.581 138.71 709.1 139.103 708.515 139.103C707.759 139.103 707.248 138.532 707.248 138.532L706.848 139.088Z" fill="white"/>
<path d="M695.487 155.016C695.487 155.016 696.183 155.792 697.447 155.792C698.631 155.792 699.319 155.032 699.319 154.128C699.319 152.312 696.647 152.56 696.647 151.552C696.647 151.152 697.023 150.872 697.503 150.872C698.215 150.872 698.759 151.368 698.759 151.368L699.207 150.528C699.207 150.528 698.631 149.92 697.511 149.92C696.423 149.92 695.607 150.624 695.607 151.568C695.607 153.312 698.287 153.136 698.287 154.152C698.287 154.616 697.895 154.84 697.463 154.84C696.663 154.84 696.047 154.24 696.047 154.24L695.487 155.016ZM699.845 154.52C699.845 155.336 700.501 155.792 701.229 155.792C702.157 155.792 702.477 155.072 702.469 155.072H702.485C702.485 155.072 702.469 155.2 702.469 155.36V155.696H703.405V153.144C703.405 152.112 702.781 151.52 701.709 151.52C700.741 151.52 700.109 152.024 700.109 152.024L700.493 152.752C700.493 152.752 701.029 152.36 701.613 152.36C702.061 152.36 702.397 152.544 702.397 153.08V153.136H702.261C701.597 153.136 699.845 153.224 699.845 154.52ZM700.869 154.472C700.869 153.904 701.709 153.832 702.229 153.832H702.405V153.928C702.405 154.424 702.021 155 701.485 155C701.069 155 700.869 154.744 700.869 154.472ZM704.462 155.696H705.478V153.904C705.478 153.72 705.486 153.536 705.526 153.384C705.654 152.864 705.998 152.448 706.526 152.448C707.006 152.448 707.078 152.824 707.078 153.264V155.696H708.094V153.904C708.094 153.712 708.102 153.536 708.142 153.376C708.262 152.864 708.606 152.448 709.126 152.448C709.598 152.448 709.686 152.8 709.686 153.264V155.696H710.702V153.072C710.702 152 710.214 151.52 709.366 151.52C708.726 151.52 708.198 151.92 707.974 152.36H707.958C707.79 151.808 707.39 151.52 706.766 151.52C706.126 151.52 705.638 151.968 705.438 152.368H705.422C705.422 152.368 705.438 152.24 705.438 152.088V151.616H704.462V155.696ZM711.767 157.296H712.783V155.584C712.783 155.376 712.767 155.232 712.767 155.232H712.783C712.783 155.232 713.143 155.792 713.951 155.792C715.023 155.792 715.815 154.952 715.815 153.656C715.815 152.392 715.111 151.52 714.007 151.52C713.047 151.52 712.695 152.192 712.695 152.192H712.679C712.679 152.192 712.695 152.064 712.695 151.912V151.616H711.767V157.296ZM712.751 153.68C712.751 152.776 713.247 152.392 713.775 152.392C714.375 152.392 714.791 152.896 714.791 153.672C714.791 154.48 714.327 154.936 713.767 154.936C713.095 154.936 712.751 154.312 712.751 153.68ZM716.602 154.424C716.602 155.592 717.298 155.736 717.858 155.736C718.026 155.736 718.178 155.712 718.178 155.712V154.824C718.178 154.824 718.106 154.832 718.026 154.832C717.762 154.832 717.61 154.72 717.61 154.272V150.016H716.602V154.424ZM718.643 153.656C718.643 154.816 719.483 155.792 720.835 155.792C721.851 155.792 722.475 155.208 722.475 155.208L722.083 154.48C722.083 154.48 721.563 154.928 720.907 154.928C720.299 154.928 719.747 154.56 719.683 153.848H722.499C722.499 153.848 722.523 153.576 722.523 153.456C722.523 152.376 721.891 151.52 720.715 151.52C719.499 151.52 718.643 152.4 718.643 153.656ZM719.715 153.152C719.811 152.624 720.171 152.304 720.691 152.304C721.139 152.304 721.483 152.6 721.499 153.152H719.715ZM698.454 165.696H699.486V163.576H700.478L701.606 165.696H702.758L701.59 163.576C701.478 163.376 701.398 163.296 701.398 163.296V163.28C701.998 163.04 702.358 162.408 702.358 161.728C702.358 160.976 701.998 160.432 701.43 160.176C701.182 160.064 700.902 160.016 700.286 160.016H698.454V165.696ZM699.486 162.68V160.904H700.27C701.078 160.904 701.31 161.24 701.31 161.784C701.31 162.352 700.966 162.68 700.414 162.68H699.486ZM703.217 163.656C703.217 164.912 704.217 165.792 705.465 165.792C706.705 165.792 707.705 164.912 707.705 163.656C707.705 162.408 706.705 161.52 705.457 161.52C704.217 161.52 703.217 162.408 703.217 163.656ZM704.249 163.656C704.249 162.904 704.801 162.384 705.465 162.384C706.121 162.384 706.673 162.904 706.673 163.656C706.673 164.416 706.121 164.928 705.465 164.928C704.801 164.928 704.249 164.416 704.249 163.656ZM708.217 163.656C708.217 164.912 709.217 165.792 710.465 165.792C711.705 165.792 712.705 164.912 712.705 163.656C712.705 162.408 711.705 161.52 710.457 161.52C709.217 161.52 708.217 162.408 708.217 163.656ZM709.249 163.656C709.249 162.904 709.801 162.384 710.465 162.384C711.121 162.384 711.673 162.904 711.673 163.656C711.673 164.416 711.121 164.928 710.465 164.928C709.801 164.928 709.249 164.416 709.249 163.656ZM713.521 165.696H714.537V163.904C714.537 163.72 714.545 163.536 714.585 163.384C714.713 162.864 715.057 162.448 715.585 162.448C716.065 162.448 716.137 162.824 716.137 163.264V165.696H717.153V163.904C717.153 163.712 717.161 163.536 717.201 163.376C717.321 162.864 717.665 162.448 718.185 162.448C718.657 162.448 718.745 162.8 718.745 163.264V165.696H719.761V163.072C719.761 162 719.273 161.52 718.425 161.52C717.785 161.52 717.257 161.92 717.033 162.36H717.017C716.849 161.808 716.449 161.52 715.825 161.52C715.185 161.52 714.697 161.968 714.497 162.368H714.481C714.481 162.368 714.497 162.24 714.497 162.088V161.616H713.521V165.696Z" fill="#00355F"/>
</svg>
