<svg width="800" height="420" viewBox="0 0 822 697" fill="none" xmlns="http://www.w3.org/2000/svg">
<path d="M271.5 696L343.477 696C344.59 696 345.49 695.09 345.477 693.977L345.01 653.352C345.004 652.808 345.219 652.284 345.608 651.903L374.5 623.5M263 696L180 696M163.5 696L60 696M51 696L2.5 696C1.39543 696 0.5 695.105 0.5 694L0.5 602M0.5 594L0.5 481C0.5 479.895 1.39543 479 2.5 479L51.5 479M59.5 479L213.5 479M221.5 479L284.662 479C285.198 479 285.712 478.785 286.088 478.403L317.5 446.5M329 435L358.414 405.586C358.789 405.211 359 404.702 359 404.172L359 317M359 308.5L359 296.5M359 288L359 238.5C359 237.395 359.895 236.5 361 236.5L401.672 236.5C402.202 236.5 402.711 236.289 403.086 235.914L430.5 208.5M437 202L443.5 195M450 190L476.942 162.079C477.3 161.707 477.501 161.212 477.503 160.696L477.994 2.99376C477.997 1.89163 478.892 1 479.994 1L529.5 1M538 1L550 1M558.5 1L641 1M658.5 1L740.5 1M749 1L761 1M770.5 1L819.49 1C820.598 1 821.496 1.90151 821.49 3.00995L821 101.5M821 116.5L821 215.5C821 216.605 820.105 217.5 819 217.5L770 217.5M761.5 217.5L749 217.5M741 217.5L651.867 217.5C651.314 217.5 650.785 217.729 650.407 218.133L621.5 249M610 260.5L578.586 291.914C578.211 292.289 578 292.798 578 293.328L578 499.5M578 508.5V520.5M578 528.5L578 578.983C578 580.094 577.094 580.992 575.983 580.983L518.5 580.5M510 580.5L462.5 580.5M455 580.5L418.319 580.5C417.794 580.5 417.29 580.706 416.916 581.074L386.5 611" stroke="#95A7B8"/>
<path d="M820 1H480.494C479.392 1 478.497 1.89163 478.494 2.99376L478.003 160.696C478.001 161.212 477.8 161.707 477.441 162.079L465.365 174.586C464.607 175.371 464.618 176.618 465.39 177.39L469.914 181.914C470.289 182.289 470.798 182.5 471.328 182.5H563.5C564.605 182.5 565.5 181.605 565.5 180.5V161C565.5 159.895 566.395 159 567.5 159H590C591.105 159 592 158.105 592 157V85C592 83.8954 592.895 83 594 83H639.5C640.605 83 641.5 82.1046 641.5 81V47.5C641.5 46.3954 642.395 45.5 643.5 45.5H656.5C657.605 45.5 658.5 46.3954 658.5 47.5V82.4213C658.5 82.7993 658.607 83.165 658.799 83.4908C660.872 87.0111 664.5 95.4765 664.5 105C664.5 114.524 660.872 122.989 658.799 126.509C658.607 126.835 658.5 127.201 658.5 127.579V157C658.5 158.105 659.395 159 660.5 159H698.722C699.826 159 700.722 158.105 700.722 157V47.5C700.722 46.3954 701.617 45.5 702.722 45.5H769.5C770.605 45.5 771.5 44.6046 771.5 43.5V42.7198C771.5 41.6152 772.395 40.7198 773.5 40.7198H781C782.105 40.7198 783 41.6152 783 42.7198V74.5C783 75.6046 783.895 76.5 785 76.5H788C789.105 76.5 790 77.3954 790 78.5V122.5C790 123.605 790.895 124.5 792 124.5H793.5C794.605 124.5 795.5 125.395 795.5 126.5V177C795.5 178.105 794.605 179 793.5 179H623C621.895 179 621 179.895 621 181V186.191C621 186.71 621.202 187.209 621.563 187.582L650.41 217.391C650.787 217.78 651.306 218 651.848 218H820C821.105 218 822 217.105 822 216V3C822 1.89543 821.105 1 820 1Z" fill="#FEEF99"/>
<path d="M530 580.5L575.5 580.5C576.605 580.5 577.5 579.604 577.5 578.5L577.5 293.304C577.5 292.788 577.699 292.292 578.056 291.92L587.616 281.944C588.38 281.146 588.354 279.88 587.556 279.116L565.616 258.091C565.223 257.713 565 257.192 565 256.647L565 228.5C565 227.395 564.105 226.5 563 226.5L447.834 226.5C447.3 226.5 446.789 226.713 446.413 227.092L429.079 244.583C428.708 244.958 428.5 245.464 428.5 245.991L428.5 362.5C428.5 363.604 429.395 364.5 430.5 364.5L466 364.5C467.105 364.5 468 365.395 468 366.5L468 381.5C468 382.604 468.895 383.5 470 383.5L474 383.5C475.105 383.5 476 384.395 476 385.5L476 400C476 401.104 475.105 402 474 402L438 402C436.895 402 436 402.895 436 404L436 424.5C436 425.604 436.895 426.5 438 426.5L474 426.5C475.105 426.5 476 427.395 476 428.5L476 531C476 532.104 476.895 533 478 533L526 533C527.105 533 528 533.895 528 535L528 578.5C528 579.604 528.895 580.5 530 580.5Z" fill="#C8E9FF"/>
<path d="M3.00399 558.5L46.2729 558.5L62.2729 558.5C63.3775 558.5 64.2729 559.395 64.2729 560.5L64.2729 587C64.2729 587.552 64.7207 588 65.2729 588L203.273 588C204.378 588 205.273 588.895 205.273 590L205.273 627C205.273 628.105 206.168 629 207.273 629L229.227 629C230.332 629 231.227 629.895 231.227 631C231.227 632.105 232.122 633 233.227 633L329.273 633C330.93 633 332.273 634.343 332.273 636V640.194C332.273 640.711 332.473 641.208 332.832 641.581L344.714 653.919C345.072 654.292 345.273 654.789 345.273 655.306L345.273 693.5C345.273 694.605 344.378 695.5 343.273 695.5L3.26897 695.5C2.16595 695.5 1.27117 694.607 1.26897 693.504L1.00399 560.504C1.00179 559.398 1.89786 558.5 3.00399 558.5Z" fill="#E0F1F1"/>
<path d="M462.5 533L421 533C419.895 533 419 532.105 419 531L419 473.5C419 472.395 418.105 471.5 417 471.5L373.5 471.5C372.395 471.5 371.5 472.395 371.5 473.5C371.5 474.605 370.605 475.5 369.5 475.5L351.5 475.5L290.328 475.5C289.798 475.5 289.289 475.711 288.914 476.086L286.086 478.914C285.711 479.289 285.202 479.5 284.672 479.5L2 479.5C1.44772 479.5 1 479.948 1 480.5L1 555.5C1 556.605 1.89543 557.5 3 557.5L63 557.5C64.1046 557.5 65 558.395 65 559.5L65 585C65 586.105 65.8954 587 67 587L203 587C204.105 587 205 586.105 205 585L205 562.5C205 561.395 205.895 560.5 207 560.5L324.5 560.5C325.605 560.5 326.5 561.395 326.5 562.5L326.5 587C326.5 588.105 327.395 589 328.5 589L331 589C332.105 589 333 589.895 333 591L333 639.672C333 640.202 333.211 640.711 333.586 641.086L343.591 651.091C344.37 651.87 345.632 651.872 346.414 651.096L416.915 581.081C417.29 580.709 417.796 580.5 418.324 580.5L462.5 580.5C463.605 580.5 464.5 579.605 464.5 578.5L464.5 535C464.5 533.895 463.605 533 462.5 533Z" fill="#F7C687"/>
<path d="M0.5 557.5L44 557.5C45.1046 557.5 46 558.395 46 559.5L46 594M46 601.5L46 602.5C46 603.605 45.1046 604.5 44 604.5L0.5 604.5M96.5 557.5L67 557.5C65.8954 557.5 65 558.395 65 559.5L65 587M104.5 557.5H107.5M137 557.5L107.5 557.5M145.5 557.5H148.5M166 557.5H148.5M173.5 557.5H176M194.5 557.5L176 557.5M202 557.5H203C204.105 557.5 205 558.395 205 559.5V560.5M209.5 629L207 629C205.895 629 205 628.105 205 627L205 615M216.5 629H229C230.105 629 231 628.105 231 627L231 587M231 582V587M231 565.5L231 562.5C231 561.395 230.105 560.5 229 560.5H220M218 560.5H220M210.5 560.5L205 560.5M205 560.5L205 615M220 560.5L220 587M220 587H231M220 587L176 587M65 587L65 613C65 614.105 65.8954 615 67 615L93 615M65 587L104.5 587M102 615H104.5M107 615H104.5M114.5 615L148.5 615M151.5 615H148.5M160 615L205 615M148.5 587L148.5 615M148.5 587L104.5 587M148.5 587L148.5 557.5M148.5 587H176M104.5 587L104.5 615M107.5 586L107.5 557.5M176 557.5L176 587M244.5 565.5L244.5 562.5C244.5 561.395 245.395 560.5 246.5 560.5L299.5 560.5M309 560.5L299.5 560.5M299.5 560.5L299.5 589M299.5 633L246.5 633C245.395 633 244.5 632.105 244.5 631L244.5 626M299.5 633L299.5 589M299.5 633L333 633M244.5 619.5V616.5M244.5 613.5V616.5M244.5 607L244.5 589M244.5 571L244.5 589M244.5 589L299.5 589M244.5 616.5L317.5 616.5M325 616.5H333M333 633L333 589M333 633V639.672C333 640.202 333.211 640.711 333.586 641.086L345.5 653M333 589H328.5C327.395 589 326.5 588.105 326.5 587L326.5 577M333 589L375 589C376.105 589 377 588.105 377 587L377 580.5M326.5 560.5H322M326.5 560.5L366 560.5M326.5 560.5L326.5 577M374 560.5H375C376.105 560.5 377 561.395 377 562.5L377 580.5M326.5 577H322M377 580.5L405.5 580.5M405.5 580.5L405.5 592M405.5 580.5L405.5 560.5M405.5 551.5V542.25M405.5 533L405.5 542.25M405.5 533L371.5 533M405.5 533H419M405.5 542.25L396 542.25M371.5 533L371.5 540.25C371.5 541.355 372.395 542.25 373.5 542.25H380M371.5 533V529.5M371.5 522.5L371.5 473.5C371.5 472.395 372.395 471.5 373.5 471.5L417 471.5C418.105 471.5 419 472.395 419 473.5L419 510M419 533L461.5 533M419 533L419 510M528 580L528 541M528 541V535C528 533.895 527.105 533 526 533H521.5M528 541L569.5 541M464.5 533L464.5 580.5M464.5 533H461.5M464.5 533L476 533M461.5 533V529.5M461.5 522.5L461.5 510M461.5 510L476 510M461.5 510L436 510M430 510H436M476 510L476 533M476 510L476 500M476 533L521.5 533M476 402L438 402C436.895 402 436 402.895 436 404L436 416.5M476 402L519.5 402C520.605 402 521.5 402.895 521.5 404V425M476 402L476 426.5M436 424L436 426.5M436 429V426.5M436 436L436 471.5M436 500L436 471.5M436 506.5V510M423 510H419M521.5 433V434.25M521.5 457V434.25M521.5 464.5L521.5 466.5M521.5 490.5V466.5M521.5 497V498C521.5 499.105 520.605 500 519.5 500L476 500M476 500L476 471.5M476 466.5L521.5 466.5M476 466.5L476 434.25M476 466.5V471.5M476 434.25L521.5 434.25M476 434.25V426.5M476 426.5L436 426.5M476 471.5L436 471.5M521.5 533L521.5 513M339 425.5L342.5 429M347.5 434L349.414 435.914C349.789 436.289 350 436.798 350 437.328L350 451C350 452.105 350.895 453 352 453L417 453C418.105 453 419 452.105 419 451L419 385.5C419 384.395 419.895 383.5 421 383.5H421.5M440 383.5H436M447 383.5L468 383.5M523 383.5L468 383.5M468 383.5L468 366.5C468 365.395 467.105 364.5 466 364.5L436 364.5M421.5 364.5V362M421.5 364.5V368.5M421.5 364.5L428.75 364.5M421.5 375.5L421.5 383.5M421.5 383.5L436 383.5M436 364.5L436 383.5M436 364.5H428.75M421.5 355V351.5M421.5 351.5L428.5 351.5M421.5 351.5L393.5 351.5C392.395 351.5 391.5 352.395 391.5 353.5V356.5M428.5 351.5L428.75 364.5M428.5 351.5L428.5 245.828C428.5 245.298 428.711 244.789 429.086 244.414L446.414 227.086C446.789 226.711 447.298 226.5 447.828 226.5L542.5 226.5C543.605 226.5 544.5 227.395 544.5 228.5L544.5 249.636C544.5 250.187 544.272 250.714 543.871 251.092L536 258.5M391.5 356.5L391.5 406.5C391.5 407.605 390.605 408.5 389.5 408.5H385.5C384.395 408.5 383.5 407.605 383.5 406.5L383.5 358.5C383.5 357.395 384.395 356.5 385.5 356.5H391.5ZM549.5 272.5L565 257.5M565 257.5L565 228.5C565 227.395 565.895 226.5 567 226.5H571C572.105 226.5 573 227.395 573 228.5L573 265M565 257.5L573 265M573 265L584 275.656M589 280.5L584 275.656M584 275.656L593 275.656M584 275.656L584 228.5C584 227.395 584.895 226.5 586 226.5L591 226.5C592.105 226.5 593 227.395 593 228.5L593 275.656M594.5 275.656H593M351.5 466.5L351.5 475.5M351.5 529.5L351.5 475.5M351.5 538.5V540.25C351.5 541.355 350.605 542.25 349.5 542.25L305 542.25C303.895 542.25 303 541.355 303 540.25L303 475.5M303 475.5L289 475.5M303 475.5L351.5 475.5M285.5 479L285.5 542.25M463.5 176L469.414 181.914C469.789 182.289 470.298 182.5 470.828 182.5L544.5 182.5M565 170L565 180.5C565 181.605 565.895 182.5 567 182.5L589 182.5M603.5 170L603.5 180.5C603.5 181.605 602.605 182.5 601.5 182.5L589 182.5M603.5 162.5V159M603.5 159L591.5 159M603.5 159L622.5 159M565 159V156.5M565 159V162.5M565 159L589 159M565 148.5L565 121M565 92.5L565 121M565 85V85C565 83.8954 565.895 83 567 83L591.5 83M628 83L591.5 83M591.5 83L591.5 121M591.5 159L591.5 121M591.5 159H589M591.5 121L565 121M589 159L589 182.5M637.5 159H639C640.105 159 641 158.105 641 157L641 127.579C641 127.201 640.893 126.835 640.701 126.509C638.628 122.989 635 114.524 635 105C635 95 639 86.1667 641 83M641 83L635 83M641 83L641 50M658 59.5V63M662 159L660 159C658.895 159 658 158.105 658 157L658 127.579C658 127.201 658.107 126.835 658.299 126.509C660.372 122.989 664 114.524 664 105C664 95.4765 660.372 87.0111 658.299 83.4908C658.107 83.165 658 82.7993 658 82.4213L658 63M668.5 159L698.5 159C699.605 159 700.5 158.105 700.5 157L700.5 65C700.5 63.8954 699.605 63 698.5 63L669.5 63M662 63L658 63M641 1L641 25M658 0.5L658 43.5C658 44.6046 658.895 45.5 660 45.5L681 45.5M688 45.5L690 45.5M692.5 45.5L690 45.5M700.5 45.5L728 45.5M760.5 45.5L728 45.5M768 45.5H769C770.105 45.5 771 44.6046 771 43.5L771 1M728 1L728 45.5M690 1L690 45.5M821.5 40.5L784.5 40.5C783.395 40.5 782.5 41.3954 782.5 42.5L782.5 65M782.5 73.5V74.5C782.5 75.6046 783.395 76.5 784.5 76.5L789.5 76.5M821.5 76.5L789.5 76.5M789.5 76.5V80M789.5 86.5V89M789.5 124.5L789.5 89M789.5 89L778.5 89M771 89L759.5 89M759.5 89L759.5 65M759.5 89V109.5M759.5 60V65M759.5 160V154M759.5 124.5L795 124.5M759.5 124.5L759.5 148.5M759.5 124.5L759.5 109.5M821.5 124.5L795 124.5M795 124.5L795 148.5M795 169.5V148.5M795 148.5L771 148.5M762.5 148.5H759.5M759.5 148.5V154M795 175.5L795 179M795 179H792M795 179L821.5 179M786 179H782.75M779.5 179L782.75 179M782.75 179L782.75 218.5M741 218.5L741 179M741 179L773 179M741 179L737.5 179M730.5 179L702.5 179M700.5 179H702.5M702.5 179L702.5 218.5M694 179L668.5 179M665 179L668.5 179M668.5 179L668.5 216C668.5 217.105 667.605 218 666.5 218L651.348 218C650.806 218 650.287 217.78 649.91 217.391L621.063 187.582C620.702 187.209 620.5 186.71 620.5 186.191V181C620.5 179.895 621.395 179 622.5 179L658 179M759.5 65L715.5 65M715.5 65V60M715.5 65L715.5 81C715.5 82.1046 716.395 83 717.5 83L720.5 83M727 83H728.5C729.605 83 730.5 83.8954 730.5 85V102.5M725.5 138H728.5C729.605 138 730.5 137.105 730.5 136V118M718 138H717.5C716.395 138 715.5 138.895 715.5 140L715.5 154M715.5 159V154M715.5 154L759.5 154M730.5 109.5L759.5 109.5M730.5 109.5V102.5M730.5 109.5L730.5 118M730.5 102.5L717.5 102.5C716.395 102.5 715.5 103.395 715.5 104.5L715.5 116C715.5 117.105 716.395 118 717.5 118L730.5 118M399.5 427.5V429.5C399.5 430.605 398.605 431.5 397.5 431.5L373.5 431.5C372.395 431.5 371.5 430.605 371.5 429.5V427.5C371.5 426.395 372.395 425.5 373.5 425.5L397.5 425.5C398.605 425.5 399.5 426.395 399.5 427.5Z" stroke="#95A7B8"/>
<path d="M529.98 580.519L575.98 580.979C577.092 580.99 578 580.092 578 578.979L578 293.804C578 293.288 578.199 292.792 578.556 292.42L588.117 282.443C588.881 281.646 588.854 280.381 588.057 279.616L565.616 258.09C565.222 257.713 565 257.192 565 256.647L565 228.5C565 227.395 564.105 226.5 563 226.5L447.834 226.5C447.3 226.5 446.789 226.713 446.413 227.092L429.079 244.583C428.708 244.958 428.5 245.464 428.5 245.991L428.5 362.5C428.5 363.604 429.395 364.5 430.5 364.5L466 364.5C467.105 364.5 468 365.395 468 366.5L468 381.5C468 382.604 468.895 383.5 470 383.5L474 383.5C475.105 383.5 476 384.395 476 385.5L476 400C476 401.104 475.105 402 474 402L438 402C436.895 402 436 402.895 436 404L436 424.5C436 425.604 436.895 426.5 438 426.5L474 426.5C475.105 426.5 476 427.395 476 428.5L476 531C476 532.104 476.895 533 478 533L526 533C527.105 533 528 533.895 528 535L528 578.519C528 579.616 528.883 580.508 529.98 580.519Z" stroke="#80B8E6"/>
<path d="M2.50006 559L46.0001 559L62.0001 559C63.1047 559 64.0001 559.895 64.0001 561L64.0001 587C64.0001 587.552 64.4478 588 65.0001 588L203 588C204.105 588 205 588.895 205 590L205 627C205 628.105 205.896 629 207 629L228.954 629C230.059 629 230.954 629.9 230.954 631.005C230.954 632.106 231.843 633.004 232.944 633.01L329.51 633.49C330.611 633.496 331.5 634.389 331.5 635.49V639.768C331.5 640.557 331.811 641.315 332.366 641.876L344.923 654.59C345.293 654.964 345.5 655.469 345.5 655.995L345.5 694C345.5 695.105 344.605 696 343.5 696L2.5 696C1.39543 696 0.5 695.105 0.5 694L0.500059 561C0.50006 559.895 1.39549 559 2.50006 559Z" stroke="#00B1B0"/>
<path d="M463 533L421.5 533C420.395 533 419.5 532.105 419.5 531L419.5 473.5C419.5 472.395 418.605 471.5 417.5 471.5L374 471.5C372.895 471.5 372 472.395 372 473.5C372 474.605 371.105 475.5 370 475.5L352 475.5L290.328 475.5C289.798 475.5 289.289 475.711 288.914 476.086L286.586 478.414C286.211 478.789 285.702 479 285.172 479L3 479C1.89543 479 1 479.895 1 481L1 555.5C1 556.605 1.89543 557.5 3 557.5L63.5 557.5C64.6046 557.5 65.5 558.395 65.5 559.5L65.5 585C65.5 586.105 66.3954 587 67.5 587L203.5 587C204.605 587 205.5 586.105 205.5 585L205.5 562.5C205.5 561.395 206.395 560.5 207.5 560.5L325 560.5C326.105 560.5 327 561.395 327 562.5L327 587C327 588.105 327.895 589 329 589L331.5 589C332.605 589 333.5 589.895 333.5 591L333.5 639.672C333.5 640.202 333.711 640.711 334.086 641.086L344.091 651.091C344.87 651.87 346.132 651.872 346.914 651.096L417.415 581.081C417.79 580.709 418.296 580.5 418.824 580.5L463 580.5C464.105 580.5 465 579.605 465 578.5L465 535C465 533.895 464.105 533 463 533Z" stroke="#ED8B00" stroke-width="2"/>
<path d="M819.5 1H479.994C478.892 1 477.997 1.89163 477.994 2.99376L477.503 160.696C477.501 161.212 477.3 161.707 476.941 162.079L464.865 174.586C464.107 175.371 464.118 176.618 464.89 177.39L469.414 181.914C469.789 182.289 470.298 182.5 470.828 182.5H563C564.105 182.5 565 181.605 565 180.5V161C565 159.895 565.895 159 567 159H589.5C590.605 159 591.5 158.105 591.5 157V85C591.5 83.8954 592.395 83 593.5 83H639C640.105 83 641 82.1046 641 81V47.5C641 46.3954 641.895 45.5 643 45.5H656C657.105 45.5 658 46.3954 658 47.5V82.4213C658 82.7993 658.107 83.165 658.299 83.4908C660.372 87.0111 664 95.4765 664 105C664 114.524 660.372 122.989 658.299 126.509C658.107 126.835 658 127.201 658 127.579V157C658 158.105 658.895 159 660 159H698.222C699.326 159 700.222 158.105 700.222 157V47.5C700.222 46.3954 701.117 45.5 702.222 45.5H769C770.105 45.5 771 44.6046 771 43.5V42.7198C771 41.6152 771.895 40.7198 773 40.7198H780.5C781.605 40.7198 782.5 41.6152 782.5 42.7198V74.5C782.5 75.6046 783.395 76.5 784.5 76.5H787.5C788.605 76.5 789.5 77.3954 789.5 78.5V122.5C789.5 123.605 790.395 124.5 791.5 124.5H793C794.105 124.5 795 125.395 795 126.5V177C795 178.105 794.105 179 793 179H622.5C621.395 179 620.5 179.895 620.5 181V186.191C620.5 186.71 620.702 187.209 621.063 187.582L649.91 217.391C650.287 217.78 650.806 218 651.348 218H819.5C820.605 218 821.5 217.105 821.5 216V3C821.5 1.89543 820.605 1 819.5 1Z" stroke="#F7CA0F"/>
<path d="M14.5537 584H18.8937V582.89H17.3537V576.9H16.2237L14.4437 578.61L15.2037 579.41L15.7737 578.87C16.0037 578.64 16.0837 578.47 16.0837 578.47H16.1037C16.1037 578.47 16.0937 578.71 16.0937 578.95V582.89H14.5537V584ZM19.2546 582.17H22.5746V584H23.8446V582.17H24.7646V581.1H23.8446V576.9H22.3146L19.2546 581.38V582.17ZM20.6146 581.1V581.08L22.2546 578.81C22.4446 578.54 22.6046 578.16 22.6046 578.16H22.6246C22.6246 578.16 22.5746 578.55 22.5746 578.9V581.1H20.6146ZM25.7455 584H30.4555V582.89H27.1355C27.1655 581.55 30.3455 581.16 30.3455 578.88C30.3455 577.54 29.2855 576.78 28.0355 576.78C26.3355 576.78 25.6855 578.2 25.6855 578.2L26.6455 578.84C26.6455 578.84 27.0955 578 27.9255 578C28.5255 578 29.0055 578.37 29.0055 578.99C29.0055 580.4 25.6855 580.81 25.6855 583.37C25.6855 583.57 25.7155 583.77 25.7455 584Z" fill="#00355F"/>
<path d="M78.8974 575H83.2374V573.89H81.6974V567.9H80.5674L78.7874 569.61L79.5474 570.41L80.1174 569.87C80.3474 569.64 80.4274 569.47 80.4274 569.47H80.4474C80.4474 569.47 80.4374 569.71 80.4374 569.95V573.89H78.8974V575ZM83.5984 573.17H86.9184V575H88.1884V573.17H89.1084V572.1H88.1884V567.9H86.6584L83.5984 572.38V573.17ZM84.9584 572.1V572.08L86.5984 569.81C86.7884 569.54 86.9484 569.16 86.9484 569.16H86.9684C86.9684 569.16 86.9184 569.55 86.9184 569.9V572.1H84.9584ZM90.0393 572.94C90.0393 574.16 91.0393 575.12 92.5793 575.12C94.1693 575.12 95.0793 574.1 95.0793 573.01C95.0793 572.28 94.6893 571.83 94.1693 571.5C94.2393 571.42 94.9593 570.63 94.9593 569.75C94.9593 568.52 93.9793 567.78 92.6593 567.78C91.0993 567.78 90.3793 568.74 90.3793 569.72C90.3793 570.35 90.6793 570.78 91.1093 571.11C90.8893 571.26 90.0393 571.93 90.0393 572.94ZM93.7693 572.95C93.7693 573.58 93.2393 573.98 92.5793 573.98C91.9293 573.98 91.3593 573.51 91.3593 572.84C91.3593 572.25 91.7893 571.83 92.0193 571.64C92.8793 572.05 93.7693 572.33 93.7693 572.95ZM91.6493 569.75C91.6493 569.29 91.9893 568.93 92.6393 568.93C93.2793 568.93 93.6993 569.28 93.6993 569.83C93.6993 570.45 93.3193 570.92 93.2193 571.03C92.4093 570.68 91.6493 570.4 91.6493 569.75Z" fill="#00355F"/>
<path d="M76.583 604H80.923V602.89H79.383V596.9H78.253L76.473 598.61L77.233 599.41L77.803 598.87C78.033 598.64 78.113 598.47 78.113 598.47H78.133C78.133 598.47 78.123 598.71 78.123 598.95V602.89H76.583V604ZM81.2839 602.17H84.6039V604H85.8739V602.17H86.7939V601.1H85.8739V596.9H84.3439L81.2839 601.38V602.17ZM82.6439 601.1V601.08L84.2839 598.81C84.4739 598.54 84.6339 598.16 84.6339 598.16H84.6539C84.6539 598.16 84.6039 598.55 84.6039 598.9V601.1H82.6439ZM87.5648 603.17C87.5648 603.17 88.4048 604.12 89.9148 604.12C91.4948 604.12 92.4148 603 92.4148 601.79C92.4148 600.56 91.4548 599.86 90.4748 599.72L92.2148 597.71V596.9H87.8748V598.01H89.9948C90.4148 598.01 90.6248 597.98 90.6248 597.98V598C90.6248 598 90.3948 598.21 90.1148 598.54L88.8148 600.08L89.1048 600.74H89.5948C90.4248 600.74 91.1148 601.09 91.1148 601.84C91.1148 602.45 90.5748 602.9 89.8348 602.9C88.8948 602.9 88.2248 602.18 88.2248 602.18L87.5648 603.17Z" fill="#00355F"/>
<path d="M116.849 604H121.189V602.89H119.649V596.9H118.519L116.739 598.61L117.499 599.41L118.069 598.87C118.299 598.64 118.379 598.47 118.379 598.47H118.399C118.399 598.47 118.389 598.71 118.389 598.95V602.89H116.849V604ZM121.55 602.17H124.87V604H126.14V602.17H127.06V601.1H126.14V596.9H124.61L121.55 601.38V602.17ZM122.91 601.1V601.08L124.55 598.81C124.74 598.54 124.9 598.16 124.9 598.16H124.92C124.92 598.16 124.87 598.55 124.87 598.9V601.1H122.91ZM127.76 602.17H131.08V604H132.35V602.17H133.27V601.1H132.35V596.9H130.82L127.76 601.38V602.17ZM129.12 601.1V601.08L130.76 598.81C130.95 598.54 131.11 598.16 131.11 598.16H131.13C131.13 598.16 131.08 598.55 131.08 598.9V601.1H129.12Z" fill="#00355F"/>
<path d="M176.424 603.348H179.896V602.46H178.664V597.668H177.76L176.336 599.036L176.944 599.676L177.4 599.244C177.584 599.06 177.648 598.924 177.648 598.924H177.664C177.664 598.924 177.656 599.116 177.656 599.308V602.46H176.424V603.348ZM181.878 603.444C183.638 603.444 184.494 601.756 184.494 600.268C184.494 598.556 183.486 597.572 182.302 597.572C181.174 597.572 180.43 598.428 180.43 599.476C180.43 600.5 181.126 601.38 182.246 601.38C182.654 601.38 183.118 601.212 183.318 600.98H183.334C183.19 601.756 182.71 602.5 181.814 602.5C181.382 602.5 181.022 602.316 181.022 602.316L180.718 603.204C180.718 603.204 181.158 603.444 181.878 603.444ZM182.494 600.532C181.806 600.532 181.446 600.052 181.446 599.476C181.446 598.94 181.774 598.524 182.302 598.524C182.894 598.524 183.422 599.204 183.422 599.916C183.422 600.26 183.006 600.532 182.494 600.532ZM185.322 601.7C185.322 602.676 186.122 603.444 187.354 603.444C188.626 603.444 189.354 602.628 189.354 601.756C189.354 601.172 189.042 600.812 188.626 600.548C188.682 600.484 189.258 599.852 189.258 599.148C189.258 598.164 188.474 597.572 187.418 597.572C186.17 597.572 185.594 598.34 185.594 599.124C185.594 599.628 185.834 599.972 186.178 600.236C186.002 600.356 185.322 600.892 185.322 601.7ZM188.306 601.708C188.306 602.212 187.882 602.532 187.354 602.532C186.834 602.532 186.378 602.156 186.378 601.62C186.378 601.148 186.722 600.812 186.906 600.66C187.594 600.988 188.306 601.212 188.306 601.708ZM186.61 599.148C186.61 598.78 186.882 598.492 187.402 598.492C187.914 598.492 188.25 598.772 188.25 599.212C188.25 599.708 187.946 600.084 187.866 600.172C187.218 599.892 186.61 599.668 186.61 599.148ZM190.085 602.684C190.085 602.684 190.757 603.444 191.965 603.444C193.229 603.444 193.965 602.548 193.965 601.58C193.965 600.596 193.197 600.036 192.413 599.924L193.805 598.316V597.668H190.333V598.556H192.029C192.365 598.556 192.533 598.532 192.533 598.532V598.548C192.533 598.548 192.349 598.716 192.125 598.98L191.085 600.212L191.317 600.74H191.709C192.373 600.74 192.925 601.02 192.925 601.62C192.925 602.108 192.493 602.468 191.901 602.468C191.149 602.468 190.613 601.892 190.613 601.892L190.085 602.684Z" fill="#00355F"/>
<rect x="159" y="594" width="12.6961" height="12.6961" rx="4.23203" fill="#00355F"/>
<path d="M163.604 602.71H166.611V602.073H165.47V597.481H164.818L163.567 598.696L164.011 599.155L164.5 598.674C164.692 598.489 164.752 598.37 164.752 598.37H164.766C164.766 598.37 164.759 598.533 164.759 598.696V602.073H163.604V602.71Z" fill="white"/>
<rect x="346.152" y="592" width="12.6961" height="12.6961" rx="4.23203" fill="#00355F"/>
<path d="M350.478 600.71H353.848V600.073H351.256C351.271 598.881 353.767 598.614 353.767 596.896C353.767 595.992 353.078 595.392 352.115 595.392C350.937 595.392 350.463 596.385 350.463 596.385L351.004 596.748C351.004 596.748 351.374 596.081 352.063 596.081C352.611 596.081 353.004 596.429 353.004 596.948C353.004 598.177 350.441 598.444 350.441 600.31C350.441 600.436 350.456 600.569 350.478 600.71Z" fill="white"/>
<path d="M342.54 616.696H344.476C346.228 616.696 347.372 615.64 347.372 613.848C347.372 612.056 346.228 611.016 344.476 611.016H342.54V616.696ZM343.572 615.808V611.904H344.42C345.556 611.904 346.308 612.584 346.308 613.848C346.308 615.128 345.572 615.808 344.42 615.808H343.572ZM347.95 615.52C347.95 616.336 348.606 616.792 349.334 616.792C350.262 616.792 350.582 616.072 350.574 616.072H350.59C350.59 616.072 350.574 616.2 350.574 616.36V616.696H351.51V614.144C351.51 613.112 350.886 612.52 349.814 612.52C348.846 612.52 348.214 613.024 348.214 613.024L348.598 613.752C348.598 613.752 349.134 613.36 349.718 613.36C350.166 613.36 350.502 613.544 350.502 614.08V614.136H350.366C349.702 614.136 347.95 614.224 347.95 615.52ZM348.974 615.472C348.974 614.904 349.814 614.832 350.334 614.832H350.51V614.928C350.51 615.424 350.126 616 349.59 616C349.174 616 348.974 615.744 348.974 615.472ZM353.488 616.696H354.688L356.152 612.616H355.08L354.232 615.144C354.152 615.384 354.096 615.76 354.088 615.76H354.072C354.064 615.76 354.008 615.384 353.928 615.144L353.08 612.616H352.008L353.488 616.696ZM356.716 611.92H357.724V611.016H356.716V611.92ZM356.716 616.696H357.732V612.616H356.716V616.696ZM358.569 614.656C358.569 615.92 359.273 616.792 360.377 616.792C361.313 616.792 361.657 616.096 361.657 616.096H361.673C361.673 616.096 361.657 616.208 361.657 616.36V616.696H362.617V611.016H361.601V612.808C361.601 612.936 361.609 613.04 361.609 613.04H361.593C361.593 613.04 361.313 612.52 360.417 612.52C359.337 612.52 358.569 613.36 358.569 614.656ZM359.593 614.656C359.593 613.848 360.057 613.392 360.617 613.392C361.297 613.392 361.633 614.016 361.633 614.648C361.633 615.552 361.137 615.936 360.609 615.936C360.009 615.936 359.593 615.432 359.593 614.656ZM340.785 623.816C340.785 625.488 342.049 626.792 343.721 626.792C345.393 626.792 346.657 625.488 346.657 623.816C346.657 622.192 345.393 620.92 343.721 620.92C342.049 620.92 340.785 622.192 340.785 623.816ZM341.849 623.816C341.849 622.696 342.681 621.864 343.721 621.864C344.761 621.864 345.593 622.696 345.593 623.816C345.593 624.984 344.761 625.848 343.721 625.848C342.681 625.848 341.849 624.984 341.849 623.816ZM347.964 627.248L347.66 628.024C348.052 628.232 348.596 628.376 349.108 628.376C350.172 628.376 351.26 627.848 351.26 626.448V622.616H350.308V622.928C350.308 622.992 350.316 623.04 350.316 623.04H350.292C350.292 623.04 349.972 622.52 349.084 622.52C347.908 622.52 347.276 623.432 347.276 624.552C347.276 625.672 347.94 626.616 349.108 626.616C349.652 626.616 350.004 626.424 350.244 626.064H350.26C350.26 626.064 350.244 626.184 350.244 626.28V626.52C350.244 627.248 349.716 627.512 349.092 627.512C348.476 627.512 347.964 627.248 347.964 627.248ZM349.324 625.76C348.668 625.76 348.3 625.232 348.3 624.52C348.3 623.832 348.644 623.384 349.26 623.384C349.812 623.384 350.268 623.632 350.268 624.56C350.268 625.48 349.812 625.76 349.324 625.76ZM352.376 621.92H353.384V621.016H352.376V621.92ZM352.376 626.696H353.392V622.616H352.376V626.696ZM354.453 625.424C354.453 626.592 355.149 626.736 355.709 626.736C355.877 626.736 356.029 626.712 356.029 626.712V625.824C356.029 625.824 355.957 625.832 355.877 625.832C355.613 625.832 355.461 625.72 355.461 625.272V621.016H354.453V625.424ZM357.703 626.696H358.903L360.367 622.616H359.295L358.447 625.144C358.367 625.384 358.311 625.76 358.303 625.76H358.287C358.279 625.76 358.223 625.384 358.143 625.144L357.295 622.616H356.223L357.703 626.696ZM360.379 628.112C360.379 628.112 360.739 628.376 361.227 628.376C361.843 628.376 362.411 628.056 362.699 627.312L364.523 622.616H363.411L362.611 624.984C362.539 625.2 362.475 625.52 362.475 625.52H362.459C362.459 625.52 362.387 625.184 362.307 624.968L361.451 622.616H360.307L362.027 626.632L361.875 626.992C361.723 627.352 361.451 627.52 361.171 627.52C360.939 627.52 360.715 627.352 360.715 627.352L360.379 628.112Z" fill="#00355F"/>
<path d="M119.734 575H124.074V573.89H122.534V567.9H121.404L119.624 569.61L120.384 570.41L120.954 569.87C121.184 569.64 121.264 569.47 121.264 569.47H121.284C121.284 569.47 121.274 569.71 121.274 569.95V573.89H119.734V575ZM124.435 573.17H127.755V575H129.025V573.17H129.945V572.1H129.025V567.9H127.495L124.435 572.38V573.17ZM125.795 572.1V572.08L127.435 569.81C127.625 569.54 127.785 569.16 127.785 569.16H127.805C127.805 569.16 127.755 569.55 127.755 569.9V572.1H125.795ZM131.146 575H132.486L135.596 568.8V567.9H130.716V569.01H133.746C134.096 569.01 134.236 568.99 134.236 568.99V569.01C134.236 569.01 134.026 569.22 133.806 569.66L131.146 575Z" fill="#00355F"/>
<path d="M153.936 575H158.276V573.89H156.736V567.9H155.606L153.826 569.61L154.586 570.41L155.156 569.87C155.386 569.64 155.466 569.47 155.466 569.47H155.486C155.486 569.47 155.476 569.71 155.476 569.95V573.89H153.936V575ZM158.637 573.17H161.957V575H163.227V573.17H164.147V572.1H163.227V567.9H161.697L158.637 572.38V573.17ZM159.997 572.1V572.08L161.637 569.81C161.827 569.54 161.987 569.16 161.987 569.16H162.007C162.007 569.16 161.957 569.55 161.957 569.9V572.1H159.997ZM167.838 575.12C169.248 575.12 170.178 574.06 170.178 572.74C170.178 571.46 169.298 570.37 167.898 570.37C167.388 570.37 166.818 570.58 166.568 570.87H166.548C166.728 569.9 167.318 568.97 168.438 568.97C168.988 568.97 169.438 569.19 169.438 569.19L169.818 568.08C169.818 568.08 169.268 567.78 168.368 567.78C166.168 567.78 165.098 569.89 165.098 571.75C165.098 573.89 166.358 575.12 167.838 575.12ZM167.838 573.94C167.088 573.94 166.438 573.09 166.438 572.2C166.438 571.76 166.958 571.43 167.598 571.43C168.448 571.43 168.898 572.02 168.898 572.74C168.898 573.41 168.498 573.94 167.838 573.94Z" fill="#00355F"/>
<path d="M181.607 575H185.947V573.89H184.407V567.9H183.277L181.497 569.61L182.257 570.41L182.827 569.87C183.057 569.64 183.137 569.47 183.137 569.47H183.157C183.157 569.47 183.147 569.71 183.147 569.95V573.89H181.607V575ZM186.308 573.17H189.628V575H190.898V573.17H191.818V572.1H190.898V567.9H189.368L186.308 572.38V573.17ZM187.668 572.1V572.08L189.308 569.81C189.498 569.54 189.658 569.16 189.658 569.16H189.678C189.678 569.16 189.628 569.55 189.628 569.9V572.1H187.668ZM192.669 574.16C192.669 574.16 193.439 575.12 194.939 575.12C196.419 575.12 197.499 574.08 197.499 572.68C197.499 571.4 196.569 570.35 194.999 570.35C194.569 570.35 194.239 570.51 194.239 570.51H194.219C194.219 570.51 194.249 570.37 194.269 570.18L194.379 569.01H196.999V567.9H193.269L192.939 571.5L193.649 571.76C193.649 571.76 194.119 571.46 194.749 571.46C195.559 571.46 196.179 571.95 196.179 572.69C196.179 573.44 195.529 573.9 194.839 573.9C193.919 573.9 193.329 573.19 193.329 573.19L192.669 574.16Z" fill="#00355F"/>
<path d="M343.895 578H348.235V576.89H346.695V570.9H345.565L343.785 572.61L344.545 573.41L345.115 572.87C345.345 572.64 345.425 572.47 345.425 572.47H345.445C345.445 572.47 345.435 572.71 345.435 572.95V576.89H343.895V578ZM349.013 578H353.353V576.89H351.813V570.9H350.683L348.903 572.61L349.663 573.41L350.233 572.87C350.463 572.64 350.543 572.47 350.543 572.47H350.563C350.563 572.47 350.553 572.71 350.553 572.95V576.89H349.013V578ZM353.714 576.17H357.034V578H358.304V576.17H359.224V575.1H358.304V570.9H356.774L353.714 575.38V576.17ZM355.074 575.1V575.08L356.714 572.81C356.904 572.54 357.064 572.16 357.064 572.16H357.084C357.084 572.16 357.034 572.55 357.034 572.9V575.1H355.074Z" fill="#00355F"/>
<path d="M547.897 562.94C547.897 564.16 548.897 565.12 550.437 565.12C552.027 565.12 552.937 564.1 552.937 563.01C552.937 562.28 552.547 561.83 552.027 561.5C552.097 561.42 552.817 560.63 552.817 559.75C552.817 558.52 551.837 557.78 550.517 557.78C548.957 557.78 548.237 558.74 548.237 559.72C548.237 560.35 548.537 560.78 548.967 561.11C548.747 561.26 547.897 561.93 547.897 562.94ZM551.627 562.95C551.627 563.58 551.097 563.98 550.437 563.98C549.787 563.98 549.217 563.51 549.217 562.84C549.217 562.25 549.647 561.83 549.877 561.64C550.737 562.05 551.627 562.33 551.627 562.95ZM549.507 559.75C549.507 559.29 549.847 558.93 550.497 558.93C551.137 558.93 551.557 559.28 551.557 559.83C551.557 560.45 551.177 560.92 551.077 561.03C550.267 560.68 549.507 560.4 549.507 559.75ZM554.01 562.94C554.01 564.16 555.01 565.12 556.55 565.12C558.14 565.12 559.05 564.1 559.05 563.01C559.05 562.28 558.66 561.83 558.14 561.5C558.21 561.42 558.93 560.63 558.93 559.75C558.93 558.52 557.95 557.78 556.63 557.78C555.07 557.78 554.35 558.74 554.35 559.72C554.35 560.35 554.65 560.78 555.08 561.11C554.86 561.26 554.01 561.93 554.01 562.94ZM557.74 562.95C557.74 563.58 557.21 563.98 556.55 563.98C555.9 563.98 555.33 563.51 555.33 562.84C555.33 562.25 555.76 561.83 555.99 561.64C556.85 562.05 557.74 562.33 557.74 562.95ZM555.62 559.75C555.62 559.29 555.96 558.93 556.61 558.93C557.25 558.93 557.67 559.28 557.67 559.83C557.67 560.45 557.29 560.92 557.19 561.03C556.38 560.68 555.62 560.4 555.62 559.75Z" fill="#00355F"/>
<path d="M494.617 486.12C496.817 486.12 497.887 484.01 497.887 482.15C497.887 480.01 496.627 478.78 495.147 478.78C493.737 478.78 492.807 479.85 492.807 481.16C492.807 482.44 493.677 483.54 495.077 483.54C495.587 483.54 496.167 483.33 496.417 483.04H496.437C496.257 484.01 495.657 484.94 494.537 484.94C493.997 484.94 493.547 484.71 493.547 484.71L493.167 485.82C493.167 485.82 493.717 486.12 494.617 486.12ZM495.387 482.48C494.527 482.48 494.077 481.88 494.077 481.16C494.077 480.49 494.487 479.97 495.147 479.97C495.887 479.97 496.547 480.82 496.547 481.71C496.547 482.14 496.027 482.48 495.387 482.48ZM498.692 484.17H502.012V486H503.282V484.17H504.202V483.1H503.282V478.9H501.752L498.692 483.38V484.17ZM500.052 483.1V483.08L501.692 480.81C501.882 480.54 502.042 480.16 502.042 480.16H502.062C502.062 480.16 502.012 480.55 502.012 480.9V483.1H500.052Z" fill="#00355F"/>
<path d="M494.376 454.12C496.576 454.12 497.646 452.01 497.646 450.15C497.646 448.01 496.386 446.78 494.906 446.78C493.496 446.78 492.566 447.85 492.566 449.16C492.566 450.44 493.436 451.54 494.836 451.54C495.346 451.54 495.926 451.33 496.176 451.04H496.196C496.016 452.01 495.416 452.94 494.296 452.94C493.756 452.94 493.306 452.71 493.306 452.71L492.926 453.82C492.926 453.82 493.476 454.12 494.376 454.12ZM495.146 450.48C494.286 450.48 493.836 449.88 493.836 449.16C493.836 448.49 494.246 447.97 494.906 447.97C495.646 447.97 496.306 448.82 496.306 449.71C496.306 450.14 495.786 450.48 495.146 450.48ZM498.601 453.16C498.601 453.16 499.371 454.12 500.871 454.12C502.351 454.12 503.431 453.08 503.431 451.68C503.431 450.4 502.501 449.35 500.931 449.35C500.501 449.35 500.171 449.51 500.171 449.51H500.151C500.151 449.51 500.181 449.37 500.201 449.18L500.311 448.01H502.931V446.9H499.201L498.871 450.5L499.581 450.76C499.581 450.76 500.051 450.46 500.681 450.46C501.491 450.46 502.111 450.95 502.111 451.69C502.111 452.44 501.461 452.9 500.771 452.9C499.851 452.9 499.261 452.19 499.261 452.19L498.601 453.16Z" fill="#00355F"/>
<rect x="735" y="123" width="20" height="20" rx="4" fill="#EBF6FF"/>
<path fill-rule="evenodd" clip-rule="evenodd" d="M746.413 128.586C746.038 128.211 745.529 128 744.999 128C744.469 128 743.96 128.211 743.585 128.586C743.21 128.961 742.999 129.47 742.999 130C742.999 130.53 743.21 131.039 743.585 131.414C743.96 131.789 744.469 132 744.999 132C745.529 132 746.038 131.789 746.413 131.414C746.788 131.039 746.999 130.53 746.999 130C746.999 129.47 746.788 128.961 746.413 128.586ZM744.579 132.646C744.776 132.342 745.221 132.342 745.418 132.646L748.394 137.228C748.61 137.56 748.371 138 747.975 138L742.022 138C741.626 138 741.387 137.56 741.603 137.228L744.579 132.646Z" fill="#63BAFF"/>
<rect x="735" y="78" width="20" height="20" rx="4" fill="#EBF6FF"/>
<path fill-rule="evenodd" clip-rule="evenodd" d="M746.413 83.5858C746.038 83.2107 745.529 83 744.999 83C744.469 83 743.96 83.2107 743.585 83.5858C743.21 83.9609 742.999 84.4696 742.999 85C742.999 85.5304 743.21 86.0391 743.585 86.4142C743.96 86.7893 744.469 87 744.999 87C745.529 87 746.038 86.7893 746.413 86.4142C746.788 86.0391 746.999 85.5304 746.999 85C746.999 84.4696 746.788 83.9609 746.413 83.5858ZM744.579 92.7723C744.776 93.0758 745.221 93.0758 745.418 92.7723L748.394 88.1902C748.61 87.8576 748.371 87.4179 747.975 87.4179L742.022 87.4179C741.626 87.4179 741.387 87.8576 741.603 88.1902L744.579 92.7723Z" fill="#63BAFF"/>
<rect x="602" y="110" width="20" height="20" rx="4" fill="#ECFBF2"/>
<path d="M609.5 122.5L614.5 122.5L614.5 125L609.5 125L609.5 122.5ZM615.5 124L615.5 121.5L608.5 121.5L608.5 124L607.5 124C607.367 124 607.24 123.947 607.146 123.854C607.053 123.76 607 123.633 607 123.5L607 118.5C607 118.367 607.053 118.24 607.146 118.146C607.24 118.053 607.367 118 607.5 118L616.5 118C616.633 118 616.76 118.053 616.854 118.146C616.947 118.24 617 118.367 617 118.5L617 123.5C617 123.633 616.947 123.76 616.854 123.854C616.76 123.947 616.633 124 616.5 124L615.5 124ZM608.5 119V120L610 120V119L608.5 119ZM609.5 115L614.5 115C614.633 115 614.76 115.053 614.854 115.146C614.947 115.24 615 115.367 615 115.5L615 117L609 117L609 115.5C609 115.367 609.053 115.24 609.146 115.146C609.24 115.053 609.367 115 609.5 115Z" fill="#49BF78"/>
<rect x="770" y="128" width="16.9281" height="16.9281" rx="4" fill="#FFE9E0"/>
<path d="M782.274 132.232L782.274 140.696L781.427 140.696L781.427 137.31L780.158 137.31L780.158 134.348C780.158 133.787 780.381 133.249 780.778 132.852C781.174 132.455 781.713 132.232 782.274 132.232ZM777.195 137.268L777.195 140.696L776.349 140.696L776.349 137.268C775.871 137.17 775.442 136.911 775.133 136.533C774.825 136.155 774.656 135.682 774.656 135.194L774.656 132.655L775.503 132.655L775.503 135.618L776.349 135.618L776.349 132.655L777.195 132.655L777.195 135.618L778.042 135.618L778.042 132.655L778.888 132.655L778.888 135.194C778.888 135.682 778.72 136.155 778.411 136.533C778.103 136.911 777.673 137.17 777.195 137.268Z" fill="#FF8D62"/>
<path d="M494.705 423.12C496.905 423.12 497.975 421.01 497.975 419.15C497.975 417.01 496.715 415.78 495.235 415.78C493.825 415.78 492.895 416.85 492.895 418.16C492.895 419.44 493.765 420.54 495.165 420.54C495.675 420.54 496.255 420.33 496.505 420.04H496.525C496.345 421.01 495.745 421.94 494.625 421.94C494.085 421.94 493.635 421.71 493.635 421.71L493.255 422.82C493.255 422.82 493.805 423.12 494.705 423.12ZM495.475 419.48C494.615 419.48 494.165 418.88 494.165 418.16C494.165 417.49 494.575 416.97 495.235 416.97C495.975 416.97 496.635 417.82 496.635 418.71C496.635 419.14 496.115 419.48 495.475 419.48ZM501.77 423.12C503.18 423.12 504.11 422.06 504.11 420.74C504.11 419.46 503.23 418.37 501.83 418.37C501.32 418.37 500.75 418.58 500.5 418.87H500.48C500.66 417.9 501.25 416.97 502.37 416.97C502.92 416.97 503.37 417.19 503.37 417.19L503.75 416.08C503.75 416.08 503.2 415.78 502.3 415.78C500.1 415.78 499.03 417.89 499.03 419.75C499.03 421.89 500.29 423.12 501.77 423.12ZM501.77 421.94C501.02 421.94 500.37 421.09 500.37 420.2C500.37 419.76 500.89 419.43 501.53 419.43C502.38 419.43 502.83 420.02 502.83 420.74C502.83 421.41 502.43 421.94 501.77 421.94Z" fill="#00355F"/>
<path d="M372.569 304H373.859L373.859 298.01L376.189 298.01L376.189 296.9L370.239 296.9L370.239 298.01L372.569 298.01L372.569 304ZM376.925 304H378.195V301.66C378.195 301.42 378.215 301.2 378.275 301C378.465 300.38 378.985 299.94 379.655 299.94C380.305 299.94 380.465 300.36 380.465 300.98V304H381.725L381.725 300.72C381.725 299.37 381.085 298.78 379.955 298.78C379.065 298.78 378.445 299.3 378.195 299.79H378.175C378.175 299.79 378.195 299.61 378.195 299.36L378.195 296.9H376.925L376.925 304ZM382.697 301.45C382.697 302.9 383.747 304.12 385.437 304.12C386.707 304.12 387.487 303.39 387.487 303.39L386.997 302.48C386.997 302.48 386.347 303.04 385.527 303.04C384.767 303.04 384.077 302.58 383.997 301.69H387.517C387.517 301.69 387.547 301.35 387.547 301.2C387.547 299.85 386.757 298.78 385.287 298.78C383.767 298.78 382.697 299.88 382.697 301.45ZM384.037 300.82C384.157 300.16 384.607 299.76 385.257 299.76C385.817 299.76 386.247 300.13 386.267 300.82H384.037ZM390.736 300.42C390.736 302.51 392.236 304.12 394.406 304.12C396.216 304.12 397.196 302.97 397.196 302.97L396.516 302.04C396.516 302.04 395.686 302.94 394.456 302.94C392.976 302.94 392.066 301.75 392.066 300.4C392.066 299.08 392.946 297.96 394.446 297.96C395.576 297.96 396.386 298.71 396.386 298.71L397.006 297.75C397.006 297.75 396.116 296.78 394.386 296.78C392.296 296.78 390.736 298.36 390.736 300.42ZM397.754 302.53C397.754 303.55 398.574 304.12 399.484 304.12C400.644 304.12 401.044 303.22 401.034 303.22H401.054C401.054 303.22 401.034 303.38 401.034 303.58V304H402.204V300.81C402.204 299.52 401.424 298.78 400.084 298.78C398.874 298.78 398.084 299.41 398.084 299.41L398.564 300.32C398.564 300.32 399.234 299.83 399.964 299.83C400.524 299.83 400.944 300.06 400.944 300.73V300.8H400.774C399.944 300.8 397.754 300.91 397.754 302.53ZM399.034 302.47C399.034 301.76 400.084 301.67 400.734 301.67H400.954V301.79C400.954 302.41 400.474 303.13 399.804 303.13C399.284 303.13 399.034 302.81 399.034 302.47ZM403.757 304L405.027 304L405.027 299.99H406.117V298.98H405.027V298.78C405.027 298.04 405.647 297.95 406.007 297.95C406.157 297.95 406.267 297.97 406.267 297.97L406.267 296.89C406.267 296.89 406.097 296.86 405.837 296.86C405.127 296.86 403.757 297.08 403.757 298.75V298.98H403.127V299.99H403.757L403.757 304ZM406.604 301.45C406.604 302.9 407.654 304.12 409.344 304.12C410.614 304.12 411.394 303.39 411.394 303.39L410.904 302.48C410.904 302.48 410.254 303.04 409.434 303.04C408.674 303.04 407.984 302.58 407.904 301.69L411.424 301.69C411.424 301.69 411.454 301.35 411.454 301.2C411.454 299.85 410.664 298.78 409.194 298.78C407.674 298.78 406.604 299.88 406.604 301.45ZM407.944 300.82C408.064 300.16 408.514 299.76 409.164 299.76C409.724 299.76 410.154 300.13 410.174 300.82L407.944 300.82Z" fill="#00355F"/>
<path d="M586.906 218L588.196 218V215.35L589.436 215.35L590.846 218L592.286 218L590.826 215.35C590.686 215.1 590.586 215 590.586 215V214.98C591.336 214.68 591.786 213.89 591.786 213.04C591.786 212.1 591.336 211.42 590.626 211.1C590.316 210.96 589.966 210.9 589.196 210.9L586.906 210.9L586.906 218ZM588.196 214.23L588.196 212.01L589.176 212.01C590.186 212.01 590.476 212.43 590.476 213.11C590.476 213.82 590.046 214.23 589.356 214.23L588.196 214.23ZM592.879 215.45C592.879 216.9 593.929 218.12 595.619 218.12C596.889 218.12 597.669 217.39 597.669 217.39L597.179 216.48C597.179 216.48 596.529 217.04 595.709 217.04C594.949 217.04 594.259 216.58 594.179 215.69L597.699 215.69C597.699 215.69 597.729 215.35 597.729 215.2C597.729 213.85 596.939 212.78 595.469 212.78C593.949 212.78 592.879 213.88 592.879 215.45ZM594.219 214.82C594.339 214.16 594.789 213.76 595.439 213.76C595.999 213.76 596.429 214.13 596.449 214.82L594.219 214.82ZM598.406 215.45C598.406 216.93 599.486 218.12 601.176 218.12C602.546 218.12 603.276 217.29 603.276 217.29L602.786 216.39C602.786 216.39 602.146 217.04 601.286 217.04C600.316 217.04 599.696 216.3 599.696 215.44C599.696 214.57 600.306 213.86 601.246 213.86C602.046 213.86 602.576 214.41 602.576 214.41L603.136 213.54C603.136 213.54 602.506 212.78 601.176 212.78C599.486 212.78 598.406 214 598.406 215.45ZM603.865 215.45C603.865 216.9 604.915 218.12 606.605 218.12C607.875 218.12 608.655 217.39 608.655 217.39L608.165 216.48C608.165 216.48 607.515 217.04 606.695 217.04C605.935 217.04 605.245 216.58 605.165 215.69L608.685 215.69C608.685 215.69 608.715 215.35 608.715 215.2C608.715 213.85 607.925 212.78 606.455 212.78C604.935 212.78 603.865 213.88 603.865 215.45ZM605.205 214.82C605.325 214.16 605.775 213.76 606.425 213.76C606.985 213.76 607.415 214.13 607.435 214.82L605.205 214.82ZM609.763 220H611.033V217.86C611.033 217.6 611.013 217.42 611.013 217.42H611.033C611.033 217.42 611.483 218.12 612.493 218.12C613.833 218.12 614.823 217.07 614.823 215.45C614.823 213.87 613.943 212.78 612.563 212.78C611.363 212.78 610.923 213.62 610.923 213.62H610.903C610.903 213.62 610.923 213.46 610.923 213.27L610.923 212.9H609.763L609.763 220ZM610.993 215.48C610.993 214.35 611.613 213.87 612.273 213.87C613.023 213.87 613.543 214.5 613.543 215.47C613.543 216.48 612.963 217.05 612.263 217.05C611.423 217.05 610.993 216.27 610.993 215.48ZM616.096 216.13C616.096 217.84 617.506 218.05 618.216 218.05C618.456 218.05 618.606 218.02 618.606 218.02V216.91C618.606 216.91 618.516 216.93 618.376 216.93C618.026 216.93 617.366 216.81 617.366 215.97V213.99H618.526L618.526 212.98H617.366V211.51L616.126 211.51V212.98H615.436L615.436 213.99H616.096V216.13ZM619.645 212.03H620.905V210.9H619.645V212.03ZM619.645 218H620.915L620.915 212.9H619.645L619.645 218ZM621.931 215.45C621.931 217.02 623.181 218.12 624.741 218.12C626.291 218.12 627.541 217.02 627.541 215.45C627.541 213.89 626.291 212.78 624.731 212.78C623.181 212.78 621.931 213.89 621.931 215.45ZM623.221 215.45C623.221 214.51 623.911 213.86 624.741 213.86C625.561 213.86 626.251 214.51 626.251 215.45C626.251 216.4 625.561 217.04 624.741 217.04C623.911 217.04 623.221 216.4 623.221 215.45ZM628.561 218L629.831 218V215.66C629.831 215.42 629.851 215.19 629.921 214.98C630.111 214.37 630.611 213.94 631.291 213.94C631.941 213.94 632.101 214.36 632.101 214.98V218L633.361 218V214.72C633.361 213.37 632.721 212.78 631.591 212.78C630.561 212.78 630.001 213.41 629.781 213.84H629.761C629.761 213.84 629.781 213.68 629.781 213.49L629.781 212.9L628.561 212.9L628.561 218Z" fill="#00355F"/>
<path d="M650.981 202L655.321 202L655.321 200.89H653.781V194.9H652.651L650.871 196.61L651.631 197.41L652.201 196.87C652.431 196.64 652.511 196.47 652.511 196.47H652.531C652.531 196.47 652.521 196.71 652.521 196.95V200.89L650.981 200.89L650.981 202Z" fill="#00355F"/>
<path d="M682.66 202L687.37 202L687.37 200.89L684.05 200.89C684.08 199.55 687.26 199.16 687.26 196.88C687.26 195.54 686.2 194.78 684.95 194.78C683.25 194.78 682.6 196.2 682.6 196.2L683.56 196.84C683.56 196.84 684.01 196 684.84 196C685.44 196 685.92 196.37 685.92 196.99C685.92 198.4 682.6 198.81 682.6 201.37C682.6 201.57 682.63 201.77 682.66 202Z" fill="#00355F"/>
<path d="M718.479 201.17C718.479 201.17 719.319 202.12 720.829 202.12C722.409 202.12 723.329 201 723.329 199.79C723.329 198.56 722.369 197.86 721.389 197.72L723.129 195.71V194.9L718.789 194.9V196.01L720.909 196.01C721.329 196.01 721.539 195.98 721.539 195.98V196C721.539 196 721.309 196.21 721.029 196.54L719.729 198.08L720.019 198.74L720.509 198.74C721.339 198.74 722.029 199.09 722.029 199.84C722.029 200.45 721.489 200.9 720.749 200.9C719.809 200.9 719.139 200.18 719.139 200.18L718.479 201.17Z" fill="#00355F"/>
<path d="M759.675 200.17L762.995 200.17L762.995 202H764.265L764.265 200.17L765.185 200.17V199.1L764.265 199.1V194.9H762.735L759.675 199.38V200.17ZM761.035 199.1V199.08L762.675 196.81C762.865 196.54 763.025 196.16 763.025 196.16H763.045C763.045 196.16 762.995 196.55 762.995 196.9V199.1L761.035 199.1Z" fill="#00355F"/>
<path d="M805.583 155.16C805.583 155.16 806.353 156.12 807.853 156.12C809.333 156.12 810.413 155.08 810.413 153.68C810.413 152.4 809.483 151.35 807.913 151.35C807.483 151.35 807.153 151.51 807.153 151.51H807.133C807.133 151.51 807.163 151.37 807.183 151.18L807.293 150.01H809.913V148.9L806.183 148.9L805.853 152.5L806.563 152.76C806.563 152.76 807.033 152.46 807.663 152.46C808.473 152.46 809.093 152.95 809.093 153.69C809.093 154.44 808.443 154.9 807.753 154.9C806.833 154.9 806.243 154.19 806.243 154.19L805.583 155.16Z" fill="#00355F"/>
<path d="M805.752 102.12C807.162 102.12 808.092 101.06 808.092 99.74C808.092 98.46 807.212 97.37 805.812 97.37C805.302 97.37 804.732 97.58 804.482 97.87H804.462C804.642 96.9 805.232 95.97 806.352 95.97C806.902 95.97 807.352 96.19 807.352 96.19L807.732 95.08C807.732 95.08 807.182 94.78 806.282 94.78C804.082 94.78 803.012 96.89 803.012 98.75C803.012 100.89 804.272 102.12 805.752 102.12ZM805.752 100.94C805.002 100.94 804.352 100.09 804.352 99.2C804.352 98.76 804.872 98.43 805.512 98.43C806.362 98.43 806.812 99.02 806.812 99.74C806.812 100.41 806.412 100.94 805.752 100.94Z" fill="#00355F"/>
<path d="M802.06 61L803.4 61L806.51 54.8V53.9L801.63 53.9V55.01L804.66 55.01C805.01 55.01 805.15 54.99 805.15 54.99V55.01C805.15 55.01 804.94 55.22 804.72 55.66L802.06 61Z" fill="#00355F"/>
<path d="M792.953 21.94C792.953 23.16 793.953 24.12 795.493 24.12C797.083 24.12 797.993 23.1 797.993 22.01C797.993 21.28 797.603 20.83 797.083 20.5C797.153 20.42 797.873 19.63 797.873 18.75C797.873 17.52 796.893 16.78 795.573 16.78C794.013 16.78 793.293 17.74 793.293 18.72C793.293 19.35 793.593 19.78 794.023 20.11C793.803 20.26 792.953 20.93 792.953 21.94ZM796.683 21.95C796.683 22.58 796.153 22.98 795.493 22.98C794.843 22.98 794.273 22.51 794.273 21.84C794.273 21.25 794.703 20.83 794.933 20.64C795.793 21.05 796.683 21.33 796.683 21.95ZM794.563 18.75C794.563 18.29 794.903 17.93 795.553 17.93C796.193 17.93 796.613 18.28 796.613 18.83C796.613 19.45 796.233 19.92 796.133 20.03C795.323 19.68 794.563 19.4 794.563 18.75Z" fill="#00355F"/>
<path d="M748.722 24.12C750.922 24.12 751.992 22.01 751.992 20.15C751.992 18.01 750.732 16.78 749.252 16.78C747.842 16.78 746.912 17.85 746.912 19.16C746.912 20.44 747.782 21.54 749.182 21.54C749.692 21.54 750.272 21.33 750.522 21.04H750.542C750.362 22.01 749.762 22.94 748.642 22.94C748.102 22.94 747.652 22.71 747.652 22.71L747.272 23.82C747.272 23.82 747.822 24.12 748.722 24.12ZM749.492 20.48C748.632 20.48 748.182 19.88 748.182 19.16C748.182 18.49 748.592 17.97 749.252 17.97C749.992 17.97 750.652 18.82 750.652 19.71C750.652 20.14 750.132 20.48 749.492 20.48Z" fill="#00355F"/>
<path d="M702.837 24H707.177V22.89H705.637V16.9H704.507L702.727 18.61L703.487 19.41L704.057 18.87C704.287 18.64 704.367 18.47 704.367 18.47H704.387C704.387 18.47 704.377 18.71 704.377 18.95V22.89H702.837V24ZM710.554 24.12C712.494 24.12 713.134 22.48 713.134 20.44C713.134 18.4 712.494 16.78 710.554 16.78C708.614 16.78 707.984 18.4 707.984 20.44C707.984 22.48 708.614 24.12 710.554 24.12ZM710.554 22.94C709.584 22.94 709.304 21.84 709.304 20.44C709.304 19.06 709.584 17.97 710.554 17.97C711.524 17.97 711.804 19.06 711.804 20.44C711.804 21.84 711.524 22.94 710.554 22.94Z" fill="#00355F"/>
<path d="M670.923 24H675.263V22.89H673.723V16.9H672.593L670.813 18.61L671.573 19.41L672.143 18.87C672.373 18.64 672.453 18.47 672.453 18.47H672.473C672.473 18.47 672.463 18.71 672.463 18.95V22.89H670.923V24ZM676.04 24H680.38V22.89H678.84V16.9H677.71L675.93 18.61L676.69 19.41L677.26 18.87C677.49 18.64 677.57 18.47 677.57 18.47H677.59C677.59 18.47 677.58 18.71 677.58 18.95V22.89H676.04V24Z" fill="#00355F"/>
<rect x="794.652" y="185" width="12.6961" height="12.6961" rx="4.23203" fill="#00355F"/>
<path d="M798.637 192.31H801.17V193.71H801.888V192.31H802.599V191.688H801.888V188.481H801.051L798.637 191.851V192.31ZM799.444 191.688V191.673L800.925 189.696C801.066 189.511 801.185 189.266 801.185 189.266H801.199C801.199 189.266 801.17 189.54 801.17 189.785V191.688H799.444Z" fill="white"/>
<path d="M792.489 209.696H793.553L791.553 204.016H790.473L788.473 209.696H789.537L790.017 208.24H792.009L792.489 209.696ZM791.025 205C791.025 205 791.145 205.56 791.249 205.88L791.753 207.4H790.265L790.769 205.88C790.881 205.56 791.009 205 791.009 205H791.025ZM794.119 209.696H795.135V208.08C795.135 207.84 795.159 207.616 795.223 207.416C795.415 206.808 795.903 206.56 796.335 206.56C796.471 206.56 796.575 206.576 796.575 206.576V205.576C796.575 205.576 796.487 205.56 796.391 205.56C795.767 205.56 795.279 206.024 795.095 206.608H795.079C795.079 206.608 795.095 206.472 795.095 206.32V205.616H794.119V209.696ZM796.963 207.656C796.963 208.84 797.827 209.792 799.179 209.792C800.275 209.792 800.859 209.128 800.859 209.128L800.467 208.408C800.467 208.408 799.955 208.928 799.267 208.928C798.491 208.928 797.995 208.336 797.995 207.648C797.995 206.952 798.483 206.384 799.235 206.384C799.875 206.384 800.299 206.824 800.299 206.824L800.747 206.128C800.747 206.128 800.243 205.52 799.179 205.52C797.827 205.52 796.963 206.496 796.963 207.656ZM801.619 209.696H802.635V207.824C802.635 207.632 802.651 207.456 802.699 207.296C802.851 206.8 803.267 206.448 803.803 206.448C804.323 206.448 804.451 206.784 804.451 207.28V209.696H805.459V207.072C805.459 205.992 804.947 205.52 804.043 205.52C803.331 205.52 802.835 205.936 802.635 206.328H802.619C802.619 206.328 802.635 206.184 802.635 205.984V204.016H801.619V209.696ZM806.237 207.656C806.237 208.816 807.077 209.792 808.429 209.792C809.445 209.792 810.069 209.208 810.069 209.208L809.677 208.48C809.677 208.48 809.157 208.928 808.501 208.928C807.893 208.928 807.341 208.56 807.277 207.848H810.093C810.093 207.848 810.117 207.576 810.117 207.456C810.117 206.376 809.485 205.52 808.309 205.52C807.093 205.52 806.237 206.4 806.237 207.656ZM807.309 207.152C807.405 206.624 807.765 206.304 808.285 206.304C808.733 206.304 809.077 206.6 809.093 207.152H807.309ZM810.955 209.696H811.971V208.08C811.971 207.84 811.995 207.616 812.059 207.416C812.251 206.808 812.739 206.56 813.171 206.56C813.307 206.56 813.411 206.576 813.411 206.576V205.576C813.411 205.576 813.323 205.56 813.227 205.56C812.603 205.56 812.115 206.024 811.931 206.608H811.915C811.915 206.608 811.931 206.472 811.931 206.32V205.616H810.955V209.696Z" fill="#00355F"/>
<rect x="675.652" y="97" width="12.6961" height="12.6961" rx="4.23203" fill="#00355F"/>
<path d="M679.848 105.088C679.848 105.088 680.478 105.799 681.544 105.799C682.618 105.799 683.322 105.014 683.322 104.118C683.322 103.103 682.477 102.659 681.789 102.585L683.211 100.948V100.481H680.085V101.118H681.855C682.144 101.118 682.3 101.096 682.3 101.096V101.111C682.3 101.111 682.144 101.252 681.974 101.451L680.833 102.792L681.004 103.184H681.366C682.011 103.184 682.581 103.503 682.581 104.147C682.581 104.71 682.1 105.103 681.515 105.103C680.759 105.103 680.248 104.532 680.248 104.532L679.848 105.088Z" fill="white"/>
<path d="M668.487 121.016C668.487 121.016 669.183 121.792 670.447 121.792C671.631 121.792 672.319 121.032 672.319 120.128C672.319 118.312 669.647 118.56 669.647 117.552C669.647 117.152 670.023 116.872 670.503 116.872C671.215 116.872 671.759 117.368 671.759 117.368L672.207 116.528C672.207 116.528 671.631 115.92 670.511 115.92C669.423 115.92 668.607 116.624 668.607 117.568C668.607 119.312 671.287 119.136 671.287 120.152C671.287 120.616 670.895 120.84 670.463 120.84C669.663 120.84 669.047 120.24 669.047 120.24L668.487 121.016ZM672.845 120.52C672.845 121.336 673.501 121.792 674.229 121.792C675.157 121.792 675.477 121.072 675.469 121.072H675.485C675.485 121.072 675.469 121.2 675.469 121.36V121.696H676.405V119.144C676.405 118.112 675.781 117.52 674.709 117.52C673.741 117.52 673.109 118.024 673.109 118.024L673.493 118.752C673.493 118.752 674.029 118.36 674.613 118.36C675.061 118.36 675.397 118.544 675.397 119.08V119.136H675.261C674.597 119.136 672.845 119.224 672.845 120.52ZM673.869 120.472C673.869 119.904 674.709 119.832 675.229 119.832H675.405V119.928C675.405 120.424 675.021 121 674.485 121C674.069 121 673.869 120.744 673.869 120.472ZM677.462 121.696H678.478V119.904C678.478 119.72 678.486 119.536 678.526 119.384C678.654 118.864 678.998 118.448 679.526 118.448C680.006 118.448 680.078 118.824 680.078 119.264V121.696H681.094V119.904C681.094 119.712 681.102 119.536 681.142 119.376C681.262 118.864 681.606 118.448 682.126 118.448C682.598 118.448 682.686 118.8 682.686 119.264V121.696H683.702V119.072C683.702 118 683.214 117.52 682.366 117.52C681.726 117.52 681.198 117.92 680.974 118.36H680.958C680.79 117.808 680.39 117.52 679.766 117.52C679.126 117.52 678.638 117.968 678.438 118.368H678.422C678.422 118.368 678.438 118.24 678.438 118.088V117.616H677.462V121.696ZM684.767 123.296H685.783V121.584C685.783 121.376 685.767 121.232 685.767 121.232H685.783C685.783 121.232 686.143 121.792 686.951 121.792C688.023 121.792 688.815 120.952 688.815 119.656C688.815 118.392 688.111 117.52 687.007 117.52C686.047 117.52 685.695 118.192 685.695 118.192H685.679C685.679 118.192 685.695 118.064 685.695 117.912V117.616H684.767V123.296ZM685.751 119.68C685.751 118.776 686.247 118.392 686.775 118.392C687.375 118.392 687.791 118.896 687.791 119.672C687.791 120.48 687.327 120.936 686.767 120.936C686.095 120.936 685.751 120.312 685.751 119.68ZM689.602 120.424C689.602 121.592 690.298 121.736 690.858 121.736C691.026 121.736 691.178 121.712 691.178 121.712V120.824C691.178 120.824 691.106 120.832 691.026 120.832C690.762 120.832 690.61 120.72 690.61 120.272V116.016H689.602V120.424ZM691.643 119.656C691.643 120.816 692.483 121.792 693.835 121.792C694.851 121.792 695.475 121.208 695.475 121.208L695.083 120.48C695.083 120.48 694.563 120.928 693.907 120.928C693.299 120.928 692.747 120.56 692.683 119.848H695.499C695.499 119.848 695.523 119.576 695.523 119.456C695.523 118.376 694.891 117.52 693.715 117.52C692.499 117.52 691.643 118.4 691.643 119.656ZM692.715 119.152C692.811 118.624 693.171 118.304 693.691 118.304C694.139 118.304 694.483 118.6 694.499 119.152H692.715ZM671.454 131.696H672.486V129.576H673.478L674.606 131.696H675.758L674.59 129.576C674.478 129.376 674.398 129.296 674.398 129.296V129.28C674.998 129.04 675.358 128.408 675.358 127.728C675.358 126.976 674.998 126.432 674.43 126.176C674.182 126.064 673.902 126.016 673.286 126.016H671.454V131.696ZM672.486 128.68V126.904H673.27C674.078 126.904 674.31 127.24 674.31 127.784C674.31 128.352 673.966 128.68 673.414 128.68H672.486ZM676.217 129.656C676.217 130.912 677.217 131.792 678.465 131.792C679.705 131.792 680.705 130.912 680.705 129.656C680.705 128.408 679.705 127.52 678.457 127.52C677.217 127.52 676.217 128.408 676.217 129.656ZM677.249 129.656C677.249 128.904 677.801 128.384 678.465 128.384C679.121 128.384 679.673 128.904 679.673 129.656C679.673 130.416 679.121 130.928 678.465 130.928C677.801 130.928 677.249 130.416 677.249 129.656ZM681.217 129.656C681.217 130.912 682.217 131.792 683.465 131.792C684.705 131.792 685.705 130.912 685.705 129.656C685.705 128.408 684.705 127.52 683.457 127.52C682.217 127.52 681.217 128.408 681.217 129.656ZM682.249 129.656C682.249 128.904 682.801 128.384 683.465 128.384C684.121 128.384 684.673 128.904 684.673 129.656C684.673 130.416 684.121 130.928 683.465 130.928C682.801 130.928 682.249 130.416 682.249 129.656ZM686.521 131.696H687.537V129.904C687.537 129.72 687.545 129.536 687.585 129.384C687.713 128.864 688.057 128.448 688.585 128.448C689.065 128.448 689.137 128.824 689.137 129.264V131.696H690.153V129.904C690.153 129.712 690.161 129.536 690.201 129.376C690.321 128.864 690.665 128.448 691.185 128.448C691.657 128.448 691.745 128.8 691.745 129.264V131.696H692.761V129.072C692.761 128 692.273 127.52 691.425 127.52C690.785 127.52 690.257 127.92 690.033 128.36H690.017C689.849 127.808 689.449 127.52 688.825 127.52C688.185 127.52 687.697 127.968 687.497 128.368H687.481C687.481 128.368 687.497 128.24 687.497 128.088V127.616H686.521V131.696Z" fill="#00355F"/>
<rect x="306" y="591" width="20" height="20" rx="4" fill="#FFE9E0"/>
<path d="M320.5 596V606H319.5V602H318V598.5C318 597.837 318.263 597.201 318.732 596.732C319.201 596.263 319.837 596 320.5 596ZM314.5 601.95V606H313.5V601.95C312.935 601.835 312.428 601.528 312.064 601.081C311.699 600.635 311.5 600.076 311.5 599.5V596.5H312.5V600H313.5V596.5H314.5V600H315.5V596.5H316.5V599.5C316.5 600.076 316.301 600.635 315.936 601.081C315.572 601.528 315.065 601.835 314.5 601.95Z" fill="#FF8D62"/>
<rect x="261" y="565" width="20" height="20" rx="4" fill="#E3E8FF"/>
<g clip-path="url(#clip0)">
<path fill-rule="evenodd" clip-rule="evenodd" d="M270.969 573.08L270.974 573.08C271.895 573.08 272.641 572.334 272.641 571.413C272.641 570.493 271.895 569.746 270.974 569.746L270.969 569.746L270.963 569.746C270.043 569.746 269.296 570.493 269.296 571.413C269.296 572.334 270.043 573.08 270.963 573.08L270.969 573.08ZM268.667 575.123L266.787 576.49C266.474 576.718 266.404 577.156 266.632 577.469C266.769 577.658 266.983 577.758 267.2 577.758C267.343 577.758 267.487 577.714 267.611 577.624L269.644 576.146L269.593 576.671H269.592L267.713 578.621C267.446 578.899 267.371 579.309 267.522 579.663C267.672 580.017 268.02 580.247 268.405 580.247L270.349 580.247C270.36 580.248 270.372 580.248 270.383 580.249C270.39 580.249 270.397 580.25 270.403 580.25L272.012 580.25C272.469 580.25 272.841 579.852 272.841 579.363C272.841 578.874 272.469 578.476 272.012 578.476L270.351 578.476C270.351 578.476 270.623 578.196 270.966 578.196L272.012 578.196C272.613 578.196 273.103 578.719 273.103 579.363C273.103 579.72 272.952 580.04 272.715 580.254L273.634 580.254C274.018 580.254 274.366 580.024 274.517 579.67C274.668 579.316 274.592 578.906 274.326 578.629L272.404 576.681L272.352 576.146L274.385 577.624C274.509 577.714 274.653 577.758 274.796 577.758C275.013 577.758 275.227 577.658 275.364 577.469C275.592 577.156 275.522 576.718 275.209 576.49L273.329 575.123L272.735 573.671C272.622 573.395 272.353 573.231 272.071 573.237L272.071 573.236L270.998 573.236L269.925 573.236L269.925 573.237C269.644 573.231 269.374 573.395 269.261 573.671L268.667 575.123Z" fill="#516EFF"/>
</g>
<path fill-rule="evenodd" clip-rule="evenodd" d="M313.382 621.212C313.382 620.614 313.862 620.126 314.456 620.126C315.049 620.126 315.529 620.614 315.529 621.212C315.529 621.355 315.502 621.494 315.449 621.625C315.398 621.749 315.372 621.891 315.372 622.049V622.156C315.372 622.268 315.462 622.357 315.569 622.357C316.581 622.357 316.943 622.789 316.943 623.318L316.943 623.454H317.533L317.533 624.211H316.994L317.183 624.601C317.218 624.673 317.237 624.752 317.237 624.832L317.237 628.273C317.237 628.565 317 628.802 316.708 628.802L312.204 628.802C311.912 628.802 311.675 628.565 311.675 628.273L311.675 624.832C311.675 624.752 311.693 624.673 311.728 624.601L311.917 624.211H311.396L311.396 623.454H311.968L311.968 623.318C311.968 622.789 312.349 622.357 313.342 622.357C313.45 622.357 313.539 622.268 313.539 622.156V622.049C313.539 621.891 313.513 621.749 313.463 621.625C313.409 621.494 313.382 621.355 313.382 621.212ZM314.464 625.31L316.58 625.31L316.58 625.945L314.464 625.945L314.464 625.31ZM316.58 626.58L314.464 626.58L314.464 627.215L316.58 627.215L316.58 626.58Z" fill="#8643FF"/>
<defs>
<clipPath id="clip0">
<rect width="12" height="12" fill="white" transform="translate(265 569)"/>
</clipPath>
</defs>
</svg>
