<svg width="450" height="240" viewBox="0 0 450 240" fill="none" xmlns="http://www.w3.org/2000/svg">
<path d="M279.336 232.688C282.075 231.155 285.589 231.098 288.377 232.541C291.164 233.983 293.141 236.883 293.463 240C287.691 240.006 282.005 238.661 279.336 232.688Z" fill="#E7E8E5"/>
<path d="M286.059 226.788C289.921 228.051 294.397 227.247 297.575 224.718C300.753 222.191 302.536 218.016 302.163 213.977C294.834 215.411 287.95 218.538 286.059 226.788Z" fill="#E7E8E5"/>
<path d="M260.934 236.533C260.931 236.523 261.055 236.475 261.295 236.39C261.564 236.299 261.914 236.182 262.348 236.035C263.266 235.738 264.592 235.306 266.221 234.74C269.481 233.619 273.956 231.983 278.779 229.887C281.187 228.831 283.451 227.759 285.484 226.732C287.508 225.689 289.301 224.692 290.77 223.795C292.225 222.88 293.387 222.106 294.127 221.494C294.885 220.902 295.254 220.515 295.279 220.541C295.286 220.548 295.197 220.646 295.018 220.827C294.836 221.005 294.581 221.283 294.201 221.583C293.478 222.227 292.329 223.03 290.882 223.974C289.421 224.897 287.633 225.916 285.61 226.976C283.578 228.018 281.312 229.101 278.899 230.159C274.065 232.26 269.569 233.867 266.288 234.939C264.649 235.48 263.311 235.882 262.382 236.145C261.941 236.27 261.586 236.37 261.312 236.448C261.067 236.513 260.936 236.543 260.934 236.533Z" fill="#DADBD8"/>
<path d="M286.749 236.043C286.72 236.085 286.05 235.621 284.899 235C283.751 234.377 282.095 233.633 280.172 233.104C278.247 232.581 276.443 232.38 275.136 232.333C273.828 232.282 273.015 232.341 273.012 232.29C273.01 232.269 273.211 232.237 273.578 232.197C273.945 232.152 274.479 232.124 275.14 232.123C276.461 232.117 278.297 232.288 280.251 232.818C282.202 233.354 283.869 234.14 285.003 234.817C285.57 235.154 286.017 235.45 286.309 235.675C286.604 235.897 286.761 236.026 286.749 236.043Z" fill="#DADBD8"/>
<path d="M150.584 210.398C149.193 214.097 149.793 218.479 152.128 221.67C154.463 224.862 158.463 226.767 162.419 226.571C161.322 219.391 158.555 212.576 150.584 210.398Z" fill="#E7E8E5"/>
<path d="M149.459 206.875C149.507 206.865 149.703 207.659 150.118 208.911C150.532 210.163 151.199 211.862 152.148 213.634C153.102 215.404 154.151 216.898 154.967 217.935C155.781 218.972 156.336 219.576 156.301 219.61C156.286 219.624 156.133 219.487 155.867 219.226C155.6 218.968 155.234 218.573 154.803 218.067C153.94 217.057 152.85 215.564 151.886 213.774C150.925 211.982 150.282 210.25 149.918 208.973C149.734 208.335 149.606 207.813 149.539 207.447C149.468 207.082 149.439 206.88 149.459 206.875Z" fill="#DADBD8"/>
<path d="M36.3661 66.485C34.2103 72.2162 35.1395 79.0037 38.7572 83.9479C42.375 88.8921 48.5704 91.8424 54.6978 91.5395C52.9992 80.417 48.7133 69.859 36.3661 66.485Z" fill="#E7E8E5"/>
<path d="M34.6212 61.0281C34.6413 61.0241 34.7353 61.3275 34.8884 61.8796C35.0362 62.4323 35.272 63.2267 35.5872 64.1997C36.2151 66.1451 37.2405 68.7863 38.714 71.5364C40.1947 74.2848 41.8314 76.5992 43.1078 78.1973C43.745 78.9974 44.2774 79.6334 44.6572 80.0622C45.0332 80.4946 45.2343 80.7409 45.2196 80.7552C45.2047 80.7695 44.9751 80.5499 44.572 80.1404C44.1647 79.7343 43.6056 79.1172 42.9446 78.3296C41.6197 76.7578 39.9428 74.4445 38.4517 71.6767C36.9677 68.9066 35.9652 66.2329 35.3863 64.2619C35.0954 63.2763 34.8896 62.4705 34.7761 61.9076C34.6571 61.3452 34.6011 61.0327 34.6212 61.0281Z" fill="#DADBD8"/>
<path d="M55.6802 180.004C52.5954 182.482 50.8774 186.558 51.2598 190.492C51.642 194.425 54.1136 198.096 57.6183 199.936C60.3363 193.199 61.4307 185.927 55.6802 180.004Z" fill="#E7E8E5"/>
<path d="M56.5055 176.4C56.5523 176.414 56.3154 177.199 56.0346 178.487C55.7522 179.774 55.4592 181.575 55.3726 183.582C55.2909 185.591 55.432 187.411 55.6055 188.717C55.7774 190.024 55.9477 190.825 55.8997 190.836C55.8796 190.841 55.8178 190.645 55.7223 190.286C55.6236 189.928 55.5106 189.402 55.3974 188.748C55.1692 187.439 54.9926 185.601 55.0755 183.57C55.1627 181.54 55.4927 179.723 55.8298 178.439C55.9973 177.796 56.154 177.281 56.2824 176.932C56.4074 176.583 56.4858 176.393 56.5055 176.4Z" fill="#DADBD8"/>
<path d="M161.75 35.7903C165.295 37.5509 169.724 37.4049 173.146 35.4145C176.567 33.4241 178.876 29.6496 179.086 25.7029C171.817 26.0548 164.739 28.1023 161.75 35.7903Z" fill="#E7E8E5"/>
<path d="M158.125 36.5477C158.119 36.4993 158.933 36.3858 160.223 36.1023C161.513 35.82 163.275 35.3329 165.138 34.5721C167.001 33.8067 168.599 32.9187 169.715 32.2155C170.833 31.5134 171.492 31.0241 171.522 31.0629C171.534 31.0789 171.382 31.2169 171.095 31.4536C170.811 31.6925 170.379 32.0148 169.83 32.3912C168.735 33.1446 167.135 34.0736 165.251 34.847C163.367 35.6158 161.574 36.0766 160.264 36.3082C159.609 36.4245 159.075 36.4975 158.704 36.5272C158.333 36.5597 158.128 36.5683 158.125 36.5477Z" fill="#DADBD8"/>
<path d="M146.935 34.7534C152.04 33.6595 156.485 29.8748 158.372 25.0162C160.257 20.1576 159.528 14.3727 156.493 10.1323C149.29 16.4596 143.681 24.3763 146.935 34.7534Z" fill="#E7E8E5"/>
<path d="M143.821 38.5097C143.807 38.4955 143.979 38.2861 144.303 37.9211C144.63 37.5595 145.09 37.0246 145.642 36.351C146.746 35.0062 148.167 33.0585 149.463 30.7424C150.755 28.4223 151.666 26.1912 152.23 24.5458C152.513 23.7239 152.727 23.0515 152.862 22.5839C153.003 22.1173 153.09 21.8607 153.11 21.8658C153.13 21.8704 153.081 22.1361 152.974 22.6135C152.873 23.092 152.689 23.7758 152.429 24.6114C151.914 26.283 151.026 28.5478 149.724 30.8873C148.416 33.2228 146.955 35.1681 145.803 36.4862C145.228 37.146 144.741 37.6622 144.388 38.001C144.037 38.3426 143.836 38.524 143.821 38.5097Z" fill="#DADBD8"/>
<path d="M193.82 230.129C194.898 232.251 197.09 233.769 199.46 234.036C201.829 234.302 204.305 233.308 205.829 231.477C202.191 229.039 198.034 227.488 193.82 230.129Z" fill="#E7E8E5"/>
<path d="M191.797 229.193C191.841 229.108 193.561 230.108 195.911 230.698C198.257 231.308 200.246 231.255 200.244 231.351C200.245 231.387 199.751 231.447 198.946 231.427C198.143 231.408 197.03 231.289 195.837 230.986C194.645 230.68 193.612 230.251 192.899 229.882C192.184 229.513 191.779 229.224 191.797 229.193Z" fill="#DADBD8"/>
<path d="M246.805 25.3578C248.274 27.2325 250.718 28.2996 253.095 28.1034C255.471 27.9072 257.706 26.454 258.847 24.3638C254.805 22.6733 250.427 21.9541 246.805 25.3578Z" fill="#E7E8E5"/>
<path d="M244.633 24.831C244.66 24.7386 246.541 25.3887 248.961 25.5136C251.38 25.6591 253.322 25.2233 253.338 25.318C253.346 25.3528 252.872 25.5074 252.08 25.6431C251.288 25.78 250.173 25.8775 248.944 25.8102C247.716 25.7401 246.619 25.5188 245.847 25.2946C245.075 25.0711 244.621 24.8646 244.633 24.831Z" fill="#DADBD8"/>
<path d="M384.109 42.9018C387.925 43.9524 392.243 42.9634 395.217 40.357C398.192 37.75 399.734 33.6066 399.183 29.6942C392.118 31.428 385.566 34.7883 384.109 42.9018Z" fill="#E7E8E5"/>
<path d="M380.696 44.3373C380.68 44.2911 381.456 44.0247 382.667 43.5C383.878 42.9765 385.514 42.162 387.197 41.0602C388.877 39.9537 390.275 38.7766 391.235 37.8737C392.197 36.9715 392.75 36.3658 392.786 36.3977C392.802 36.4114 392.679 36.5762 392.443 36.8631C392.209 37.1523 391.848 37.5504 391.382 38.0243C390.451 38.9728 389.06 40.1893 387.36 41.3082C385.659 42.4227 383.989 43.2166 382.748 43.6939C382.127 43.9335 381.617 44.1074 381.259 44.2067C380.901 44.3099 380.702 44.3567 380.696 44.3373Z" fill="#DADBD8"/>
<path d="M397.631 216.73C404.343 215.183 410.129 210.101 412.518 203.654C414.906 197.206 413.825 189.59 409.736 184.059C400.364 192.551 393.127 203.109 397.631 216.73Z" fill="#E7E8E5"/>
<path d="M393.602 221.748C393.587 221.734 393.815 221.459 394.239 220.976C394.668 220.496 395.268 219.783 395.985 218.885C396.706 217.991 397.52 216.889 398.374 215.635C399.216 214.372 400.093 212.951 400.928 211.411C401.754 209.865 402.456 208.35 403.045 206.952C403.621 205.547 404.092 204.263 404.441 203.168C404.794 202.075 405.057 201.183 405.221 200.562C405.392 199.941 405.495 199.6 405.515 199.605C405.535 199.61 405.47 199.959 405.333 200.59C405.204 201.221 404.971 202.125 404.641 203.23C404.316 204.338 403.864 205.637 403.299 207.056C402.72 208.468 402.021 209.996 401.19 211.551C400.351 213.101 399.461 214.527 398.6 215.789C397.729 217.041 396.894 218.136 396.148 219.018C395.407 219.902 394.781 220.596 394.325 221.053C393.874 221.515 393.617 221.763 393.602 221.748Z" fill="#DADBD8"/>
<path d="M320.046 144.824C316.437 124.721 299.138 107.166 278.738 105.508C273.441 105.077 268.128 105.647 262.82 106.216C256.992 106.841 251.169 107.466 245.376 106.768C236.087 105.649 227.267 101.008 221.094 93.9913C211.959 83.6084 208.854 68.8438 199.176 58.9634C185.835 45.344 162.553 45.1289 146.323 55.1508C130.093 65.1726 120.279 83.2537 115.788 101.764L115.611 107.393C114.633 126.592 119.693 148.906 130.857 166.02C142.165 183.355 149.602 190.514 170.213 202.981C187.714 213.567 221.985 218.221 242.445 218.712C262.905 219.204 283.925 213.117 299.312 199.651C314.699 186.185 323.657 164.926 320.046 144.824Z" fill="#63BAFF"/>
<path d="M244.737 218.74C243.973 218.74 243.209 218.731 242.446 218.712C221.985 218.221 187.715 213.567 170.213 202.98C154.568 193.517 146.513 187.111 138.594 176.992L139.007 167.55L142.136 167.686L158.116 168.383L158.999 148.176L139.891 147.343L143.853 56.7721C144.66 56.2103 145.483 55.6702 146.324 55.1507C153.744 50.5686 162.636 48.1271 171.381 48.1271C176.593 48.1271 181.752 48.9945 186.514 50.7951C181.959 53.3279 177.928 56.686 174.421 60.8682C165.839 71.1005 161.547 85.6952 161.543 104.651C161.543 105.067 161.545 105.485 161.549 105.906L161.881 140.444C162.071 160.082 166.684 175.009 175.721 185.225C184.632 195.298 196.59 200.334 211.6 200.334C211.815 200.334 212.033 200.332 212.25 200.331C227.493 200.185 239.5 194.918 248.271 184.53C256.853 174.366 261.147 159.774 261.15 140.752C261.15 140.334 261.148 139.914 261.144 139.493L260.825 106.428C261.49 106.359 262.155 106.287 262.82 106.216C266.826 105.786 270.833 105.357 274.835 105.357C276.137 105.357 277.439 105.402 278.739 105.508C288.302 106.285 297.184 110.556 304.294 116.946L282.272 160.525L284.393 175.767L300.311 174.213V174.214L317.615 172.524C314.016 182.895 307.596 192.402 299.312 199.651C284.5 212.616 264.466 218.74 244.737 218.74ZM273.646 193.88C276.293 195.297 278.871 195.902 281.37 195.902C286.616 195.902 291.504 193.235 295.894 189.838C293.354 187.177 289.676 185.662 286 185.662C285.223 185.662 284.444 185.73 283.678 185.869C279.287 186.666 275.388 189.78 273.646 193.88ZM211.752 180.107C203.931 180.107 197.923 177.178 193.727 171.316C189.476 165.382 187.293 156.197 187.173 143.76L186.769 101.793C186.765 101.431 186.764 101.071 186.764 100.715C186.767 88.8936 188.742 80.0786 192.69 74.2732C195.64 69.9319 199.62 67.1458 204.629 65.9156C210.467 74.9855 213.923 85.8389 221.094 93.9912C225.025 98.4591 230.029 101.964 235.545 104.209L235.921 143.293C235.924 143.659 235.926 144.023 235.926 144.384C235.924 156.336 233.967 165.216 230.054 171.02C226.022 177.001 220.023 180.029 212.055 180.106C211.954 180.106 211.853 180.107 211.752 180.107Z" fill="#EBF6FF"/>
<path d="M340.195 215.082C340.248 220.517 335.875 224.965 330.429 225.017C324.983 225.069 320.525 220.706 320.473 215.271C320.421 209.837 324.793 205.389 330.24 205.337C335.685 205.284 340.144 209.648 340.195 215.082Z" fill="#63BAFF"/>
<path d="M330.332 225.017C324.93 225.017 320.525 220.674 320.473 215.271C320.473 215.239 320.473 215.207 320.473 215.176C320.472 209.785 324.825 205.388 330.24 205.337C330.272 205.336 330.304 205.336 330.336 205.336C335.739 205.336 340.144 209.68 340.195 215.082C340.196 215.114 340.196 215.146 340.196 215.178C340.197 220.569 335.843 224.965 330.429 225.017C330.396 225.017 330.364 225.017 330.332 225.017Z" fill="#EBF6FF"/>
<path d="M235.52 101.326C235.401 88.9617 233.234 79.8268 229.019 73.9256C224.805 68.0244 218.712 65.1117 210.745 65.1882C202.775 65.2646 196.757 68.293 192.693 74.2735C188.626 80.254 186.653 89.4288 186.773 101.794L187.176 143.761C187.296 156.197 189.48 165.382 193.731 171.317C197.98 177.254 204.089 180.182 212.058 180.106C220.026 180.03 226.026 177.001 230.057 171.021C234.088 165.04 236.044 155.797 235.924 143.294L235.52 101.326ZM261.147 139.493C261.336 159.131 257.045 174.143 248.275 184.53C239.504 194.919 227.496 200.185 212.253 200.331C196.938 200.478 184.763 195.443 175.725 185.225C166.688 175.009 162.074 160.082 161.885 140.444L161.553 105.906C161.364 86.3388 165.654 71.3255 174.425 60.8685C183.194 50.4115 195.235 45.1097 210.55 44.9632C225.794 44.8172 237.936 49.8874 246.975 60.1732C256.013 70.4591 260.627 85.3875 260.815 104.955L261.147 139.493Z" fill="#63BAFF"/>
<path d="M211.6 200.334C196.59 200.334 184.632 195.298 175.721 185.225C166.684 175.009 162.071 160.082 161.881 140.444L161.549 105.906C161.545 105.485 161.543 105.067 161.543 104.651C161.547 85.6954 165.839 71.1007 174.421 60.8684C183.19 50.4115 195.231 45.1097 210.546 44.9631C210.759 44.9608 210.973 44.9597 211.185 44.9597C226.13 44.9597 238.059 50.0305 246.971 60.1732C256.009 70.4591 260.623 85.3874 260.811 104.955L261.144 139.493C261.148 139.914 261.15 140.334 261.149 140.752C261.147 159.774 256.853 174.366 248.271 184.53C239.5 194.919 227.493 200.185 212.25 200.331C212.033 200.333 211.815 200.334 211.6 200.334ZM186.764 100.715C186.764 101.071 186.765 101.431 186.769 101.794L187.173 143.761C187.293 156.197 189.476 165.382 193.727 171.317C197.923 177.178 203.931 180.107 211.752 180.107C211.853 180.107 211.953 180.106 212.055 180.106C220.023 180.029 226.022 177.001 230.054 171.021C233.967 165.216 235.924 156.336 235.926 144.384C235.926 144.023 235.924 143.66 235.921 143.293L235.517 101.326C235.398 88.9617 233.23 79.8267 229.016 73.9255C224.856 68.0996 218.863 65.1864 211.045 65.1864C210.944 65.1864 210.843 65.187 210.741 65.1881C202.772 65.2645 196.754 68.293 192.689 74.2734C188.742 80.0788 186.767 88.8938 186.764 100.715Z" fill="#0072CE"/>
<path d="M250.067 101.187C249.948 88.8218 247.782 79.6868 243.566 73.7856C239.352 67.8844 233.259 64.9718 225.291 65.0482C217.323 65.1246 211.305 68.1531 207.24 74.1335C203.174 80.1146 201.201 89.2889 201.32 101.654L201.724 143.621C201.843 156.058 204.027 165.242 208.278 171.177C212.527 177.114 218.636 180.042 226.606 179.965C234.573 179.89 240.573 176.861 244.605 170.881C248.635 164.901 250.592 155.658 250.471 143.154L250.067 101.187ZM275.694 139.353C275.883 158.992 271.592 174.003 262.822 184.39C254.051 194.779 242.043 200.045 226.8 200.191C211.485 200.338 199.31 195.303 190.272 185.085C181.234 174.869 176.621 159.942 176.432 140.304L176.1 105.766C175.911 86.1988 180.201 71.1855 188.972 60.7291C197.741 50.2721 209.782 44.9704 225.097 44.8232C240.341 44.6772 252.483 49.7474 261.522 60.0333C270.561 70.3198 275.174 85.2475 275.362 104.815L275.694 139.353Z" fill="#63BAFF"/>
<path d="M176.204 107.819C176.232 107.895 172.853 109.234 168.657 110.808C164.459 112.382 161.033 113.595 161.004 113.518C160.975 113.441 164.354 112.104 168.552 110.529C172.748 108.956 176.175 107.742 176.204 107.819Z" fill="#63BAFF"/>
<path d="M177.044 121.467C177.072 121.543 173.693 122.882 169.496 124.455C165.298 126.03 161.873 127.243 161.844 127.166C161.815 127.09 165.194 125.752 169.392 124.177C173.589 122.604 177.015 121.39 177.044 121.467Z" fill="#63BAFF"/>
<path d="M177.887 135.115C177.916 135.191 174.537 136.529 170.341 138.103C166.142 139.677 162.717 140.891 162.688 140.814C162.659 140.737 166.038 139.4 170.236 137.825C174.432 136.252 177.858 135.038 177.887 135.115Z" fill="#63BAFF"/>
<path d="M178.723 148.763C178.752 148.839 175.372 150.177 171.176 151.751C166.978 153.325 163.552 154.538 163.524 154.462C163.494 154.385 166.873 153.047 171.071 151.473C175.268 149.899 178.694 148.686 178.723 148.763Z" fill="#63BAFF"/>
<path d="M179.566 162.41C179.573 162.429 179.387 162.521 179.043 162.668C178.699 162.816 178.198 163.022 177.577 163.268C176.334 163.763 174.611 164.427 172.701 165.143C170.79 165.859 169.055 166.492 167.793 166.937C167.163 167.159 166.65 167.334 166.294 167.448C165.938 167.563 165.738 167.617 165.731 167.598C165.723 167.579 165.91 167.488 166.254 167.341C166.597 167.192 167.098 166.988 167.72 166.74C168.962 166.246 170.685 165.582 172.596 164.865C174.506 164.149 176.241 163.516 177.503 163.072C178.133 162.85 178.645 162.675 179.002 162.56C179.358 162.445 179.559 162.391 179.566 162.41Z" fill="#63BAFF"/>
<path d="M183.473 174.895C183.488 174.933 182.825 175.222 181.743 175.656C180.66 176.091 179.158 176.671 177.492 177.296C175.826 177.921 174.312 178.471 173.21 178.855C172.109 179.24 171.421 179.458 171.406 179.419C171.392 179.381 172.054 179.093 173.137 178.659C174.219 178.224 175.722 177.643 177.388 177.019C179.054 176.394 180.568 175.844 181.669 175.459C182.77 175.075 183.459 174.857 183.473 174.895Z" fill="#63BAFF"/>
<path d="M191.831 186.349C191.845 186.387 191.256 186.648 190.294 187.038C189.331 187.428 187.993 187.947 186.509 188.503C185.025 189.06 183.675 189.548 182.693 189.887C181.712 190.227 181.097 190.418 181.082 190.38C181.068 190.341 181.656 190.081 182.619 189.691C183.583 189.302 184.92 188.782 186.405 188.225C187.888 187.669 189.238 187.181 190.22 186.841C191.202 186.501 191.816 186.31 191.831 186.349Z" fill="#63BAFF"/>
<path d="M205.721 193.858C205.736 193.896 205.147 194.156 204.184 194.547C203.221 194.937 201.884 195.456 200.4 196.012C198.915 196.568 197.566 197.056 196.584 197.396C195.602 197.736 194.987 197.927 194.973 197.888C194.959 197.85 195.547 197.59 196.51 197.2C197.473 196.81 198.811 196.29 200.295 195.734C201.779 195.177 203.128 194.689 204.11 194.35C205.092 194.01 205.707 193.82 205.721 193.858Z" fill="#63BAFF"/>
<path d="M247.634 164.735C247.668 164.81 243.329 166.829 237.945 169.245C232.558 171.661 228.167 173.558 228.133 173.484C228.099 173.408 232.437 171.39 237.823 168.974C243.207 166.559 247.6 164.661 247.634 164.735Z" fill="#63BAFF"/>
<path d="M250.48 153.041C250.513 153.116 246.932 154.796 242.481 156.792C238.029 158.79 234.393 160.347 234.36 160.272C234.326 160.197 237.907 158.518 242.359 156.521C246.81 154.524 250.446 152.966 250.48 153.041Z" fill="#63BAFF"/>
<path d="M251.788 139.905C251.822 139.98 248.24 141.659 243.789 143.656C239.337 145.653 235.701 147.212 235.668 147.137C235.634 147.062 239.215 145.382 243.668 143.385C248.118 141.388 251.754 139.83 251.788 139.905Z" fill="#63BAFF"/>
<path d="M253.097 126.769C253.13 126.844 249.549 128.524 245.098 130.52C240.646 132.518 237.01 134.076 236.977 134.001C236.943 133.926 240.524 132.247 244.976 130.249C249.427 128.253 253.063 126.695 253.097 126.769Z" fill="#63BAFF"/>
<path d="M254.405 113.633C254.439 113.708 250.857 115.388 246.407 117.384C241.954 119.382 238.319 120.939 238.285 120.865C238.251 120.79 241.832 119.111 246.285 117.114C250.735 115.117 254.371 113.558 254.405 113.633Z" fill="#63BAFF"/>
<path d="M251.788 101.935C251.822 102.01 248.24 103.69 243.789 105.686C239.337 107.684 235.701 109.241 235.668 109.167C235.634 109.092 239.215 107.413 243.668 105.416C248.118 103.419 251.754 101.86 251.788 101.935Z" fill="#63BAFF"/>
<path d="M251.788 89.3426C251.822 89.4168 248.24 91.097 243.789 93.0931C239.337 95.091 235.701 96.6485 235.668 96.5738C235.634 96.4991 239.215 94.8201 243.668 92.8228C248.118 90.8261 251.754 89.2674 251.788 89.3426Z" fill="#63BAFF"/>
<path d="M250.48 77.4832C250.513 77.5579 246.932 79.2375 242.481 81.2342C238.029 83.2315 234.393 84.7897 234.36 84.715C234.326 84.6397 237.907 82.9606 242.359 80.9633C246.81 78.9666 250.446 77.4085 250.48 77.4832Z" fill="#63BAFF"/>
<path d="M239.188 69.2223C239.222 69.2976 237.055 70.343 234.347 71.5572C231.639 72.772 229.417 73.696 229.383 73.6213C229.349 73.546 231.517 72.5011 234.225 71.2863C236.932 70.0715 239.154 69.1476 239.188 69.2223Z" fill="#63BAFF"/>
<path d="M233.149 64.1618C233.183 64.2365 231.015 65.282 228.308 66.4962C225.599 67.711 223.378 68.6349 223.344 68.5602C223.31 68.4855 225.478 67.4401 228.186 66.2253C230.893 65.0111 233.115 64.0871 233.149 64.1618Z" fill="#63BAFF"/>
<path d="M176.852 91.2753C176.881 91.3523 173.501 92.6902 169.305 94.2638C165.107 95.8379 161.681 97.0516 161.653 96.9746C161.623 96.8981 165.002 95.5601 169.2 93.986C173.397 92.4125 176.823 91.1983 176.852 91.2753Z" fill="#63BAFF"/>
<path d="M181.059 74.2545C181.088 74.3315 177.423 75.7767 172.875 77.482C168.326 79.1878 164.615 80.5081 164.586 80.4311C164.558 80.3547 168.221 78.9101 172.771 77.2042C177.318 75.4989 181.03 74.178 181.059 74.2545Z" fill="#63BAFF"/>
<path d="M192.044 57.4098C192.073 57.4868 187.426 59.2999 181.666 61.4592C175.905 63.6196 171.213 65.3083 171.184 65.2319C171.155 65.1549 175.801 63.3418 181.562 61.1814C187.321 59.0216 192.014 57.3328 192.044 57.4098Z" fill="#63BAFF"/>
<path d="M273.234 164.924C273.232 164.929 273.151 164.901 272.994 164.843C272.827 164.778 272.599 164.689 272.306 164.576C272.002 164.464 271.608 164.382 271.153 164.252C270.684 164.189 270.15 164.059 269.533 164.058C267.092 163.9 263.436 164.787 259.898 167.431C258.107 168.71 256.43 170.461 254.794 172.466C253.154 174.47 251.55 176.733 249.726 179.017C247.904 181.292 245.805 183.601 243.139 185.388C240.49 187.176 237.367 188.474 234.027 189.072C230.686 189.687 227.303 189.509 224.203 188.744C221.09 188 218.248 186.777 215.595 185.557C212.942 184.33 210.465 183.079 208.085 182.049C205.714 181.002 203.413 180.244 201.272 179.735C199.125 179.247 197.133 179.034 195.385 179.059C193.636 179.078 192.144 179.343 190.955 179.66C189.777 180.017 188.894 180.393 188.319 180.691C188.041 180.838 187.825 180.952 187.666 181.036C187.518 181.112 187.44 181.149 187.438 181.145C187.435 181.14 187.507 181.095 187.65 181.01C187.806 180.919 188.019 180.796 188.291 180.638C188.86 180.322 189.741 179.925 190.923 179.549C192.115 179.211 193.618 178.928 195.382 178.893C197.144 178.851 199.154 179.052 201.319 179.531C203.478 180.03 205.797 180.78 208.183 181.823C210.576 182.846 213.06 184.092 215.71 185.309C218.36 186.52 221.189 187.729 224.271 188.462C227.341 189.214 230.673 189.386 233.975 188.78C237.273 188.189 240.358 186.909 242.975 185.146C245.608 183.388 247.691 181.108 249.512 178.846C251.335 176.575 252.947 174.316 254.603 172.31C256.252 170.305 257.957 168.542 259.774 167.261C263.36 164.614 267.073 163.746 269.539 163.943C270.162 163.952 270.702 164.093 271.172 164.166C271.629 164.305 272.024 164.398 272.327 164.52C272.615 164.645 272.842 164.743 273.007 164.815C273.16 164.882 273.236 164.92 273.234 164.924Z" fill="white"/>
<path d="M276.838 126.856C276.844 126.887 276.431 126.941 275.727 127.174C275.025 127.414 274.047 127.876 272.968 128.649C271.877 129.408 270.695 130.468 269.304 131.565C267.903 132.656 266.242 133.702 264.392 134.581C260.685 136.36 256.967 137.052 254.296 137.184C253.627 137.239 253.019 137.219 252.488 137.231C251.955 137.21 251.497 137.201 251.123 137.172C250.779 137.137 250.495 137.108 250.265 137.085C250.07 137.062 249.968 137.045 249.969 137.035C249.969 137.024 250.074 137.022 250.271 137.025C250.5 137.034 250.784 137.044 251.13 137.056C251.516 137.059 251.969 137.062 252.488 137.065C253.015 137.038 253.619 137.043 254.281 136.975C256.928 136.79 260.598 136.073 264.264 134.313C266.094 133.443 267.741 132.416 269.136 131.349C270.524 130.273 271.729 129.222 272.848 128.476C273.957 127.715 274.97 127.274 275.692 127.065C276.056 126.967 276.341 126.902 276.538 126.882C276.734 126.855 276.837 126.846 276.838 126.856Z" fill="white"/>
<path d="M202.178 140.07C202.177 140.081 202.069 140.065 201.865 140.026C201.662 139.982 201.357 139.937 200.977 139.829C200.219 139.61 199.137 139.206 197.915 138.489C196.69 137.779 195.345 136.76 193.914 135.572C192.478 134.389 190.946 133.034 189.189 131.823C187.431 130.62 185.567 129.761 183.766 129.343C181.974 128.898 180.295 128.803 178.901 128.881C177.503 128.951 176.387 129.185 175.63 129.379C174.869 129.571 174.459 129.719 174.449 129.69C174.446 129.681 174.545 129.637 174.739 129.563C174.933 129.489 175.218 129.373 175.599 129.268C176.353 129.038 177.473 128.77 178.887 128.671C180.297 128.565 182.004 128.639 183.831 129.077C185.664 129.486 187.577 130.358 189.358 131.578C191.136 132.804 192.667 134.172 194.089 135.362C195.507 136.558 196.827 137.584 198.023 138.309C199.216 139.04 200.27 139.467 201.011 139.719C201.76 139.942 202.184 140.045 202.178 140.07Z" fill="white"/>
<path d="M202.28 86.1606C202.286 86.18 201.948 86.3026 201.327 86.5085C201.018 86.6157 200.637 86.7366 200.186 86.8467C199.736 86.9602 199.228 87.1108 198.652 87.214C198.079 87.3332 197.451 87.4581 196.767 87.5431C196.088 87.6566 195.354 87.7096 194.583 87.7786C193.039 87.8738 191.333 87.8773 189.552 87.7181C187.772 87.5431 186.096 87.2225 184.596 86.8416C183.851 86.6305 183.14 86.4417 182.494 86.2039C181.839 85.9929 181.244 85.7534 180.704 85.5292C180.157 85.3216 179.686 85.0787 179.266 84.883C178.843 84.6914 178.491 84.5015 178.207 84.339C177.637 84.0213 177.326 83.8376 177.336 83.82C177.346 83.8023 177.676 83.9511 178.26 84.2363C178.551 84.3823 178.908 84.5557 179.335 84.7325C179.761 84.9127 180.235 85.1403 180.783 85.3347C181.324 85.5446 181.918 85.771 182.572 85.9701C183.216 86.1959 183.924 86.3739 184.665 86.5763C186.155 86.9396 187.817 87.2493 189.58 87.4227C191.344 87.5801 193.034 87.5847 194.565 87.506C195.331 87.4444 196.059 87.401 196.734 87.299C197.413 87.2254 198.039 87.113 198.611 87.0075C199.186 86.9185 199.694 86.7834 200.145 86.6853C200.598 86.5912 200.982 86.4874 201.295 86.3978C201.922 86.2267 202.274 86.1412 202.28 86.1606Z" fill="white"/>
<path d="M273.591 86.0157C273.586 86.0243 273.502 85.9838 273.349 85.8988C273.167 85.7944 272.948 85.6684 272.685 85.5167C272.402 85.3433 272.052 85.1385 271.624 84.9389C271.201 84.7336 270.733 84.4678 270.178 84.2585C269.903 84.145 269.616 84.0264 269.319 83.9026C269.019 83.7817 268.695 83.6899 268.366 83.5759C267.712 83.334 266.986 83.1692 266.228 82.9736C264.699 82.6428 262.989 82.4107 261.181 82.3827C259.373 82.3787 257.658 82.5812 256.124 82.884C255.363 83.0671 254.633 83.2188 253.975 83.4492C253.645 83.5576 253.319 83.6431 253.017 83.7589C252.717 83.877 252.429 83.991 252.152 84.1C251.593 84.2996 251.121 84.5568 250.693 84.7547C250.263 84.9469 249.909 85.1448 249.623 85.3142C249.357 85.4602 249.136 85.5828 248.953 85.6844C248.797 85.7659 248.713 85.8053 248.707 85.7967C248.702 85.7882 248.775 85.7323 248.92 85.6342C249.097 85.519 249.309 85.3804 249.564 85.2144C249.842 85.0291 250.191 84.8152 250.617 84.6064C251.041 84.3931 251.511 84.1205 252.07 83.9066C252.348 83.7909 252.636 83.67 252.937 83.5445C253.24 83.4213 253.567 83.3295 253.9 83.2143C254.562 82.9719 255.297 82.8088 256.066 82.6166C257.617 82.2949 259.353 82.0816 261.184 82.0856C263.014 82.1135 264.747 82.3576 266.29 82.7067C267.055 82.9126 267.787 83.0882 268.445 83.3426C268.776 83.4629 269.102 83.561 269.403 83.6893C269.701 83.82 269.988 83.946 270.263 84.0669C270.818 84.2905 271.283 84.5716 271.703 84.7924C272.127 85.0079 272.47 85.2287 272.746 85.4186C272.998 85.5891 273.207 85.7311 273.382 85.8492C273.525 85.9507 273.598 86.0072 273.591 86.0157Z" fill="white"/>
<path d="M238.65 47.2769C238.654 47.286 238.511 47.3704 238.236 47.5232C237.935 47.6858 237.531 47.9042 237.023 48.1785C235.966 48.7415 234.432 49.5462 232.516 50.5026C228.686 52.3927 223.303 54.9729 216.938 56.5823C213.755 57.366 210.642 57.7829 207.801 57.8485C204.959 57.9135 202.397 57.6546 200.296 57.2063C198.193 56.7631 196.541 56.1985 195.439 55.7246C194.879 55.5101 194.471 55.2809 194.184 55.1514C193.9 55.0128 193.753 54.9364 193.758 54.9273C193.762 54.9181 193.918 54.9769 194.209 55.0972C194.503 55.209 194.918 55.42 195.483 55.6174C196.593 56.0565 198.244 56.5863 200.337 56.9998C202.429 57.4196 204.973 57.6546 207.793 57.5747C210.613 57.4949 213.703 57.0728 216.866 56.2943C223.193 54.6951 228.573 52.1549 232.423 50.3139C234.323 49.3785 235.87 48.6171 236.97 48.0759C237.488 47.8221 237.901 47.6202 238.208 47.4702C238.492 47.3345 238.644 47.2677 238.65 47.2769Z" fill="white"/>
<path d="M58.1762 143.784L98.7798 145.553L101.459 84.311L100.845 84.0766L98.5734 88.4419L58.1762 143.784ZM123.911 146.647L143.018 147.48L142.135 167.686L123.027 166.854L121.558 200.428L96.4273 199.333L97.8956 165.759L32.9922 162.932L33.0413 147.545L102.196 48.4208L128.158 49.5512L123.911 146.647Z" fill="#63BAFF"/>
<path d="M121.558 200.428L96.4273 199.333L97.8956 165.759L113.875 166.455L112.407 200.029L121.558 200.428ZM142.134 167.686L139.006 167.55L142.134 167.686ZM48.9723 163.628L32.9922 162.932L33.0413 147.545L102.196 48.4208L128.158 49.5512L118.176 49.1166L49.0212 148.241L48.9723 163.628ZM114.76 146.249L74.1557 144.48L98.7798 145.553L100.4 108.528L114.553 89.1383L116.825 84.7724L117.438 85.0068L114.76 146.249Z" fill="#0072CE"/>
<path d="M74.1561 144.48L114.76 146.249L117.439 85.0069L116.825 84.7725L114.553 89.1384L74.1561 144.48ZM139.89 147.343L158.998 148.176L158.115 168.383L139.006 167.55L137.537 201.124L112.408 200.03L113.876 166.456L48.9727 163.628L49.0216 148.241L118.177 49.1167L144.138 50.2476L139.89 147.343Z" fill="#63BAFF"/>
<path d="M49.3446 151.166C49.3533 151.185 49.1327 151.307 48.7262 151.512C48.32 151.717 47.7268 152.003 46.9901 152.349C45.5166 153.038 43.465 153.957 41.1775 154.922C38.8891 155.887 36.7982 156.715 35.2756 157.289C34.5143 157.576 33.8956 157.801 33.4649 157.949C33.0343 158.097 32.7929 158.17 32.7853 158.15C32.7782 158.131 33.0052 158.022 33.4227 157.841C33.8983 157.641 34.4924 157.39 35.1979 157.094C36.7578 156.443 38.8013 155.591 41.0616 154.649C43.3132 153.688 45.3493 152.82 46.9039 152.156C47.6087 151.859 48.2026 151.608 48.6781 151.407C49.099 151.235 49.3363 151.147 49.3446 151.166Z" fill="#63BAFF"/>
<path d="M58.647 134.087C58.6554 134.106 58.3484 134.267 57.7858 134.542C57.2228 134.815 56.403 135.2 55.3835 135.663C53.3467 136.59 50.5131 137.828 47.3678 139.156C44.2199 140.483 41.3554 141.648 39.2693 142.46C38.2266 142.866 37.3787 143.185 36.7897 143.397C36.2003 143.608 35.8706 143.716 35.8634 143.697C35.8558 143.678 36.1713 143.534 36.7473 143.29C37.3704 143.029 38.194 142.682 39.1902 142.264C41.2974 141.38 44.1254 140.194 47.2517 138.882C50.372 137.56 53.1954 136.362 55.2987 135.471C56.2938 135.049 57.1158 134.7 57.7383 134.436C58.315 134.194 58.6382 134.069 58.647 134.087Z" fill="#63BAFF"/>
<path d="M70.0039 118.858C70.0124 118.878 69.6912 119.038 69.1029 119.314C68.5143 119.588 67.6573 119.973 66.593 120.436C64.4648 121.364 61.5071 122.602 58.2243 123.93C54.9392 125.256 51.9511 126.421 49.7758 127.232C48.6886 127.638 47.8047 127.957 47.1909 128.169C46.5767 128.38 46.234 128.488 46.2267 128.468C46.2195 128.449 46.5488 128.305 47.1503 128.061C47.7977 127.801 48.6578 127.455 49.6999 127.036C51.8952 126.154 54.8483 124.967 58.1126 123.655C61.3705 122.331 64.3186 121.133 66.5108 120.242C67.5514 119.819 68.4103 119.47 69.0569 119.208C69.6588 118.965 69.9957 118.84 70.0039 118.858Z" fill="#63BAFF"/>
<path d="M115.495 136.447C115.503 136.466 115.281 136.584 114.873 136.782C114.466 136.98 113.871 137.256 113.132 137.588C111.655 138.253 109.6 139.14 107.307 140.066C105.014 140.993 102.919 141.784 101.394 142.332C100.632 142.606 100.013 142.822 99.5821 142.962C99.1511 143.103 98.9099 143.172 98.9025 143.153C98.8951 143.133 99.1231 143.028 99.5409 142.854C100.018 142.661 100.613 142.421 101.32 142.135C102.883 141.512 104.931 140.695 107.196 139.791C109.451 138.868 111.491 138.033 113.049 137.395C113.755 137.11 114.35 136.869 114.827 136.676C115.249 136.511 115.486 136.429 115.495 136.447Z" fill="#63BAFF"/>
<path d="M113.647 167.78C113.655 167.799 113.441 167.917 113.046 168.114C112.652 168.312 112.075 168.587 111.36 168.92C109.929 169.584 107.938 170.471 105.716 171.397C103.493 172.324 101.461 173.115 99.9815 173.664C99.2425 173.938 98.6412 174.154 98.2228 174.294C97.8044 174.436 97.5695 174.505 97.5627 174.486C97.5553 174.466 97.7759 174.361 98.1811 174.187C98.6458 173.993 99.2219 173.753 99.9049 173.468C101.423 172.843 103.407 172.027 105.601 171.124C107.786 170.201 109.762 169.367 111.275 168.728C111.958 168.443 112.534 168.202 112.998 168.009C113.408 167.844 113.638 167.762 113.647 167.78Z" fill="#63BAFF"/>
<path d="M113.381 178.762C113.389 178.78 113.175 178.898 112.78 179.096C112.386 179.294 111.81 179.57 111.095 179.902C109.664 180.567 107.672 181.453 105.45 182.38C103.227 183.306 101.196 184.098 99.7164 184.646C98.9768 184.92 98.3756 185.136 97.9572 185.276C97.5388 185.418 97.3039 185.487 97.2971 185.467C97.2896 185.449 97.5102 185.342 97.9155 185.169C98.3801 184.975 98.9563 184.735 99.6393 184.45C101.158 183.825 103.142 183.008 105.336 182.105C107.52 181.183 109.496 180.349 111.009 179.71C111.692 179.425 112.268 179.185 112.733 178.991C113.142 178.825 113.372 178.743 113.381 178.762Z" fill="#63BAFF"/>
<path d="M113.115 189.744C113.124 189.762 112.91 189.88 112.515 190.078C112.12 190.276 111.544 190.551 110.829 190.884C109.398 191.548 107.407 192.435 105.185 193.361C102.962 194.288 100.93 195.079 99.4508 195.627C98.7112 195.902 98.1099 196.117 97.6916 196.258C97.2738 196.4 97.0389 196.469 97.0314 196.449C97.024 196.43 97.2446 196.325 97.6498 196.15C98.1145 195.957 98.6912 195.717 99.3736 195.432C100.893 194.807 102.876 193.991 105.07 193.087C107.255 192.165 109.231 191.33 110.743 190.692C111.426 190.407 112.003 190.166 112.467 189.972C112.876 189.808 113.107 189.725 113.115 189.744Z" fill="#63BAFF"/>
<path d="M115.788 124.845C115.796 124.864 115.574 124.982 115.167 125.18C114.759 125.379 114.164 125.654 113.425 125.987C111.948 126.652 109.893 127.539 107.6 128.465C105.307 129.392 103.212 130.181 101.688 130.73C100.926 131.004 100.306 131.219 99.875 131.36C99.4441 131.501 99.2029 131.57 99.1955 131.551C99.1886 131.532 99.4167 131.426 99.8345 131.251C100.311 131.06 100.907 130.819 101.613 130.534C103.177 129.91 105.224 129.093 107.489 128.189C109.744 127.267 111.784 126.432 113.342 125.794C114.048 125.508 114.643 125.267 115.12 125.074C115.542 124.909 115.78 124.827 115.788 124.845Z" fill="#63BAFF"/>
<path d="M116.088 113.244C116.096 113.262 115.875 113.381 115.467 113.579C115.06 113.777 114.465 114.053 113.726 114.385C112.249 115.05 110.193 115.936 107.901 116.863C105.608 117.789 103.513 118.58 101.988 119.128C101.226 119.403 100.606 119.618 100.175 119.759C99.7449 119.9 99.5031 119.969 99.4963 119.949C99.4888 119.93 99.7169 119.824 100.135 119.65C100.612 119.458 101.207 119.217 101.913 118.932C103.477 118.308 105.524 117.491 107.789 116.588C110.045 115.664 112.085 114.829 113.643 114.192C114.349 113.906 114.944 113.665 115.421 113.473C115.843 113.308 116.08 113.225 116.088 113.244Z" fill="#63BAFF"/>
<path d="M116.384 101.642C116.393 101.66 116.182 101.774 115.794 101.963C115.406 102.153 114.84 102.417 114.137 102.735C112.731 103.371 110.774 104.219 108.59 105.102C106.405 105.985 104.408 106.734 102.955 107.254C102.228 107.514 101.637 107.718 101.226 107.851C100.815 107.985 100.585 108.049 100.578 108.03C100.571 108.01 100.788 107.909 101.186 107.742C101.644 107.558 102.211 107.328 102.88 107.058C104.375 106.462 106.324 105.686 108.478 104.827C110.624 103.948 112.564 103.152 114.053 102.542C114.723 102.272 115.289 102.043 115.748 101.858C116.15 101.701 116.376 101.623 116.384 101.642Z" fill="#63BAFF"/>
<path d="M117.698 90.801C117.726 90.8774 116.444 91.4226 114.833 92.0186C113.221 92.6146 111.892 93.0349 111.864 92.9579C111.836 92.8815 113.118 92.3363 114.729 91.7403C116.34 91.1443 117.67 90.724 117.698 90.801Z" fill="#63BAFF"/>
<path d="M81.3399 103.069C81.3481 103.087 81.0269 103.249 80.4386 103.524C79.8501 103.798 78.993 104.183 77.9287 104.646C75.8008 105.573 72.843 106.812 69.56 108.14C66.2749 109.466 63.287 110.631 61.1116 111.442C60.0243 111.849 59.1404 112.168 58.5267 112.38C57.9125 112.59 57.5698 112.697 57.5626 112.679C57.5552 112.659 57.8846 112.515 58.486 112.271C59.1335 112.011 59.9935 111.665 61.0356 111.246C63.2312 110.364 66.1841 109.177 69.4484 107.865C72.7066 106.541 75.6546 105.343 77.847 104.452C78.8873 104.03 79.746 103.68 80.3926 103.418C80.9945 103.175 81.3314 103.05 81.3399 103.069Z" fill="#63BAFF"/>
<path d="M92.676 87.2792C92.684 87.298 92.3628 87.4588 91.7747 87.7343C91.186 88.0081 90.3292 88.393 89.2644 88.8561C87.137 89.7841 84.179 91.0222 80.8959 92.3505C77.6111 93.6771 74.6229 94.8417 72.4477 95.6527C71.3604 96.0588 70.4768 96.3776 69.8628 96.5898C69.2484 96.8008 68.9057 96.908 68.8985 96.8886C68.8916 96.8692 69.221 96.7255 69.8219 96.482C70.4694 96.2214 71.3296 95.8757 72.3716 95.4571C74.5672 94.5742 77.52 93.3874 80.7843 92.0756C84.0426 90.7513 86.9905 89.5536 89.1827 88.6628C90.2235 88.2396 91.082 87.8911 91.7284 87.6282C92.3308 87.3858 92.6674 87.2604 92.676 87.2792Z" fill="#63BAFF"/>
<path d="M103.152 71.4896C103.161 71.5084 102.84 71.6693 102.252 71.9447C101.663 72.2185 100.806 72.6035 99.7413 73.0666C97.6135 73.9945 94.6557 75.2327 91.3727 76.561C88.0877 77.887 85.0996 79.0516 82.9245 79.8626C81.8372 80.2692 80.9534 80.5881 80.3396 80.8002C79.7254 81.0112 79.3825 81.1185 79.3751 81.0991C79.3682 81.0797 79.6975 80.936 80.2986 80.6924C80.946 80.4318 81.8062 80.0862 82.8482 79.667C85.0437 78.7847 87.9968 77.5978 91.2607 76.2855C94.5191 74.9618 97.4671 73.7641 99.6596 72.8732C100.7 72.45 101.559 72.1016 102.205 71.8387C102.807 71.5963 103.144 71.4708 103.152 71.4896Z" fill="#63BAFF"/>
<path d="M114.058 56.3081C114.067 56.3269 113.746 56.4877 113.158 56.7626C112.569 57.037 111.712 57.422 110.647 57.8851C108.519 58.813 105.562 60.0512 102.279 61.3795C98.9935 62.7055 96.0054 63.8701 93.8301 64.6811C92.743 65.0877 91.8594 65.4065 91.2456 65.6187C90.6312 65.8292 90.2882 65.9364 90.2814 65.9176C90.2739 65.8982 90.6032 65.7545 91.205 65.5104C91.852 65.2503 92.7122 64.9041 93.7541 64.4855C95.95 63.6032 98.9026 62.4163 102.167 61.104C105.425 59.7803 108.373 58.582 110.566 57.6911C111.606 57.2685 112.465 56.9195 113.111 56.6566C113.713 56.4148 114.05 56.2893 114.058 56.3081Z" fill="#63BAFF"/>
<path d="M142.995 79.506C143.003 79.5134 142.888 79.6417 142.662 79.8801C142.437 80.1196 142.105 80.4744 141.627 80.8782C140.693 81.7034 139.224 82.8002 137.184 83.7384C135.152 84.6726 132.525 85.4089 129.55 85.4762C128.065 85.5052 126.499 85.345 124.928 84.9577C123.352 84.5859 121.795 83.9505 120.255 83.2177C117.181 81.724 114.45 79.9605 111.779 78.7332C109.127 77.4784 106.508 76.8591 104.295 76.7843C102.073 76.7039 100.304 77.2064 99.189 77.7362C98.6358 78.0117 98.2146 78.2495 97.9516 78.444C97.6802 78.6271 97.5338 78.7195 97.5276 78.7115C97.5213 78.7035 97.655 78.5951 97.9168 78.3955C98.1705 78.1839 98.5855 77.9273 99.1382 77.6324C100.251 77.0632 102.045 76.5197 104.3 76.5745C106.547 76.6229 109.207 77.2303 111.894 78.4851C114.593 79.709 117.334 81.4685 120.384 82.9502C121.912 83.6768 123.45 84.3058 124.998 84.6754C126.542 85.0598 128.082 85.2241 129.546 85.2024C132.478 85.1505 135.077 84.4473 137.098 83.5467C139.127 82.6433 140.601 81.5837 141.552 80.7903C142.038 80.4025 142.381 80.0632 142.619 79.8379C142.859 79.6137 142.988 79.4991 142.995 79.506Z" fill="white"/>
<path d="M135.036 51.3067C135.045 51.3255 134.786 51.4738 134.31 51.7282C133.836 51.9871 133.128 52.3225 132.237 52.6977C131.348 53.0776 130.263 53.4683 129.038 53.8395C127.809 54.1966 126.439 54.5262 124.981 54.7686C123.521 55.0013 122.117 55.1234 120.838 55.1741C119.558 55.2106 118.405 55.185 117.44 55.1063C116.476 55.0332 115.698 54.9397 115.166 54.8445C114.634 54.7549 114.341 54.6962 114.344 54.6756C114.347 54.6551 114.646 54.6756 115.182 54.7298C115.716 54.7897 116.493 54.8502 117.453 54.8969C118.413 54.9483 119.558 54.9523 120.827 54.9009C122.095 54.8353 123.486 54.7059 124.933 54.476C126.378 54.2354 127.738 53.9165 128.961 53.5766C130.18 53.2225 131.264 52.8557 132.158 52.5033C133.053 52.1548 133.771 51.8508 134.259 51.6244C134.75 51.4025 135.026 51.289 135.036 51.3067Z" fill="white"/>
<path d="M94.4578 114.646C94.4407 114.66 94.2612 114.451 93.9428 114.07C93.5856 113.646 93.1324 113.108 92.59 112.465C91.4332 111.123 89.7814 109.312 87.8038 107.472C86.815 106.556 85.809 105.754 84.8043 105.17C83.8025 104.583 82.8072 104.229 81.9465 104.063C80.208 103.722 79.1167 104.113 79.1134 104.044C79.1107 104.034 79.175 104.009 79.3005 103.969C79.4259 103.927 79.6152 103.881 79.8627 103.839C80.3558 103.754 81.0937 103.706 81.9838 103.856C82.8724 103.999 83.907 104.344 84.9409 104.933C85.9778 105.518 87.0081 106.329 88.0058 107.254C89.9969 109.106 91.6321 110.948 92.7512 112.33C93.3119 113.02 93.7445 113.595 94.0349 113.999C94.3252 114.403 94.4732 114.635 94.4578 114.646Z" fill="white"/>
<path d="M140.05 131.879C140.055 131.888 139.979 131.947 139.827 132.051C139.672 132.151 139.454 132.315 139.148 132.486C138.55 132.85 137.644 133.317 136.469 133.757C134.14 134.647 130.585 135.293 126.795 134.521C123.004 133.745 119.989 131.755 118.199 130.024C117.29 129.158 116.642 128.373 116.235 127.804C116.022 127.527 115.885 127.291 115.783 127.138C115.684 126.983 115.637 126.899 115.646 126.893C115.666 126.878 115.893 127.191 116.327 127.734C116.759 128.278 117.426 129.034 118.342 129.87C120.149 131.543 123.131 133.467 126.854 134.23C130.577 134.988 134.077 134.388 136.397 133.56C137.569 133.15 138.48 132.715 139.092 132.385C139.704 132.057 140.036 131.858 140.05 131.879Z" fill="white"/>
<path d="M156.697 167.989C156.697 167.989 156.637 167.902 156.534 167.725C156.425 167.538 156.275 167.275 156.08 166.936C155.712 166.226 155.043 165.25 154.125 164.044C153.88 163.755 153.62 163.449 153.348 163.128C153.212 162.968 153.072 162.804 152.929 162.636C152.771 162.481 152.61 162.323 152.446 162.161C152.116 161.837 151.773 161.5 151.416 161.149C151.031 160.829 150.63 160.497 150.216 160.154C148.527 158.821 146.444 157.484 143.941 156.431C141.442 155.387 138.527 154.606 135.341 154.438C132.159 154.254 128.724 154.745 125.38 156.035C122.038 157.349 118.808 159.329 115.392 161.245C113.681 162.201 111.909 163.136 110.024 163.9C108.142 164.663 106.137 165.249 104.051 165.465C101.965 165.703 99.8759 165.51 97.8864 165.093C95.8905 164.673 94.001 163.967 92.2109 163.158C88.6232 161.527 85.4786 159.374 82.5453 157.296C79.6102 155.213 76.8417 153.205 74.0793 151.597C71.324 149.993 68.5842 148.762 65.9459 148.13C63.3075 147.504 60.8198 147.398 58.6826 147.653C56.5377 147.885 54.7543 148.495 53.4038 149.178C52.0332 149.842 51.1435 150.638 50.5295 151.143C50.2536 151.42 50.0402 151.634 49.8872 151.787C49.7412 151.931 49.6602 152 49.6602 152C49.6602 152 49.7256 151.918 49.8649 151.766C50.0134 151.608 50.2208 151.386 50.4885 151.1C51.0922 150.578 51.977 149.762 53.3511 149.074C54.7047 148.37 56.5004 147.738 58.6627 147.488C60.8181 147.216 63.328 147.306 65.9946 147.926C68.6648 148.551 71.4279 149.782 74.2039 151.385C76.9855 152.991 79.7666 154.998 82.7039 157.073C85.6393 159.144 88.7713 161.279 92.3321 162.893C94.1079 163.694 95.9791 164.392 97.9487 164.805C99.9131 165.215 101.969 165.404 104.02 165.17C106.071 164.957 108.048 164.381 109.912 163.626C111.78 162.871 113.542 161.943 115.25 160.991C118.66 159.084 121.904 157.099 125.28 155.78C126.129 155.468 126.968 155.159 127.829 154.959C128.257 154.85 128.677 154.721 129.102 154.632C129.531 154.562 129.958 154.492 130.381 154.422C132.076 154.145 133.749 154.129 135.355 154.192C138.573 154.373 141.509 155.173 144.022 156.237C146.54 157.312 148.631 158.671 150.32 160.025C150.734 160.374 151.135 160.711 151.52 161.035C151.876 161.391 152.219 161.734 152.547 162.062C152.711 162.227 152.872 162.387 153.029 162.544C153.17 162.714 153.31 162.881 153.445 163.044C153.715 163.37 153.973 163.679 154.216 163.973C155.125 165.195 155.78 166.185 156.132 166.907C156.316 167.252 156.459 167.52 156.561 167.712C156.656 167.893 156.697 167.989 156.697 167.989Z" fill="white"/>
<path d="M139.423 191.812C139.425 191.822 139.325 191.848 139.133 191.888C138.907 191.931 138.628 191.984 138.289 192.049C137.922 192.121 137.472 192.197 136.943 192.245C136.416 192.298 135.817 192.386 135.148 192.399C134.813 192.414 134.463 192.429 134.1 192.444C133.736 192.458 133.356 192.438 132.963 192.435C132.176 192.441 131.339 192.359 130.458 192.291C128.701 192.099 126.781 191.757 124.817 191.197C122.858 190.617 121.055 189.875 119.469 189.096C118.688 188.681 117.938 188.302 117.278 187.875C116.945 187.666 116.614 187.48 116.314 187.274C116.016 187.065 115.729 186.865 115.454 186.673C114.898 186.304 114.439 185.908 114.023 185.58C113.603 185.258 113.264 184.952 112.993 184.695C112.742 184.458 112.536 184.265 112.369 184.106C112.228 183.97 112.158 183.894 112.165 183.887C112.172 183.88 112.255 183.94 112.409 184.062C112.586 184.209 112.804 184.388 113.069 184.607C113.35 184.85 113.699 185.142 114.126 185.451C114.551 185.764 115.014 186.146 115.575 186.501C115.851 186.687 116.139 186.881 116.439 187.082C116.74 187.282 117.072 187.461 117.405 187.664C118.066 188.078 118.814 188.447 119.591 188.852C121.17 189.611 122.96 190.337 124.9 190.912C126.846 191.467 128.746 191.813 130.487 192.019C131.36 192.094 132.189 192.184 132.969 192.189C133.359 192.197 133.736 192.223 134.098 192.216C134.459 192.206 134.806 192.198 135.139 192.189C135.803 192.189 136.4 192.116 136.927 192.079C137.454 192.048 137.904 191.989 138.272 191.934C138.613 191.892 138.894 191.857 139.122 191.828C139.318 191.808 139.421 191.801 139.423 191.812Z" fill="white"/>
<path d="M306.628 153.275L347.078 149.328L341.098 88.3177L340.457 88.1723L338.823 92.8131L306.628 153.275ZM372.112 146.884L391.147 145.027L393.12 165.156L374.085 167.014L377.363 200.46L352.329 202.904L349.051 169.457L284.394 175.767L282.273 160.525L336.77 52.6813L362.632 50.157L372.112 146.884Z" fill="#63BAFF"/>
<path d="M352.329 202.903L349.051 169.457L317.622 172.524L364.969 167.903L368.248 201.35L377.363 200.46L352.329 202.903ZM284.394 175.767L282.273 160.525L336.77 52.6811L352.689 51.1275L298.192 158.972L300.312 174.214L284.394 175.767ZM390.004 165.46L393.12 165.156L390.004 165.46ZM322.548 151.721L327.819 151.207L322.548 151.721ZM347.078 149.327L343.463 112.443L354.743 91.2593L356.376 86.6185L357.018 86.7639L362.997 147.773L347.078 149.327" fill="#0072CE"/>
<path d="M322.543 151.721L362.992 147.773L357.013 86.764L356.371 86.6186L354.738 91.2593L322.543 151.721ZM388.027 145.33L407.062 143.472L409.035 163.602L390 165.46L393.278 198.907L368.243 201.35L364.965 167.903L300.307 174.214L298.188 158.972L352.685 51.127L378.547 48.6033L388.027 145.33Z" fill="#63BAFF"/>
<path d="M298.926 161.823C298.937 161.84 298.736 161.992 298.362 162.252C297.989 162.512 297.442 162.879 296.761 163.323C295.4 164.213 293.498 165.412 291.37 166.688C289.239 167.965 287.286 169.077 285.859 169.859C285.146 170.25 284.566 170.56 284.16 170.767C283.755 170.974 283.526 171.079 283.516 171.062C283.506 171.044 283.715 170.904 284.103 170.666C284.545 170.401 285.099 170.07 285.755 169.677C287.208 168.814 289.111 167.683 291.216 166.433C293.309 165.167 295.204 164.02 296.649 163.146C297.305 162.752 297.857 162.42 298.3 162.155C298.692 161.925 298.915 161.806 298.926 161.823Z" fill="#63BAFF"/>
<path d="M305.727 143.608C305.738 143.626 305.457 143.828 304.938 144.179C304.42 144.529 303.662 145.026 302.718 145.627C300.832 146.831 298.201 148.454 295.274 150.21C292.345 151.965 289.673 153.521 287.721 154.617C286.747 155.166 285.952 155.601 285.399 155.894C284.845 156.185 284.534 156.339 284.524 156.32C284.514 156.302 284.806 156.116 285.342 155.793C285.922 155.447 286.689 154.989 287.616 154.435C289.577 153.264 292.21 151.693 295.121 149.955C298.024 148.208 300.65 146.626 302.607 145.448C303.532 144.891 304.297 144.431 304.876 144.082C305.413 143.761 305.715 143.591 305.727 143.608Z" fill="#63BAFF"/>
<path d="M314.819 126.937C314.831 126.955 314.535 127.159 313.992 127.515C313.448 127.868 312.653 128.37 311.665 128.978C309.689 130.195 306.934 131.836 303.872 133.611C300.806 135.385 298.012 136.958 295.973 138.067C294.954 138.621 294.123 139.061 293.545 139.357C292.967 139.652 292.643 139.806 292.633 139.788C292.623 139.77 292.929 139.582 293.49 139.256C294.094 138.907 294.898 138.444 295.87 137.883C297.919 136.701 300.675 135.112 303.722 133.355C306.761 131.586 309.511 129.987 311.556 128.797C312.526 128.233 313.328 127.767 313.931 127.416C314.493 127.091 314.809 126.92 314.819 126.937Z" fill="#63BAFF"/>
<path d="M362.338 137.967C362.348 137.984 362.146 138.133 361.77 138.385C361.394 138.64 360.844 138.995 360.16 139.428C358.791 140.294 356.881 141.46 354.742 142.7C352.602 143.939 350.639 145.015 349.207 145.772C348.491 146.15 347.909 146.451 347.502 146.65C347.095 146.851 346.866 146.953 346.856 146.934C346.846 146.916 347.056 146.78 347.446 146.549C347.891 146.292 348.446 145.97 349.105 145.588C350.566 144.751 352.478 143.655 354.592 142.443C356.696 141.212 358.598 140.099 360.05 139.249C360.709 138.867 361.265 138.545 361.709 138.287C362.104 138.065 362.326 137.95 362.338 137.967Z" fill="#63BAFF"/>
<path d="M364.924 169.248C364.936 169.265 364.74 169.412 364.377 169.663C364.014 169.914 363.483 170.268 362.822 170.698C361.499 171.556 359.652 172.713 357.582 173.942C355.512 175.171 353.612 176.239 352.225 176.991C351.532 177.366 350.966 177.664 350.573 177.862C350.178 178.06 349.956 178.161 349.946 178.144C349.936 178.126 350.139 177.99 350.515 177.761C350.948 177.504 351.485 177.185 352.122 176.807C353.537 175.975 355.386 174.889 357.431 173.687C359.463 172.467 361.302 171.364 362.71 170.519C363.346 170.141 363.883 169.822 364.316 169.565C364.697 169.344 364.914 169.23 364.924 169.248Z" fill="#63BAFF"/>
<path d="M366.209 180.157C366.221 180.175 366.025 180.322 365.662 180.573C365.3 180.824 364.769 181.177 364.107 181.607C362.784 182.466 360.937 183.623 358.867 184.852C356.797 186.081 354.897 187.149 353.51 187.901C352.817 188.276 352.252 188.574 351.857 188.772C351.463 188.971 351.241 189.071 351.231 189.054C351.221 189.036 351.425 188.901 351.801 188.67C352.233 188.414 352.77 188.095 353.407 187.717C354.822 186.885 356.671 185.799 358.716 184.597C360.748 183.377 362.587 182.274 363.995 181.429C364.631 181.051 365.168 180.732 365.601 180.475C365.983 180.254 366.199 180.14 366.209 180.157Z" fill="#63BAFF"/>
<path d="M367.495 191.067C367.506 191.085 367.31 191.231 366.948 191.483C366.585 191.734 366.054 192.087 365.392 192.517C364.069 193.376 362.223 194.533 360.152 195.762C358.082 196.991 356.182 198.059 354.795 198.81C354.102 199.186 353.537 199.483 353.142 199.682C352.748 199.88 352.526 199.981 352.516 199.964C352.506 199.946 352.71 199.81 353.086 199.58C353.518 199.324 354.055 199.005 354.692 198.627C356.107 197.795 357.956 196.709 360.001 195.507C362.033 194.287 363.872 193.183 365.28 192.339C365.916 191.961 366.453 191.642 366.886 191.385C367.268 191.164 367.484 191.05 367.495 191.067Z" fill="#63BAFF"/>
<path d="M360.998 126.438C361.009 126.456 360.806 126.604 360.43 126.857C360.055 127.111 359.505 127.467 358.82 127.899C357.451 128.766 355.541 129.932 353.402 131.171C351.262 132.41 349.3 133.486 347.867 134.244C347.151 134.622 346.569 134.922 346.162 135.122C345.755 135.322 345.526 135.424 345.516 135.406C345.506 135.388 345.717 135.252 346.106 135.021C346.552 134.763 347.107 134.441 347.766 134.06C349.226 133.222 351.138 132.127 353.252 130.914C355.356 129.683 357.258 128.571 358.71 127.72C359.369 127.338 359.925 127.017 360.369 126.759C360.764 126.536 360.987 126.421 360.998 126.438Z" fill="#63BAFF"/>
<path d="M359.658 114.91C359.669 114.928 359.466 115.076 359.091 115.329C358.715 115.583 358.165 115.939 357.481 116.372C356.111 117.238 354.201 118.404 352.062 119.643C349.922 120.882 347.96 121.958 346.528 122.716C345.812 123.094 345.229 123.394 344.822 123.594C344.415 123.794 344.186 123.896 344.176 123.878C344.166 123.86 344.377 123.724 344.767 123.492C345.212 123.235 345.767 122.913 346.426 122.532C347.887 121.695 349.798 120.598 351.913 119.386C354.016 118.156 355.918 117.042 357.37 116.192C358.03 115.81 358.585 115.489 359.029 115.231C359.424 115.008 359.647 114.893 359.658 114.91Z" fill="#63BAFF"/>
<path d="M358.316 103.382C358.326 103.4 358.134 103.542 357.776 103.784C357.419 104.026 356.895 104.366 356.245 104.78C354.942 105.607 353.124 106.722 351.087 107.902C349.048 109.083 347.175 110.105 345.811 110.824C345.127 111.183 344.572 111.467 344.183 111.657C343.795 111.847 343.577 111.943 343.567 111.925C343.557 111.907 343.758 111.777 344.128 111.555C344.556 111.308 345.084 111.002 345.709 110.64C347.105 109.84 348.925 108.798 350.937 107.646C352.937 106.474 354.746 105.415 356.135 104.601C356.759 104.239 357.288 103.933 357.715 103.685C358.091 103.474 358.305 103.365 358.316 103.382Z" fill="#63BAFF"/>
<path d="M358.09 92.4646C358.129 92.537 356.936 93.2568 355.424 94.0724C353.914 94.8885 352.657 95.4913 352.618 95.4189C352.579 95.347 353.772 94.6273 355.283 93.8112C356.794 92.9956 358.051 92.3927 358.09 92.4646Z" fill="#63BAFF"/>
<path d="M323.819 109.713C323.83 109.731 323.535 109.935 322.991 110.291C322.447 110.644 321.653 111.145 320.664 111.753C318.689 112.97 315.934 114.612 312.871 116.387C309.806 118.162 307.012 119.734 304.973 120.842C303.953 121.398 303.123 121.837 302.545 122.133C301.967 122.428 301.642 122.582 301.633 122.565C301.623 122.546 301.929 122.358 302.49 122.032C303.094 121.683 303.897 121.22 304.87 120.659C306.919 119.477 309.675 117.888 312.722 116.131C315.761 114.363 318.511 112.763 320.556 111.573C321.526 111.009 322.328 110.543 322.931 110.192C323.492 109.867 323.809 109.696 323.819 109.713Z" fill="#63BAFF"/>
<path d="M332.819 92.4897C332.83 92.5068 332.535 92.7116 331.991 93.0669C331.447 93.4205 330.653 93.9218 329.664 94.5298C327.689 95.7469 324.934 97.3877 321.871 99.1637C318.806 100.938 316.012 102.51 313.973 103.619C312.953 104.174 312.123 104.613 311.546 104.909C310.967 105.205 310.642 105.359 310.633 105.34C310.623 105.323 310.929 105.134 311.49 104.808C312.095 104.459 312.897 103.997 313.87 103.435C315.919 102.254 318.675 100.664 321.722 98.907C324.762 97.139 327.511 95.5392 329.556 94.3495C330.527 93.7849 331.328 93.319 331.931 92.9682C332.493 92.6437 332.809 92.472 332.819 92.4897Z" fill="#63BAFF"/>
<path d="M340.968 75.3861C340.979 75.4038 340.683 75.608 340.14 75.9633C339.596 76.3175 338.801 76.8188 337.813 77.4262C335.837 78.6438 333.083 80.2847 330.02 82.0601C326.955 83.8344 324.16 85.4074 322.121 86.5155C321.101 87.0704 320.272 87.5101 319.694 87.8061C319.115 88.101 318.791 88.2556 318.782 88.2373C318.771 88.2191 319.077 88.0309 319.638 87.7046C320.242 87.3562 321.045 86.893 322.018 86.3324C324.067 85.1501 326.824 83.5606 329.87 81.8034C332.91 80.0354 335.659 78.4357 337.704 77.2465C338.675 76.6819 339.476 76.2154 340.079 75.8646C340.641 75.5401 340.957 75.369 340.968 75.3861Z" fill="#63BAFF"/>
<path d="M349.625 58.8254C349.635 58.8425 349.34 59.0473 348.796 59.4026C348.252 59.7562 347.458 60.2575 346.469 60.8655C344.493 62.0826 341.74 63.724 338.676 65.4994C335.611 67.2737 332.817 68.8461 330.777 69.9542C329.758 70.5097 328.928 70.9494 328.35 71.2454C327.772 71.5403 327.447 71.6943 327.438 71.676C327.428 71.6584 327.734 71.4696 328.294 71.1439C328.899 70.7949 329.702 70.3323 330.674 69.7711C332.723 68.5894 335.48 66.9999 338.527 65.2427C341.566 63.4747 344.316 61.8749 346.361 60.6852C347.332 60.1206 348.132 59.6547 348.736 59.3039C349.297 58.9794 349.613 58.8077 349.625 58.8254Z" fill="#63BAFF"/>
<path d="M381.543 77.7325C381.551 77.7382 381.455 77.8814 381.265 78.1494C381.076 78.418 380.797 78.8156 380.381 79.2827C379.572 80.2311 378.273 81.5229 376.386 82.7383C374.505 83.9485 372.009 85.0453 369.072 85.5301C367.606 85.7673 366.034 85.8283 364.423 85.6658C362.811 85.5181 361.179 85.108 359.551 84.5987C356.297 83.5504 353.345 82.1885 350.528 81.3484C347.725 80.4786 345.045 80.2323 342.843 80.469C340.632 80.7017 338.951 81.4471 337.922 82.128C337.413 82.4788 337.03 82.7731 336.796 83.0024C336.554 83.2219 336.422 83.3337 336.414 83.3269C336.407 83.32 336.524 83.194 336.755 82.959C336.977 82.7143 337.351 82.4024 337.858 82.0322C338.878 81.3125 340.578 80.5231 342.819 80.2602C345.05 79.9927 347.769 80.2214 350.606 81.0866C353.452 81.9193 356.413 83.2767 359.641 84.3158C361.256 84.8206 362.867 85.2278 364.453 85.3761C366.036 85.5403 367.584 85.4867 369.029 85.2597C371.925 84.7966 374.399 83.7352 376.273 82.5609C378.154 81.3815 379.464 80.1256 380.294 79.2068C380.721 78.7545 381.013 78.3701 381.217 78.1135C381.422 77.858 381.535 77.7262 381.543 77.7325Z" fill="white"/>
<path d="M369.686 50.9303C369.699 50.9474 369.463 51.1305 369.027 51.4493C368.594 51.7721 367.941 52.2032 367.111 52.7C366.285 53.2013 365.265 53.7403 364.105 54.2793C362.939 54.8051 361.629 55.3241 360.22 55.7689C358.807 56.2035 357.434 56.5218 356.175 56.7522C354.913 56.9678 353.767 57.1041 352.802 57.1617C351.837 57.2244 351.054 57.241 350.513 57.221C349.973 57.2073 349.675 57.1902 349.676 57.1691C349.676 57.1486 349.974 57.1275 350.511 57.1058C351.05 57.0898 351.828 57.0408 352.784 56.9524C353.742 56.8685 354.876 56.7117 356.125 56.4824C357.371 56.24 358.73 55.9167 360.131 55.4855C361.528 55.0446 362.829 54.5382 363.992 54.03C365.149 53.5087 366.171 52.9932 367.006 52.5186C367.844 52.0476 368.511 51.646 368.963 51.3535C369.417 51.0654 369.675 50.9137 369.686 50.9303Z" fill="white"/>
<path d="M338.44 119.335C338.425 119.35 338.218 119.169 337.85 118.836C337.436 118.467 336.91 117.998 336.283 117.437C334.949 116.271 333.058 114.709 330.841 113.166C329.733 112.397 328.624 111.745 327.547 111.308C326.473 110.867 325.437 110.656 324.562 110.613C322.792 110.518 321.767 111.059 321.754 110.991C321.75 110.982 321.81 110.947 321.929 110.89C322.047 110.832 322.228 110.76 322.466 110.683C322.943 110.53 323.667 110.379 324.57 110.403C325.469 110.42 326.542 110.615 327.649 111.054C328.758 111.487 329.892 112.146 331.01 112.922C333.242 114.475 335.122 116.071 336.424 117.281C337.076 117.886 337.586 118.394 337.93 118.753C338.274 119.112 338.454 119.321 338.44 119.335Z" fill="white"/>
<path d="M386.006 129.999C386.013 130.006 385.945 130.075 385.809 130.2C385.67 130.321 385.477 130.514 385.199 130.726C384.658 131.169 383.827 131.759 382.725 132.36C380.545 133.568 377.116 134.707 373.255 134.474C369.393 134.237 366.128 132.691 364.11 131.228C363.089 130.498 362.336 129.812 361.854 129.306C361.603 129.062 361.435 128.847 361.312 128.71C361.192 128.57 361.133 128.493 361.141 128.487C361.16 128.47 361.428 128.747 361.935 129.224C362.439 129.701 363.206 130.356 364.23 131.056C366.256 132.458 369.479 133.945 373.273 134.177C377.065 134.406 380.445 133.321 382.627 132.175C383.729 131.604 384.57 131.047 385.129 130.633C385.689 130.223 385.989 129.979 386.006 129.999Z" fill="white"/>
<path d="M407.583 163.412C407.583 163.412 407.511 163.334 407.383 163.173C407.249 163.003 407.063 162.764 406.822 162.456C406.358 161.804 405.559 160.931 404.48 159.866C404.196 159.615 403.896 159.349 403.581 159.07C403.423 158.93 403.262 158.787 403.097 158.641C402.919 158.51 402.737 158.376 402.551 158.239C402.18 157.964 401.792 157.678 401.389 157.381C400.962 157.119 400.519 156.846 400.06 156.564C398.201 155.482 395.95 154.45 393.324 153.758C390.702 153.076 387.706 152.712 384.528 152.993C381.351 153.257 378.02 154.225 374.891 155.971C371.767 157.742 368.849 160.156 365.737 162.532C364.178 163.718 362.556 164.893 360.796 165.914C359.04 166.933 357.138 167.795 355.104 168.302C353.072 168.83 350.977 168.932 348.948 168.798C346.912 168.663 344.942 168.229 343.055 167.679C339.273 166.568 335.857 164.878 332.66 163.232C329.461 161.582 326.436 159.981 323.475 158.778C320.521 157.577 317.635 156.742 314.934 156.487C312.233 156.237 309.756 156.482 307.675 157.034C305.585 157.565 303.905 158.418 302.664 159.284C301.401 160.134 300.632 161.048 300.095 161.634C299.861 161.946 299.68 162.188 299.55 162.361C299.426 162.524 299.355 162.604 299.355 162.604C299.355 162.604 299.409 162.513 299.525 162.344C299.65 162.166 299.824 161.917 300.048 161.596C300.572 160.995 301.333 160.062 302.597 159.189C303.838 158.302 305.526 157.424 307.633 156.874C309.728 156.301 312.226 156.038 314.954 156.278C317.685 156.522 320.594 157.352 323.569 158.551C326.549 159.749 329.585 161.346 332.786 162.988C335.984 164.627 339.386 166.302 343.138 167.4C345.01 167.943 346.96 168.371 348.969 168.504C350.971 168.634 353.034 168.534 355.031 168.013C357.033 167.515 358.908 166.667 360.647 165.658C362.39 164.649 364.004 163.482 365.56 162.301C368.668 159.933 371.6 157.513 374.756 155.733C375.553 155.306 376.34 154.882 377.164 154.562C377.572 154.395 377.97 154.208 378.379 154.06C378.794 153.93 379.206 153.801 379.615 153.674C381.254 153.16 382.908 152.91 384.508 152.748C387.719 152.474 390.739 152.854 393.377 153.556C396.021 154.266 398.282 155.318 400.145 156.421C400.605 156.709 401.049 156.986 401.476 157.254C401.879 157.557 402.267 157.847 402.638 158.127C402.824 158.266 403.005 158.402 403.183 158.536C403.347 158.685 403.508 158.83 403.665 158.972C403.979 159.256 404.277 159.527 404.56 159.784C405.632 160.866 406.42 161.755 406.87 162.42C407.101 162.736 407.28 162.981 407.408 163.156C407.528 163.323 407.583 163.412 407.583 163.412Z" fill="white"/>
<path d="M393.835 189.423C393.839 189.432 393.744 189.471 393.559 189.538C393.341 189.613 393.072 189.705 392.747 189.816C392.394 189.939 391.958 190.077 391.442 190.199C390.927 190.326 390.346 190.497 389.685 190.604C389.356 190.665 389.013 190.73 388.655 190.797C388.296 190.86 387.917 190.894 387.528 190.946C386.749 191.063 385.91 191.099 385.027 191.155C383.26 191.211 381.312 191.143 379.288 190.864C377.267 190.565 375.377 190.084 373.697 189.534C372.866 189.233 372.07 188.963 371.356 188.633C370.996 188.473 370.643 188.335 370.316 188.173C369.992 188.008 369.68 187.851 369.381 187.699C368.777 187.412 368.268 187.084 367.809 186.818C367.348 186.557 366.969 186.302 366.665 186.086C366.384 185.887 366.152 185.723 365.964 185.591C365.805 185.475 365.726 185.41 365.731 185.402C365.737 185.393 365.828 185.442 365.998 185.542C366.194 185.661 366.435 185.809 366.728 185.988C367.041 186.189 367.426 186.429 367.893 186.675C368.358 186.925 368.87 187.238 369.476 187.512C369.776 187.657 370.088 187.808 370.413 187.965C370.74 188.121 371.094 188.252 371.452 188.406C372.165 188.724 372.957 188.983 373.783 189.275C375.454 189.805 377.328 190.273 379.33 190.57C381.335 190.846 383.265 190.922 385.017 190.882C385.893 190.833 386.726 190.807 387.499 190.701C387.886 190.655 388.263 190.628 388.62 190.57C388.976 190.51 389.319 190.452 389.647 190.397C390.305 190.304 390.886 190.148 391.401 190.038C391.92 189.932 392.357 189.811 392.713 189.705C393.045 189.615 393.319 189.542 393.54 189.481C393.731 189.433 393.832 189.413 393.835 189.423Z" fill="white"/>
<path d="M253.797 162.438C253.792 162.427 253.952 162.333 254.275 162.255C254.595 162.17 255.097 162.144 255.676 162.297C256.254 162.447 256.9 162.767 257.524 163.239C257.836 163.478 258.144 163.736 258.442 164.058C258.732 164.385 258.96 164.773 259.161 165.172C259.957 166.768 260.512 168.283 260.85 169.397C261.019 169.954 261.138 170.41 261.208 170.727C261.279 171.046 261.305 171.224 261.287 171.229C261.243 171.241 261.037 170.554 260.65 169.462C260.264 168.373 259.681 166.882 258.896 165.305C258.699 164.916 258.485 164.551 258.223 164.25C257.956 163.955 257.649 163.688 257.356 163.456C256.763 162.989 256.158 162.666 255.618 162.499C254.516 162.154 253.805 162.514 253.797 162.438Z" fill="#EB996E"/>
<path d="M258.235 177.908C258.215 177.916 258.104 177.69 257.914 177.277C257.697 176.808 257.427 176.223 257.106 175.529C256.427 174.052 255.431 172.036 254.481 169.735C254.015 168.582 253.594 167.48 252.98 166.618C252.382 165.748 251.583 165.181 250.859 164.853C250.131 164.519 249.466 164.469 249.028 164.527C248.585 164.586 248.356 164.705 248.344 164.677C248.34 164.667 248.394 164.634 248.503 164.58C248.61 164.521 248.781 164.459 249.009 164.413C249.462 164.316 250.171 164.336 250.942 164.661C251.706 164.974 252.563 165.556 253.203 166.459C253.856 167.35 254.294 168.478 254.756 169.622C255.702 171.91 256.667 173.942 257.298 175.444C257.617 176.193 257.863 176.805 258.021 177.232C258.179 177.66 258.253 177.901 258.235 177.908Z" fill="#EB996E"/>
<path d="M241.309 169.109C241.3 169.091 241.51 168.975 241.897 168.782C242.343 168.567 242.894 168.303 243.546 167.99C243.899 167.827 244.27 167.643 244.7 167.459C245.136 167.283 245.649 167.198 246.181 167.244C246.71 167.297 247.262 167.483 247.73 167.835C248.201 168.195 248.55 168.677 248.865 169.184C249.178 169.695 249.424 170.223 249.667 170.717C249.911 171.212 250.163 171.681 250.411 172.124C250.909 173.011 251.377 173.805 251.724 174.499C252.075 175.189 252.314 175.771 252.456 176.18C252.6 176.588 252.656 176.822 252.64 176.827C252.589 176.846 252.282 175.94 251.537 174.596C251.171 173.922 250.686 173.145 250.173 172.26C249.916 171.816 249.656 171.345 249.406 170.847C249.156 170.347 248.914 169.833 248.611 169.34C248.31 168.851 247.968 168.387 247.555 168.067C247.135 167.747 246.637 167.572 246.153 167.516C245.668 167.467 245.196 167.536 244.788 167.689C244.379 167.853 243.985 168.033 243.632 168.181C242.965 168.461 242.401 168.697 241.944 168.888C241.543 169.048 241.318 169.129 241.309 169.109Z" fill="#EB996E"/>
<path d="M242.109 166.078C242.118 166.096 241.938 166.209 241.605 166.396C241.272 166.584 240.786 166.847 240.181 167.166C238.973 167.804 237.295 168.667 235.433 169.604C233.571 170.541 231.877 171.374 230.645 171.963C230.029 172.259 229.527 172.492 229.178 172.648C228.828 172.803 228.631 172.88 228.621 172.861C228.612 172.843 228.792 172.731 229.126 172.544C229.459 172.357 229.946 172.095 230.55 171.776C231.758 171.138 233.436 170.276 235.299 169.338C237.161 168.401 238.854 167.568 240.087 166.978C240.702 166.683 241.203 166.449 241.553 166.293C241.902 166.137 242.1 166.06 242.109 166.078Z" fill="#EB996E"/>
<path d="M198.811 142.044C198.796 142.141 196.86 141.603 194.456 141.902C192.048 142.171 190.292 143.146 190.254 143.054C190.237 143.024 190.65 142.742 191.387 142.418C192.122 142.093 193.196 141.753 194.421 141.607C195.646 141.464 196.769 141.544 197.56 141.689C198.354 141.833 198.821 142.011 198.811 142.044Z" fill="#EB996E"/>
<path d="M366.164 227.064C367.14 224.942 369.205 223.355 371.511 222.956C373.816 222.558 376.296 223.359 377.929 225.031C376.817 227.008 374.817 228.326 372.668 229.064C370.135 229.935 367.387 228.915 366.164 227.064Z" fill="#63BAFF"/>
<path d="M362.106 228C362.094 227.964 362.715 227.737 363.749 227.49C364.781 227.238 366.221 226.955 367.818 226.693C369.415 226.429 370.867 226.233 371.92 226.11C372.973 225.986 373.628 225.937 373.634 225.977C373.638 226.018 372.994 226.14 371.949 226.317C370.812 226.504 369.413 226.732 367.866 226.986C366.272 227.248 364.832 227.497 363.793 227.694C362.754 227.889 362.119 228.042 362.106 228Z" fill="#1C2C46"/>
<path d="M161.876 190.959C164.302 192.949 165.629 196.196 165.293 199.311C164.956 202.427 162.965 205.318 160.17 206.748C158.072 201.382 157.266 195.606 161.876 190.959Z" fill="#63BAFF"/>
<path d="M169.828 195.074C170.049 199.123 172.423 202.994 175.936 205.033C179.45 207.072 183.995 207.216 187.631 205.405C183.635 199.108 178.218 193.842 169.828 195.074Z" fill="#63BAFF"/>
<path d="M151.614 175.24C151.622 175.233 151.713 175.332 151.879 175.524C152.062 175.741 152.298 176.023 152.592 176.374C153.203 177.12 154.087 178.197 155.207 179.506C157.436 182.13 160.587 185.7 164.292 189.424C166.152 191.281 167.974 192.998 169.67 194.516C171.379 196.02 172.96 197.326 174.33 198.366C175.713 199.387 176.856 200.188 177.698 200.654C178.524 201.143 179.019 201.347 179.005 201.38C179.001 201.389 178.877 201.341 178.643 201.24C178.411 201.136 178.058 201 177.64 200.756C176.776 200.316 175.61 199.539 174.204 198.535C172.812 197.512 171.212 196.218 169.488 194.722C167.778 193.21 165.945 191.495 164.082 189.634C160.367 185.902 157.235 182.303 155.045 179.641C153.945 178.313 153.084 177.214 152.502 176.446C152.226 176.081 152.004 175.787 151.832 175.561C151.681 175.356 151.606 175.246 151.614 175.24Z" fill="#1C2C46"/>
<path d="M161.434 199.071C161.384 199.058 161.574 198.267 161.737 196.971C161.903 195.677 161.997 193.868 161.793 191.889C161.583 189.908 161.117 188.157 160.688 186.925C160.26 185.691 159.91 184.956 159.957 184.933C159.976 184.925 160.079 185.1 160.249 185.427C160.424 185.752 160.644 186.239 160.886 186.853C161.37 188.079 161.877 189.849 162.089 191.857C162.296 193.866 162.166 195.702 161.946 197.002C161.837 197.652 161.722 198.174 161.618 198.527C161.518 198.882 161.454 199.075 161.434 199.071Z" fill="#1C2C46"/>
<path d="M295.427 52.6397C293.701 50.0197 293.396 46.5246 294.64 43.6495C295.886 40.7735 298.644 38.6031 301.737 38.0661C302.15 43.8127 301.208 49.5679 295.427 52.6397Z" fill="#63BAFF"/>
<path d="M289.055 46.3522C290.044 42.4195 288.924 38.0187 286.173 35.0299C283.423 32.0411 279.124 30.5553 275.114 31.2078C277.064 38.4058 280.676 45.0414 289.055 46.3522Z" fill="#63BAFF"/>
<path d="M300.57 70.6941C300.56 70.6975 300.502 70.5769 300.401 70.3442C300.291 70.0824 300.148 69.7427 299.972 69.3206C299.61 68.4277 299.084 67.1365 298.404 65.5542C297.053 62.3872 295.102 58.044 292.667 53.3885C291.441 51.0635 290.21 48.8839 289.04 46.9312C287.854 44.9881 286.731 43.2726 285.731 41.8726C284.713 40.4875 283.858 39.3844 283.193 38.6894C282.549 37.9771 282.136 37.6357 282.159 37.6089C282.166 37.6007 282.27 37.6839 282.464 37.8494C282.654 38.0175 282.952 38.2526 283.278 38.6095C283.973 39.2855 284.857 40.3733 285.901 41.7491C286.927 43.1389 288.072 44.8487 289.275 46.7889C290.46 48.7394 291.702 50.9206 292.93 53.2506C295.371 57.9161 297.296 62.2816 298.598 65.4735C299.255 67.0683 299.751 68.3724 300.079 69.2787C300.235 69.7092 300.36 70.0556 300.457 70.3228C300.54 70.563 300.579 70.6903 300.57 70.6941Z" fill="#1C2C46"/>
<path d="M298.253 45.0232C298.298 45.0499 297.881 45.7491 297.342 46.9382C296.8 48.1251 296.173 49.8248 295.781 51.776C295.395 53.7299 295.321 55.5399 295.366 56.8442C295.408 58.1494 295.524 58.9553 295.473 58.9627C295.453 58.9655 295.406 58.7678 295.34 58.4044C295.269 58.0427 295.204 57.5122 295.155 56.854C295.056 55.5399 295.097 53.6996 295.489 51.7182C295.887 49.7379 296.555 48.0236 297.151 46.8477C297.448 46.2588 297.712 45.7946 297.917 45.4877C298.117 45.1784 298.236 45.0128 298.253 45.0232Z" fill="#1C2C46"/>
<path d="M413.664 83.6494C412.255 81.7862 411.834 79.2191 412.576 77.0051C413.318 74.7905 415.201 72.9922 417.45 72.3495C418.666 74.2652 418.881 76.6463 418.514 78.8849C418.081 81.5232 415.877 83.4532 413.664 83.6494Z" fill="#63BAFF"/>
<path d="M412.566 87.6613C412.529 87.6544 412.623 87.002 412.895 85.976C413.163 84.9494 413.596 83.5509 414.122 82.0236C414.647 80.4957 415.163 79.1269 415.553 78.1431C415.944 77.1593 416.211 76.5604 416.249 76.5753C416.288 76.5895 416.091 77.214 415.75 78.2155C415.376 79.3026 414.914 80.6406 414.403 82.12C413.879 83.6445 413.415 85.0281 413.097 86.0341C412.776 87.0391 412.61 87.6698 412.566 87.6613Z" fill="#1C2C46"/>
<path d="M388.479 126.084C387.301 121.725 388.407 116.816 391.343 113.381C394.278 109.944 398.959 108.078 403.459 108.548C404.253 112.862 402.912 117.288 400.631 121.037C397.941 125.456 392.591 127.328 388.479 126.084Z" fill="#63BAFF"/>
<path d="M371.594 142.963C371.586 142.956 371.67 142.851 371.837 142.656C372.026 142.443 372.272 142.164 372.577 141.819C373.232 141.102 374.19 140.075 375.389 138.821C377.786 136.311 381.136 132.882 384.861 129.119C388.587 125.356 391.981 121.97 394.45 119.532C395.671 118.337 396.667 117.36 397.386 116.657C397.72 116.34 397.989 116.083 398.196 115.886C398.383 115.713 398.486 115.625 398.492 115.632C398.5 115.639 398.412 115.741 398.238 115.929C398.041 116.136 397.786 116.405 397.469 116.739C396.766 117.459 395.792 118.457 394.6 119.681C392.14 122.172 388.782 125.571 385.072 129.328C381.361 133.081 378.002 136.478 375.54 138.967C374.343 140.185 373.366 141.181 372.661 141.898C372.34 142.227 372.081 142.493 371.881 142.697C371.7 142.878 371.602 142.969 371.594 142.963Z" fill="#1C2C46"/>
<path d="M391.106 126.461C390.2 126.461 389.313 126.337 388.476 126.084C388.462 126.031 388.448 125.978 388.434 125.926C390.796 123.534 392.91 121.393 394.601 119.681C395.794 118.457 396.768 117.459 397.47 116.739C397.787 116.405 398.043 116.136 398.24 115.929C398.413 115.741 398.501 115.639 398.494 115.632C398.494 115.632 398.493 115.632 398.493 115.632C398.479 115.632 398.378 115.72 398.197 115.886C397.99 116.083 397.722 116.34 397.388 116.657C396.669 117.36 395.673 118.337 394.451 119.532C392.782 121.182 390.689 123.264 388.356 125.603C388.124 124.596 388.011 123.564 388.012 122.532C388.015 119.221 389.183 115.904 391.339 113.381C393.974 110.296 398.016 108.476 402.07 108.476C402.532 108.476 402.995 108.5 403.456 108.548C403.612 109.399 403.686 110.255 403.685 111.108C403.684 114.582 402.459 118.028 400.627 121.037C398.485 124.557 394.654 126.461 391.106 126.461Z" fill="#00B1B0"/>
<path d="M388.434 125.926C388.406 125.819 388.38 125.711 388.355 125.604C390.689 123.264 392.782 121.182 394.451 119.532C395.672 118.337 396.669 117.361 397.388 116.657C397.721 116.34 397.99 116.084 398.197 115.886C398.378 115.72 398.479 115.632 398.492 115.632C398.493 115.632 398.494 115.632 398.494 115.632C398.501 115.639 398.413 115.741 398.239 115.929C398.043 116.136 397.787 116.405 397.47 116.739C396.767 117.459 395.794 118.457 394.601 119.681C392.91 121.393 390.795 123.534 388.434 125.926Z" fill="#00355F"/>
<path d="M380.669 127.778C378.199 126.51 376.423 123.981 376.073 121.232C375.723 118.483 376.807 115.591 378.881 113.747C381.171 115.17 382.631 117.606 383.394 120.188C384.293 123.233 382.934 126.429 380.669 127.778Z" fill="#63BAFF"/>
<path d="M380.669 127.778C378.199 126.51 376.423 123.981 376.072 121.232C376.028 120.888 376.007 120.543 376.008 120.197C376.009 117.776 377.066 115.36 378.88 113.747C381.171 115.17 382.631 117.606 383.393 120.188C383.585 120.836 383.674 121.491 383.673 122.134C383.673 124.51 382.451 126.717 380.669 127.778Z" fill="#00B1B0"/>
<path d="M381.564 132.633C381.544 132.639 381.482 132.454 381.388 132.114C381.293 131.774 381.182 131.276 381.063 130.658C380.825 129.423 380.57 127.705 380.343 125.802C380.115 123.898 379.956 122.17 379.86 120.917C379.765 119.665 379.735 118.888 379.776 118.885C379.817 118.881 379.92 119.651 380.07 120.897C380.225 122.223 380.42 123.906 380.638 125.766C380.865 127.666 381.086 129.384 381.272 130.624C381.452 131.863 381.608 132.623 381.564 132.633Z" fill="#1C2C46"/>
<path d="M273.648 193.88C275.391 189.78 279.289 186.666 283.68 185.869C288.07 185.071 292.818 186.614 295.897 189.838C289.415 194.853 281.852 198.276 273.648 193.88Z" fill="#63BAFF"/>
<path d="M281.372 195.902C278.874 195.902 276.295 195.298 273.648 193.88C275.391 189.78 279.289 186.666 283.68 185.869C284.446 185.73 285.225 185.662 286.002 185.662C289.678 185.662 293.356 187.177 295.897 189.839C291.506 193.235 286.618 195.902 281.372 195.902Z" fill="#00B1B0"/>
<path d="M269.985 195.884C269.973 195.866 270.157 195.725 270.499 195.484C270.839 195.24 271.351 194.914 271.998 194.536C273.291 193.78 275.163 192.866 277.34 192.147C279.518 191.432 281.568 191.055 283.058 190.896C283.804 190.815 284.409 190.774 284.828 190.768C285.247 190.758 285.479 190.763 285.48 190.783C285.482 190.834 284.559 190.891 283.086 191.104C281.612 191.316 279.59 191.722 277.433 192.429C275.277 193.141 273.411 194.015 272.101 194.72C270.789 195.424 270.012 195.926 269.985 195.884Z" fill="#1C2C46"/>
<path d="M122.984 119.564C126.106 118.11 129.956 118.334 132.888 120.14C135.819 121.945 137.745 125.279 137.841 128.716C131.526 128.252 125.415 126.316 122.984 119.564Z" fill="#63BAFF"/>
<path d="M137.841 128.716C131.526 128.252 125.415 126.316 122.984 119.564C124.354 118.926 125.864 118.611 127.376 118.611C129.308 118.611 131.242 119.126 132.888 120.14C135.819 121.945 137.745 125.279 137.841 128.716Z" fill="#00B1B0"/>
<path d="M119.844 118.826C119.847 118.806 120.026 118.815 120.348 118.85C120.671 118.881 121.134 118.954 121.702 119.069C122.838 119.295 124.389 119.733 126.013 120.444C127.635 121.158 129.006 122.003 129.941 122.686C130.409 123.027 130.776 123.318 131.018 123.534C131.26 123.748 131.388 123.873 131.375 123.889C131.345 123.927 130.78 123.49 129.821 122.859C128.864 122.226 127.495 121.421 125.893 120.715C124.289 120.014 122.77 119.55 121.655 119.273C120.541 118.995 119.837 118.874 119.844 118.826Z" fill="#1C2C46"/>
<path d="M327.787 186.89C327.416 183.837 328.678 180.633 331.032 178.648C333.387 176.663 336.764 175.957 339.719 176.831C337.566 182.06 334.217 186.707 327.787 186.89Z" fill="#63BAFF"/>
<path d="M326.284 189.348C326.253 189.332 326.489 188.736 326.998 187.832C327.504 186.93 328.308 185.734 329.366 184.553C330.428 183.375 331.531 182.447 332.376 181.845C333.22 181.243 333.788 180.943 333.807 180.973C333.832 181.012 333.306 181.374 332.503 182.013C331.699 182.651 330.635 183.59 329.588 184.752C328.545 185.916 327.726 187.074 327.178 187.941C326.628 188.807 326.326 189.369 326.284 189.348Z" fill="#1C2C46"/>
<path d="M372.76 157.265C371.821 154.335 372.456 150.952 374.394 148.56C376.333 146.168 379.515 144.842 382.583 145.146C381.454 150.685 379.04 155.878 372.76 157.265Z" fill="#63BAFF"/>
<path d="M372.76 157.265C372.471 156.366 372.331 155.425 372.332 154.483C372.333 152.353 373.05 150.218 374.394 148.56C376.149 146.395 378.923 145.102 381.709 145.102C382 145.102 382.292 145.117 382.583 145.146C381.454 150.685 379.04 155.878 372.76 157.265Z" fill="#00B1B0"/>
<path d="M371.748 159.96C371.714 159.952 371.833 159.321 372.163 158.338C372.491 157.357 373.055 156.031 373.872 154.673C374.692 153.316 375.601 152.197 376.317 151.449C377.032 150.697 377.535 150.297 377.558 150.323C377.591 150.356 377.141 150.81 376.473 151.589C375.804 152.366 374.936 153.489 374.127 154.825C373.321 156.165 372.736 157.456 372.361 158.411C371.984 159.364 371.793 159.973 371.748 159.96Z" fill="#1C2C46"/>
<path d="M33.7383 116.479C34.4065 113.476 36.6637 110.873 39.5459 109.783C42.4283 108.692 45.8475 109.146 48.3436 110.951C44.5707 115.168 39.8639 118.439 33.7383 116.479Z" fill="#63BAFF"/>
<path d="M31.501 118.299C31.4763 118.274 31.898 117.789 32.6787 117.106C33.4577 116.423 34.6142 115.562 36.0055 114.8C37.3991 114.04 38.7492 113.531 39.7456 113.244C40.7427 112.955 41.3788 112.861 41.3861 112.895C41.3971 112.941 40.78 113.107 39.8099 113.443C38.8396 113.779 37.5224 114.311 36.1484 115.06C34.7769 115.812 33.6187 116.633 32.8129 117.268C32.0063 117.903 31.5341 118.332 31.501 118.299Z" fill="#1C2C46"/>
</svg>
